<svg width="417" height="222" viewBox="0 0 417 222" fill="none" xmlns="http://www.w3.org/2000/svg">
<path d="M3.5572 93.4377L3.5572 95.9262L10 95.9262L10 97.1178L3.5572 97.1178L3.5572 99.6169L2.51328 99.6169L2.51328 93.4377L3.5572 93.4377ZM4.48513 92.6803L6.37263 91.3305L6.55189 91.2356L6.37263 91.1407L4.48513 89.8016L4.48513 88.5889L7.24784 90.603L10 88.5678L10 89.7805L8.12305 91.1407L7.95433 91.2356L8.12305 91.3305L10 92.6908L10 93.9035L7.24784 91.8683L4.48513 93.8824L4.48513 92.6803ZM6.20392 85.5043C5.75401 85.5043 5.30762 85.4234 4.86474 85.2618C4.41483 85.1001 4.01414 84.8646 3.66265 84.5553C3.30413 84.2389 3.01591 83.8558 2.79798 83.4059C2.58006 82.956 2.4711 82.4463 2.4711 81.8769C2.4711 81.195 2.62224 80.6116 2.92452 80.1265C3.2268 79.6414 3.62047 79.2759 4.10552 79.0299L4.72766 79.9578C4.50271 80.0632 4.3129 80.1898 4.15825 80.3374C4.00359 80.485 3.88057 80.6467 3.78918 80.8224C3.6978 80.9982 3.63453 81.181 3.59938 81.3708C3.5572 81.5606 3.53611 81.7434 3.53611 81.9191C3.53611 82.3128 3.61695 82.6572 3.77864 82.9525C3.93329 83.2477 4.14067 83.4973 4.40078 83.7011C4.66088 83.898 4.95261 84.0491 5.27598 84.1546C5.59935 84.253 5.92272 84.3022 6.24609 84.3022C6.61164 84.3022 6.95962 84.2424 7.29002 84.1229C7.62042 84.0034 7.91215 83.8382 8.16523 83.6273C8.4183 83.4094 8.62216 83.1528 8.77682 82.8576C8.92444 82.5623 8.99825 82.239 8.99825 81.8875C8.99825 81.7047 8.97717 81.5184 8.93499 81.3286C8.88578 81.1318 8.81197 80.9455 8.71355 80.7697C8.6081 80.587 8.47805 80.4218 8.3234 80.2741C8.16874 80.1195 7.98245 79.9929 7.76453 79.8945L8.3234 78.9139C8.60459 79.0334 8.85414 79.2021 9.07207 79.42C9.28296 79.6379 9.46222 79.884 9.60985 80.1581C9.75747 80.4323 9.86995 80.724 9.94728 81.0333C10.0246 81.3356 10.0633 81.6344 10.0633 81.9296C10.0633 82.4569 9.95079 82.9384 9.72584 83.3743C9.50088 83.8101 9.20915 84.1862 8.85063 84.5025C8.48508 84.8189 8.07384 85.0649 7.6169 85.2407C7.15294 85.4164 6.68194 85.5043 6.20392 85.5043ZM10 73.0237L10 74.1836L6.91041 74.1836C6.3902 74.1836 6.01411 74.2679 5.78213 74.4367C5.54311 74.5983 5.42361 74.8409 5.42361 75.1642C5.42361 75.333 5.45524 75.5017 5.51851 75.6704C5.58178 75.8391 5.67317 75.9973 5.79267 76.1449C5.90515 76.2925 6.04223 76.4261 6.20391 76.5456C6.35857 76.6581 6.5308 76.7459 6.7206 76.8092L10 76.8092L10 77.9691L4.48513 77.9691L4.48513 76.9147L5.59232 76.9147C5.21974 76.7038 4.92801 76.398 4.71711 75.9973C4.49919 75.5966 4.39023 75.1537 4.39023 74.6686C4.39023 74.3382 4.44998 74.0676 4.56949 73.8567C4.689 73.6458 4.8542 73.4806 5.06509 73.3611C5.26895 73.2346 5.50797 73.1467 5.78213 73.0975C6.04926 73.0483 6.33397 73.0237 6.63625 73.0237L10 73.0237ZM9.71529 68.6603C9.78559 68.8079 9.86643 69.0118 9.95782 69.2719C10.0422 69.532 10.0844 69.8097 10.0844 70.1049C10.0844 70.2877 10.0598 70.4599 10.0105 70.6216C9.96133 70.7833 9.88752 70.9274 9.78911 71.054C9.69069 71.1735 9.56415 71.2684 9.4095 71.3387C9.24781 71.409 9.05449 71.4441 8.82954 71.4441L5.38143 71.4441L5.38143 72.1717L4.48513 72.1717L4.48513 71.4441L2.67145 71.4441L2.67145 70.2842L4.48513 70.2842L4.48513 69.0821L5.38143 69.0821L5.38143 70.2842L8.46048 70.2842C8.65731 70.2701 8.80142 70.2104 8.89281 70.1049C8.97716 69.9925 9.01934 69.8554 9.01934 69.6937C9.01934 69.532 8.99122 69.3774 8.93499 69.2297C8.87875 69.0821 8.83305 68.9731 8.79791 68.9028L9.71529 68.6603Z" fill="white" fill-opacity="0.7"/>
<path d="M188.834 218.993V211.506H191.977C192.314 211.506 192.623 211.577 192.905 211.717C193.193 211.858 193.439 212.044 193.643 212.276C193.847 212.501 194.005 212.761 194.117 213.057C194.237 213.345 194.296 213.64 194.296 213.942C194.296 214.259 194.24 214.564 194.128 214.86C194.022 215.148 193.871 215.408 193.674 215.64C193.477 215.865 193.238 216.048 192.957 216.188C192.683 216.322 192.377 216.389 192.04 216.389H190.015V218.993H188.834ZM190.015 215.345H191.966C192.135 215.345 192.286 215.31 192.419 215.239C192.56 215.169 192.68 215.071 192.778 214.944C192.876 214.817 192.954 214.67 193.01 214.501C193.066 214.332 193.094 214.146 193.094 213.942C193.094 213.731 193.063 213.542 192.999 213.373C192.936 213.204 192.848 213.06 192.736 212.941C192.623 212.814 192.493 212.719 192.346 212.656C192.205 212.586 192.057 212.55 191.903 212.55H190.015V215.345ZM198.357 214.48C197.907 214.494 197.506 214.6 197.155 214.796C196.81 214.986 196.564 215.26 196.416 215.619V218.993H195.256V213.478H196.332V214.712C196.522 214.332 196.768 214.03 197.07 213.805C197.379 213.573 197.71 213.447 198.061 213.426C198.132 213.426 198.188 213.426 198.23 213.426C198.279 213.426 198.321 213.429 198.357 213.436V214.48ZM199.2 218.993V213.478H200.36V218.993H199.2ZM199.2 212.571V211.296H200.36V212.571H199.2ZM201.396 216.23C201.396 215.844 201.463 215.478 201.596 215.134C201.73 214.789 201.919 214.487 202.165 214.227C202.419 213.967 202.721 213.763 203.072 213.615C203.424 213.461 203.817 213.383 204.253 213.383C204.823 213.383 205.311 213.51 205.719 213.763C206.134 214.009 206.443 214.339 206.647 214.754L205.519 215.113C205.385 214.881 205.206 214.701 204.981 214.575C204.756 214.441 204.506 214.375 204.232 214.375C204 214.375 203.782 214.42 203.578 214.512C203.382 214.603 203.209 214.733 203.062 214.902C202.914 215.064 202.798 215.257 202.714 215.482C202.629 215.707 202.587 215.956 202.587 216.23C202.587 216.498 202.629 216.747 202.714 216.979C202.805 217.204 202.925 217.401 203.072 217.57C203.227 217.738 203.403 217.872 203.6 217.97C203.803 218.062 204.018 218.107 204.243 218.107C204.383 218.107 204.524 218.09 204.665 218.055C204.805 218.013 204.932 217.956 205.044 217.886C205.164 217.816 205.266 217.735 205.35 217.643C205.441 217.552 205.508 217.454 205.55 217.348L206.689 217.686C206.506 218.1 206.201 218.441 205.772 218.708C205.343 218.969 204.837 219.099 204.253 219.099C203.825 219.099 203.434 219.021 203.083 218.867C202.731 218.712 202.429 218.505 202.176 218.244C201.93 217.977 201.737 217.672 201.596 217.327C201.463 216.983 201.396 216.617 201.396 216.23ZM210.092 219.099C209.663 219.099 209.273 219.025 208.922 218.877C208.57 218.723 208.268 218.515 208.015 218.255C207.769 217.995 207.575 217.693 207.435 217.348C207.301 217.004 207.234 216.638 207.234 216.252C207.234 215.865 207.301 215.499 207.435 215.155C207.575 214.803 207.769 214.498 208.015 214.238C208.268 213.97 208.57 213.763 208.922 213.615C209.273 213.461 209.667 213.383 210.103 213.383C210.531 213.383 210.918 213.461 211.262 213.615C211.614 213.77 211.913 213.977 212.159 214.238C212.405 214.491 212.591 214.789 212.718 215.134C212.851 215.471 212.918 215.826 212.918 216.199C212.918 216.283 212.914 216.364 212.907 216.441C212.9 216.512 212.893 216.571 212.886 216.621H208.468C208.489 216.867 208.545 217.088 208.637 217.285C208.735 217.482 208.858 217.654 209.006 217.802C209.161 217.942 209.333 218.051 209.523 218.129C209.719 218.206 209.923 218.244 210.134 218.244C210.289 218.244 210.44 218.227 210.588 218.192C210.742 218.15 210.883 218.093 211.009 218.023C211.136 217.946 211.248 217.854 211.347 217.749C211.445 217.643 211.523 217.527 211.579 217.401L212.57 217.686C212.38 218.1 212.064 218.441 211.621 218.708C211.185 218.969 210.676 219.099 210.092 219.099ZM211.769 215.819C211.748 215.587 211.688 215.373 211.589 215.176C211.498 214.979 211.378 214.814 211.231 214.68C211.083 214.54 210.911 214.431 210.714 214.354C210.517 214.276 210.31 214.238 210.092 214.238C209.874 214.238 209.667 214.276 209.47 214.354C209.28 214.431 209.111 214.54 208.964 214.68C208.816 214.814 208.697 214.979 208.605 215.176C208.514 215.373 208.458 215.587 208.437 215.819H211.769ZM219.738 217.981C220.132 217.981 220.459 217.904 220.719 217.749C220.979 217.594 221.186 217.394 221.341 217.148C221.503 216.895 221.615 216.61 221.678 216.294C221.749 215.97 221.784 215.64 221.784 215.303V211.506H222.975V215.303C222.975 215.816 222.916 216.301 222.796 216.758C222.677 217.208 222.487 217.605 222.227 217.949C221.967 218.287 221.629 218.554 221.215 218.751C220.807 218.947 220.315 219.046 219.738 219.046C219.141 219.046 218.635 218.944 218.22 218.74C217.812 218.529 217.482 218.252 217.229 217.907C216.976 217.556 216.793 217.155 216.68 216.705C216.568 216.255 216.512 215.788 216.512 215.303V211.506H217.693V215.303C217.693 215.647 217.724 215.981 217.788 216.304C217.858 216.621 217.97 216.905 218.125 217.158C218.287 217.404 218.498 217.605 218.758 217.759C219.025 217.907 219.352 217.981 219.738 217.981ZM228.975 213.267C228.905 213.19 228.803 213.109 228.669 213.025C228.536 212.933 228.377 212.849 228.195 212.772C228.019 212.694 227.822 212.631 227.604 212.582C227.393 212.533 227.175 212.508 226.95 212.508C226.451 212.508 226.082 212.6 225.843 212.782C225.611 212.965 225.495 213.218 225.495 213.542C225.495 213.724 225.53 213.875 225.601 213.995C225.678 214.107 225.794 214.209 225.949 214.301C226.103 214.385 226.297 214.462 226.529 214.533C226.761 214.596 227.031 214.666 227.34 214.744C227.72 214.835 228.061 214.937 228.363 215.049C228.673 215.162 228.933 215.299 229.144 215.461C229.355 215.622 229.516 215.823 229.629 216.062C229.748 216.294 229.808 216.578 229.808 216.916C229.808 217.295 229.734 217.622 229.587 217.897C229.446 218.171 229.249 218.396 228.996 218.571C228.75 218.74 228.462 218.867 228.131 218.951C227.801 219.028 227.446 219.067 227.066 219.067C226.497 219.067 225.945 218.983 225.411 218.814C224.884 218.638 224.406 218.385 223.977 218.055L224.515 217.042C224.606 217.134 224.736 217.236 224.905 217.348C225.08 217.461 225.281 217.566 225.506 217.665C225.738 217.756 225.987 217.837 226.254 217.907C226.522 217.97 226.799 218.002 227.087 218.002C227.551 218.002 227.91 217.921 228.163 217.759C228.416 217.598 228.543 217.359 228.543 217.042C228.543 216.853 228.493 216.694 228.395 216.568C228.304 216.441 228.17 216.332 227.994 216.241C227.819 216.143 227.604 216.055 227.351 215.977C227.098 215.9 226.81 215.819 226.486 215.735C226.114 215.636 225.787 215.535 225.506 215.429C225.232 215.317 225.003 215.183 224.82 215.028C224.638 214.874 224.497 214.694 224.399 214.491C224.307 214.28 224.261 214.027 224.261 213.731C224.261 213.366 224.332 213.042 224.472 212.761C224.613 212.473 224.803 212.234 225.042 212.044C225.288 211.847 225.576 211.7 225.906 211.601C226.237 211.503 226.595 211.454 226.982 211.454C227.488 211.454 227.956 211.535 228.384 211.696C228.813 211.858 229.189 212.058 229.513 212.297L228.975 213.267ZM230.992 218.993V211.506H233.65C234.254 211.506 234.781 211.605 235.231 211.802C235.688 211.999 236.068 212.266 236.37 212.603C236.68 212.941 236.911 213.338 237.066 213.795C237.221 214.245 237.298 214.726 237.298 215.239C237.298 215.809 237.21 216.325 237.035 216.789C236.866 217.246 236.623 217.64 236.307 217.97C235.991 218.294 235.607 218.547 235.158 218.73C234.708 218.905 234.205 218.993 233.65 218.993H230.992ZM236.096 215.239C236.096 214.846 236.04 214.484 235.927 214.153C235.822 213.823 235.664 213.542 235.453 213.31C235.242 213.071 234.985 212.884 234.683 212.751C234.381 212.617 234.036 212.55 233.65 212.55H232.173V217.949H233.65C234.043 217.949 234.391 217.882 234.694 217.749C235.003 217.608 235.259 217.418 235.463 217.179C235.674 216.933 235.832 216.645 235.938 216.315C236.043 215.984 236.096 215.626 236.096 215.239Z" fill="white" fill-opacity="0.7"/>
<path d="M101.095 189.136C101.095 189.599 101.025 190.028 100.884 190.422C100.75 190.809 100.561 191.146 100.315 191.434C100.076 191.715 99.7908 191.937 99.4604 192.099C99.1371 192.253 98.7821 192.331 98.3954 192.331C98.0088 192.331 97.6503 192.253 97.3199 192.099C96.9895 191.937 96.7048 191.715 96.4657 191.434C96.2267 191.146 96.0369 190.809 95.8963 190.422C95.7628 190.028 95.696 189.599 95.696 189.136C95.696 188.672 95.7628 188.246 95.8963 187.86C96.0369 187.466 96.2267 187.129 96.4657 186.847C96.7048 186.559 96.9895 186.334 97.3199 186.172C97.6503 186.011 98.0088 185.93 98.3954 185.93C98.7821 185.93 99.1371 186.011 99.4604 186.172C99.7908 186.334 100.076 186.559 100.315 186.847C100.561 187.129 100.75 187.466 100.884 187.86C101.025 188.246 101.095 188.672 101.095 189.136ZM99.9139 189.136C99.9139 188.819 99.8752 188.531 99.7979 188.271C99.7276 188.011 99.6221 187.786 99.4815 187.596C99.348 187.406 99.1863 187.262 98.9965 187.164C98.8137 187.058 98.6133 187.005 98.3954 187.005C98.1634 187.005 97.9525 187.058 97.7627 187.164C97.58 187.262 97.4183 187.406 97.2777 187.596C97.1441 187.786 97.0387 188.011 96.9613 188.271C96.891 188.531 96.8559 188.819 96.8559 189.136C96.8559 189.452 96.891 189.74 96.9613 190C97.0387 190.26 97.1441 190.485 97.2777 190.675C97.4183 190.858 97.58 191.002 97.7627 191.107C97.9525 191.206 98.1634 191.255 98.3954 191.255C98.6133 191.255 98.8137 191.206 98.9965 191.107C99.1863 191.002 99.348 190.858 99.4815 190.675C99.6221 190.485 99.7276 190.26 99.7979 190C99.8752 189.74 99.9139 189.452 99.9139 189.136Z" fill="white" fill-opacity="0.7"/>
<path d="M133.772 188.882C134.124 188.882 134.447 188.942 134.742 189.062C135.045 189.181 135.305 189.346 135.523 189.557C135.748 189.768 135.92 190.021 136.039 190.317C136.166 190.612 136.229 190.935 136.229 191.287C136.229 191.659 136.159 192 136.018 192.309C135.885 192.619 135.695 192.882 135.449 193.1C135.21 193.325 134.925 193.497 134.595 193.617C134.264 193.737 133.909 193.796 133.53 193.796C132.989 193.796 132.503 193.673 132.075 193.427C131.646 193.188 131.319 192.861 131.094 192.447L131.79 191.782C131.987 192.077 132.24 192.316 132.549 192.499C132.858 192.682 133.189 192.773 133.54 192.773C133.976 192.773 134.335 192.64 134.616 192.373C134.897 192.106 135.038 191.751 135.038 191.308C135.038 191.097 134.999 190.907 134.922 190.738C134.851 190.563 134.753 190.415 134.626 190.295C134.5 190.169 134.349 190.07 134.173 190C134.004 189.93 133.818 189.895 133.614 189.895C133.347 189.895 133.097 189.954 132.865 190.074C132.633 190.186 132.444 190.355 132.296 190.58H131.273C131.28 190.552 131.294 190.468 131.315 190.327C131.344 190.186 131.379 190.011 131.421 189.8C131.463 189.589 131.509 189.353 131.558 189.093C131.607 188.833 131.66 188.57 131.716 188.302C131.843 187.677 131.98 186.977 132.127 186.204H135.786V187.269H132.971L132.591 189.315C132.711 189.181 132.869 189.076 133.066 188.998C133.27 188.921 133.505 188.882 133.772 188.882ZM142.512 189.136C142.512 189.599 142.441 190.028 142.301 190.422C142.167 190.809 141.977 191.146 141.731 191.434C141.492 191.715 141.208 191.937 140.877 192.099C140.554 192.253 140.199 192.331 139.812 192.331C139.425 192.331 139.067 192.253 138.737 192.099C138.406 191.937 138.121 191.715 137.882 191.434C137.643 191.146 137.454 190.809 137.313 190.422C137.179 190.028 137.113 189.599 137.113 189.136C137.113 188.672 137.179 188.246 137.313 187.86C137.454 187.466 137.643 187.129 137.882 186.847C138.121 186.559 138.406 186.334 138.737 186.172C139.067 186.011 139.425 185.93 139.812 185.93C140.199 185.93 140.554 186.011 140.877 186.172C141.208 186.334 141.492 186.559 141.731 186.847C141.977 187.129 142.167 187.466 142.301 187.86C142.441 188.246 142.512 188.672 142.512 189.136ZM141.331 189.136C141.331 188.819 141.292 188.531 141.215 188.271C141.144 188.011 141.039 187.786 140.898 187.596C140.765 187.406 140.603 187.262 140.413 187.164C140.23 187.058 140.03 187.005 139.812 187.005C139.58 187.005 139.369 187.058 139.179 187.164C138.997 187.262 138.835 187.406 138.694 187.596C138.561 187.786 138.455 188.011 138.378 188.271C138.308 188.531 138.273 188.819 138.273 189.136C138.273 189.452 138.308 189.74 138.378 190C138.455 190.26 138.561 190.485 138.694 190.675C138.835 190.858 138.997 191.002 139.179 191.107C139.369 191.206 139.58 191.255 139.812 191.255C140.03 191.255 140.23 191.206 140.413 191.107C140.603 191.002 140.765 190.858 140.898 190.675C141.039 190.485 141.144 190.26 141.215 190C141.292 189.74 141.331 189.452 141.331 189.136ZM148.989 189.136C148.989 189.599 148.918 190.028 148.778 190.422C148.644 190.809 148.454 191.146 148.208 191.434C147.969 191.715 147.685 191.937 147.354 192.099C147.031 192.253 146.676 192.331 146.289 192.331C145.903 192.331 145.544 192.253 145.214 192.099C144.883 191.937 144.599 191.715 144.36 191.434C144.121 191.146 143.931 190.809 143.79 190.422C143.657 190.028 143.59 189.599 143.59 189.136C143.59 188.672 143.657 188.246 143.79 187.86C143.931 187.466 144.121 187.129 144.36 186.847C144.599 186.559 144.883 186.334 145.214 186.172C145.544 186.011 145.903 185.93 146.289 185.93C146.676 185.93 147.031 186.011 147.354 186.172C147.685 186.334 147.969 186.559 148.208 186.847C148.454 187.129 148.644 187.466 148.778 187.86C148.918 188.246 148.989 188.672 148.989 189.136ZM147.808 189.136C147.808 188.819 147.769 188.531 147.692 188.271C147.621 188.011 147.516 187.786 147.375 187.596C147.242 187.406 147.08 187.262 146.89 187.164C146.708 187.058 146.507 187.005 146.289 187.005C146.057 187.005 145.846 187.058 145.657 187.164C145.474 187.262 145.312 187.406 145.172 187.596C145.038 187.786 144.933 188.011 144.855 188.271C144.785 188.531 144.75 188.819 144.75 189.136C144.75 189.452 144.785 189.74 144.855 190C144.933 190.26 145.038 190.485 145.172 190.675C145.312 190.858 145.474 191.002 145.657 191.107C145.846 191.206 146.057 191.255 146.289 191.255C146.507 191.255 146.708 191.206 146.89 191.107C147.08 191.002 147.242 190.858 147.375 190.675C147.516 190.485 147.621 190.26 147.692 190C147.769 189.74 147.808 189.452 147.808 189.136ZM155.466 189.136C155.466 189.599 155.396 190.028 155.255 190.422C155.121 190.809 154.932 191.146 154.686 191.434C154.447 191.715 154.162 191.937 153.831 192.099C153.508 192.253 153.153 192.331 152.766 192.331C152.38 192.331 152.021 192.253 151.691 192.099C151.36 191.937 151.076 191.715 150.837 191.434C150.598 191.146 150.408 190.809 150.267 190.422C150.134 190.028 150.067 189.599 150.067 189.136C150.067 188.672 150.134 188.246 150.267 187.86C150.408 187.466 150.598 187.129 150.837 186.847C151.076 186.559 151.36 186.334 151.691 186.172C152.021 186.011 152.38 185.93 152.766 185.93C153.153 185.93 153.508 186.011 153.831 186.172C154.162 186.334 154.447 186.559 154.686 186.847C154.932 187.129 155.121 187.466 155.255 187.86C155.396 188.246 155.466 188.672 155.466 189.136ZM154.285 189.136C154.285 188.819 154.246 188.531 154.169 188.271C154.099 188.011 153.993 187.786 153.853 187.596C153.719 187.406 153.557 187.262 153.367 187.164C153.185 187.058 152.984 187.005 152.766 187.005C152.534 187.005 152.324 187.058 152.134 187.164C151.951 187.262 151.789 187.406 151.649 187.596C151.515 187.786 151.41 188.011 151.332 188.271C151.262 188.531 151.227 188.819 151.227 189.136C151.227 189.452 151.262 189.74 151.332 190C151.41 190.26 151.515 190.485 151.649 190.675C151.789 190.858 151.951 191.002 152.134 191.107C152.324 191.206 152.534 191.255 152.766 191.255C152.984 191.255 153.185 191.206 153.367 191.107C153.557 191.002 153.719 190.858 153.853 190.675C153.993 190.485 154.099 190.26 154.169 190C154.246 189.74 154.285 189.452 154.285 189.136Z" fill="white" fill-opacity="0.7"/>
<path d="M177.416 191.181V192.225H173.388V191.181H174.885V187.501C174.822 187.585 174.723 187.673 174.59 187.765C174.456 187.856 174.308 187.94 174.147 188.018C173.985 188.095 173.816 188.162 173.641 188.218C173.465 188.267 173.31 188.292 173.177 188.292V187.206C173.317 187.206 173.479 187.164 173.662 187.079C173.852 186.995 174.031 186.897 174.199 186.784C174.375 186.672 174.526 186.559 174.653 186.447C174.786 186.334 174.864 186.253 174.885 186.204H176.076V191.181H177.416ZM183.602 189.136C183.602 189.599 183.532 190.028 183.391 190.422C183.258 190.809 183.068 191.146 182.822 191.434C182.583 191.715 182.298 191.937 181.968 192.099C181.644 192.253 181.289 192.331 180.903 192.331C180.516 192.331 180.158 192.253 179.827 192.099C179.497 191.937 179.212 191.715 178.973 191.434C178.734 191.146 178.544 190.809 178.404 190.422C178.27 190.028 178.203 189.599 178.203 189.136C178.203 188.672 178.27 188.246 178.404 187.86C178.544 187.466 178.734 187.129 178.973 186.847C179.212 186.559 179.497 186.334 179.827 186.172C180.158 186.011 180.516 185.93 180.903 185.93C181.289 185.93 181.644 186.011 181.968 186.172C182.298 186.334 182.583 186.559 182.822 186.847C183.068 187.129 183.258 187.466 183.391 187.86C183.532 188.246 183.602 188.672 183.602 189.136ZM182.421 189.136C182.421 188.819 182.383 188.531 182.305 188.271C182.235 188.011 182.129 187.786 181.989 187.596C181.855 187.406 181.694 187.262 181.504 187.164C181.321 187.058 181.121 187.005 180.903 187.005C180.671 187.005 180.46 187.058 180.27 187.164C180.087 187.262 179.926 187.406 179.785 187.596C179.651 187.786 179.546 188.011 179.469 188.271C179.398 188.531 179.363 188.819 179.363 189.136C179.363 189.452 179.398 189.74 179.469 190C179.546 190.26 179.651 190.485 179.785 190.675C179.926 190.858 180.087 191.002 180.27 191.107C180.46 191.206 180.671 191.255 180.903 191.255C181.121 191.255 181.321 191.206 181.504 191.107C181.694 191.002 181.855 190.858 181.989 190.675C182.129 190.485 182.235 190.26 182.305 190C182.383 189.74 182.421 189.452 182.421 189.136ZM190.079 189.136C190.079 189.599 190.009 190.028 189.868 190.422C189.735 190.809 189.545 191.146 189.299 191.434C189.06 191.715 188.775 191.937 188.445 192.099C188.122 192.253 187.767 192.331 187.38 192.331C186.993 192.331 186.635 192.253 186.304 192.099C185.974 191.937 185.689 191.715 185.45 191.434C185.211 191.146 185.021 190.809 184.881 190.422C184.747 190.028 184.68 189.599 184.68 189.136C184.68 188.672 184.747 188.246 184.881 187.86C185.021 187.466 185.211 187.129 185.45 186.847C185.689 186.559 185.974 186.334 186.304 186.172C186.635 186.011 186.993 185.93 187.38 185.93C187.767 185.93 188.122 186.011 188.445 186.172C188.775 186.334 189.06 186.559 189.299 186.847C189.545 187.129 189.735 187.466 189.868 187.86C190.009 188.246 190.079 188.672 190.079 189.136ZM188.898 189.136C188.898 188.819 188.86 188.531 188.782 188.271C188.712 188.011 188.607 187.786 188.466 187.596C188.332 187.406 188.171 187.262 187.981 187.164C187.798 187.058 187.598 187.005 187.38 187.005C187.148 187.005 186.937 187.058 186.747 187.164C186.564 187.262 186.403 187.406 186.262 187.596C186.129 187.786 186.023 188.011 185.946 188.271C185.876 188.531 185.84 188.819 185.84 189.136C185.84 189.452 185.876 189.74 185.946 190C186.023 190.26 186.129 190.485 186.262 190.675C186.403 190.858 186.564 191.002 186.747 191.107C186.937 191.206 187.148 191.255 187.38 191.255C187.598 191.255 187.798 191.206 187.981 191.107C188.171 191.002 188.332 190.858 188.466 190.675C188.607 190.485 188.712 190.26 188.782 190C188.86 189.74 188.898 189.452 188.898 189.136ZM196.557 189.136C196.557 189.599 196.486 190.028 196.346 190.422C196.212 190.809 196.022 191.146 195.776 191.434C195.537 191.715 195.252 191.937 194.922 192.099C194.599 192.253 194.244 192.331 193.857 192.331C193.47 192.331 193.112 192.253 192.782 192.099C192.451 191.937 192.166 191.715 191.927 191.434C191.688 191.146 191.499 190.809 191.358 190.422C191.224 190.028 191.158 189.599 191.158 189.136C191.158 188.672 191.224 188.246 191.358 187.86C191.499 187.466 191.688 187.129 191.927 186.847C192.166 186.559 192.451 186.334 192.782 186.172C193.112 186.011 193.47 185.93 193.857 185.93C194.244 185.93 194.599 186.011 194.922 186.172C195.252 186.334 195.537 186.559 195.776 186.847C196.022 187.129 196.212 187.466 196.346 187.86C196.486 188.246 196.557 188.672 196.557 189.136ZM195.376 189.136C195.376 188.819 195.337 188.531 195.26 188.271C195.189 188.011 195.084 187.786 194.943 187.596C194.81 187.406 194.648 187.262 194.458 187.164C194.275 187.058 194.075 187.005 193.857 187.005C193.625 187.005 193.414 187.058 193.224 187.164C193.042 187.262 192.88 187.406 192.739 187.596C192.606 187.786 192.5 188.011 192.423 188.271C192.353 188.531 192.318 188.819 192.318 189.136C192.318 189.452 192.353 189.74 192.423 190C192.5 190.26 192.606 190.485 192.739 190.675C192.88 190.858 193.042 191.002 193.224 191.107C193.414 191.206 193.625 191.255 193.857 191.255C194.075 191.255 194.275 191.206 194.458 191.107C194.648 191.002 194.81 190.858 194.943 190.675C195.084 190.485 195.189 190.26 195.26 190C195.337 189.74 195.376 189.452 195.376 189.136ZM203.034 189.136C203.034 189.599 202.963 190.028 202.823 190.422C202.689 190.809 202.499 191.146 202.253 191.434C202.014 191.715 201.73 191.937 201.399 192.099C201.076 192.253 200.721 192.331 200.334 192.331C199.948 192.331 199.589 192.253 199.259 192.099C198.928 191.937 198.644 191.715 198.405 191.434C198.166 191.146 197.976 190.809 197.835 190.422C197.702 190.028 197.635 189.599 197.635 189.136C197.635 188.672 197.702 188.246 197.835 187.86C197.976 187.466 198.166 187.129 198.405 186.847C198.644 186.559 198.928 186.334 199.259 186.172C199.589 186.011 199.948 185.93 200.334 185.93C200.721 185.93 201.076 186.011 201.399 186.172C201.73 186.334 202.014 186.559 202.253 186.847C202.499 187.129 202.689 187.466 202.823 187.86C202.963 188.246 203.034 188.672 203.034 189.136ZM201.853 189.136C201.853 188.819 201.814 188.531 201.737 188.271C201.666 188.011 201.561 187.786 201.42 187.596C201.287 187.406 201.125 187.262 200.935 187.164C200.753 187.058 200.552 187.005 200.334 187.005C200.102 187.005 199.891 187.058 199.702 187.164C199.519 187.262 199.357 187.406 199.216 187.596C199.083 187.786 198.977 188.011 198.9 188.271C198.83 188.531 198.795 188.819 198.795 189.136C198.795 189.452 198.83 189.74 198.9 190C198.977 190.26 199.083 190.485 199.216 190.675C199.357 190.858 199.519 191.002 199.702 191.107C199.891 191.206 200.102 191.255 200.334 191.255C200.552 191.255 200.753 191.206 200.935 191.107C201.125 191.002 201.287 190.858 201.42 190.675C201.561 190.485 201.666 190.26 201.737 190C201.814 189.74 201.853 189.452 201.853 189.136Z" fill="white" fill-opacity="0.7"/>
<path d="M217.713 191.057V192.101H213.685V191.057H215.183V187.377C215.119 187.462 215.021 187.549 214.887 187.641C214.754 187.732 214.606 187.817 214.445 187.894C214.283 187.971 214.114 188.038 213.938 188.094C213.763 188.143 213.608 188.168 213.475 188.168V187.082C213.615 187.082 213.777 187.04 213.96 186.955C214.149 186.871 214.329 186.773 214.497 186.66C214.673 186.548 214.824 186.435 214.951 186.323C215.084 186.21 215.162 186.129 215.183 186.08H216.374V191.057H217.713ZM220.969 188.759C221.32 188.759 221.644 188.818 221.939 188.938C222.241 189.057 222.501 189.222 222.719 189.433C222.944 189.644 223.116 189.897 223.236 190.193C223.362 190.488 223.426 190.811 223.426 191.163C223.426 191.535 223.355 191.876 223.215 192.186C223.081 192.495 222.891 192.758 222.645 192.976C222.406 193.201 222.122 193.374 221.791 193.493C221.461 193.613 221.106 193.672 220.726 193.672C220.185 193.672 219.7 193.549 219.271 193.303C218.842 193.064 218.515 192.737 218.29 192.323L218.986 191.658C219.183 191.954 219.436 192.193 219.745 192.375C220.055 192.558 220.385 192.65 220.737 192.65C221.173 192.65 221.531 192.516 221.812 192.249C222.093 191.982 222.234 191.627 222.234 191.184C222.234 190.973 222.195 190.783 222.118 190.614C222.048 190.439 221.949 190.291 221.823 190.172C221.696 190.045 221.545 189.947 221.369 189.876C221.201 189.806 221.014 189.771 220.81 189.771C220.543 189.771 220.294 189.831 220.062 189.95C219.83 190.063 219.64 190.231 219.492 190.456H218.47C218.477 190.428 218.491 190.344 218.512 190.203C218.54 190.063 218.575 189.887 218.617 189.676C218.659 189.465 218.705 189.23 218.754 188.969C218.803 188.709 218.856 188.446 218.912 188.179C219.039 187.553 219.176 186.853 219.324 186.08H222.983V187.145H220.167L219.788 189.191C219.907 189.057 220.065 188.952 220.262 188.875C220.466 188.797 220.702 188.759 220.969 188.759ZM229.708 189.012C229.708 189.476 229.638 189.904 229.497 190.298C229.363 190.685 229.174 191.022 228.928 191.31C228.689 191.592 228.404 191.813 228.073 191.975C227.75 192.129 227.395 192.207 227.008 192.207C226.622 192.207 226.263 192.129 225.933 191.975C225.602 191.813 225.318 191.592 225.079 191.31C224.84 191.022 224.65 190.685 224.509 190.298C224.376 189.904 224.309 189.476 224.309 189.012C224.309 188.548 224.376 188.122 224.509 187.736C224.65 187.342 224.84 187.005 225.079 186.723C225.318 186.435 225.602 186.21 225.933 186.049C226.263 185.887 226.622 185.806 227.008 185.806C227.395 185.806 227.75 185.887 228.073 186.049C228.404 186.21 228.689 186.435 228.928 186.723C229.174 187.005 229.363 187.342 229.497 187.736C229.638 188.122 229.708 188.548 229.708 189.012ZM228.527 189.012C228.527 188.695 228.488 188.407 228.411 188.147C228.341 187.887 228.235 187.662 228.095 187.472C227.961 187.282 227.799 187.138 227.609 187.04C227.427 186.934 227.226 186.882 227.008 186.882C226.776 186.882 226.566 186.934 226.376 187.04C226.193 187.138 226.031 187.282 225.891 187.472C225.757 187.662 225.652 187.887 225.574 188.147C225.504 188.407 225.469 188.695 225.469 189.012C225.469 189.328 225.504 189.616 225.574 189.876C225.652 190.136 225.757 190.361 225.891 190.551C226.031 190.734 226.193 190.878 226.376 190.983C226.566 191.082 226.776 191.131 227.008 191.131C227.226 191.131 227.427 191.082 227.609 190.983C227.799 190.878 227.961 190.734 228.095 190.551C228.235 190.361 228.341 190.136 228.411 189.876C228.488 189.616 228.527 189.328 228.527 189.012ZM236.185 189.012C236.185 189.476 236.115 189.904 235.974 190.298C235.841 190.685 235.651 191.022 235.405 191.31C235.166 191.592 234.881 191.813 234.551 191.975C234.227 192.129 233.872 192.207 233.486 192.207C233.099 192.207 232.74 192.129 232.41 191.975C232.08 191.813 231.795 191.592 231.556 191.31C231.317 191.022 231.127 190.685 230.987 190.298C230.853 189.904 230.786 189.476 230.786 189.012C230.786 188.548 230.853 188.122 230.987 187.736C231.127 187.342 231.317 187.005 231.556 186.723C231.795 186.435 232.08 186.21 232.41 186.049C232.74 185.887 233.099 185.806 233.486 185.806C233.872 185.806 234.227 185.887 234.551 186.049C234.881 186.21 235.166 186.435 235.405 186.723C235.651 187.005 235.841 187.342 235.974 187.736C236.115 188.122 236.185 188.548 236.185 189.012ZM235.004 189.012C235.004 188.695 234.965 188.407 234.888 188.147C234.818 187.887 234.712 187.662 234.572 187.472C234.438 187.282 234.276 187.138 234.087 187.04C233.904 186.934 233.704 186.882 233.486 186.882C233.254 186.882 233.043 186.934 232.853 187.04C232.67 187.138 232.508 187.282 232.368 187.472C232.234 187.662 232.129 187.887 232.052 188.147C231.981 188.407 231.946 188.695 231.946 189.012C231.946 189.328 231.981 189.616 232.052 189.876C232.129 190.136 232.234 190.361 232.368 190.551C232.508 190.734 232.67 190.878 232.853 190.983C233.043 191.082 233.254 191.131 233.486 191.131C233.704 191.131 233.904 191.082 234.087 190.983C234.276 190.878 234.438 190.734 234.572 190.551C234.712 190.361 234.818 190.136 234.888 189.876C234.965 189.616 235.004 189.328 235.004 189.012ZM242.662 189.012C242.662 189.476 242.592 189.904 242.451 190.298C242.318 190.685 242.128 191.022 241.882 191.31C241.643 191.592 241.358 191.813 241.028 191.975C240.704 192.129 240.349 192.207 239.963 192.207C239.576 192.207 239.218 192.129 238.887 191.975C238.557 191.813 238.272 191.592 238.033 191.31C237.794 191.022 237.604 190.685 237.464 190.298C237.33 189.904 237.263 189.476 237.263 189.012C237.263 188.548 237.33 188.122 237.464 187.736C237.604 187.342 237.794 187.005 238.033 186.723C238.272 186.435 238.557 186.21 238.887 186.049C239.218 185.887 239.576 185.806 239.963 185.806C240.349 185.806 240.704 185.887 241.028 186.049C241.358 186.21 241.643 186.435 241.882 186.723C242.128 187.005 242.318 187.342 242.451 187.736C242.592 188.122 242.662 188.548 242.662 189.012ZM241.481 189.012C241.481 188.695 241.443 188.407 241.365 188.147C241.295 187.887 241.189 187.662 241.049 187.472C240.915 187.282 240.754 187.138 240.564 187.04C240.381 186.934 240.181 186.882 239.963 186.882C239.731 186.882 239.52 186.934 239.33 187.04C239.147 187.138 238.986 187.282 238.845 187.472C238.711 187.662 238.606 187.887 238.529 188.147C238.458 188.407 238.423 188.695 238.423 189.012C238.423 189.328 238.458 189.616 238.529 189.876C238.606 190.136 238.711 190.361 238.845 190.551C238.986 190.734 239.147 190.878 239.33 190.983C239.52 191.082 239.731 191.131 239.963 191.131C240.181 191.131 240.381 191.082 240.564 190.983C240.754 190.878 240.915 190.734 241.049 190.551C241.189 190.361 241.295 190.136 241.365 189.876C241.443 189.616 241.481 189.328 241.481 189.012Z" fill="white" fill-opacity="0.7"/>
<path d="M257.907 192.225C257.907 191.93 257.932 191.656 257.981 191.403C258.03 191.15 258.118 190.914 258.245 190.696C258.371 190.471 258.543 190.26 258.761 190.063C258.979 189.86 259.26 189.663 259.605 189.473C259.851 189.339 260.083 189.216 260.301 189.104C260.519 188.991 260.709 188.882 260.87 188.777C261.039 188.665 261.172 188.549 261.271 188.429C261.369 188.302 261.419 188.158 261.419 187.997C261.419 187.772 261.32 187.571 261.123 187.396C260.933 187.213 260.656 187.121 260.29 187.121C260.1 187.121 259.925 187.15 259.763 187.206C259.608 187.255 259.464 187.322 259.331 187.406C259.204 187.484 259.092 187.571 258.993 187.67C258.895 187.768 258.807 187.863 258.73 187.955L257.991 187.1C258.062 187.023 258.171 186.928 258.318 186.816C258.473 186.696 258.656 186.584 258.867 186.478C259.085 186.373 259.331 186.285 259.605 186.215C259.879 186.137 260.178 186.099 260.501 186.099C260.839 186.099 261.141 186.144 261.408 186.236C261.682 186.32 261.911 186.44 262.093 186.594C262.283 186.749 262.427 186.935 262.526 187.153C262.624 187.364 262.673 187.592 262.673 187.839C262.673 188.099 262.621 188.331 262.515 188.534C262.41 188.738 262.28 188.918 262.125 189.072C261.97 189.227 261.802 189.36 261.619 189.473C261.436 189.578 261.267 189.67 261.113 189.747C260.965 189.817 260.796 189.902 260.607 190C260.424 190.092 260.245 190.201 260.069 190.327C259.893 190.447 259.735 190.577 259.594 190.717C259.454 190.858 259.355 191.012 259.299 191.181H262.789V192.225H257.907ZM269.209 189.136C269.209 189.599 269.139 190.028 268.998 190.422C268.865 190.809 268.675 191.146 268.429 191.434C268.19 191.715 267.905 191.937 267.575 192.099C267.251 192.253 266.896 192.331 266.51 192.331C266.123 192.331 265.765 192.253 265.434 192.099C265.104 191.937 264.819 191.715 264.58 191.434C264.341 191.146 264.151 190.809 264.011 190.422C263.877 190.028 263.81 189.599 263.81 189.136C263.81 188.672 263.877 188.246 264.011 187.86C264.151 187.466 264.341 187.129 264.58 186.847C264.819 186.559 265.104 186.334 265.434 186.172C265.765 186.011 266.123 185.93 266.51 185.93C266.896 185.93 267.251 186.011 267.575 186.172C267.905 186.334 268.19 186.559 268.429 186.847C268.675 187.129 268.865 187.466 268.998 187.86C269.139 188.246 269.209 188.672 269.209 189.136ZM268.028 189.136C268.028 188.819 267.99 188.531 267.912 188.271C267.842 188.011 267.736 187.786 267.596 187.596C267.462 187.406 267.301 187.262 267.111 187.164C266.928 187.058 266.728 187.005 266.51 187.005C266.278 187.005 266.067 187.058 265.877 187.164C265.694 187.262 265.533 187.406 265.392 187.596C265.258 187.786 265.153 188.011 265.076 188.271C265.005 188.531 264.97 188.819 264.97 189.136C264.97 189.452 265.005 189.74 265.076 190C265.153 190.26 265.258 190.485 265.392 190.675C265.533 190.858 265.694 191.002 265.877 191.107C266.067 191.206 266.278 191.255 266.51 191.255C266.728 191.255 266.928 191.206 267.111 191.107C267.301 191.002 267.462 190.858 267.596 190.675C267.736 190.485 267.842 190.26 267.912 190C267.99 189.74 268.028 189.452 268.028 189.136ZM275.686 189.136C275.686 189.599 275.616 190.028 275.475 190.422C275.342 190.809 275.152 191.146 274.906 191.434C274.667 191.715 274.382 191.937 274.052 192.099C273.729 192.253 273.374 192.331 272.987 192.331C272.6 192.331 272.242 192.253 271.911 192.099C271.581 191.937 271.296 191.715 271.057 191.434C270.818 191.146 270.628 190.809 270.488 190.422C270.354 190.028 270.287 189.599 270.287 189.136C270.287 188.672 270.354 188.246 270.488 187.86C270.628 187.466 270.818 187.129 271.057 186.847C271.296 186.559 271.581 186.334 271.911 186.172C272.242 186.011 272.6 185.93 272.987 185.93C273.374 185.93 273.729 186.011 274.052 186.172C274.382 186.334 274.667 186.559 274.906 186.847C275.152 187.129 275.342 187.466 275.475 187.86C275.616 188.246 275.686 188.672 275.686 189.136ZM274.505 189.136C274.505 188.819 274.467 188.531 274.389 188.271C274.319 188.011 274.214 187.786 274.073 187.596C273.939 187.406 273.778 187.262 273.588 187.164C273.405 187.058 273.205 187.005 272.987 187.005C272.755 187.005 272.544 187.058 272.354 187.164C272.171 187.262 272.01 187.406 271.869 187.596C271.736 187.786 271.63 188.011 271.553 188.271C271.483 188.531 271.447 188.819 271.447 189.136C271.447 189.452 271.483 189.74 271.553 190C271.63 190.26 271.736 190.485 271.869 190.675C272.01 190.858 272.171 191.002 272.354 191.107C272.544 191.206 272.755 191.255 272.987 191.255C273.205 191.255 273.405 191.206 273.588 191.107C273.778 191.002 273.939 190.858 274.073 190.675C274.214 190.485 274.319 190.26 274.389 190C274.467 189.74 274.505 189.452 274.505 189.136ZM282.164 189.136C282.164 189.599 282.093 190.028 281.953 190.422C281.819 190.809 281.629 191.146 281.383 191.434C281.144 191.715 280.859 191.937 280.529 192.099C280.206 192.253 279.851 192.331 279.464 192.331C279.077 192.331 278.719 192.253 278.389 192.099C278.058 191.937 277.773 191.715 277.534 191.434C277.295 191.146 277.106 190.809 276.965 190.422C276.831 190.028 276.765 189.599 276.765 189.136C276.765 188.672 276.831 188.246 276.965 187.86C277.106 187.466 277.295 187.129 277.534 186.847C277.773 186.559 278.058 186.334 278.389 186.172C278.719 186.011 279.077 185.93 279.464 185.93C279.851 185.93 280.206 186.011 280.529 186.172C280.859 186.334 281.144 186.559 281.383 186.847C281.629 187.129 281.819 187.466 281.953 187.86C282.093 188.246 282.164 188.672 282.164 189.136ZM280.983 189.136C280.983 188.819 280.944 188.531 280.867 188.271C280.796 188.011 280.691 187.786 280.55 187.596C280.417 187.406 280.255 187.262 280.065 187.164C279.882 187.058 279.682 187.005 279.464 187.005C279.232 187.005 279.021 187.058 278.831 187.164C278.649 187.262 278.487 187.406 278.346 187.596C278.213 187.786 278.107 188.011 278.03 188.271C277.96 188.531 277.925 188.819 277.925 189.136C277.925 189.452 277.96 189.74 278.03 190C278.107 190.26 278.213 190.485 278.346 190.675C278.487 190.858 278.649 191.002 278.831 191.107C279.021 191.206 279.232 191.255 279.464 191.255C279.682 191.255 279.882 191.206 280.065 191.107C280.255 191.002 280.417 190.858 280.55 190.675C280.691 190.485 280.796 190.26 280.867 190C280.944 189.74 280.983 189.452 280.983 189.136ZM288.641 189.136C288.641 189.599 288.57 190.028 288.43 190.422C288.296 190.809 288.106 191.146 287.86 191.434C287.621 191.715 287.337 191.937 287.006 192.099C286.683 192.253 286.328 192.331 285.941 192.331C285.555 192.331 285.196 192.253 284.866 192.099C284.535 191.937 284.251 191.715 284.012 191.434C283.773 191.146 283.583 190.809 283.442 190.422C283.309 190.028 283.242 189.599 283.242 189.136C283.242 188.672 283.309 188.246 283.442 187.86C283.583 187.466 283.773 187.129 284.012 186.847C284.251 186.559 284.535 186.334 284.866 186.172C285.196 186.011 285.555 185.93 285.941 185.93C286.328 185.93 286.683 186.011 287.006 186.172C287.337 186.334 287.621 186.559 287.86 186.847C288.106 187.129 288.296 187.466 288.43 187.86C288.57 188.246 288.641 188.672 288.641 189.136ZM287.46 189.136C287.46 188.819 287.421 188.531 287.344 188.271C287.273 188.011 287.168 187.786 287.027 187.596C286.894 187.406 286.732 187.262 286.542 187.164C286.36 187.058 286.159 187.005 285.941 187.005C285.709 187.005 285.498 187.058 285.309 187.164C285.126 187.262 284.964 187.406 284.823 187.596C284.69 187.786 284.584 188.011 284.507 188.271C284.437 188.531 284.402 188.819 284.402 189.136C284.402 189.452 284.437 189.74 284.507 190C284.584 190.26 284.69 190.485 284.823 190.675C284.964 190.858 285.126 191.002 285.309 191.107C285.498 191.206 285.709 191.255 285.941 191.255C286.159 191.255 286.36 191.206 286.542 191.107C286.732 191.002 286.894 190.858 287.027 190.675C287.168 190.485 287.273 190.26 287.344 190C287.421 189.74 287.46 189.452 287.46 189.136Z" fill="white" fill-opacity="0.7"/>
<path d="M300.395 192.225C300.395 191.93 300.419 191.656 300.469 191.403C300.518 191.15 300.606 190.914 300.732 190.696C300.859 190.471 301.031 190.26 301.249 190.063C301.467 189.86 301.748 189.663 302.092 189.473C302.338 189.339 302.57 189.216 302.788 189.104C303.006 188.991 303.196 188.882 303.358 188.777C303.526 188.665 303.66 188.549 303.758 188.429C303.857 188.302 303.906 188.158 303.906 187.997C303.906 187.772 303.808 187.571 303.611 187.396C303.421 187.213 303.143 187.121 302.778 187.121C302.588 187.121 302.412 187.15 302.251 187.206C302.096 187.255 301.952 187.322 301.818 187.406C301.692 187.484 301.579 187.571 301.481 187.67C301.382 187.768 301.295 187.863 301.217 187.955L300.479 187.1C300.549 187.023 300.658 186.928 300.806 186.816C300.961 186.696 301.143 186.584 301.354 186.478C301.572 186.373 301.818 186.285 302.092 186.215C302.367 186.137 302.665 186.099 302.989 186.099C303.326 186.099 303.628 186.144 303.896 186.236C304.17 186.32 304.398 186.44 304.581 186.594C304.771 186.749 304.915 186.935 305.013 187.153C305.112 187.364 305.161 187.592 305.161 187.839C305.161 188.099 305.108 188.331 305.003 188.534C304.897 188.738 304.767 188.918 304.613 189.072C304.458 189.227 304.289 189.36 304.106 189.473C303.924 189.578 303.755 189.67 303.6 189.747C303.453 189.817 303.284 189.902 303.094 190C302.911 190.092 302.732 190.201 302.556 190.327C302.381 190.447 302.222 190.577 302.082 190.717C301.941 190.858 301.843 191.012 301.787 191.181H305.277V192.225H300.395ZM308.765 188.882C309.117 188.882 309.44 188.942 309.735 189.062C310.038 189.181 310.298 189.346 310.516 189.557C310.741 189.768 310.913 190.021 311.032 190.317C311.159 190.612 311.222 190.935 311.222 191.287C311.222 191.659 311.152 192 311.011 192.309C310.878 192.619 310.688 192.882 310.442 193.1C310.203 193.325 309.918 193.497 309.588 193.617C309.257 193.737 308.902 193.796 308.523 193.796C307.982 193.796 307.496 193.673 307.068 193.427C306.639 193.188 306.312 192.861 306.087 192.447L306.783 191.782C306.98 192.077 307.233 192.316 307.542 192.499C307.851 192.682 308.182 192.773 308.533 192.773C308.969 192.773 309.328 192.64 309.609 192.373C309.89 192.106 310.031 191.751 310.031 191.308C310.031 191.097 309.992 190.907 309.915 190.738C309.844 190.563 309.746 190.415 309.619 190.295C309.493 190.169 309.342 190.07 309.166 190C308.997 189.93 308.811 189.895 308.607 189.895C308.34 189.895 308.09 189.954 307.859 190.074C307.627 190.186 307.437 190.355 307.289 190.58H306.266C306.273 190.552 306.287 190.468 306.308 190.327C306.337 190.186 306.372 190.011 306.414 189.8C306.456 189.589 306.502 189.353 306.551 189.093C306.6 188.833 306.653 188.57 306.709 188.302C306.836 187.677 306.973 186.977 307.12 186.204H310.779V187.269H307.964L307.584 189.315C307.704 189.181 307.862 189.076 308.059 188.998C308.263 188.921 308.498 188.882 308.765 188.882ZM317.505 189.136C317.505 189.599 317.434 190.028 317.294 190.422C317.16 190.809 316.97 191.146 316.724 191.434C316.485 191.715 316.201 191.937 315.87 192.099C315.547 192.253 315.192 192.331 314.805 192.331C314.419 192.331 314.06 192.253 313.73 192.099C313.399 191.937 313.114 191.715 312.875 191.434C312.636 191.146 312.447 190.809 312.306 190.422C312.172 190.028 312.106 189.599 312.106 189.136C312.106 188.672 312.172 188.246 312.306 187.86C312.447 187.466 312.636 187.129 312.875 186.847C313.114 186.559 313.399 186.334 313.73 186.172C314.06 186.011 314.419 185.93 314.805 185.93C315.192 185.93 315.547 186.011 315.87 186.172C316.201 186.334 316.485 186.559 316.724 186.847C316.97 187.129 317.16 187.466 317.294 187.86C317.434 188.246 317.505 188.672 317.505 189.136ZM316.324 189.136C316.324 188.819 316.285 188.531 316.208 188.271C316.137 188.011 316.032 187.786 315.891 187.596C315.758 187.406 315.596 187.262 315.406 187.164C315.223 187.058 315.023 187.005 314.805 187.005C314.573 187.005 314.362 187.058 314.172 187.164C313.99 187.262 313.828 187.406 313.687 187.596C313.554 187.786 313.448 188.011 313.371 188.271C313.301 188.531 313.266 188.819 313.266 189.136C313.266 189.452 313.301 189.74 313.371 190C313.448 190.26 313.554 190.485 313.687 190.675C313.828 190.858 313.99 191.002 314.172 191.107C314.362 191.206 314.573 191.255 314.805 191.255C315.023 191.255 315.223 191.206 315.406 191.107C315.596 191.002 315.758 190.858 315.891 190.675C316.032 190.485 316.137 190.26 316.208 190C316.285 189.74 316.324 189.452 316.324 189.136ZM323.982 189.136C323.982 189.599 323.911 190.028 323.771 190.422C323.637 190.809 323.447 191.146 323.201 191.434C322.962 191.715 322.678 191.937 322.347 192.099C322.024 192.253 321.669 192.331 321.282 192.331C320.896 192.331 320.537 192.253 320.207 192.099C319.876 191.937 319.592 191.715 319.353 191.434C319.114 191.146 318.924 190.809 318.783 190.422C318.65 190.028 318.583 189.599 318.583 189.136C318.583 188.672 318.65 188.246 318.783 187.86C318.924 187.466 319.114 187.129 319.353 186.847C319.592 186.559 319.876 186.334 320.207 186.172C320.537 186.011 320.896 185.93 321.282 185.93C321.669 185.93 322.024 186.011 322.347 186.172C322.678 186.334 322.962 186.559 323.201 186.847C323.447 187.129 323.637 187.466 323.771 187.86C323.911 188.246 323.982 188.672 323.982 189.136ZM322.801 189.136C322.801 188.819 322.762 188.531 322.685 188.271C322.614 188.011 322.509 187.786 322.368 187.596C322.235 187.406 322.073 187.262 321.883 187.164C321.701 187.058 321.5 187.005 321.282 187.005C321.05 187.005 320.839 187.058 320.65 187.164C320.467 187.262 320.305 187.406 320.165 187.596C320.031 187.786 319.926 188.011 319.848 188.271C319.778 188.531 319.743 188.819 319.743 189.136C319.743 189.452 319.778 189.74 319.848 190C319.926 190.26 320.031 190.485 320.165 190.675C320.305 190.858 320.467 191.002 320.65 191.107C320.839 191.206 321.05 191.255 321.282 191.255C321.5 191.255 321.701 191.206 321.883 191.107C322.073 191.002 322.235 190.858 322.368 190.675C322.509 190.485 322.614 190.26 322.685 190C322.762 189.74 322.801 189.452 322.801 189.136ZM330.459 189.136C330.459 189.599 330.389 190.028 330.248 190.422C330.114 190.809 329.925 191.146 329.679 191.434C329.44 191.715 329.155 191.937 328.824 192.099C328.501 192.253 328.146 192.331 327.759 192.331C327.373 192.331 327.014 192.253 326.684 192.099C326.353 191.937 326.069 191.715 325.83 191.434C325.591 191.146 325.401 190.809 325.26 190.422C325.127 190.028 325.06 189.599 325.06 189.136C325.06 188.672 325.127 188.246 325.26 187.86C325.401 187.466 325.591 187.129 325.83 186.847C326.069 186.559 326.353 186.334 326.684 186.172C327.014 186.011 327.373 185.93 327.759 185.93C328.146 185.93 328.501 186.011 328.824 186.172C329.155 186.334 329.44 186.559 329.679 186.847C329.925 187.129 330.114 187.466 330.248 187.86C330.389 188.246 330.459 188.672 330.459 189.136ZM329.278 189.136C329.278 188.819 329.239 188.531 329.162 188.271C329.092 188.011 328.986 187.786 328.846 187.596C328.712 187.406 328.55 187.262 328.36 187.164C328.178 187.058 327.977 187.005 327.759 187.005C327.527 187.005 327.317 187.058 327.127 187.164C326.944 187.262 326.782 187.406 326.642 187.596C326.508 187.786 326.403 188.011 326.325 188.271C326.255 188.531 326.22 188.819 326.22 189.136C326.22 189.452 326.255 189.74 326.325 190C326.403 190.26 326.508 190.485 326.642 190.675C326.782 190.858 326.944 191.002 327.127 191.107C327.317 191.206 327.527 191.255 327.759 191.255C327.977 191.255 328.178 191.206 328.36 191.107C328.55 191.002 328.712 190.858 328.846 190.675C328.986 190.485 329.092 190.26 329.162 190C329.239 189.74 329.278 189.452 329.278 189.136Z" fill="white" fill-opacity="0.7"/>
<path d="M24.9118 131.1C24.9118 130.805 24.9364 130.531 24.9856 130.278C25.0348 130.025 25.1227 129.789 25.2492 129.571C25.3757 129.347 25.548 129.136 25.7659 128.939C25.9838 128.735 26.265 128.538 26.6095 128.348C26.8555 128.215 27.0875 128.092 27.3054 127.979C27.5233 127.867 27.7131 127.758 27.8748 127.652C28.0435 127.54 28.1771 127.424 28.2755 127.304C28.3739 127.178 28.4232 127.034 28.4232 126.872C28.4232 126.647 28.3247 126.447 28.1279 126.271C27.9381 126.088 27.6604 125.997 27.2949 125.997C27.1051 125.997 26.9293 126.025 26.7676 126.081C26.613 126.13 26.4689 126.197 26.3353 126.282C26.2088 126.359 26.0963 126.447 25.9979 126.545C25.8995 126.644 25.8116 126.738 25.7343 126.83L24.9961 125.976C25.0664 125.898 25.1754 125.804 25.323 125.691C25.4777 125.572 25.6604 125.459 25.8713 125.354C26.0893 125.248 26.3353 125.16 26.6095 125.09C26.8836 125.013 27.1824 124.974 27.5058 124.974C27.8432 124.974 28.1455 125.02 28.4126 125.111C28.6868 125.195 28.9152 125.315 29.098 125.47C29.2878 125.624 29.4319 125.811 29.5303 126.028C29.6288 126.239 29.678 126.468 29.678 126.714C29.678 126.974 29.6252 127.206 29.5198 127.41C29.4144 127.614 29.2843 127.793 29.1296 127.948C28.975 128.102 28.8063 128.236 28.6235 128.348C28.4407 128.454 28.272 128.545 28.1174 128.622C27.9697 128.693 27.801 128.777 27.6112 128.876C27.4284 128.967 27.2492 129.076 27.0734 129.202C26.8977 129.322 26.7395 129.452 26.5989 129.593C26.4583 129.733 26.3599 129.888 26.3037 130.057H29.794V131.1H24.9118ZM36.2139 128.011C36.2139 128.475 36.1436 128.904 36.003 129.297C35.8694 129.684 35.6796 130.021 35.4336 130.31C35.1945 130.591 34.9098 130.812 34.5794 130.974C34.2561 131.129 33.9011 131.206 33.5144 131.206C33.1278 131.206 32.7693 131.129 32.4389 130.974C32.1085 130.812 31.8238 130.591 31.5847 130.31C31.3457 130.021 31.1559 129.684 31.0153 129.297C30.8818 128.904 30.815 128.475 30.815 128.011C30.815 127.547 30.8818 127.122 31.0153 126.735C31.1559 126.341 31.3457 126.004 31.5847 125.723C31.8238 125.434 32.1085 125.21 32.4389 125.048C32.7693 124.886 33.1278 124.805 33.5144 124.805C33.9011 124.805 34.2561 124.886 34.5794 125.048C34.9098 125.21 35.1945 125.434 35.4336 125.723C35.6796 126.004 35.8694 126.341 36.003 126.735C36.1436 127.122 36.2139 127.547 36.2139 128.011ZM35.0329 128.011C35.0329 127.695 34.9942 127.406 34.9169 127.146C34.8466 126.886 34.7411 126.661 34.6005 126.471C34.467 126.282 34.3053 126.137 34.1155 126.039C33.9327 125.934 33.7323 125.881 33.5144 125.881C33.2824 125.881 33.0715 125.934 32.8817 126.039C32.699 126.137 32.5373 126.282 32.3967 126.471C32.2631 126.661 32.1577 126.886 32.0803 127.146C32.01 127.406 31.9749 127.695 31.9749 128.011C31.9749 128.327 32.01 128.615 32.0803 128.876C32.1577 129.136 32.2631 129.361 32.3967 129.55C32.5373 129.733 32.699 129.877 32.8817 129.983C33.0715 130.081 33.2824 130.13 33.5144 130.13C33.7323 130.13 33.9327 130.081 34.1155 129.983C34.3053 129.877 34.467 129.733 34.6005 129.55C34.7411 129.361 34.8466 129.136 34.9169 128.876C34.9942 128.615 35.0329 128.327 35.0329 128.011ZM42.691 128.011C42.691 128.475 42.6207 128.904 42.4801 129.297C42.3466 129.684 42.1567 130.021 41.9107 130.31C41.6717 130.591 41.387 130.812 41.0566 130.974C40.7332 131.129 40.3782 131.206 39.9916 131.206C39.6049 131.206 39.2464 131.129 38.916 130.974C38.5856 130.812 38.3009 130.591 38.0619 130.31C37.8229 130.021 37.6331 129.684 37.4925 129.297C37.3589 128.904 37.2921 128.475 37.2921 128.011C37.2921 127.547 37.3589 127.122 37.4925 126.735C37.6331 126.341 37.8229 126.004 38.0619 125.723C38.3009 125.434 38.5856 125.21 38.916 125.048C39.2464 124.886 39.6049 124.805 39.9916 124.805C40.3782 124.805 40.7332 124.886 41.0566 125.048C41.387 125.21 41.6717 125.434 41.9107 125.723C42.1567 126.004 42.3466 126.341 42.4801 126.735C42.6207 127.122 42.691 127.547 42.691 128.011ZM41.51 128.011C41.51 127.695 41.4713 127.406 41.394 127.146C41.3237 126.886 41.2183 126.661 41.0777 126.471C40.9441 126.282 40.7824 126.137 40.5926 126.039C40.4098 125.934 40.2095 125.881 39.9916 125.881C39.7596 125.881 39.5487 125.934 39.3589 126.039C39.1761 126.137 39.0144 126.282 38.8738 126.471C38.7403 126.661 38.6348 126.886 38.5575 127.146C38.4872 127.406 38.452 127.695 38.452 128.011C38.452 128.327 38.4872 128.615 38.5575 128.876C38.6348 129.136 38.7403 129.361 38.8738 129.55C39.0144 129.733 39.1761 129.877 39.3589 129.983C39.5487 130.081 39.7596 130.13 39.9916 130.13C40.2095 130.13 40.4098 130.081 40.5926 129.983C40.7824 129.877 40.9441 129.733 41.0777 129.55C41.2183 129.361 41.3237 129.136 41.394 128.876C41.4713 128.615 41.51 128.327 41.51 128.011ZM49.1682 128.011C49.1682 128.475 49.0979 128.904 48.9573 129.297C48.8237 129.684 48.6339 130.021 48.3879 130.31C48.1488 130.591 47.8641 130.812 47.5337 130.974C47.2104 131.129 46.8554 131.206 46.4687 131.206C46.0821 131.206 45.7236 131.129 45.3932 130.974C45.0628 130.812 44.7781 130.591 44.539 130.31C44.3 130.021 44.1102 129.684 43.9696 129.297C43.8361 128.904 43.7693 128.475 43.7693 128.011C43.7693 127.547 43.8361 127.122 43.9696 126.735C44.1102 126.341 44.3 126.004 44.539 125.723C44.7781 125.434 45.0628 125.21 45.3932 125.048C45.7236 124.886 46.0821 124.805 46.4687 124.805C46.8554 124.805 47.2104 124.886 47.5337 125.048C47.8641 125.21 48.1488 125.434 48.3879 125.723C48.6339 126.004 48.8237 126.341 48.9573 126.735C49.0979 127.122 49.1682 127.547 49.1682 128.011ZM47.9872 128.011C47.9872 127.695 47.9485 127.406 47.8712 127.146C47.8009 126.886 47.6954 126.661 47.5548 126.471C47.4213 126.282 47.2596 126.137 47.0698 126.039C46.887 125.934 46.6866 125.881 46.4687 125.881C46.2367 125.881 46.0258 125.934 45.836 126.039C45.6533 126.137 45.4916 126.282 45.351 126.471C45.2174 126.661 45.112 126.886 45.0346 127.146C44.9644 127.406 44.9292 127.695 44.9292 128.011C44.9292 128.327 44.9644 128.615 45.0346 128.876C45.112 129.136 45.2174 129.361 45.351 129.55C45.4916 129.733 45.6533 129.877 45.836 129.983C46.0258 130.081 46.2367 130.13 46.4687 130.13C46.6866 130.13 46.887 130.081 47.0698 129.983C47.2596 129.877 47.4213 129.733 47.5548 129.55C47.6954 129.361 47.8009 129.136 47.8712 128.876C47.9485 128.615 47.9872 128.327 47.9872 128.011ZM55.6453 128.011C55.6453 128.475 55.575 128.904 55.4344 129.297C55.3009 129.684 55.111 130.021 54.865 130.31C54.626 130.591 54.3413 130.812 54.0109 130.974C53.6875 131.129 53.3325 131.206 52.9459 131.206C52.5592 131.206 52.2007 131.129 51.8703 130.974C51.5399 130.812 51.2552 130.591 51.0162 130.31C50.7772 130.021 50.5874 129.684 50.4468 129.297C50.3132 128.904 50.2464 128.475 50.2464 128.011C50.2464 127.547 50.3132 127.122 50.4468 126.735C50.5874 126.341 50.7772 126.004 51.0162 125.723C51.2552 125.434 51.5399 125.21 51.8703 125.048C52.2007 124.886 52.5592 124.805 52.9459 124.805C53.3325 124.805 53.6875 124.886 54.0109 125.048C54.3413 125.21 54.626 125.434 54.865 125.723C55.111 126.004 55.3009 126.341 55.4344 126.735C55.575 127.122 55.6453 127.547 55.6453 128.011ZM54.4643 128.011C54.4643 127.695 54.4256 127.406 54.3483 127.146C54.278 126.886 54.1726 126.661 54.032 126.471C53.8984 126.282 53.7367 126.137 53.5469 126.039C53.3641 125.934 53.1638 125.881 52.9459 125.881C52.7139 125.881 52.503 125.934 52.3132 126.039C52.1304 126.137 51.9687 126.282 51.8281 126.471C51.6946 126.661 51.5891 126.886 51.5118 127.146C51.4415 127.406 51.4064 127.695 51.4064 128.011C51.4064 128.327 51.4415 128.615 51.5118 128.876C51.5891 129.136 51.6946 129.361 51.8281 129.55C51.9687 129.733 52.1304 129.877 52.3132 129.983C52.503 130.081 52.7139 130.13 52.9459 130.13C53.1638 130.13 53.3641 130.081 53.5469 129.983C53.7367 129.877 53.8984 129.733 54.032 129.55C54.1726 129.361 54.278 129.136 54.3483 128.876C54.4256 128.615 54.4643 128.327 54.4643 128.011ZM62.1225 128.011C62.1225 128.475 62.0522 128.904 61.9116 129.297C61.778 129.684 61.5882 130.021 61.3422 130.31C61.1031 130.591 60.8184 130.812 60.488 130.974C60.1647 131.129 59.8097 131.206 59.423 131.206C59.0364 131.206 58.6779 131.129 58.3475 130.974C58.0171 130.812 57.7324 130.591 57.4934 130.31C57.2543 130.021 57.0645 129.684 56.9239 129.297C56.7904 128.904 56.7236 128.475 56.7236 128.011C56.7236 127.547 56.7904 127.122 56.9239 126.735C57.0645 126.341 57.2543 126.004 57.4934 125.723C57.7324 125.434 58.0171 125.21 58.3475 125.048C58.6779 124.886 59.0364 124.805 59.423 124.805C59.8097 124.805 60.1647 124.886 60.488 125.048C60.8184 125.21 61.1031 125.434 61.3422 125.723C61.5882 126.004 61.778 126.341 61.9116 126.735C62.0522 127.122 62.1225 127.547 62.1225 128.011ZM60.9415 128.011C60.9415 127.695 60.9028 127.406 60.8255 127.146C60.7552 126.886 60.6497 126.661 60.5091 126.471C60.3756 126.282 60.2139 126.137 60.0241 126.039C59.8413 125.934 59.6409 125.881 59.423 125.881C59.191 125.881 58.9801 125.934 58.7903 126.039C58.6076 126.137 58.4459 126.282 58.3053 126.471C58.1717 126.661 58.0663 126.886 57.989 127.146C57.9187 127.406 57.8835 127.695 57.8835 128.011C57.8835 128.327 57.9187 128.615 57.989 128.876C58.0663 129.136 58.1717 129.361 58.3053 129.55C58.4459 129.733 58.6076 129.877 58.7903 129.983C58.9801 130.081 59.191 130.13 59.423 130.13C59.6409 130.13 59.8413 130.081 60.0241 129.983C60.2139 129.877 60.3756 129.733 60.5091 129.55C60.6497 129.361 60.7552 129.136 60.8255 128.876C60.9028 128.615 60.9415 128.327 60.9415 128.011Z" fill="white" fill-opacity="0.7"/>
<path d="M28.381 88.5591C28.5989 88.6012 28.7992 88.6786 28.982 88.791C29.1648 88.8965 29.3195 89.0301 29.446 89.1917C29.5725 89.3534 29.6709 89.5397 29.7412 89.7506C29.8115 89.9615 29.8467 90.19 29.8467 90.436C29.8467 90.7664 29.7834 91.0617 29.6569 91.3218C29.5374 91.5889 29.3616 91.8174 29.1296 92.0072C28.9047 92.197 28.6305 92.3411 28.3072 92.4395C27.9838 92.545 27.6218 92.5977 27.2211 92.5977C26.6868 92.5977 26.2158 92.5028 25.8081 92.313C25.4003 92.1302 25.0735 91.8631 24.8274 91.5116L25.5339 90.7102C25.7026 90.9703 25.9206 91.1741 26.1877 91.3218C26.4548 91.4694 26.7922 91.5432 27.2 91.5432C27.6639 91.5432 28.0189 91.4448 28.265 91.248C28.5181 91.0511 28.6446 90.7559 28.6446 90.3622C28.6446 89.9545 28.504 89.6346 28.2228 89.4026C27.9416 89.1707 27.5269 89.0547 26.9785 89.0547H26.6938V88.1478H27.0102C27.4812 88.1478 27.8432 88.0389 28.0963 87.8209C28.3493 87.596 28.4759 87.3148 28.4759 86.9774C28.4759 86.6399 28.3634 86.3939 28.1384 86.2392C27.9135 86.0775 27.6218 85.9967 27.2632 85.9967C26.9047 85.9967 26.5884 86.074 26.3142 86.2287C26.0401 86.3833 25.8221 86.6048 25.6604 86.893L24.9329 86.1022C25.0313 85.9334 25.1648 85.7823 25.3336 85.6487C25.5023 85.5081 25.6921 85.3886 25.903 85.2902C26.1209 85.1848 26.3529 85.1074 26.5989 85.0582C26.852 85.002 27.1121 84.9739 27.3792 84.9739C27.7237 84.9739 28.0365 85.0196 28.3177 85.111C28.6059 85.2023 28.852 85.3289 29.0558 85.4906C29.2667 85.6522 29.4284 85.8491 29.5409 86.0811C29.6534 86.313 29.7096 86.5696 29.7096 86.8508C29.7096 87.0617 29.678 87.2621 29.6147 87.4519C29.5514 87.6417 29.46 87.8139 29.3405 87.9686C29.2281 88.1232 29.091 88.2533 28.9293 88.3587C28.7676 88.4571 28.5848 88.5239 28.381 88.5591ZM36.2139 87.958C36.2139 88.422 36.1436 88.8508 36.003 89.2445C35.8694 89.6311 35.6796 89.9685 35.4336 90.2568C35.1945 90.5379 34.9098 90.7594 34.5794 90.9211C34.2561 91.0757 33.9011 91.1531 33.5144 91.1531C33.1278 91.1531 32.7693 91.0757 32.4389 90.9211C32.1085 90.7594 31.8238 90.5379 31.5847 90.2568C31.3457 89.9685 31.1559 89.6311 31.0153 89.2445C30.8818 88.8508 30.815 88.422 30.815 87.958C30.815 87.4941 30.8818 87.0687 31.0153 86.6821C31.1559 86.2884 31.3457 85.951 31.5847 85.6698C31.8238 85.3816 32.1085 85.1566 32.4389 84.995C32.7693 84.8333 33.1278 84.7524 33.5144 84.7524C33.9011 84.7524 34.2561 84.8333 34.5794 84.995C34.9098 85.1566 35.1945 85.3816 35.4336 85.6698C35.6796 85.951 35.8694 86.2884 36.003 86.6821C36.1436 87.0687 36.2139 87.4941 36.2139 87.958ZM35.0329 87.958C35.0329 87.6417 34.9942 87.3535 34.9169 87.0934C34.8466 86.8333 34.7411 86.6083 34.6005 86.4185C34.467 86.2287 34.3053 86.0846 34.1155 85.9862C33.9327 85.8807 33.7323 85.828 33.5144 85.828C33.2824 85.828 33.0715 85.8807 32.8817 85.9862C32.699 86.0846 32.5373 86.2287 32.3967 86.4185C32.2631 86.6083 32.1577 86.8333 32.0803 87.0934C32.01 87.3535 31.9749 87.6417 31.9749 87.958C31.9749 88.2744 32.01 88.5626 32.0803 88.8227C32.1577 89.0828 32.2631 89.3077 32.3967 89.4975C32.5373 89.6803 32.699 89.8244 32.8817 89.9299C33.0715 90.0283 33.2824 90.0775 33.5144 90.0775C33.7323 90.0775 33.9327 90.0283 34.1155 89.9299C34.3053 89.8244 34.467 89.6803 34.6005 89.4975C34.7411 89.3077 34.8466 89.0828 34.9169 88.8227C34.9942 88.5626 35.0329 88.2744 35.0329 87.958ZM42.691 87.958C42.691 88.422 42.6207 88.8508 42.4801 89.2445C42.3466 89.6311 42.1567 89.9685 41.9107 90.2568C41.6717 90.5379 41.387 90.7594 41.0566 90.9211C40.7332 91.0757 40.3782 91.1531 39.9916 91.1531C39.6049 91.1531 39.2464 91.0757 38.916 90.9211C38.5856 90.7594 38.3009 90.5379 38.0619 90.2568C37.8229 89.9685 37.6331 89.6311 37.4925 89.2445C37.3589 88.8508 37.2921 88.422 37.2921 87.958C37.2921 87.4941 37.3589 87.0687 37.4925 86.6821C37.6331 86.2884 37.8229 85.951 38.0619 85.6698C38.3009 85.3816 38.5856 85.1566 38.916 84.995C39.2464 84.8333 39.6049 84.7524 39.9916 84.7524C40.3782 84.7524 40.7332 84.8333 41.0566 84.995C41.387 85.1566 41.6717 85.3816 41.9107 85.6698C42.1567 85.951 42.3466 86.2884 42.4801 86.6821C42.6207 87.0687 42.691 87.4941 42.691 87.958ZM41.51 87.958C41.51 87.6417 41.4713 87.3535 41.394 87.0934C41.3237 86.8333 41.2183 86.6083 41.0777 86.4185C40.9441 86.2287 40.7824 86.0846 40.5926 85.9862C40.4098 85.8807 40.2095 85.828 39.9916 85.828C39.7596 85.828 39.5487 85.8807 39.3589 85.9862C39.1761 86.0846 39.0144 86.2287 38.8738 86.4185C38.7403 86.6083 38.6348 86.8333 38.5575 87.0934C38.4872 87.3535 38.452 87.6417 38.452 87.958C38.452 88.2744 38.4872 88.5626 38.5575 88.8227C38.6348 89.0828 38.7403 89.3077 38.8738 89.4975C39.0144 89.6803 39.1761 89.8244 39.3589 89.9299C39.5487 90.0283 39.7596 90.0775 39.9916 90.0775C40.2095 90.0775 40.4098 90.0283 40.5926 89.9299C40.7824 89.8244 40.9441 89.6803 41.0777 89.4975C41.2183 89.3077 41.3237 89.0828 41.394 88.8227C41.4713 88.5626 41.51 88.2744 41.51 87.958ZM49.1682 87.958C49.1682 88.422 49.0979 88.8508 48.9573 89.2445C48.8237 89.6311 48.6339 89.9685 48.3879 90.2568C48.1488 90.5379 47.8641 90.7594 47.5337 90.9211C47.2104 91.0757 46.8554 91.1531 46.4687 91.1531C46.0821 91.1531 45.7236 91.0757 45.3932 90.9211C45.0628 90.7594 44.7781 90.5379 44.539 90.2568C44.3 89.9685 44.1102 89.6311 43.9696 89.2445C43.8361 88.8508 43.7693 88.422 43.7693 87.958C43.7693 87.4941 43.8361 87.0687 43.9696 86.6821C44.1102 86.2884 44.3 85.951 44.539 85.6698C44.7781 85.3816 45.0628 85.1566 45.3932 84.995C45.7236 84.8333 46.0821 84.7524 46.4687 84.7524C46.8554 84.7524 47.2104 84.8333 47.5337 84.995C47.8641 85.1566 48.1488 85.3816 48.3879 85.6698C48.6339 85.951 48.8237 86.2884 48.9573 86.6821C49.0979 87.0687 49.1682 87.4941 49.1682 87.958ZM47.9872 87.958C47.9872 87.6417 47.9485 87.3535 47.8712 87.0934C47.8009 86.8333 47.6954 86.6083 47.5548 86.4185C47.4213 86.2287 47.2596 86.0846 47.0698 85.9862C46.887 85.8807 46.6866 85.828 46.4687 85.828C46.2367 85.828 46.0258 85.8807 45.836 85.9862C45.6533 86.0846 45.4916 86.2287 45.351 86.4185C45.2174 86.6083 45.112 86.8333 45.0346 87.0934C44.9644 87.3535 44.9292 87.6417 44.9292 87.958C44.9292 88.2744 44.9644 88.5626 45.0346 88.8227C45.112 89.0828 45.2174 89.3077 45.351 89.4975C45.4916 89.6803 45.6533 89.8244 45.836 89.9299C46.0258 90.0283 46.2367 90.0775 46.4687 90.0775C46.6866 90.0775 46.887 90.0283 47.0698 89.9299C47.2596 89.8244 47.4213 89.6803 47.5548 89.4975C47.6954 89.3077 47.8009 89.0828 47.8712 88.8227C47.9485 88.5626 47.9872 88.2744 47.9872 87.958ZM55.6453 87.958C55.6453 88.422 55.575 88.8508 55.4344 89.2445C55.3009 89.6311 55.111 89.9685 54.865 90.2568C54.626 90.5379 54.3413 90.7594 54.0109 90.9211C53.6875 91.0757 53.3325 91.1531 52.9459 91.1531C52.5592 91.1531 52.2007 91.0757 51.8703 90.9211C51.5399 90.7594 51.2552 90.5379 51.0162 90.2568C50.7772 89.9685 50.5874 89.6311 50.4468 89.2445C50.3132 88.8508 50.2464 88.422 50.2464 87.958C50.2464 87.4941 50.3132 87.0687 50.4468 86.6821C50.5874 86.2884 50.7772 85.951 51.0162 85.6698C51.2552 85.3816 51.5399 85.1566 51.8703 84.995C52.2007 84.8333 52.5592 84.7524 52.9459 84.7524C53.3325 84.7524 53.6875 84.8333 54.0109 84.995C54.3413 85.1566 54.626 85.3816 54.865 85.6698C55.111 85.951 55.3009 86.2884 55.4344 86.6821C55.575 87.0687 55.6453 87.4941 55.6453 87.958ZM54.4643 87.958C54.4643 87.6417 54.4256 87.3535 54.3483 87.0934C54.278 86.8333 54.1726 86.6083 54.032 86.4185C53.8984 86.2287 53.7367 86.0846 53.5469 85.9862C53.3641 85.8807 53.1638 85.828 52.9459 85.828C52.7139 85.828 52.503 85.8807 52.3132 85.9862C52.1304 86.0846 51.9687 86.2287 51.8281 86.4185C51.6946 86.6083 51.5891 86.8333 51.5118 87.0934C51.4415 87.3535 51.4064 87.6417 51.4064 87.958C51.4064 88.2744 51.4415 88.5626 51.5118 88.8227C51.5891 89.0828 51.6946 89.3077 51.8281 89.4975C51.9687 89.6803 52.1304 89.8244 52.3132 89.9299C52.503 90.0283 52.7139 90.0775 52.9459 90.0775C53.1638 90.0775 53.3641 90.0283 53.5469 89.9299C53.7367 89.8244 53.8984 89.6803 54.032 89.4975C54.1726 89.3077 54.278 89.0828 54.3483 88.8227C54.4256 88.5626 54.4643 88.2744 54.4643 87.958ZM62.1225 87.958C62.1225 88.422 62.0522 88.8508 61.9116 89.2445C61.778 89.6311 61.5882 89.9685 61.3422 90.2568C61.1031 90.5379 60.8184 90.7594 60.488 90.9211C60.1647 91.0757 59.8097 91.1531 59.423 91.1531C59.0364 91.1531 58.6779 91.0757 58.3475 90.9211C58.0171 90.7594 57.7324 90.5379 57.4934 90.2568C57.2543 89.9685 57.0645 89.6311 56.9239 89.2445C56.7904 88.8508 56.7236 88.422 56.7236 87.958C56.7236 87.4941 56.7904 87.0687 56.9239 86.6821C57.0645 86.2884 57.2543 85.951 57.4934 85.6698C57.7324 85.3816 58.0171 85.1566 58.3475 84.995C58.6779 84.8333 59.0364 84.7524 59.423 84.7524C59.8097 84.7524 60.1647 84.8333 60.488 84.995C60.8184 85.1566 61.1031 85.3816 61.3422 85.6698C61.5882 85.951 61.778 86.2884 61.9116 86.6821C62.0522 87.0687 62.1225 87.4941 62.1225 87.958ZM60.9415 87.958C60.9415 87.6417 60.9028 87.3535 60.8255 87.0934C60.7552 86.8333 60.6497 86.6083 60.5091 86.4185C60.3756 86.2287 60.2139 86.0846 60.0241 85.9862C59.8413 85.8807 59.6409 85.828 59.423 85.828C59.191 85.828 58.9801 85.8807 58.7903 85.9862C58.6076 86.0846 58.4459 86.2287 58.3053 86.4185C58.1717 86.6083 58.0663 86.8333 57.989 87.0934C57.9187 87.3535 57.8835 87.6417 57.8835 87.958C57.8835 88.2744 57.9187 88.5626 57.989 88.8227C58.0663 89.0828 58.1717 89.3077 58.3053 89.4975C58.4459 89.6803 58.6076 89.8244 58.7903 89.9299C58.9801 90.0283 59.191 90.0775 59.423 90.0775C59.6409 90.0775 59.8413 90.0283 60.0241 89.9299C60.2139 89.8244 60.3756 89.6803 60.5091 89.4975C60.6497 89.3077 60.7552 89.0828 60.8255 88.8227C60.9028 88.5626 60.9415 88.2744 60.9415 87.958Z" fill="white" fill-opacity="0.7"/>
<path d="M27.9592 51.3651V49.6884H24.722V48.6551L28.3283 44.0049H29.1191V48.634H30.047V49.6884H29.1191V51.3651H27.9592ZM25.903 48.634H28.0857V45.7764L25.903 48.634ZM36.3786 46.9363C36.3786 47.4003 36.3083 47.8291 36.1677 48.2227C36.0342 48.6094 35.8444 48.9468 35.5983 49.235C35.3593 49.5162 35.0746 49.7377 34.7442 49.8993C34.4208 50.054 34.0658 50.1313 33.6792 50.1313C33.2925 50.1313 32.934 50.054 32.6036 49.8993C32.2732 49.7377 31.9885 49.5162 31.7495 49.235C31.5105 48.9468 31.3207 48.6094 31.1801 48.2227C31.0465 47.8291 30.9797 47.4003 30.9797 46.9363C30.9797 46.4723 31.0465 46.047 31.1801 45.6604C31.3207 45.2667 31.5105 44.9293 31.7495 44.6481C31.9885 44.3599 32.2732 44.1349 32.6036 43.9732C32.934 43.8115 33.2925 43.7307 33.6792 43.7307C34.0658 43.7307 34.4208 43.8115 34.7442 43.9732C35.0746 44.1349 35.3593 44.3599 35.5983 44.6481C35.8444 44.9293 36.0342 45.2667 36.1677 45.6604C36.3083 46.047 36.3786 46.4723 36.3786 46.9363ZM35.1976 46.9363C35.1976 46.6199 35.159 46.3317 35.0816 46.0716C35.0113 45.8115 34.9059 45.5866 34.7653 45.3968C34.6317 45.207 34.47 45.0629 34.2802 44.9644C34.0975 44.859 33.8971 44.8063 33.6792 44.8063C33.4472 44.8063 33.2363 44.859 33.0465 44.9644C32.8637 45.0629 32.702 45.207 32.5614 45.3968C32.4279 45.5866 32.3224 45.8115 32.2451 46.0716C32.1748 46.3317 32.1397 46.6199 32.1397 46.9363C32.1397 47.2526 32.1748 47.5408 32.2451 47.801C32.3224 48.0611 32.4279 48.286 32.5614 48.4758C32.702 48.6586 32.8637 48.8027 33.0465 48.9081C33.2363 49.0066 33.4472 49.0558 33.6792 49.0558C33.8971 49.0558 34.0975 49.0066 34.2802 48.9081C34.47 48.8027 34.6317 48.6586 34.7653 48.4758C34.9059 48.286 35.0113 48.0611 35.0816 47.801C35.159 47.5408 35.1976 47.2526 35.1976 46.9363ZM42.8558 46.9363C42.8558 47.4003 42.7855 47.8291 42.6449 48.2227C42.5113 48.6094 42.3215 48.9468 42.0755 49.235C41.8365 49.5162 41.5517 49.7377 41.2213 49.8993C40.898 50.054 40.543 50.1313 40.1563 50.1313C39.7697 50.1313 39.4112 50.054 39.0808 49.8993C38.7504 49.7377 38.4657 49.5162 38.2267 49.235C37.9876 48.9468 37.7978 48.6094 37.6572 48.2227C37.5237 47.8291 37.4569 47.4003 37.4569 46.9363C37.4569 46.4723 37.5237 46.047 37.6572 45.6604C37.7978 45.2667 37.9876 44.9293 38.2267 44.6481C38.4657 44.3599 38.7504 44.1349 39.0808 43.9732C39.4112 43.8115 39.7697 43.7307 40.1563 43.7307C40.543 43.7307 40.898 43.8115 41.2213 43.9732C41.5517 44.1349 41.8365 44.3599 42.0755 44.6481C42.3215 44.9293 42.5113 45.2667 42.6449 45.6604C42.7855 46.047 42.8558 46.4723 42.8558 46.9363ZM41.6748 46.9363C41.6748 46.6199 41.6361 46.3317 41.5588 46.0716C41.4885 45.8115 41.383 45.5866 41.2424 45.3968C41.1089 45.207 40.9472 45.0629 40.7574 44.9644C40.5746 44.859 40.3743 44.8063 40.1563 44.8063C39.9244 44.8063 39.7135 44.859 39.5237 44.9644C39.3409 45.0629 39.1792 45.207 39.0386 45.3968C38.905 45.5866 38.7996 45.8115 38.7223 46.0716C38.652 46.3317 38.6168 46.6199 38.6168 46.9363C38.6168 47.2526 38.652 47.5408 38.7223 47.801C38.7996 48.0611 38.905 48.286 39.0386 48.4758C39.1792 48.6586 39.3409 48.8027 39.5237 48.9081C39.7135 49.0066 39.9244 49.0558 40.1563 49.0558C40.3743 49.0558 40.5746 49.0066 40.7574 48.9081C40.9472 48.8027 41.1089 48.6586 41.2424 48.4758C41.383 48.286 41.4885 48.0611 41.5588 47.801C41.6361 47.5408 41.6748 47.2526 41.6748 46.9363ZM49.3329 46.9363C49.3329 47.4003 49.2626 47.8291 49.122 48.2227C48.9885 48.6094 48.7987 48.9468 48.5526 49.235C48.3136 49.5162 48.0289 49.7377 47.6985 49.8993C47.3751 50.054 47.0201 50.1313 46.6335 50.1313C46.2468 50.1313 45.8883 50.054 45.5579 49.8993C45.2275 49.7377 44.9428 49.5162 44.7038 49.235C44.4648 48.9468 44.275 48.6094 44.1344 48.2227C44.0008 47.8291 43.934 47.4003 43.934 46.9363C43.934 46.4723 44.0008 46.047 44.1344 45.6604C44.275 45.2667 44.4648 44.9293 44.7038 44.6481C44.9428 44.3599 45.2275 44.1349 45.5579 43.9732C45.8883 43.8115 46.2468 43.7307 46.6335 43.7307C47.0201 43.7307 47.3751 43.8115 47.6985 43.9732C48.0289 44.1349 48.3136 44.3599 48.5526 44.6481C48.7987 44.9293 48.9885 45.2667 49.122 45.6604C49.2626 46.047 49.3329 46.4723 49.3329 46.9363ZM48.1519 46.9363C48.1519 46.6199 48.1133 46.3317 48.0359 46.0716C47.9656 45.8115 47.8602 45.5866 47.7196 45.3968C47.586 45.207 47.4243 45.0629 47.2345 44.9644C47.0518 44.859 46.8514 44.8063 46.6335 44.8063C46.4015 44.8063 46.1906 44.859 46.0008 44.9644C45.818 45.0629 45.6563 45.207 45.5157 45.3968C45.3822 45.5866 45.2767 45.8115 45.1994 46.0716C45.1291 46.3317 45.094 46.6199 45.094 46.9363C45.094 47.2526 45.1291 47.5408 45.1994 47.801C45.2767 48.0611 45.3822 48.286 45.5157 48.4758C45.6563 48.6586 45.818 48.8027 46.0008 48.9081C46.1906 49.0066 46.4015 49.0558 46.6335 49.0558C46.8514 49.0558 47.0518 49.0066 47.2345 48.9081C47.4243 48.8027 47.586 48.6586 47.7196 48.4758C47.8602 48.286 47.9656 48.0611 48.0359 47.801C48.1133 47.5408 48.1519 47.2526 48.1519 46.9363ZM55.8101 46.9363C55.8101 47.4003 55.7398 47.8291 55.5992 48.2227C55.4656 48.6094 55.2758 48.9468 55.0298 49.235C54.7908 49.5162 54.506 49.7377 54.1756 49.8993C53.8523 50.054 53.4973 50.1313 53.1106 50.1313C52.724 50.1313 52.3655 50.054 52.0351 49.8993C51.7047 49.7377 51.42 49.5162 51.181 49.235C50.9419 48.9468 50.7521 48.6094 50.6115 48.2227C50.478 47.8291 50.4112 47.4003 50.4112 46.9363C50.4112 46.4723 50.478 46.047 50.6115 45.6604C50.7521 45.2667 50.9419 44.9293 51.181 44.6481C51.42 44.3599 51.7047 44.1349 52.0351 43.9732C52.3655 43.8115 52.724 43.7307 53.1106 43.7307C53.4973 43.7307 53.8523 43.8115 54.1756 43.9732C54.506 44.1349 54.7908 44.3599 55.0298 44.6481C55.2758 44.9293 55.4656 45.2667 55.5992 45.6604C55.7398 46.047 55.8101 46.4723 55.8101 46.9363ZM54.6291 46.9363C54.6291 46.6199 54.5904 46.3317 54.5131 46.0716C54.4428 45.8115 54.3373 45.5866 54.1967 45.3968C54.0632 45.207 53.9015 45.0629 53.7117 44.9644C53.5289 44.859 53.3286 44.8063 53.1106 44.8063C52.8787 44.8063 52.6678 44.859 52.478 44.9644C52.2952 45.0629 52.1335 45.207 51.9929 45.3968C51.8593 45.5866 51.7539 45.8115 51.6766 46.0716C51.6063 46.3317 51.5711 46.6199 51.5711 46.9363C51.5711 47.2526 51.6063 47.5408 51.6766 47.801C51.7539 48.0611 51.8593 48.286 51.9929 48.4758C52.1335 48.6586 52.2952 48.8027 52.478 48.9081C52.6678 49.0066 52.8787 49.0558 53.1106 49.0558C53.3286 49.0558 53.5289 49.0066 53.7117 48.9081C53.9015 48.8027 54.0632 48.6586 54.1967 48.4758C54.3373 48.286 54.4428 48.0611 54.5131 47.801C54.5904 47.5408 54.6291 47.2526 54.6291 46.9363ZM62.2872 46.9363C62.2872 47.4003 62.2169 47.8291 62.0763 48.2227C61.9428 48.6094 61.753 48.9468 61.5069 49.235C61.2679 49.5162 60.9832 49.7377 60.6528 49.8993C60.3294 50.054 59.9744 50.1313 59.5878 50.1313C59.2011 50.1313 58.8426 50.054 58.5122 49.8993C58.1818 49.7377 57.8971 49.5162 57.6581 49.235C57.4191 48.9468 57.2293 48.6094 57.0887 48.2227C56.9551 47.8291 56.8883 47.4003 56.8883 46.9363C56.8883 46.4723 56.9551 46.047 57.0887 45.6604C57.2293 45.2667 57.4191 44.9293 57.6581 44.6481C57.8971 44.3599 58.1818 44.1349 58.5122 43.9732C58.8426 43.8115 59.2011 43.7307 59.5878 43.7307C59.9744 43.7307 60.3294 43.8115 60.6528 43.9732C60.9832 44.1349 61.2679 44.3599 61.5069 44.6481C61.753 44.9293 61.9428 45.2667 62.0763 45.6604C62.2169 46.047 62.2872 46.4723 62.2872 46.9363ZM61.1062 46.9363C61.1062 46.6199 61.0676 46.3317 60.9902 46.0716C60.9199 45.8115 60.8145 45.5866 60.6739 45.3968C60.5403 45.207 60.3786 45.0629 60.1888 44.9644C60.0061 44.859 59.8057 44.8063 59.5878 44.8063C59.3558 44.8063 59.1449 44.859 58.9551 44.9644C58.7723 45.0629 58.6106 45.207 58.4701 45.3968C58.3365 45.5866 58.231 45.8115 58.1537 46.0716C58.0834 46.3317 58.0483 46.6199 58.0483 46.9363C58.0483 47.2526 58.0834 47.5408 58.1537 47.801C58.231 48.0611 58.3365 48.286 58.4701 48.4758C58.6106 48.6586 58.7723 48.8027 58.9551 48.9081C59.1449 49.0066 59.3558 49.0558 59.5878 49.0558C59.8057 49.0558 60.0061 49.0066 60.1888 48.9081C60.3786 48.8027 60.5403 48.6586 60.6739 48.4758C60.8145 48.286 60.9199 48.0611 60.9902 47.801C61.0676 47.5408 61.1062 47.2526 61.1062 46.9363Z" fill="white" fill-opacity="0.7"/>
<path d="M29.2035 175.189V176.233H25.1754V175.189H26.6727V171.509C26.6095 171.593 26.5111 171.681 26.3775 171.772C26.2439 171.864 26.0963 171.948 25.9346 172.025C25.7729 172.103 25.6042 172.169 25.4285 172.226C25.2527 172.275 25.0981 172.3 24.9645 172.3V171.213C25.1051 171.213 25.2668 171.171 25.4496 171.087C25.6394 171.003 25.8186 170.904 25.9873 170.792C26.1631 170.679 26.3142 170.567 26.4408 170.454C26.5743 170.342 26.6516 170.261 26.6727 170.212H27.8643V175.189H29.2035ZM35.3901 173.143C35.3901 173.607 35.3198 174.036 35.1792 174.43C35.0456 174.816 34.8558 175.154 34.6098 175.442C34.3707 175.723 34.086 175.944 33.7556 176.106C33.4323 176.261 33.0773 176.338 32.6906 176.338C32.304 176.338 31.9455 176.261 31.6151 176.106C31.2847 175.944 31 175.723 30.7609 175.442C30.5219 175.154 30.3321 174.816 30.1915 174.43C30.058 174.036 29.9912 173.607 29.9912 173.143C29.9912 172.679 30.058 172.254 30.1915 171.867C30.3321 171.474 30.5219 171.136 30.7609 170.855C31 170.567 31.2847 170.342 31.6151 170.18C31.9455 170.018 32.304 169.937 32.6906 169.937C33.0773 169.937 33.4323 170.018 33.7556 170.18C34.086 170.342 34.3707 170.567 34.6098 170.855C34.8558 171.136 35.0456 171.474 35.1792 171.867C35.3198 172.254 35.3901 172.679 35.3901 173.143ZM34.2091 173.143C34.2091 172.827 34.1704 172.539 34.0931 172.278C34.0228 172.018 33.9173 171.793 33.7767 171.604C33.6432 171.414 33.4815 171.27 33.2917 171.171C33.1089 171.066 32.9085 171.013 32.6906 171.013C32.4586 171.013 32.2477 171.066 32.0579 171.171C31.8752 171.27 31.7135 171.414 31.5729 171.604C31.4393 171.793 31.3339 172.018 31.2565 172.278C31.1862 172.539 31.1511 172.827 31.1511 173.143C31.1511 173.459 31.1862 173.748 31.2565 174.008C31.3339 174.268 31.4393 174.493 31.5729 174.683C31.7135 174.865 31.8752 175.009 32.0579 175.115C32.2477 175.213 32.4586 175.263 32.6906 175.263C32.9085 175.263 33.1089 175.213 33.2917 175.115C33.4815 175.009 33.6432 174.865 33.7767 174.683C33.9173 174.493 34.0228 174.268 34.0931 174.008C34.1704 173.748 34.2091 173.459 34.2091 173.143ZM41.8672 173.143C41.8672 173.607 41.7969 174.036 41.6563 174.43C41.5227 174.816 41.3329 175.154 41.0869 175.442C40.8479 175.723 40.5632 175.944 40.2328 176.106C39.9094 176.261 39.5544 176.338 39.1678 176.338C38.7811 176.338 38.4226 176.261 38.0922 176.106C37.7618 175.944 37.4771 175.723 37.2381 175.442C36.9991 175.154 36.8093 174.816 36.6687 174.43C36.5351 174.036 36.4683 173.607 36.4683 173.143C36.4683 172.679 36.5351 172.254 36.6687 171.867C36.8093 171.474 36.9991 171.136 37.2381 170.855C37.4771 170.567 37.7618 170.342 38.0922 170.18C38.4226 170.018 38.7811 169.937 39.1678 169.937C39.5544 169.937 39.9094 170.018 40.2328 170.18C40.5632 170.342 40.8479 170.567 41.0869 170.855C41.3329 171.136 41.5227 171.474 41.6563 171.867C41.7969 172.254 41.8672 172.679 41.8672 173.143ZM40.6862 173.143C40.6862 172.827 40.6475 172.539 40.5702 172.278C40.4999 172.018 40.3945 171.793 40.2539 171.604C40.1203 171.414 39.9586 171.27 39.7688 171.171C39.586 171.066 39.3857 171.013 39.1678 171.013C38.9358 171.013 38.7249 171.066 38.5351 171.171C38.3523 171.27 38.1906 171.414 38.05 171.604C37.9165 171.793 37.811 172.018 37.7337 172.278C37.6634 172.539 37.6282 172.827 37.6282 173.143C37.6282 173.459 37.6634 173.748 37.7337 174.008C37.811 174.268 37.9165 174.493 38.05 174.683C38.1906 174.865 38.3523 175.009 38.5351 175.115C38.7249 175.213 38.9358 175.263 39.1678 175.263C39.3857 175.263 39.586 175.213 39.7688 175.115C39.9586 175.009 40.1203 174.865 40.2539 174.683C40.3945 174.493 40.4999 174.268 40.5702 174.008C40.6475 173.748 40.6862 173.459 40.6862 173.143ZM48.3444 173.143C48.3444 173.607 48.2741 174.036 48.1335 174.43C47.9999 174.816 47.8101 175.154 47.5641 175.442C47.325 175.723 47.0403 175.944 46.7099 176.106C46.3866 176.261 46.0316 176.338 45.6449 176.338C45.2583 176.338 44.8998 176.261 44.5694 176.106C44.239 175.944 43.9543 175.723 43.7152 175.442C43.4762 175.154 43.2864 174.816 43.1458 174.43C43.0123 174.036 42.9455 173.607 42.9455 173.143C42.9455 172.679 43.0123 172.254 43.1458 171.867C43.2864 171.474 43.4762 171.136 43.7152 170.855C43.9543 170.567 44.239 170.342 44.5694 170.18C44.8998 170.018 45.2583 169.937 45.6449 169.937C46.0316 169.937 46.3866 170.018 46.7099 170.18C47.0403 170.342 47.325 170.567 47.5641 170.855C47.8101 171.136 47.9999 171.474 48.1335 171.867C48.2741 172.254 48.3444 172.679 48.3444 173.143ZM47.1634 173.143C47.1634 172.827 47.1247 172.539 47.0474 172.278C46.9771 172.018 46.8716 171.793 46.731 171.604C46.5975 171.414 46.4358 171.27 46.246 171.171C46.0632 171.066 45.8628 171.013 45.6449 171.013C45.4129 171.013 45.202 171.066 45.0122 171.171C44.8295 171.27 44.6678 171.414 44.5272 171.604C44.3936 171.793 44.2882 172.018 44.2108 172.278C44.1405 172.539 44.1054 172.827 44.1054 173.143C44.1054 173.459 44.1405 173.748 44.2108 174.008C44.2882 174.268 44.3936 174.493 44.5272 174.683C44.6678 174.865 44.8295 175.009 45.0122 175.115C45.202 175.213 45.4129 175.263 45.6449 175.263C45.8628 175.263 46.0632 175.213 46.246 175.115C46.4358 175.009 46.5975 174.865 46.731 174.683C46.8716 174.493 46.9771 174.268 47.0474 174.008C47.1247 173.748 47.1634 173.459 47.1634 173.143ZM54.8215 173.143C54.8215 173.607 54.7512 174.036 54.6106 174.43C54.477 174.816 54.2872 175.154 54.0412 175.442C53.8022 175.723 53.5175 175.944 53.1871 176.106C52.8637 176.261 52.5087 176.338 52.1221 176.338C51.7354 176.338 51.3769 176.261 51.0465 176.106C50.7161 175.944 50.4314 175.723 50.1924 175.442C49.9534 175.154 49.7636 174.816 49.623 174.43C49.4894 174.036 49.4226 173.607 49.4226 173.143C49.4226 172.679 49.4894 172.254 49.623 171.867C49.7636 171.474 49.9534 171.136 50.1924 170.855C50.4314 170.567 50.7161 170.342 51.0465 170.18C51.3769 170.018 51.7354 169.937 52.1221 169.937C52.5087 169.937 52.8637 170.018 53.1871 170.18C53.5175 170.342 53.8022 170.567 54.0412 170.855C54.2872 171.136 54.477 171.474 54.6106 171.867C54.7512 172.254 54.8215 172.679 54.8215 173.143ZM53.6405 173.143C53.6405 172.827 53.6018 172.539 53.5245 172.278C53.4542 172.018 53.3488 171.793 53.2082 171.604C53.0746 171.414 52.9129 171.27 52.7231 171.171C52.5403 171.066 52.34 171.013 52.1221 171.013C51.8901 171.013 51.6792 171.066 51.4894 171.171C51.3066 171.27 51.1449 171.414 51.0043 171.604C50.8708 171.793 50.7653 172.018 50.688 172.278C50.6177 172.539 50.5825 172.827 50.5825 173.143C50.5825 173.459 50.6177 173.748 50.688 174.008C50.7653 174.268 50.8708 174.493 51.0043 174.683C51.1449 174.865 51.3066 175.009 51.4894 175.115C51.6792 175.213 51.8901 175.263 52.1221 175.263C52.34 175.263 52.5403 175.213 52.7231 175.115C52.9129 175.009 53.0746 174.865 53.2082 174.683C53.3488 174.493 53.4542 174.268 53.5245 174.008C53.6018 173.748 53.6405 173.459 53.6405 173.143ZM61.2987 173.143C61.2987 173.607 61.2284 174.036 61.0878 174.43C60.9542 174.816 60.7644 175.154 60.5184 175.442C60.2793 175.723 59.9946 175.944 59.6642 176.106C59.3409 176.261 58.9859 176.338 58.5992 176.338C58.2126 176.338 57.8541 176.261 57.5237 176.106C57.1933 175.944 56.9086 175.723 56.6695 175.442C56.4305 175.154 56.2407 174.816 56.1001 174.43C55.9666 174.036 55.8998 173.607 55.8998 173.143C55.8998 172.679 55.9666 172.254 56.1001 171.867C56.2407 171.474 56.4305 171.136 56.6695 170.855C56.9086 170.567 57.1933 170.342 57.5237 170.18C57.8541 170.018 58.2126 169.937 58.5992 169.937C58.9859 169.937 59.3409 170.018 59.6642 170.18C59.9946 170.342 60.2793 170.567 60.5184 170.855C60.7644 171.136 60.9542 171.474 61.0878 171.867C61.2284 172.254 61.2987 172.679 61.2987 173.143ZM60.1177 173.143C60.1177 172.827 60.079 172.539 60.0017 172.278C59.9314 172.018 59.8259 171.793 59.6853 171.604C59.5518 171.414 59.3901 171.27 59.2003 171.171C59.0175 171.066 58.8171 171.013 58.5992 171.013C58.3672 171.013 58.1563 171.066 57.9665 171.171C57.7838 171.27 57.6221 171.414 57.4815 171.604C57.3479 171.793 57.2425 172.018 57.1651 172.278C57.0948 172.539 57.0597 172.827 57.0597 173.143C57.0597 173.459 57.0948 173.748 57.1651 174.008C57.2425 174.268 57.3479 174.493 57.4815 174.683C57.6221 174.865 57.7838 175.009 57.9665 175.115C58.1563 175.213 58.3672 175.263 58.5992 175.263C58.8171 175.263 59.0175 175.213 59.2003 175.115C59.3901 175.009 59.5518 174.865 59.6853 174.683C59.8259 174.493 59.9314 174.268 60.0017 174.008C60.079 173.748 60.1177 173.459 60.1177 173.143Z" fill="white" fill-opacity="0.7"/>
<path d="M27.4952 6.6621C27.8467 6.6621 28.1701 6.72185 28.4653 6.84136C28.7676 6.96086 29.0277 7.12606 29.2456 7.33696C29.4706 7.54785 29.6428 7.80092 29.7623 8.09617C29.8889 8.39142 29.9521 8.7148 29.9521 9.06628C29.9521 9.43886 29.8818 9.77981 29.7412 10.0891C29.6077 10.3984 29.4179 10.662 29.1718 10.88C28.9328 11.1049 28.6481 11.2772 28.3177 11.3967C27.9873 11.5162 27.6323 11.5759 27.2527 11.5759C26.7114 11.5759 26.2263 11.4529 25.7975 11.2069C25.3687 10.9678 25.0418 10.641 24.8169 10.2262L25.5128 9.56188C25.7097 9.85714 25.9627 10.0961 26.272 10.2789C26.5814 10.4617 26.9118 10.5531 27.2632 10.5531C27.6991 10.5531 28.0576 10.4195 28.3388 10.1524C28.62 9.88525 28.7606 9.53025 28.7606 9.08737C28.7606 8.87648 28.7219 8.68668 28.6446 8.51796C28.5743 8.34222 28.4759 8.19459 28.3493 8.07508C28.2228 7.94855 28.0717 7.85013 27.8959 7.77983C27.7272 7.70954 27.5409 7.67439 27.3371 7.67439C27.0699 7.67439 26.8204 7.73414 26.5884 7.85365C26.3564 7.96612 26.1666 8.13484 26.019 8.35979H24.9961C25.0032 8.33167 25.0172 8.24731 25.0383 8.10672C25.0664 7.96612 25.1016 7.79038 25.1438 7.57948C25.1859 7.36859 25.2316 7.13309 25.2808 6.87299C25.33 6.61289 25.3828 6.34927 25.439 6.08214C25.5655 5.45649 25.7026 4.75703 25.8503 3.98375H29.5093V5.04876H26.6938L26.3142 7.09443C26.4337 6.96086 26.5919 6.85542 26.7887 6.77809C26.9926 6.70076 27.2281 6.6621 27.4952 6.6621ZM36.2345 6.91517C36.2345 7.37914 36.1642 7.80795 36.0236 8.20162C35.89 8.58826 35.7002 8.92569 35.4541 9.21391C35.2151 9.4951 34.9304 9.71654 34.6 9.87822C34.2767 10.0329 33.9217 10.1102 33.535 10.1102C33.1484 10.1102 32.7899 10.0329 32.4595 9.87822C32.1291 9.71654 31.8444 9.4951 31.6053 9.21391C31.3663 8.92569 31.1765 8.58826 31.0359 8.20162C30.9024 7.80795 30.8356 7.37914 30.8356 6.91517C30.8356 6.4512 30.9024 6.0259 31.0359 5.63926C31.1765 5.2456 31.3663 4.90817 31.6053 4.62697C31.8444 4.33875 32.1291 4.1138 32.4595 3.95212C32.7899 3.79043 33.1484 3.70959 33.535 3.70959C33.9217 3.70959 34.2767 3.79043 34.6 3.95212C34.9304 4.1138 35.2151 4.33875 35.4541 4.62697C35.7002 4.90817 35.89 5.2456 36.0236 5.63926C36.1642 6.0259 36.2345 6.4512 36.2345 6.91517ZM35.0535 6.91517C35.0535 6.59883 35.0148 6.31061 34.9375 6.05051C34.8672 5.7904 34.7617 5.56545 34.6211 5.37565C34.4876 5.18584 34.3259 5.04173 34.1361 4.94332C33.9533 4.83787 33.7529 4.78514 33.535 4.78514C33.303 4.78514 33.0921 4.83787 32.9023 4.94332C32.7196 5.04173 32.5579 5.18584 32.4173 5.37565C32.2837 5.56545 32.1783 5.7904 32.1009 6.05051C32.0306 6.31061 31.9955 6.59883 31.9955 6.91517C31.9955 7.23151 32.0306 7.51973 32.1009 7.77983C32.1783 8.03994 32.2837 8.26489 32.4173 8.45469C32.5579 8.63747 32.7196 8.78158 32.9023 8.88702C33.0921 8.98544 33.303 9.03465 33.535 9.03465C33.7529 9.03465 33.9533 8.98544 34.1361 8.88702C34.3259 8.78158 34.4876 8.63747 34.6211 8.45469C34.7617 8.26489 34.8672 8.03994 34.9375 7.77983C35.0148 7.51973 35.0535 7.23151 35.0535 6.91517ZM42.7116 6.91517C42.7116 7.37914 42.6413 7.80795 42.5007 8.20162C42.3671 8.58826 42.1773 8.92569 41.9313 9.21391C41.6923 9.4951 41.4076 9.71654 41.0772 9.87822C40.7538 10.0329 40.3988 10.1102 40.0122 10.1102C39.6255 10.1102 39.267 10.0329 38.9366 9.87822C38.6062 9.71654 38.3215 9.4951 38.0825 9.21391C37.8435 8.92569 37.6537 8.58826 37.5131 8.20162C37.3795 7.80795 37.3127 7.37914 37.3127 6.91517C37.3127 6.4512 37.3795 6.0259 37.5131 5.63926C37.6537 5.2456 37.8435 4.90817 38.0825 4.62697C38.3215 4.33875 38.6062 4.1138 38.9366 3.95212C39.267 3.79043 39.6255 3.70959 40.0122 3.70959C40.3988 3.70959 40.7538 3.79043 41.0772 3.95212C41.4076 4.1138 41.6923 4.33875 41.9313 4.62697C42.1773 4.90817 42.3671 5.2456 42.5007 5.63926C42.6413 6.0259 42.7116 6.4512 42.7116 6.91517ZM41.5306 6.91517C41.5306 6.59883 41.4919 6.31061 41.4146 6.05051C41.3443 5.7904 41.2389 5.56545 41.0983 5.37565C40.9647 5.18584 40.803 5.04173 40.6132 4.94332C40.4304 4.83787 40.2301 4.78514 40.0122 4.78514C39.7802 4.78514 39.5693 4.83787 39.3795 4.94332C39.1967 5.04173 39.035 5.18584 38.8944 5.37565C38.7609 5.56545 38.6554 5.7904 38.5781 6.05051C38.5078 6.31061 38.4726 6.59883 38.4726 6.91517C38.4726 7.23151 38.5078 7.51973 38.5781 7.77983C38.6554 8.03994 38.7609 8.26489 38.8944 8.45469C39.035 8.63747 39.1967 8.78158 39.3795 8.88702C39.5693 8.98544 39.7802 9.03465 40.0122 9.03465C40.2301 9.03465 40.4304 8.98544 40.6132 8.88702C40.803 8.78158 40.9647 8.63747 41.0983 8.45469C41.2389 8.26489 41.3443 8.03994 41.4146 7.77983C41.4919 7.51973 41.5306 7.23151 41.5306 6.91517ZM49.1888 6.91517C49.1888 7.37914 49.1185 7.80795 48.9779 8.20162C48.8443 8.58826 48.6545 8.92569 48.4084 9.21391C48.1694 9.4951 47.8847 9.71654 47.5543 9.87822C47.231 10.0329 46.876 10.1102 46.4893 10.1102C46.1027 10.1102 45.7442 10.0329 45.4138 9.87822C45.0834 9.71654 44.7987 9.4951 44.5596 9.21391C44.3206 8.92569 44.1308 8.58826 43.9902 8.20162C43.8567 7.80795 43.7899 7.37914 43.7899 6.91517C43.7899 6.4512 43.8567 6.0259 43.9902 5.63926C44.1308 5.2456 44.3206 4.90817 44.5596 4.62697C44.7987 4.33875 45.0834 4.1138 45.4138 3.95212C45.7442 3.79043 46.1027 3.70959 46.4893 3.70959C46.876 3.70959 47.231 3.79043 47.5543 3.95212C47.8847 4.1138 48.1694 4.33875 48.4084 4.62697C48.6545 4.90817 48.8443 5.2456 48.9779 5.63926C49.1185 6.0259 49.1888 6.4512 49.1888 6.91517ZM48.0078 6.91517C48.0078 6.59883 47.9691 6.31061 47.8918 6.05051C47.8215 5.7904 47.716 5.56545 47.5754 5.37565C47.4419 5.18584 47.2802 5.04173 47.0904 4.94332C46.9076 4.83787 46.7072 4.78514 46.4893 4.78514C46.2573 4.78514 46.0464 4.83787 45.8566 4.94332C45.6739 5.04173 45.5122 5.18584 45.3716 5.37565C45.238 5.56545 45.1326 5.7904 45.0552 6.05051C44.9849 6.31061 44.9498 6.59883 44.9498 6.91517C44.9498 7.23151 44.9849 7.51973 45.0552 7.77983C45.1326 8.03994 45.238 8.26489 45.3716 8.45469C45.5122 8.63747 45.6739 8.78158 45.8566 8.88702C46.0464 8.98544 46.2573 9.03465 46.4893 9.03465C46.7072 9.03465 46.9076 8.98544 47.0904 8.88702C47.2802 8.78158 47.4419 8.63747 47.5754 8.45469C47.716 8.26489 47.8215 8.03994 47.8918 7.77983C47.9691 7.51973 48.0078 7.23151 48.0078 6.91517ZM55.6659 6.91517C55.6659 7.37914 55.5956 7.80795 55.455 8.20162C55.3214 8.58826 55.1316 8.92569 54.8856 9.21391C54.6466 9.4951 54.3619 9.71654 54.0315 9.87822C53.7081 10.0329 53.3531 10.1102 52.9665 10.1102C52.5798 10.1102 52.2213 10.0329 51.8909 9.87822C51.5605 9.71654 51.2758 9.4951 51.0368 9.21391C50.7978 8.92569 50.608 8.58826 50.4674 8.20162C50.3338 7.80795 50.267 7.37914 50.267 6.91517C50.267 6.4512 50.3338 6.0259 50.4674 5.63926C50.608 5.2456 50.7978 4.90817 51.0368 4.62697C51.2758 4.33875 51.5605 4.1138 51.8909 3.95212C52.2213 3.79043 52.5798 3.70959 52.9665 3.70959C53.3531 3.70959 53.7081 3.79043 54.0315 3.95212C54.3619 4.1138 54.6466 4.33875 54.8856 4.62697C55.1316 4.90817 55.3214 5.2456 55.455 5.63926C55.5956 6.0259 55.6659 6.4512 55.6659 6.91517ZM54.4849 6.91517C54.4849 6.59883 54.4462 6.31061 54.3689 6.05051C54.2986 5.7904 54.1932 5.56545 54.0526 5.37565C53.919 5.18584 53.7573 5.04173 53.5675 4.94332C53.3847 4.83787 53.1844 4.78514 52.9665 4.78514C52.7345 4.78514 52.5236 4.83787 52.3338 4.94332C52.151 5.04173 51.9893 5.18584 51.8487 5.37565C51.7152 5.56545 51.6097 5.7904 51.5324 6.05051C51.4621 6.31061 51.4269 6.59883 51.4269 6.91517C51.4269 7.23151 51.4621 7.51973 51.5324 7.77983C51.6097 8.03994 51.7152 8.26489 51.8487 8.45469C51.9893 8.63747 52.151 8.78158 52.3338 8.88702C52.5236 8.98544 52.7345 9.03465 52.9665 9.03465C53.1844 9.03465 53.3847 8.98544 53.5675 8.88702C53.7573 8.78158 53.919 8.63747 54.0526 8.45469C54.1932 8.26489 54.2986 8.03994 54.3689 7.77983C54.4462 7.51973 54.4849 7.23151 54.4849 6.91517ZM62.1431 6.91517C62.1431 7.37914 62.0728 7.80795 61.9322 8.20162C61.7986 8.58826 61.6088 8.92569 61.3628 9.21391C61.1237 9.4951 60.839 9.71654 60.5086 9.87822C60.1853 10.0329 59.8303 10.1102 59.4436 10.1102C59.057 10.1102 58.6985 10.0329 58.3681 9.87822C58.0377 9.71654 57.753 9.4951 57.5139 9.21391C57.2749 8.92569 57.0851 8.58826 56.9445 8.20162C56.811 7.80795 56.7442 7.37914 56.7442 6.91517C56.7442 6.4512 56.811 6.0259 56.9445 5.63926C57.0851 5.2456 57.2749 4.90817 57.5139 4.62697C57.753 4.33875 58.0377 4.1138 58.3681 3.95212C58.6985 3.79043 59.057 3.70959 59.4436 3.70959C59.8303 3.70959 60.1853 3.79043 60.5086 3.95212C60.839 4.1138 61.1237 4.33875 61.3628 4.62697C61.6088 4.90817 61.7986 5.2456 61.9322 5.63926C62.0728 6.0259 62.1431 6.4512 62.1431 6.91517ZM60.9621 6.91517C60.9621 6.59883 60.9234 6.31061 60.8461 6.05051C60.7758 5.7904 60.6703 5.56545 60.5297 5.37565C60.3962 5.18584 60.2345 5.04173 60.0447 4.94332C59.8619 4.83787 59.6615 4.78514 59.4436 4.78514C59.2116 4.78514 59.0007 4.83787 58.8109 4.94332C58.6282 5.04173 58.4665 5.18584 58.3259 5.37565C58.1923 5.56545 58.0869 5.7904 58.0095 6.05051C57.9392 6.31061 57.9041 6.59883 57.9041 6.91517C57.9041 7.23151 57.9392 7.51973 58.0095 7.77983C58.0869 8.03994 58.1923 8.26489 58.3259 8.45469C58.4665 8.63747 58.6282 8.78158 58.8109 8.88702C59.0007 8.98544 59.2116 9.03465 59.4436 9.03465C59.6615 9.03465 59.8619 8.98544 60.0447 8.88702C60.2345 8.78158 60.3962 8.63747 60.5297 8.45469C60.6703 8.26489 60.7758 8.03994 60.8461 7.77983C60.9234 7.51973 60.9621 7.23151 60.9621 6.91517Z" fill="white" fill-opacity="0.7"/>
<path d="M223.028 81.8458L348.555 36.8137V78.8967L223.028 98.5907L73.2385 150.985V117.728L223.028 81.8458Z" fill="white" fill-opacity="0.08"/>
<line x1="73.1045" y1="4.65439" x2="348.458" y2="4.65439" stroke="#4A4A4A" stroke-width="0.878723"/>
<line x1="73.1045" y1="173.475" x2="348.458" y2="173.475" stroke="#4A4A4A" stroke-width="0.878723"/>
<line x1="73.1045" y1="46.8337" x2="348.458" y2="46.8337" stroke="#4A4A4A" stroke-width="0.878723"/>
<line x1="73.1045" y1="131.202" x2="348.458" y2="131.202" stroke="#4A4A4A" stroke-width="0.878723"/>
<line x1="73.1045" y1="88.7711" x2="348.458" y2="88.7711" stroke="#4A4A4A" stroke-width="0.878723"/>
<line x1="96.9742" y1="173.914" x2="96.9742" y2="5.00714" stroke="#4A4A4A" stroke-width="0.878723"/>
<line x1="140.91" y1="173.914" x2="140.91" y2="5.00714" stroke="#4A4A4A" stroke-width="0.878723"/>
<line x1="316.977" y1="173.914" x2="316.977" y2="5.00714" stroke="#4A4A4A" stroke-width="0.878723"/>
<line x1="273.041" y1="173.914" x2="273.041" y2="5.00714" stroke="#4A4A4A" stroke-width="0.878723"/>
<line x1="229.105" y1="173.914" x2="229.105" y2="5.00714" stroke="#4A4A4A" stroke-width="0.878723"/>
<line x1="184.847" y1="173.914" x2="184.847" y2="5.00714" stroke="#4A4A4A" stroke-width="0.878723"/>
<ellipse cx="98.2587" cy="104.748" rx="5.55439" ry="5.532" fill="#0F58B3"/>
<ellipse cx="192.388" cy="60.6256" rx="5.55439" ry="5.532" fill="#0F58B3"/>
<ellipse cx="98.2587" cy="131.976" rx="5.55439" ry="5.532" fill="#0F58B3"/>
<ellipse cx="116.845" cy="116.371" rx="5.55439" ry="5.532" fill="#0F58B3"/>
<ellipse cx="122.399" cy="112.251" rx="5.55439" ry="5.532" fill="#0F58B3"/>
<ellipse cx="127.957" cy="110.839" rx="5.55439" ry="5.532" fill="#0F58B3"/>
<ellipse cx="133.51" cy="106.719" rx="5.55439" ry="5.532" fill="#0F58B3"/>
<ellipse cx="132.028" cy="130.7" rx="5.55439" ry="5.532" fill="#0F58B3"/>
<ellipse cx="143.135" cy="105.869" rx="5.55439" ry="5.532" fill="#0F58B3"/>
<ellipse cx="152.098" cy="108.48" rx="5.55439" ry="5.532" fill="#0F58B3"/>
<ellipse cx="158.314" cy="102.949" rx="5.55439" ry="5.532" fill="#0F58B3"/>
<ellipse cx="154.243" cy="79.8919" rx="5.55439" ry="5.532" fill="#0F58B3"/>
<ellipse cx="137.581" cy="72.677" rx="5.55439" ry="5.532" fill="#0F58B3"/>
<ellipse cx="168.79" cy="101.187" rx="5.55439" ry="5.532" fill="#0F58B3"/>
<ellipse cx="180.055" cy="99.7749" rx="5.55439" ry="5.532" fill="#0F58B3"/>
<ellipse cx="191.163" cy="95.6549" rx="5.55439" ry="5.532" fill="#0F58B3"/>
<ellipse cx="202.27" cy="93.6836" rx="5.55439" ry="5.532" fill="#0F58B3"/>
<ellipse cx="213.382" cy="90.9557" rx="5.55439" ry="5.532" fill="#0F58B3"/>
<ellipse cx="180.055" cy="81.314" rx="5.55439" ry="5.532" fill="#0F58B3"/>
<ellipse cx="219.008" cy="94.8047" rx="5.55439" ry="5.532" fill="#0F58B3"/>
<ellipse cx="213.666" cy="112.251" rx="5.55439" ry="5.532" fill="#0F58B3"/>
<ellipse cx="224.561" cy="91.8845" rx="5.55439" ry="5.532" fill="#0F58B3"/>
<ellipse cx="235.741" cy="85.4237" rx="5.55439" ry="5.532" fill="#0F58B3"/>
<ellipse cx="241.295" cy="83.741" rx="5.55439" ry="5.532" fill="#0F58B3"/>
<ellipse cx="248.651" cy="83.741" rx="5.55439" ry="5.532" fill="#0F58B3"/>
<ellipse cx="238.12" cy="156.517" rx="5.55439" ry="5.532" fill="#0F58B3"/>
<ellipse cx="256.998" cy="80.8208" rx="5.55439" ry="5.532" fill="#0F58B3"/>
<ellipse cx="250.058" cy="71.6895" rx="5.55439" ry="5.532" fill="#0F58B3"/>
<ellipse cx="265.998" cy="78.2089" rx="5.55439" ry="5.532" fill="#0F58B3"/>
<ellipse cx="271.556" cy="74.3598" rx="5.55439" ry="5.532" fill="#0F58B3"/>
<ellipse cx="284.466" cy="80.8208" rx="5.55439" ry="5.532" fill="#0F58B3"/>
<ellipse cx="302.929" cy="78.2089" rx="5.55439" ry="5.532" fill="#0F58B3"/>
<ellipse cx="306.138" cy="93.8206" rx="5.55439" ry="5.532" fill="#0F58B3"/>
<ellipse cx="271.106" cy="98.9986" rx="5.55439" ry="5.532" fill="#0F58B3"/>
<ellipse cx="278.912" cy="116.371" rx="5.55439" ry="5.532" fill="#0F58B3"/>
<ellipse cx="242.836" cy="126.444" rx="5.55439" ry="5.532" fill="#0F58B3"/>
<ellipse cx="221.853" cy="139.911" rx="5.55439" ry="5.532" fill="#0F58B3"/>
<ellipse cx="316.099" cy="137.508" rx="5.55439" ry="5.532" fill="#0F58B3"/>
<ellipse cx="265.998" cy="141.772" rx="5.55439" ry="5.532" fill="#0F58B3"/>
<ellipse cx="297.499" cy="112.251" rx="5.55439" ry="5.532" fill="#0F58B3"/>
<ellipse cx="251.445" cy="51.8172" rx="5.55439" ry="5.532" fill="#0F58B3"/>
<ellipse cx="158.314" cy="23.4658" rx="5.55439" ry="5.532" fill="#0F58B3"/>
<ellipse cx="168.79" cy="139.098" rx="5.55439" ry="5.532" fill="#0F58B3"/>
<ellipse cx="172.037" cy="154.223" rx="5.55439" ry="5.532" fill="#0F58B3"/>
<ellipse cx="177.594" cy="119.636" rx="5.55439" ry="5.532" fill="#0F58B3"/>
<ellipse cx="316.099" cy="58.9769" rx="5.55439" ry="5.532" fill="#0F58B3"/>
<ellipse cx="293.246" cy="53.445" rx="5.55439" ry="5.532" fill="#0F58B3"/>
<ellipse cx="273.354" cy="49.5615" rx="5.55439" ry="5.532" fill="#0F58B3"/>
<ellipse cx="290.146" cy="24.1705" rx="5.55439" ry="5.532" fill="#0F58B3"/>
<ellipse cx="336.736" cy="42.9966" rx="5.55439" ry="5.532" fill="#0F58B3"/>
<ellipse cx="321.653" cy="75.7818" rx="5.55439" ry="5.532" fill="#0F58B3"/>
<ellipse cx="332.761" cy="87.9348" rx="5.55439" ry="5.532" fill="#0F58B3"/>
<ellipse cx="241.295" cy="35.2344" rx="5.55439" ry="5.532" fill="#0F58B3"/>
<ellipse cx="224.633" cy="57.3493" rx="5.55439" ry="5.532" fill="#0F58B3"/>
<line y1="-0.439362" x2="272.347" y2="-0.439362" transform="matrix(0.973731 -0.227702 0.229452 0.97332 80.4844 125.077)" stroke="#FFC600" stroke-width="0.878723"/>
<line x1="416.439" y1="5.00745" x2="416.439" y2="175.098" stroke="#4A4A4A" stroke-width="0.878723"/>
<line x1="362.635" y1="5.00745" x2="362.635" y2="175.098" stroke="#4A4A4A" stroke-width="0.878723"/>
<line x1="361.569" y1="12.0634" x2="415.323" y2="12.0634" stroke="#4A4A4A" stroke-width="0.878723"/>
<line x1="361.569" y1="56.7811" x2="415.323" y2="56.7811" stroke="#4A4A4A" stroke-width="0.878723"/>
<line x1="361.569" y1="99.7762" x2="415.323" y2="99.7762" stroke="#4A4A4A" stroke-width="0.878723"/>
<line x1="361.569" y1="142.348" x2="415.323" y2="142.348" stroke="#4A4A4A" stroke-width="0.878723"/>
<rect x="382.583" y="83.4392" width="6.02365" height="21.0156" transform="rotate(90 382.583 83.4392)" fill="#0F58B3"/>
<rect x="377.565" y="28.4893" width="6.02365" height="15.9979" transform="rotate(90 377.565 28.4893)" fill="#0F58B3"/>
<rect x="374.098" y="120.072" width="6.02365" height="12.5316" transform="rotate(90 374.098 120.072)" fill="#0F58B3"/>
<rect x="387.166" y="46.803" width="6.02365" height="25.5986" transform="rotate(90 387.166 46.803)" fill="#0F58B3"/>
<rect x="378.392" y="138.387" width="6.02365" height="16.8256" transform="rotate(90 378.392 138.387)" fill="#0F58B3"/>
<rect x="386.215" y="74.2797" width="6.02365" height="24.6479" transform="rotate(90 386.215 74.2797)" fill="#0F58B3"/>
<rect x="375.646" y="37.646" width="6.02365" height="14.0779" transform="rotate(90 375.646 37.646)" fill="#0F58B3"/>
<rect x="377.565" y="129.229" width="6.02365" height="15.9981" transform="rotate(90 377.565 129.229)" fill="#0F58B3"/>
<rect x="377.565" y="92.597" width="6.02365" height="15.9981" transform="rotate(90 377.565 92.597)" fill="#0F58B3"/>
<rect x="384.379" y="55.9624" width="6.02365" height="22.8115" transform="rotate(90 384.379 55.9624)" fill="#0F58B3"/>
<rect x="367.237" y="147.546" width="6.02365" height="5.66833" transform="rotate(90 367.237 147.546)" fill="#0F58B3"/>
<rect x="373.086" y="101.757" width="6.02365" height="11.5176" transform="rotate(90 373.086 101.757)" fill="#0F58B3"/>
<rect x="379.354" y="65.1201" width="6.02365" height="17.7864" transform="rotate(90 379.354 65.1201)" fill="#0F58B3"/>
<rect x="370.312" y="10.1693" width="6.02365" height="8.74625" transform="rotate(90 370.312 10.1693)" fill="#0F58B3"/>
<rect x="374.098" y="19.3254" width="6.02365" height="12.5312" transform="rotate(90 374.098 19.3254)" fill="#0F58B3"/>
<rect x="370.312" y="110.915" width="6.02365" height="8.74593" transform="rotate(90 370.312 110.915)" fill="#0F58B3"/>
<path d="M371.835 10.1693C373.522 18.6672 380.425 36.0396 381.964 47.3611C382.722 52.9367 382.855 55.3183 381.964 62.4405C380.578 73.5146 375.385 76.7667 372.696 89.9241C370.799 99.2077 370.366 106.027 372.696 117.215C375.743 125.295 373.28 135.172 373.28 135.172C373.28 135.172 371.778 141.286 369.356 146.577C366.933 151.867 366.283 150.221 365.905 151.867" stroke="#FFC600" stroke-width="1.75745"/>
</svg>
