<svg width="415" height="212" viewBox="0 0 415 212" fill="none" xmlns="http://www.w3.org/2000/svg">
<path d="M246.552 204.196C246.952 204.196 247.32 204.264 247.656 204.4C248 204.536 248.296 204.724 248.544 204.964C248.8 205.204 248.996 205.492 249.132 205.828C249.276 206.164 249.348 206.532 249.348 206.932C249.348 207.356 249.268 207.744 249.108 208.096C248.956 208.448 248.74 208.748 248.46 208.996C248.188 209.252 247.864 209.448 247.488 209.584C247.112 209.72 246.708 209.788 246.276 209.788C245.66 209.788 245.108 209.648 244.62 209.368C244.132 209.096 243.76 208.724 243.504 208.252L244.296 207.496C244.52 207.832 244.808 208.104 245.16 208.312C245.512 208.52 245.888 208.624 246.288 208.624C246.784 208.624 247.192 208.472 247.512 208.168C247.832 207.864 247.992 207.46 247.992 206.956C247.992 206.716 247.948 206.5 247.86 206.308C247.78 206.108 247.668 205.94 247.524 205.804C247.38 205.66 247.208 205.548 247.008 205.468C246.816 205.388 246.604 205.348 246.372 205.348C246.068 205.348 245.784 205.416 245.52 205.552C245.256 205.68 245.04 205.872 244.872 206.128H243.708C243.716 206.096 243.732 206 243.756 205.84C243.788 205.68 243.828 205.48 243.876 205.24C243.924 205 243.976 204.732 244.032 204.436C244.088 204.14 244.148 203.84 244.212 203.536C244.356 202.824 244.512 202.028 244.68 201.148H248.844V202.36H245.64L245.208 204.688C245.344 204.536 245.524 204.416 245.748 204.328C245.98 204.24 246.248 204.196 246.552 204.196ZM256.497 204.484C256.497 205.012 256.417 205.5 256.257 205.948C256.105 206.388 255.889 206.772 255.609 207.1C255.337 207.42 255.013 207.672 254.637 207.856C254.269 208.032 253.865 208.12 253.425 208.12C252.985 208.12 252.577 208.032 252.201 207.856C251.825 207.672 251.501 207.42 251.229 207.1C250.957 206.772 250.741 206.388 250.581 205.948C250.429 205.5 250.353 205.012 250.353 204.484C250.353 203.956 250.429 203.472 250.581 203.032C250.741 202.584 250.957 202.2 251.229 201.88C251.501 201.552 251.825 201.296 252.201 201.112C252.577 200.928 252.985 200.836 253.425 200.836C253.865 200.836 254.269 200.928 254.637 201.112C255.013 201.296 255.337 201.552 255.609 201.88C255.889 202.2 256.105 202.584 256.257 203.032C256.417 203.472 256.497 203.956 256.497 204.484ZM255.153 204.484C255.153 204.124 255.109 203.796 255.021 203.5C254.941 203.204 254.821 202.948 254.661 202.732C254.509 202.516 254.325 202.352 254.109 202.24C253.901 202.12 253.673 202.06 253.425 202.06C253.161 202.06 252.921 202.12 252.705 202.24C252.497 202.352 252.313 202.516 252.153 202.732C252.001 202.948 251.881 203.204 251.793 203.5C251.713 203.796 251.673 204.124 251.673 204.484C251.673 204.844 251.713 205.172 251.793 205.468C251.881 205.764 252.001 206.02 252.153 206.236C252.313 206.444 252.497 206.608 252.705 206.728C252.921 206.84 253.161 206.896 253.425 206.896C253.673 206.896 253.901 206.84 254.109 206.728C254.325 206.608 254.509 206.444 254.661 206.236C254.821 206.02 254.941 205.764 255.021 205.468C255.109 205.172 255.153 204.844 255.153 204.484ZM263.868 204.484C263.868 205.012 263.788 205.5 263.628 205.948C263.476 206.388 263.26 206.772 262.98 207.1C262.708 207.42 262.384 207.672 262.008 207.856C261.64 208.032 261.236 208.12 260.796 208.12C260.356 208.12 259.948 208.032 259.572 207.856C259.196 207.672 258.872 207.42 258.6 207.1C258.328 206.772 258.112 206.388 257.952 205.948C257.8 205.5 257.724 205.012 257.724 204.484C257.724 203.956 257.8 203.472 257.952 203.032C258.112 202.584 258.328 202.2 258.6 201.88C258.872 201.552 259.196 201.296 259.572 201.112C259.948 200.928 260.356 200.836 260.796 200.836C261.236 200.836 261.64 200.928 262.008 201.112C262.384 201.296 262.708 201.552 262.98 201.88C263.26 202.2 263.476 202.584 263.628 203.032C263.788 203.472 263.868 203.956 263.868 204.484ZM262.524 204.484C262.524 204.124 262.48 203.796 262.392 203.5C262.312 203.204 262.192 202.948 262.032 202.732C261.88 202.516 261.696 202.352 261.48 202.24C261.272 202.12 261.044 202.06 260.796 202.06C260.532 202.06 260.292 202.12 260.076 202.24C259.868 202.352 259.684 202.516 259.524 202.732C259.372 202.948 259.252 203.204 259.164 203.5C259.084 203.796 259.044 204.124 259.044 204.484C259.044 204.844 259.084 205.172 259.164 205.468C259.252 205.764 259.372 206.02 259.524 206.236C259.684 206.444 259.868 206.608 260.076 206.728C260.292 206.84 260.532 206.896 260.796 206.896C261.044 206.896 261.272 206.84 261.48 206.728C261.696 206.608 261.88 206.444 262.032 206.236C262.192 206.02 262.312 205.764 262.392 205.468C262.48 205.172 262.524 204.844 262.524 204.484Z" fill="white" fill-opacity="0.7"/>
<path d="M95.394 205.401V204.213H98.982V205.401H95.394ZM103.133 204.285C103.533 204.285 103.901 204.353 104.237 204.489C104.581 204.625 104.877 204.813 105.125 205.053C105.381 205.293 105.577 205.581 105.713 205.917C105.857 206.253 105.929 206.621 105.929 207.021C105.929 207.445 105.849 207.833 105.689 208.185C105.537 208.537 105.321 208.837 105.041 209.085C104.769 209.341 104.445 209.537 104.069 209.673C103.693 209.809 103.289 209.877 102.857 209.877C102.241 209.877 101.689 209.737 101.201 209.457C100.713 209.185 100.341 208.813 100.085 208.341L100.877 207.585C101.101 207.921 101.389 208.193 101.741 208.401C102.093 208.609 102.469 208.713 102.869 208.713C103.365 208.713 103.773 208.561 104.093 208.257C104.413 207.953 104.573 207.549 104.573 207.045C104.573 206.805 104.529 206.589 104.441 206.397C104.361 206.197 104.249 206.029 104.105 205.893C103.961 205.749 103.789 205.637 103.589 205.557C103.397 205.477 103.185 205.437 102.953 205.437C102.649 205.437 102.365 205.505 102.101 205.641C101.837 205.769 101.621 205.961 101.453 206.217H100.289C100.297 206.185 100.313 206.089 100.337 205.929C100.369 205.769 100.409 205.569 100.457 205.329C100.505 205.089 100.557 204.821 100.613 204.525C100.669 204.229 100.729 203.929 100.793 203.625C100.937 202.913 101.093 202.117 101.261 201.237H105.425V202.449H102.221L101.789 204.777C101.925 204.625 102.105 204.505 102.329 204.417C102.561 204.329 102.829 204.285 103.133 204.285ZM113.078 204.573C113.078 205.101 112.998 205.589 112.838 206.037C112.686 206.477 112.47 206.861 112.19 207.189C111.918 207.509 111.594 207.761 111.218 207.945C110.85 208.121 110.446 208.209 110.006 208.209C109.566 208.209 109.158 208.121 108.782 207.945C108.406 207.761 108.082 207.509 107.81 207.189C107.538 206.861 107.322 206.477 107.162 206.037C107.01 205.589 106.934 205.101 106.934 204.573C106.934 204.045 107.01 203.561 107.162 203.121C107.322 202.673 107.538 202.289 107.81 201.969C108.082 201.641 108.406 201.385 108.782 201.201C109.158 201.017 109.566 200.925 110.006 200.925C110.446 200.925 110.85 201.017 111.218 201.201C111.594 201.385 111.918 201.641 112.19 201.969C112.47 202.289 112.686 202.673 112.838 203.121C112.998 203.561 113.078 204.045 113.078 204.573ZM111.734 204.573C111.734 204.213 111.69 203.885 111.602 203.589C111.522 203.293 111.402 203.037 111.242 202.821C111.09 202.605 110.906 202.441 110.69 202.329C110.482 202.209 110.254 202.149 110.006 202.149C109.742 202.149 109.502 202.209 109.286 202.329C109.078 202.441 108.894 202.605 108.734 202.821C108.582 203.037 108.462 203.293 108.374 203.589C108.294 203.885 108.254 204.213 108.254 204.573C108.254 204.933 108.294 205.261 108.374 205.557C108.462 205.853 108.582 206.109 108.734 206.325C108.894 206.533 109.078 206.697 109.286 206.817C109.502 206.929 109.742 206.985 110.006 206.985C110.254 206.985 110.482 206.929 110.69 206.817C110.906 206.697 111.09 206.533 111.242 206.325C111.402 206.109 111.522 205.853 111.602 205.557C111.69 205.261 111.734 204.933 111.734 204.573ZM120.449 204.573C120.449 205.101 120.369 205.589 120.209 206.037C120.057 206.477 119.841 206.861 119.561 207.189C119.289 207.509 118.965 207.761 118.589 207.945C118.221 208.121 117.817 208.209 117.377 208.209C116.937 208.209 116.529 208.121 116.153 207.945C115.777 207.761 115.453 207.509 115.181 207.189C114.909 206.861 114.693 206.477 114.533 206.037C114.381 205.589 114.305 205.101 114.305 204.573C114.305 204.045 114.381 203.561 114.533 203.121C114.693 202.673 114.909 202.289 115.181 201.969C115.453 201.641 115.777 201.385 116.153 201.201C116.529 201.017 116.937 200.925 117.377 200.925C117.817 200.925 118.221 201.017 118.589 201.201C118.965 201.385 119.289 201.641 119.561 201.969C119.841 202.289 120.057 202.673 120.209 203.121C120.369 203.561 120.449 204.045 120.449 204.573ZM119.105 204.573C119.105 204.213 119.061 203.885 118.973 203.589C118.893 203.293 118.773 203.037 118.613 202.821C118.461 202.605 118.277 202.441 118.061 202.329C117.853 202.209 117.625 202.149 117.377 202.149C117.113 202.149 116.873 202.209 116.657 202.329C116.449 202.441 116.265 202.605 116.105 202.821C115.953 203.037 115.833 203.293 115.745 203.589C115.665 203.885 115.625 204.213 115.625 204.573C115.625 204.933 115.665 205.261 115.745 205.557C115.833 205.853 115.953 206.109 116.105 206.325C116.265 206.533 116.449 206.697 116.657 206.817C116.873 206.929 117.113 206.985 117.377 206.985C117.625 206.985 117.853 206.929 118.061 206.817C118.277 206.697 118.461 206.533 118.613 206.325C118.773 206.109 118.893 205.853 118.973 205.557C119.061 205.261 119.105 204.933 119.105 204.573Z" fill="white" fill-opacity="0.7"/>
<path d="M319.243 206.812V208H314.659V206.812H316.363V202.624C316.291 202.72 316.179 202.82 316.027 202.924C315.875 203.028 315.707 203.124 315.523 203.212C315.339 203.3 315.147 203.376 314.947 203.44C314.747 203.496 314.571 203.524 314.419 203.524V202.288C314.579 202.288 314.763 202.24 314.971 202.144C315.187 202.048 315.391 201.936 315.583 201.808C315.783 201.68 315.955 201.552 316.099 201.424C316.251 201.296 316.339 201.204 316.363 201.148H317.719V206.812H319.243ZM326.283 204.484C326.283 205.012 326.203 205.5 326.043 205.948C325.891 206.388 325.675 206.772 325.395 207.1C325.123 207.42 324.799 207.672 324.423 207.856C324.055 208.032 323.651 208.12 323.211 208.12C322.771 208.12 322.363 208.032 321.987 207.856C321.611 207.672 321.287 207.42 321.015 207.1C320.743 206.772 320.527 206.388 320.367 205.948C320.215 205.5 320.139 205.012 320.139 204.484C320.139 203.956 320.215 203.472 320.367 203.032C320.527 202.584 320.743 202.2 321.015 201.88C321.287 201.552 321.611 201.296 321.987 201.112C322.363 200.928 322.771 200.836 323.211 200.836C323.651 200.836 324.055 200.928 324.423 201.112C324.799 201.296 325.123 201.552 325.395 201.88C325.675 202.2 325.891 202.584 326.043 203.032C326.203 203.472 326.283 203.956 326.283 204.484ZM324.939 204.484C324.939 204.124 324.895 203.796 324.807 203.5C324.727 203.204 324.607 202.948 324.447 202.732C324.295 202.516 324.111 202.352 323.895 202.24C323.687 202.12 323.459 202.06 323.211 202.06C322.947 202.06 322.707 202.12 322.491 202.24C322.283 202.352 322.099 202.516 321.939 202.732C321.787 202.948 321.667 203.204 321.579 203.5C321.499 203.796 321.459 204.124 321.459 204.484C321.459 204.844 321.499 205.172 321.579 205.468C321.667 205.764 321.787 206.02 321.939 206.236C322.099 206.444 322.283 206.608 322.491 206.728C322.707 206.84 322.947 206.896 323.211 206.896C323.459 206.896 323.687 206.84 323.895 206.728C324.111 206.608 324.295 206.444 324.447 206.236C324.607 206.02 324.727 205.764 324.807 205.468C324.895 205.172 324.939 204.844 324.939 204.484ZM333.655 204.484C333.655 205.012 333.575 205.5 333.415 205.948C333.263 206.388 333.047 206.772 332.767 207.1C332.495 207.42 332.171 207.672 331.795 207.856C331.427 208.032 331.023 208.12 330.583 208.12C330.143 208.12 329.735 208.032 329.359 207.856C328.983 207.672 328.659 207.42 328.387 207.1C328.115 206.772 327.899 206.388 327.739 205.948C327.587 205.5 327.511 205.012 327.511 204.484C327.511 203.956 327.587 203.472 327.739 203.032C327.899 202.584 328.115 202.2 328.387 201.88C328.659 201.552 328.983 201.296 329.359 201.112C329.735 200.928 330.143 200.836 330.583 200.836C331.023 200.836 331.427 200.928 331.795 201.112C332.171 201.296 332.495 201.552 332.767 201.88C333.047 202.2 333.263 202.584 333.415 203.032C333.575 203.472 333.655 203.956 333.655 204.484ZM332.311 204.484C332.311 204.124 332.267 203.796 332.179 203.5C332.099 203.204 331.979 202.948 331.819 202.732C331.667 202.516 331.483 202.352 331.267 202.24C331.059 202.12 330.831 202.06 330.583 202.06C330.319 202.06 330.079 202.12 329.863 202.24C329.655 202.352 329.471 202.516 329.311 202.732C329.159 202.948 329.039 203.204 328.951 203.5C328.871 203.796 328.831 204.124 328.831 204.484C328.831 204.844 328.871 205.172 328.951 205.468C329.039 205.764 329.159 206.02 329.311 206.236C329.471 206.444 329.655 206.608 329.863 206.728C330.079 206.84 330.319 206.896 330.583 206.896C330.831 206.896 331.059 206.84 331.267 206.728C331.483 206.608 331.667 206.444 331.819 206.236C331.979 206.02 332.099 205.764 332.179 205.468C332.267 205.172 332.311 204.844 332.311 204.484ZM341.026 204.484C341.026 205.012 340.946 205.5 340.786 205.948C340.634 206.388 340.418 206.772 340.138 207.1C339.866 207.42 339.542 207.672 339.166 207.856C338.798 208.032 338.394 208.12 337.954 208.12C337.514 208.12 337.106 208.032 336.73 207.856C336.354 207.672 336.03 207.42 335.758 207.1C335.486 206.772 335.27 206.388 335.11 205.948C334.958 205.5 334.882 205.012 334.882 204.484C334.882 203.956 334.958 203.472 335.11 203.032C335.27 202.584 335.486 202.2 335.758 201.88C336.03 201.552 336.354 201.296 336.73 201.112C337.106 200.928 337.514 200.836 337.954 200.836C338.394 200.836 338.798 200.928 339.166 201.112C339.542 201.296 339.866 201.552 340.138 201.88C340.418 202.2 340.634 202.584 340.786 203.032C340.946 203.472 341.026 203.956 341.026 204.484ZM339.682 204.484C339.682 204.124 339.638 203.796 339.55 203.5C339.47 203.204 339.35 202.948 339.19 202.732C339.038 202.516 338.854 202.352 338.638 202.24C338.43 202.12 338.202 202.06 337.954 202.06C337.69 202.06 337.45 202.12 337.234 202.24C337.026 202.352 336.842 202.516 336.682 202.732C336.53 202.948 336.41 203.204 336.322 203.5C336.242 203.796 336.202 204.124 336.202 204.484C336.202 204.844 336.242 205.172 336.322 205.468C336.41 205.764 336.53 206.02 336.682 206.236C336.842 206.444 337.026 206.608 337.234 206.728C337.45 206.84 337.69 206.896 337.954 206.896C338.202 206.896 338.43 206.84 338.638 206.728C338.854 206.608 339.038 206.444 339.19 206.236C339.35 206.02 339.47 205.764 339.55 205.468C339.638 205.172 339.682 204.844 339.682 204.484Z" fill="white" fill-opacity="0.7"/>
<path d="M184.123 204.484C184.123 205.012 184.043 205.5 183.883 205.948C183.731 206.388 183.515 206.772 183.235 207.1C182.963 207.42 182.639 207.672 182.263 207.856C181.895 208.032 181.491 208.12 181.051 208.12C180.611 208.12 180.203 208.032 179.827 207.856C179.451 207.672 179.127 207.42 178.855 207.1C178.583 206.772 178.367 206.388 178.207 205.948C178.055 205.5 177.979 205.012 177.979 204.484C177.979 203.956 178.055 203.472 178.207 203.032C178.367 202.584 178.583 202.2 178.855 201.88C179.127 201.552 179.451 201.296 179.827 201.112C180.203 200.928 180.611 200.836 181.051 200.836C181.491 200.836 181.895 200.928 182.263 201.112C182.639 201.296 182.963 201.552 183.235 201.88C183.515 202.2 183.731 202.584 183.883 203.032C184.043 203.472 184.123 203.956 184.123 204.484ZM182.779 204.484C182.779 204.124 182.735 203.796 182.647 203.5C182.567 203.204 182.447 202.948 182.287 202.732C182.135 202.516 181.951 202.352 181.735 202.24C181.527 202.12 181.299 202.06 181.051 202.06C180.787 202.06 180.547 202.12 180.331 202.24C180.123 202.352 179.939 202.516 179.779 202.732C179.627 202.948 179.507 203.204 179.419 203.5C179.339 203.796 179.299 204.124 179.299 204.484C179.299 204.844 179.339 205.172 179.419 205.468C179.507 205.764 179.627 206.02 179.779 206.236C179.939 206.444 180.123 206.608 180.331 206.728C180.547 206.84 180.787 206.896 181.051 206.896C181.299 206.896 181.527 206.84 181.735 206.728C181.951 206.608 182.135 206.444 182.287 206.236C182.447 206.02 182.567 205.764 182.647 205.468C182.735 205.172 182.779 204.844 182.779 204.484Z" fill="white" fill-opacity="0.7"/>
<path d="M5.364 139.812V141H0.78V139.812H2.484V135.624C2.412 135.72 2.3 135.82 2.148 135.924C1.996 136.028 1.828 136.124 1.644 136.212C1.46 136.3 1.268 136.376 1.068 136.44C0.868 136.496 0.692 136.524 0.54 136.524V135.288C0.7 135.288 0.884 135.24 1.092 135.144C1.308 135.048 1.512 134.936 1.704 134.808C1.904 134.68 2.076 134.552 2.22 134.424C2.372 134.296 2.46 134.204 2.484 134.148H3.84V139.812H5.364ZM12.4044 137.484C12.4044 138.012 12.3244 138.5 12.1644 138.948C12.0124 139.388 11.7964 139.772 11.5164 140.1C11.2444 140.42 10.9204 140.672 10.5444 140.856C10.1764 141.032 9.77244 141.12 9.33244 141.12C8.89244 141.12 8.48444 141.032 8.10844 140.856C7.73244 140.672 7.40844 140.42 7.13644 140.1C6.86444 139.772 6.64844 139.388 6.48844 138.948C6.33644 138.5 6.26044 138.012 6.26044 137.484C6.26044 136.956 6.33644 136.472 6.48844 136.032C6.64844 135.584 6.86444 135.2 7.13644 134.88C7.40844 134.552 7.73244 134.296 8.10844 134.112C8.48444 133.928 8.89244 133.836 9.33244 133.836C9.77244 133.836 10.1764 133.928 10.5444 134.112C10.9204 134.296 11.2444 134.552 11.5164 134.88C11.7964 135.2 12.0124 135.584 12.1644 136.032C12.3244 136.472 12.4044 136.956 12.4044 137.484ZM11.0604 137.484C11.0604 137.124 11.0164 136.796 10.9284 136.5C10.8484 136.204 10.7284 135.948 10.5684 135.732C10.4164 135.516 10.2324 135.352 10.0164 135.24C9.80844 135.12 9.58044 135.06 9.33244 135.06C9.06844 135.06 8.82844 135.12 8.61244 135.24C8.40444 135.352 8.22044 135.516 8.06044 135.732C7.90844 135.948 7.78844 136.204 7.70044 136.5C7.62044 136.796 7.58044 137.124 7.58044 137.484C7.58044 137.844 7.62044 138.172 7.70044 138.468C7.78844 138.764 7.90844 139.02 8.06044 139.236C8.22044 139.444 8.40444 139.608 8.61244 139.728C8.82844 139.84 9.06844 139.896 9.33244 139.896C9.58044 139.896 9.80844 139.84 10.0164 139.728C10.2324 139.608 10.4164 139.444 10.5684 139.236C10.7284 139.02 10.8484 138.764 10.9284 138.468C11.0164 138.172 11.0604 137.844 11.0604 137.484Z" fill="white" fill-opacity="0.7"/>
<path d="M0.48 98C0.48 97.664 0.508 97.352 0.564 97.064C0.62 96.776 0.72 96.508 0.864 96.26C1.008 96.004 1.204 95.764 1.452 95.54C1.7 95.308 2.02 95.084 2.412 94.868C2.692 94.716 2.956 94.576 3.204 94.448C3.452 94.32 3.668 94.196 3.852 94.076C4.044 93.948 4.196 93.816 4.308 93.68C4.42 93.536 4.476 93.372 4.476 93.188C4.476 92.932 4.364 92.704 4.14 92.504C3.924 92.296 3.608 92.192 3.192 92.192C2.976 92.192 2.776 92.224 2.592 92.288C2.416 92.344 2.252 92.42 2.1 92.516C1.956 92.604 1.828 92.704 1.716 92.816C1.604 92.928 1.504 93.036 1.416 93.14L0.576 92.168C0.656 92.08 0.78 91.972 0.948 91.844C1.124 91.708 1.332 91.58 1.572 91.46C1.82 91.34 2.1 91.24 2.412 91.16C2.724 91.072 3.064 91.028 3.432 91.028C3.816 91.028 4.16 91.08 4.464 91.184C4.776 91.28 5.036 91.416 5.244 91.592C5.46 91.768 5.624 91.98 5.736 92.228C5.848 92.468 5.904 92.728 5.904 93.008C5.904 93.304 5.844 93.568 5.724 93.8C5.604 94.032 5.456 94.236 5.28 94.412C5.104 94.588 4.912 94.74 4.704 94.868C4.496 94.988 4.304 95.092 4.128 95.18C3.96 95.26 3.768 95.356 3.552 95.468C3.344 95.572 3.14 95.696 2.94 95.84C2.74 95.976 2.56 96.124 2.4 96.284C2.24 96.444 2.128 96.62 2.064 96.812H6.036V98H0.48ZM13.3419 94.484C13.3419 95.012 13.2619 95.5 13.1019 95.948C12.9499 96.388 12.7339 96.772 12.4539 97.1C12.1819 97.42 11.8579 97.672 11.4819 97.856C11.1139 98.032 10.7099 98.12 10.2699 98.12C9.82994 98.12 9.42194 98.032 9.04594 97.856C8.66994 97.672 8.34594 97.42 8.07394 97.1C7.80194 96.772 7.58594 96.388 7.42594 95.948C7.27394 95.5 7.19794 95.012 7.19794 94.484C7.19794 93.956 7.27394 93.472 7.42594 93.032C7.58594 92.584 7.80194 92.2 8.07394 91.88C8.34594 91.552 8.66994 91.296 9.04594 91.112C9.42194 90.928 9.82994 90.836 10.2699 90.836C10.7099 90.836 11.1139 90.928 11.4819 91.112C11.8579 91.296 12.1819 91.552 12.4539 91.88C12.7339 92.2 12.9499 92.584 13.1019 93.032C13.2619 93.472 13.3419 93.956 13.3419 94.484ZM11.9979 94.484C11.9979 94.124 11.9539 93.796 11.8659 93.5C11.7859 93.204 11.6659 92.948 11.5059 92.732C11.3539 92.516 11.1699 92.352 10.9539 92.24C10.7459 92.12 10.5179 92.06 10.2699 92.06C10.0059 92.06 9.76594 92.12 9.54994 92.24C9.34194 92.352 9.15794 92.516 8.99794 92.732C8.84594 92.948 8.72594 93.204 8.63794 93.5C8.55794 93.796 8.51794 94.124 8.51794 94.484C8.51794 94.844 8.55794 95.172 8.63794 95.468C8.72594 95.764 8.84594 96.02 8.99794 96.236C9.15794 96.444 9.34194 96.608 9.54994 96.728C9.76594 96.84 10.0059 96.896 10.2699 96.896C10.5179 96.896 10.7459 96.84 10.9539 96.728C11.1699 96.608 11.3539 96.444 11.5059 96.236C11.6659 96.02 11.7859 95.764 11.8659 95.468C11.9539 95.172 11.9979 94.844 11.9979 94.484Z" fill="white" fill-opacity="0.7"/>
<path d="M4.428 52.168C4.676 52.216 4.904 52.304 5.112 52.432C5.32 52.552 5.496 52.704 5.64 52.888C5.784 53.072 5.896 53.284 5.976 53.524C6.056 53.764 6.096 54.024 6.096 54.304C6.096 54.68 6.024 55.016 5.88 55.312C5.744 55.616 5.544 55.876 5.28 56.092C5.024 56.308 4.712 56.472 4.344 56.584C3.976 56.704 3.564 56.764 3.108 56.764C2.5 56.764 1.964 56.656 1.5 56.44C1.036 56.232 0.664 55.928 0.384 55.528L1.188 54.616C1.38 54.912 1.628 55.144 1.932 55.312C2.236 55.48 2.62 55.564 3.084 55.564C3.612 55.564 4.016 55.452 4.296 55.228C4.584 55.004 4.728 54.668 4.728 54.22C4.728 53.756 4.568 53.392 4.248 53.128C3.928 52.864 3.456 52.732 2.832 52.732H2.508V51.7H2.868C3.404 51.7 3.816 51.576 4.104 51.328C4.392 51.072 4.536 50.752 4.536 50.368C4.536 49.984 4.408 49.704 4.152 49.528C3.896 49.344 3.564 49.252 3.156 49.252C2.748 49.252 2.388 49.34 2.076 49.516C1.764 49.692 1.516 49.944 1.332 50.272L0.504 49.372C0.616 49.18 0.768 49.008 0.96 48.856C1.152 48.696 1.368 48.56 1.608 48.448C1.856 48.328 2.12 48.24 2.4 48.184C2.688 48.12 2.984 48.088 3.288 48.088C3.68 48.088 4.036 48.14 4.356 48.244C4.684 48.348 4.964 48.492 5.196 48.676C5.436 48.86 5.62 49.084 5.748 49.348C5.876 49.612 5.94 49.904 5.94 50.224C5.94 50.464 5.904 50.692 5.832 50.908C5.76 51.124 5.656 51.32 5.52 51.496C5.392 51.672 5.236 51.82 5.052 51.94C4.868 52.052 4.66 52.128 4.428 52.168ZM13.3419 51.484C13.3419 52.012 13.2619 52.5 13.1019 52.948C12.9499 53.388 12.7339 53.772 12.4539 54.1C12.1819 54.42 11.8579 54.672 11.4819 54.856C11.1139 55.032 10.7099 55.12 10.2699 55.12C9.82994 55.12 9.42194 55.032 9.04594 54.856C8.66994 54.672 8.34594 54.42 8.07394 54.1C7.80194 53.772 7.58594 53.388 7.42594 52.948C7.27394 52.5 7.19794 52.012 7.19794 51.484C7.19794 50.956 7.27394 50.472 7.42594 50.032C7.58594 49.584 7.80194 49.2 8.07394 48.88C8.34594 48.552 8.66994 48.296 9.04594 48.112C9.42194 47.928 9.82994 47.836 10.2699 47.836C10.7099 47.836 11.1139 47.928 11.4819 48.112C11.8579 48.296 12.1819 48.552 12.4539 48.88C12.7339 49.2 12.9499 49.584 13.1019 50.032C13.2619 50.472 13.3419 50.956 13.3419 51.484ZM11.9979 51.484C11.9979 51.124 11.9539 50.796 11.8659 50.5C11.7859 50.204 11.6659 49.948 11.5059 49.732C11.3539 49.516 11.1699 49.352 10.9539 49.24C10.7459 49.12 10.5179 49.06 10.2699 49.06C10.0059 49.06 9.76594 49.12 9.54994 49.24C9.34194 49.352 9.15794 49.516 8.99794 49.732C8.84594 49.948 8.72594 50.204 8.63794 50.5C8.55794 50.796 8.51794 51.124 8.51794 51.484C8.51794 51.844 8.55794 52.172 8.63794 52.468C8.72594 52.764 8.84594 53.02 8.99794 53.236C9.15794 53.444 9.34194 53.608 9.54994 53.728C9.76594 53.84 10.0059 53.896 10.2699 53.896C10.5179 53.896 10.7459 53.84 10.9539 53.728C11.1699 53.608 11.3539 53.444 11.5059 53.236C11.6659 53.02 11.7859 52.764 11.8659 52.468C11.9539 52.172 11.9979 51.844 11.9979 51.484Z" fill="white" fill-opacity="0.7"/>
<path d="M6.756 180.484C6.756 181.012 6.676 181.5 6.516 181.948C6.364 182.388 6.148 182.772 5.868 183.1C5.596 183.42 5.272 183.672 4.896 183.856C4.528 184.032 4.124 184.12 3.684 184.12C3.244 184.12 2.836 184.032 2.46 183.856C2.084 183.672 1.76 183.42 1.488 183.1C1.216 182.772 1 182.388 0.84 181.948C0.688 181.5 0.612 181.012 0.612 180.484C0.612 179.956 0.688 179.472 0.84 179.032C1 178.584 1.216 178.2 1.488 177.88C1.76 177.552 2.084 177.296 2.46 177.112C2.836 176.928 3.244 176.836 3.684 176.836C4.124 176.836 4.528 176.928 4.896 177.112C5.272 177.296 5.596 177.552 5.868 177.88C6.148 178.2 6.364 178.584 6.516 179.032C6.676 179.472 6.756 179.956 6.756 180.484ZM5.412 180.484C5.412 180.124 5.368 179.796 5.28 179.5C5.2 179.204 5.08 178.948 4.92 178.732C4.768 178.516 4.584 178.352 4.368 178.24C4.16 178.12 3.932 178.06 3.684 178.06C3.42 178.06 3.18 178.12 2.964 178.24C2.756 178.352 2.572 178.516 2.412 178.732C2.26 178.948 2.14 179.204 2.052 179.5C1.972 179.796 1.932 180.124 1.932 180.484C1.932 180.844 1.972 181.172 2.052 181.468C2.14 181.764 2.26 182.02 2.412 182.236C2.572 182.444 2.756 182.608 2.964 182.728C3.18 182.84 3.42 182.896 3.684 182.896C3.932 182.896 4.16 182.84 4.368 182.728C4.584 182.608 4.768 182.444 4.92 182.236C5.08 182.02 5.2 181.764 5.28 181.468C5.368 181.172 5.412 180.844 5.412 180.484Z" fill="white" fill-opacity="0.7"/>
<path d="M3.948 13.524V11.616H0.264V10.44L4.368 5.148H5.268V10.416H6.324V11.616H5.268V13.524H3.948ZM1.608 10.416H4.092V7.164L1.608 10.416ZM13.5294 8.484C13.5294 9.012 13.4494 9.5 13.2894 9.948C13.1374 10.388 12.9214 10.772 12.6414 11.1C12.3694 11.42 12.0454 11.672 11.6694 11.856C11.3014 12.032 10.8974 12.12 10.4574 12.12C10.0174 12.12 9.60944 12.032 9.23344 11.856C8.85744 11.672 8.53344 11.42 8.26144 11.1C7.98944 10.772 7.77344 10.388 7.61344 9.948C7.46144 9.5 7.38544 9.012 7.38544 8.484C7.38544 7.956 7.46144 7.472 7.61344 7.032C7.77344 6.584 7.98944 6.2 8.26144 5.88C8.53344 5.552 8.85744 5.296 9.23344 5.112C9.60944 4.928 10.0174 4.836 10.4574 4.836C10.8974 4.836 11.3014 4.928 11.6694 5.112C12.0454 5.296 12.3694 5.552 12.6414 5.88C12.9214 6.2 13.1374 6.584 13.2894 7.032C13.4494 7.472 13.5294 7.956 13.5294 8.484ZM12.1854 8.484C12.1854 8.124 12.1414 7.796 12.0534 7.5C11.9734 7.204 11.8534 6.948 11.6934 6.732C11.5414 6.516 11.3574 6.352 11.1414 6.24C10.9334 6.12 10.7054 6.06 10.4574 6.06C10.1934 6.06 9.95344 6.12 9.73744 6.24C9.52944 6.352 9.34544 6.516 9.18544 6.732C9.03344 6.948 8.91344 7.204 8.82544 7.5C8.74544 7.796 8.70544 8.124 8.70544 8.484C8.70544 8.844 8.74544 9.172 8.82544 9.468C8.91344 9.764 9.03344 10.02 9.18544 10.236C9.34544 10.444 9.52944 10.608 9.73744 10.728C9.95344 10.84 10.1934 10.896 10.4574 10.896C10.7054 10.896 10.9334 10.84 11.1414 10.728C11.3574 10.608 11.5414 10.444 11.6934 10.236C11.8534 10.02 11.9734 9.764 12.0534 9.468C12.1414 9.172 12.1854 8.844 12.1854 8.484Z" fill="white" fill-opacity="0.7"/>
<line x1="33.879" y1="51.5" x2="414.52" y2="51.5" stroke="#4A4A4A"/>
<line x1="33.879" y1="179.5" x2="414.52" y2="179.5" stroke="#4A4A4A"/>
<line x1="33.879" y1="8.5" x2="414.52" y2="8.5" stroke="#4A4A4A"/>
<line x1="33.879" y1="137.5" x2="414.52" y2="137.5" stroke="#4A4A4A"/>
<line x1="33.879" y1="94.5" x2="414.52" y2="94.5" stroke="#4A4A4A"/>
<line x1="181.849" y1="180" x2="181.849" y2="9" stroke="#4A4A4A"/>
<line x1="109.109" y1="180" x2="109.109" y2="9" stroke="#4A4A4A"/>
<line x1="327.329" y1="180" x2="327.329" y2="9" stroke="#4A4A4A"/>
<line x1="254.589" y1="180" x2="254.589" y2="9" stroke="#4A4A4A"/>
<rect x="232.171" y="73" width="8.96774" height="107" fill="#FFC600"/>
<rect x="149.466" y="138" width="8.96774" height="42" fill="#FFC600"/>
<rect x="286.975" y="138" width="8.96774" height="42" fill="#FFC600"/>
<rect x="177.367" y="82" width="8.96774" height="98" fill="#FFC600"/>
<rect x="314.875" y="104" width="8.96774" height="76" fill="#FFC600"/>
<rect x="94.662" y="150" width="8.96774" height="30" fill="#FFC600"/>
<rect x="218.221" y="57" width="8.96774" height="123" fill="#FFC600"/>
<rect x="163.416" y="120" width="8.96774" height="60" fill="#FFC600"/>
<rect x="300.925" y="120" width="8.96774" height="60" fill="#FFC600"/>
<rect x="80.7118" y="163" width="8.96774" height="17" fill="#FFC600"/>
<rect x="246.121" y="95" width="8.96774" height="85" fill="#FFC600"/>
<rect x="190.32" y="138" width="9.96416" height="42" fill="#FFC600"/>
<rect x="328.826" y="138" width="8.96774" height="42" fill="#FFC600"/>
<rect x="107.616" y="138" width="9.96416" height="42" fill="#FFC600"/>
<rect x="260.071" y="126" width="8.96774" height="54" fill="#FFC600"/>
<rect x="204.271" y="153" width="8.96774" height="27" fill="#FFC600"/>
<rect x="342.776" y="153" width="8.96774" height="27" fill="#FFC600"/>
<rect x="121.566" y="153" width="8.96774" height="27" fill="#FFC600"/>
<rect x="274.021" y="141" width="8.96774" height="39" fill="#FFC600"/>
</svg>
