<svg width="520" height="196" viewBox="0 0 520 196" fill="none" xmlns="http://www.w3.org/2000/svg">
<path d="M287.774 111.94V92.01H281.479V87.8143H299.064V92.01H292.768V111.94H287.774ZM315.129 111.94V87.8143H320.123V97.8841H329.458V87.8143H334.452V111.94H329.458V101.87H320.123V111.94H315.129ZM353.34 111.94V87.8143H367.234V92.01H358.116V97.8841H366.8V102.08H358.116V107.954H367.234V112.15H353.34V111.94ZM396.326 112.359C394.589 112.359 392.852 111.94 391.333 111.311C389.813 110.681 388.51 109.842 387.425 108.583C385.037 106.276 383.734 102.919 383.734 99.7722C383.734 96.4156 385.037 93.2688 387.425 90.9611C388.51 89.9122 390.03 88.8632 391.55 88.2338C394.589 86.9751 398.28 86.9751 401.319 88.2338C402.839 88.8632 404.142 89.7024 405.444 90.9611C407.832 93.2688 409.135 96.6254 409.135 99.7722C409.135 103.129 407.832 106.276 405.444 108.583C404.359 109.632 402.839 110.681 401.319 111.311C399.8 112.15 398.063 112.359 396.326 112.359ZM396.326 107.744C397.412 107.744 398.28 107.534 399.365 107.115C400.234 106.695 401.102 106.066 401.754 105.436C402.405 104.597 403.056 103.758 403.273 102.919C403.707 101.87 403.925 100.821 403.925 99.7722C403.925 98.7232 403.707 97.6743 403.49 96.6254C403.056 95.7862 402.622 94.7373 401.971 94.1079C401.319 93.4786 400.451 92.8492 399.583 92.4296C397.629 91.5905 395.675 91.5905 393.721 92.4296C392.852 92.8492 391.984 93.4786 391.333 94.1079C390.681 94.9471 390.247 95.7862 389.813 96.6254C389.379 97.6743 389.162 98.7232 389.379 99.7722C389.379 100.821 389.596 101.87 389.813 102.919C390.247 103.758 390.681 104.807 391.333 105.436C391.984 106.066 392.852 106.695 393.721 107.115C394.372 107.534 395.241 107.744 396.326 107.744ZM426.069 111.94V87.8143H434.536C436.056 87.8143 437.576 88.0241 439.095 88.6534C440.398 89.2828 441.266 90.1219 442.135 91.1709C442.786 92.4296 443.22 93.6883 443.22 95.1569C443.22 96.2058 443.003 97.4645 442.569 98.5135C442.135 99.5624 441.483 100.402 440.615 101.031C439.747 101.66 438.661 102.29 437.576 102.499L445.825 112.15H439.529L432.365 102.919H431.28V112.15H426.069V111.94ZM431.062 98.933H433.234C434.102 98.933 434.97 98.7233 435.839 98.5135C436.49 98.3037 437.141 97.8841 437.576 97.2547C438.01 96.6254 438.227 95.996 438.227 95.3666C438.227 94.3177 437.793 93.2688 436.924 92.6394C435.839 92.01 434.536 91.5905 433.451 91.5905H431.28L431.062 98.933ZM461.24 111.94V87.8143H475.134V92.01H466.016V97.8841H474.7V102.08H466.016V107.954H475.134V112.15H461.24V111.94ZM492.286 111.94L494.674 87.8143H499.884L505.963 102.919L512.042 87.8143H517.252L519.64 111.94H514.647L513.127 96.2058L507.483 111.311H504.443L498.799 96.2058L497.279 111.94H492.286Z" fill="#0A0A0A"/>
<path d="M0.478516 112.145L13.8043 91.5752H2.22617V87.2898H22.5426L9.21674 107.86H21.8872V112.145H0.478516ZM39.1452 112.145V87.5041H53.1263V91.7895H43.9512V97.7891H52.6894V102.074H43.9512V108.074H53.1263V112.359H39.1452V112.145ZM71.4766 112.145V87.5041H79.9964C81.5256 87.5041 83.0548 87.7183 84.5839 88.3611C85.8947 89.004 86.7685 89.861 87.6423 90.9324C88.2977 92.218 88.7346 93.5036 88.7346 95.0035C88.7346 96.0749 88.5162 97.3605 88.0793 98.4319C87.6423 99.5032 86.987 100.36 86.1131 101.003C85.2393 101.646 84.147 102.289 83.0548 102.503L91.3561 112.359H85.0209L77.8118 102.932H76.7195V112.359H71.4766V112.145ZM76.5011 98.8604H78.6857C79.5595 98.8604 80.4333 98.6461 81.3071 98.4319C81.9625 98.2176 82.6179 97.7891 83.0548 97.1462C83.4917 96.5034 83.7101 95.8606 83.7101 95.2178C83.7101 94.1465 83.2732 93.0751 82.3994 92.4323C81.3071 91.7895 79.9964 91.3609 78.9041 91.3609H76.7195V98.8604H76.5011Z" fill="#0A0A0A"/>
<path opacity="0.4" d="M194.559 112.885C237.489 82.8414 269.193 53.4239 265.371 47.1797C261.549 40.9355 223.648 60.2291 180.717 90.2732C137.787 120.317 106.083 149.735 109.905 155.979C113.727 162.223 151.628 142.929 194.559 112.885Z" fill="url(#paint0_linear_14_338)"/>
<path d="M194.441 112.682C237.372 82.6378 269.076 53.2203 265.254 46.9761C261.432 40.7319 223.531 60.0255 180.6 90.0696C137.669 120.114 105.966 149.531 109.788 155.775C113.61 162.019 151.511 142.726 194.441 112.682Z" stroke="url(#paint1_linear_14_338)" stroke-width="0.915254" stroke-miterlimit="10"/>
<path d="M194.47 111.832C233.205 84.7241 261.686 57.9789 258.084 52.0946C254.482 46.2103 220.161 63.4151 181.427 90.5227C142.692 117.63 114.211 144.376 117.813 150.26C121.415 156.144 155.735 138.939 194.47 111.832Z" stroke="url(#paint2_linear_14_338)" stroke-width="1.83051" stroke-miterlimit="10"/>
<path d="M194.837 110.423C228.904 86.5823 253.827 62.8543 250.504 57.4253C247.181 51.9963 216.87 66.9222 182.803 90.7632C148.736 114.604 123.813 138.332 127.136 143.761C130.459 149.19 160.77 134.264 194.837 110.423Z" stroke="url(#paint3_linear_14_338)" stroke-width="2.74576" stroke-miterlimit="10"/>
<g opacity="0.24" filter="url(#filter0_f_14_338)">
<circle cx="186.359" cy="98.1386" r="37" transform="rotate(-30 186.359 98.1386)" fill="#FEC502"/>
</g>
<path d="M214.461 81.2638C217.965 76.9317 214.64 75.1091 213.159 73.2605L217.372 68.4637C221.358 72.167 223.506 73.4458 237.441 64.0894C226.624 74.9535 214.022 84.0246 205.696 88.5856C207.14 87.7522 210.958 85.5958 214.461 81.2638Z" fill="url(#paint4_linear_14_338)"/>
<path d="M162.547 117.713C157.456 119.975 156.335 116.43 155.154 114.383L149.51 117.176C152.056 121.985 154.563 124.803 140.011 135.464C153.304 127.827 165.637 118.405 172.197 111.543C171.019 112.722 167.638 115.45 162.547 117.713Z" fill="url(#paint5_linear_14_338)"/>
<path fill-rule="evenodd" clip-rule="evenodd" d="M155.884 115.728C145.973 98.5615 151.855 76.6112 169.021 66.7003C184.625 57.6915 204.181 61.7311 215.056 75.4333L220.041 71.4078C207.22 55.2885 184.193 50.5429 165.818 61.1519C145.587 72.8319 138.656 98.7006 150.336 118.931C150.539 119.283 150.747 119.631 150.959 119.976L156.435 116.649C156.247 116.346 156.064 116.039 155.884 115.728ZM172.069 130.438L165.746 134.379C178.411 141.707 194.533 142.254 208.115 134.413C224.005 125.239 231.69 107.312 228.597 90.2391L222.744 94.8279C223.841 108.228 217.328 121.696 204.912 128.865C194.472 134.892 182.264 135.078 172.069 130.438Z" fill="#FFC600"/>
<defs>
<filter id="filter0_f_14_338" x="88.5944" y="0.373314" width="195.53" height="195.531" filterUnits="userSpaceOnUse" color-interpolation-filters="sRGB">
<feFlood flood-opacity="0" result="BackgroundImageFix"/>
<feBlend mode="normal" in="SourceGraphic" in2="BackgroundImageFix" result="shape"/>
<feGaussianBlur stdDeviation="30.3796" result="effect1_foregroundBlur_14_338"/>
</filter>
<linearGradient id="paint0_linear_14_338" x1="182.278" y1="92.4494" x2="195.392" y2="112.336" gradientUnits="userSpaceOnUse">
<stop stop-color="#FFC600" stop-opacity="0"/>
<stop offset="0.341113" stop-color="#FFC600" stop-opacity="0.341113"/>
<stop offset="1" stop-color="#FFC600"/>
</linearGradient>
<linearGradient id="paint1_linear_14_338" x1="182.161" y1="92.2458" x2="195.275" y2="112.132" gradientUnits="userSpaceOnUse">
<stop stop-color="#FFC600" stop-opacity="0"/>
<stop offset="1" stop-color="#FFC600"/>
</linearGradient>
<linearGradient id="paint2_linear_14_338" x1="182.891" y1="92.578" x2="195.226" y2="111.334" gradientUnits="userSpaceOnUse">
<stop stop-color="#FFC600" stop-opacity="0"/>
<stop offset="1" stop-color="#FFC600"/>
</linearGradient>
<linearGradient id="paint3_linear_14_338" x1="184.148" y1="92.6638" x2="195.505" y2="109.986" gradientUnits="userSpaceOnUse">
<stop stop-color="#FFC600" stop-opacity="0"/>
<stop offset="1" stop-color="#FFC600"/>
</linearGradient>
<linearGradient id="paint4_linear_14_338" x1="218.429" y1="73.9373" x2="220.87" y2="76.916" gradientUnits="userSpaceOnUse">
<stop stop-color="#FFC600"/>
<stop offset="0.233957" stop-color="#FFC600" stop-opacity="0.9"/>
<stop offset="1" stop-color="#FFC600" stop-opacity="0"/>
</linearGradient>
<linearGradient id="paint5_linear_14_338" x1="154.444" y1="119.649" x2="156.689" y2="122.778" gradientUnits="userSpaceOnUse">
<stop stop-color="#FFC600"/>
<stop offset="0.233957" stop-color="#FFC600" stop-opacity="0.9"/>
<stop offset="1" stop-color="#FFC600" stop-opacity="0"/>
</linearGradient>
</defs>
</svg>
