<svg width="520" height="197" viewBox="0 0 520 197" fill="none" xmlns="http://www.w3.org/2000/svg">
<path d="M287.774 112.115V92.1853H281.479V87.9896H299.064V92.1853H292.768V112.115H287.774ZM315.129 112.115V87.9896H320.123V98.0594H329.458V87.9896H334.452V112.115H329.458V102.045H320.123V112.115H315.129ZM353.34 112.115V87.9896H367.234V92.1853H358.116V98.0594H366.8V102.255H358.116V108.129H367.234V112.325H353.34V112.115ZM396.326 112.535C394.589 112.535 392.852 112.115 391.333 111.486C389.813 110.856 388.51 110.017 387.425 108.759C385.037 106.451 383.734 103.094 383.734 99.9475C383.734 96.5909 385.037 93.4441 387.425 91.1364C388.51 90.0874 390.03 89.0385 391.55 88.4091C394.589 87.1504 398.28 87.1504 401.319 88.4091C402.839 89.0385 404.142 89.8777 405.444 91.1364C407.832 93.4441 409.135 96.8007 409.135 99.9475C409.135 103.304 407.832 106.451 405.444 108.759C404.359 109.808 402.839 110.856 401.319 111.486C399.8 112.325 398.063 112.535 396.326 112.535ZM396.326 107.919C397.412 107.919 398.28 107.71 399.365 107.29C400.234 106.87 401.102 106.241 401.754 105.612C402.405 104.773 403.056 103.933 403.273 103.094C403.707 102.045 403.925 100.996 403.925 99.9475C403.925 98.8985 403.707 97.8496 403.49 96.8007C403.056 95.9615 402.622 94.9126 401.971 94.2832C401.319 93.6538 400.451 93.0245 399.583 92.6049C397.629 91.7657 395.675 91.7657 393.721 92.6049C392.852 93.0245 391.984 93.6538 391.333 94.2832C390.681 95.1224 390.247 95.9615 389.813 96.8007C389.379 97.8496 389.162 98.8985 389.379 99.9475C389.379 100.996 389.596 102.045 389.813 103.094C390.247 103.933 390.681 104.982 391.333 105.612C391.984 106.241 392.852 106.87 393.721 107.29C394.372 107.71 395.241 107.919 396.326 107.919ZM426.069 112.115V87.9896H434.536C436.056 87.9896 437.576 88.1994 439.095 88.8287C440.398 89.4581 441.266 90.2972 442.135 91.3462C442.786 92.6049 443.22 93.8636 443.22 95.3321C443.22 96.3811 443.003 97.6398 442.569 98.6888C442.135 99.7377 441.483 100.577 440.615 101.206C439.747 101.836 438.661 102.465 437.576 102.675L445.825 112.325H439.529L432.365 103.094H431.28V112.325H426.069V112.115ZM431.062 99.1083H433.234C434.102 99.1083 434.97 98.8985 435.839 98.6888C436.49 98.479 437.141 98.0594 437.576 97.43C438.01 96.8007 438.227 96.1713 438.227 95.5419C438.227 94.493 437.793 93.4441 436.924 92.8147C435.839 92.1853 434.536 91.7658 433.451 91.7658H431.28L431.062 99.1083ZM461.24 112.115V87.9896H475.134V92.1853H466.016V98.0594H474.7V102.255H466.016V108.129H475.134V112.325H461.24V112.115ZM492.286 112.115L494.674 87.9896H499.884L505.963 103.094L512.042 87.9896H517.252L519.64 112.115H514.647L513.127 96.3811L507.483 111.486H504.443L498.799 96.3811L497.279 112.115H492.286Z" fill="white"/>
<path d="M0.478516 112.32L13.8043 91.7505H2.22617V87.4651H22.5426L9.21674 108.035H21.8872V112.32H0.478516ZM39.1452 112.32V87.6794H53.1263V91.9648H43.9512V97.9644H52.6894V102.25H43.9512V108.249H53.1263V112.535H39.1452V112.32ZM71.4766 112.32V87.6794H79.9964C81.5256 87.6794 83.0548 87.8936 84.5839 88.5364C85.8947 89.1793 86.7685 90.0363 87.6423 91.1077C88.2977 92.3933 88.7346 93.6789 88.7346 95.1788C88.7346 96.2502 88.5162 97.5358 88.0793 98.6072C87.6423 99.6785 86.987 100.536 86.1131 101.178C85.2393 101.821 84.147 102.464 83.0548 102.678L91.3561 112.535H85.0209L77.8118 103.107H76.7195V112.535H71.4766V112.32ZM76.5011 99.0357H78.6857C79.5595 99.0357 80.4333 98.8214 81.3071 98.6072C81.9625 98.3929 82.6179 97.9643 83.0548 97.3215C83.4917 96.6787 83.7101 96.0359 83.7101 95.3931C83.7101 94.3217 83.2732 93.2504 82.3994 92.6076C81.3071 91.9648 79.9964 91.5362 78.9041 91.5362H76.7195V99.0357H76.5011Z" fill="white"/>
<path opacity="0.4" d="M194.559 113.061C237.489 83.0167 269.193 53.5992 265.371 47.355C261.549 41.1108 223.648 60.4044 180.717 90.4485C137.787 120.493 106.083 149.91 109.905 156.154C113.727 162.398 151.628 143.105 194.559 113.061Z" fill="url(#paint0_linear_14_337)"/>
<path d="M194.441 112.857C237.372 82.8131 269.076 53.3956 265.254 47.1514C261.432 40.9072 223.531 60.2008 180.6 90.2448C137.669 120.289 105.966 149.706 109.788 155.951C113.61 162.195 151.511 142.901 194.441 112.857Z" stroke="url(#paint1_linear_14_337)" stroke-width="0.915254" stroke-miterlimit="10"/>
<path d="M194.47 112.007C233.205 84.8994 261.686 58.1542 258.084 52.2699C254.482 46.3856 220.161 63.5904 181.427 90.698C142.692 117.806 114.211 144.551 117.813 150.435C121.415 156.319 155.735 139.115 194.47 112.007Z" stroke="url(#paint2_linear_14_337)" stroke-width="1.83051" stroke-miterlimit="10"/>
<path d="M194.837 110.599C228.904 86.7576 253.827 63.0296 250.504 57.6006C247.181 52.1716 216.87 67.0975 182.803 90.9385C148.736 114.779 123.813 138.507 127.136 143.936C130.459 149.365 160.77 134.44 194.837 110.599Z" stroke="url(#paint3_linear_14_337)" stroke-width="2.74576" stroke-miterlimit="10"/>
<g opacity="0.24" filter="url(#filter0_f_14_337)">
<circle cx="187.516" cy="98.3137" r="37" transform="rotate(-30 187.516 98.3137)" fill="#FEC502"/>
</g>
<path d="M214.461 81.4391C217.965 77.107 214.64 75.2844 213.159 73.4358L217.372 68.639C221.358 72.3423 223.506 73.6211 237.441 64.2647C226.624 75.1288 214.022 84.1999 205.696 88.7609C207.14 87.9275 210.958 85.7711 214.461 81.4391Z" fill="url(#paint4_linear_14_337)"/>
<path d="M162.549 117.888C157.458 120.151 156.337 116.605 155.156 114.558L149.512 117.352C152.058 122.16 154.565 124.978 140.012 135.639C153.306 128.003 165.639 118.58 172.199 111.719C171.021 112.897 167.64 115.625 162.549 117.888Z" fill="url(#paint5_linear_14_337)"/>
<path fill-rule="evenodd" clip-rule="evenodd" d="M155.884 115.903C145.973 98.7368 151.855 76.7865 169.021 66.8756C184.625 57.8668 204.181 61.9064 215.056 75.6086L220.041 71.5831C207.22 55.4638 184.193 50.7182 165.818 61.3271C145.587 73.0072 138.656 98.8759 150.336 119.106C150.539 119.459 150.747 119.807 150.959 120.151L156.435 116.825C156.247 116.521 156.064 116.214 155.884 115.903ZM172.069 130.614L165.746 134.555C178.411 141.883 194.533 142.43 208.115 134.588C224.005 125.414 231.69 107.487 228.597 90.4144L222.744 95.0032C223.841 108.403 217.328 121.871 204.912 129.04C194.472 135.067 182.264 135.254 172.069 130.614Z" fill="#FFC600"/>
<defs>
<filter id="filter0_f_14_337" x="89.7506" y="0.548363" width="195.53" height="195.531" filterUnits="userSpaceOnUse" color-interpolation-filters="sRGB">
<feFlood flood-opacity="0" result="BackgroundImageFix"/>
<feBlend mode="normal" in="SourceGraphic" in2="BackgroundImageFix" result="shape"/>
<feGaussianBlur stdDeviation="30.3796" result="effect1_foregroundBlur_14_337"/>
</filter>
<linearGradient id="paint0_linear_14_337" x1="182.278" y1="92.6247" x2="195.392" y2="112.511" gradientUnits="userSpaceOnUse">
<stop stop-color="#FFC600" stop-opacity="0"/>
<stop offset="0.341113" stop-color="#FFC600" stop-opacity="0.341113"/>
<stop offset="1" stop-color="#FFC600"/>
</linearGradient>
<linearGradient id="paint1_linear_14_337" x1="182.161" y1="92.4211" x2="195.275" y2="112.308" gradientUnits="userSpaceOnUse">
<stop stop-color="#FFC600" stop-opacity="0"/>
<stop offset="1" stop-color="#FFC600"/>
</linearGradient>
<linearGradient id="paint2_linear_14_337" x1="182.891" y1="92.7533" x2="195.226" y2="111.51" gradientUnits="userSpaceOnUse">
<stop stop-color="#FFC600" stop-opacity="0"/>
<stop offset="1" stop-color="#FFC600"/>
</linearGradient>
<linearGradient id="paint3_linear_14_337" x1="184.148" y1="92.8391" x2="195.505" y2="110.161" gradientUnits="userSpaceOnUse">
<stop stop-color="#FFC600" stop-opacity="0"/>
<stop offset="1" stop-color="#FFC600"/>
</linearGradient>
<linearGradient id="paint4_linear_14_337" x1="218.429" y1="74.1126" x2="220.87" y2="77.0913" gradientUnits="userSpaceOnUse">
<stop stop-color="#FFC600"/>
<stop offset="0.233957" stop-color="#FFC600" stop-opacity="0.9"/>
<stop offset="1" stop-color="#FFC600" stop-opacity="0"/>
</linearGradient>
<linearGradient id="paint5_linear_14_337" x1="154.446" y1="119.824" x2="156.691" y2="122.953" gradientUnits="userSpaceOnUse">
<stop stop-color="#FFC600"/>
<stop offset="0.233957" stop-color="#FFC600" stop-opacity="0.9"/>
<stop offset="1" stop-color="#FFC600" stop-opacity="0"/>
</linearGradient>
</defs>
</svg>
