<svg width="1312" height="397" viewBox="0 0 1312 397" fill="none" xmlns="http://www.w3.org/2000/svg">
<mask id="mask0_14628_941" style="mask-type:alpha" maskUnits="userSpaceOnUse" x="0" y="0" width="1312" height="397">
<rect x="0.5" y="0.5" width="1311" height="396" rx="14.5" fill="black" stroke="#201901"/>
</mask>
<g mask="url(#mask0_14628_941)">
<rect width="1312" height="396.371" rx="15" fill="url(#paint0_linear_14628_941)"/>
</g>
<path d="M218.922 320.815V322.003H214.338V320.815H216.042V316.627C215.97 316.723 215.858 316.823 215.706 316.927C215.554 317.031 215.386 317.127 215.202 317.215C215.018 317.303 214.826 317.379 214.626 317.443C214.426 317.499 214.25 317.527 214.098 317.527V316.291C214.258 316.291 214.442 316.243 214.65 316.147C214.866 316.051 215.07 315.939 215.262 315.811C215.462 315.683 215.634 315.555 215.778 315.427C215.93 315.299 216.018 315.207 216.042 315.151H217.398V320.815H218.922ZM219.614 318.103C219.614 317.695 219.694 317.311 219.854 316.951C220.014 316.591 220.23 316.279 220.502 316.015C220.782 315.743 221.11 315.531 221.486 315.379C221.862 315.227 222.266 315.151 222.698 315.151C223.162 315.151 223.586 315.239 223.97 315.415C224.354 315.583 224.682 315.831 224.954 316.159C225.226 316.479 225.434 316.875 225.578 317.347C225.73 317.811 225.806 318.339 225.806 318.931C225.806 319.747 225.726 320.463 225.566 321.079C225.414 321.687 225.198 322.195 224.918 322.603C224.638 323.019 224.294 323.331 223.886 323.539C223.486 323.747 223.042 323.851 222.554 323.851C222.01 323.851 221.51 323.727 221.054 323.479C220.606 323.231 220.242 322.879 219.962 322.423L220.742 321.607C220.926 321.943 221.178 322.207 221.498 322.399C221.826 322.599 222.186 322.699 222.578 322.699C223.178 322.699 223.654 322.447 224.006 321.943C224.366 321.431 224.554 320.715 224.57 319.795C224.402 320.155 224.138 320.439 223.778 320.647C223.426 320.855 223.022 320.959 222.566 320.959C222.15 320.959 221.762 320.887 221.402 320.743C221.042 320.591 220.73 320.387 220.466 320.131C220.202 319.875 219.994 319.575 219.842 319.231C219.69 318.879 219.614 318.503 219.614 318.103ZM222.686 316.279C222.438 316.279 222.202 316.327 221.978 316.423C221.762 316.519 221.57 316.651 221.402 316.819C221.242 316.987 221.114 317.183 221.018 317.407C220.922 317.623 220.874 317.855 220.874 318.103C220.874 318.351 220.922 318.583 221.018 318.799C221.114 319.015 221.242 319.207 221.402 319.375C221.57 319.535 221.762 319.663 221.978 319.759C222.202 319.855 222.438 319.903 222.686 319.903C222.934 319.903 223.166 319.855 223.382 319.759C223.606 319.663 223.798 319.535 223.958 319.375C224.126 319.207 224.258 319.015 224.354 318.799C224.45 318.583 224.498 318.351 224.498 318.103C224.498 317.855 224.45 317.623 224.354 317.407C224.258 317.183 224.126 316.987 223.958 316.819C223.798 316.651 223.606 316.519 223.382 316.423C223.166 316.327 222.934 316.279 222.686 316.279ZM233.904 313.483L228.06 322.003H226.596L232.44 313.483H233.904ZM240.505 318.487C240.505 319.015 240.425 319.503 240.265 319.951C240.113 320.391 239.897 320.775 239.617 321.103C239.345 321.423 239.021 321.675 238.645 321.859C238.277 322.035 237.873 322.123 237.433 322.123C236.993 322.123 236.585 322.035 236.209 321.859C235.833 321.675 235.509 321.423 235.237 321.103C234.965 320.775 234.749 320.391 234.589 319.951C234.437 319.503 234.361 319.015 234.361 318.487C234.361 317.959 234.437 317.475 234.589 317.035C234.749 316.587 234.965 316.203 235.237 315.883C235.509 315.555 235.833 315.299 236.209 315.115C236.585 314.931 236.993 314.839 237.433 314.839C237.873 314.839 238.277 314.931 238.645 315.115C239.021 315.299 239.345 315.555 239.617 315.883C239.897 316.203 240.113 316.587 240.265 317.035C240.425 317.475 240.505 317.959 240.505 318.487ZM239.161 318.487C239.161 318.127 239.117 317.799 239.029 317.503C238.949 317.207 238.829 316.951 238.669 316.735C238.517 316.519 238.333 316.355 238.117 316.243C237.909 316.123 237.681 316.063 237.433 316.063C237.169 316.063 236.929 316.123 236.713 316.243C236.505 316.355 236.321 316.519 236.161 316.735C236.009 316.951 235.889 317.207 235.801 317.503C235.721 317.799 235.681 318.127 235.681 318.487C235.681 318.847 235.721 319.175 235.801 319.471C235.889 319.767 236.009 320.023 236.161 320.239C236.321 320.447 236.505 320.611 236.713 320.731C236.929 320.843 237.169 320.899 237.433 320.899C237.681 320.899 237.909 320.843 238.117 320.731C238.333 320.611 238.517 320.447 238.669 320.239C238.829 320.023 238.949 319.767 239.029 319.471C239.117 319.175 239.161 318.847 239.161 318.487ZM246.484 320.815V322.003H241.9V320.815H243.604V316.627C243.532 316.723 243.42 316.823 243.268 316.927C243.116 317.031 242.948 317.127 242.764 317.215C242.58 317.303 242.388 317.379 242.188 317.443C241.988 317.499 241.812 317.527 241.66 317.527V316.291C241.82 316.291 242.004 316.243 242.212 316.147C242.428 316.051 242.632 315.939 242.824 315.811C243.024 315.683 243.196 315.555 243.34 315.427C243.492 315.299 243.58 315.207 243.604 315.151H244.96V320.815H246.484ZM254.401 313.483L248.557 322.003H247.093L252.937 313.483H254.401ZM261.001 318.487C261.001 319.015 260.921 319.503 260.761 319.951C260.609 320.391 260.393 320.775 260.113 321.103C259.841 321.423 259.517 321.675 259.141 321.859C258.773 322.035 258.369 322.123 257.929 322.123C257.489 322.123 257.081 322.035 256.705 321.859C256.329 321.675 256.005 321.423 255.733 321.103C255.461 320.775 255.245 320.391 255.085 319.951C254.933 319.503 254.857 319.015 254.857 318.487C254.857 317.959 254.933 317.475 255.085 317.035C255.245 316.587 255.461 316.203 255.733 315.883C256.005 315.555 256.329 315.299 256.705 315.115C257.081 314.931 257.489 314.839 257.929 314.839C258.369 314.839 258.773 314.931 259.141 315.115C259.517 315.299 259.841 315.555 260.113 315.883C260.393 316.203 260.609 316.587 260.761 317.035C260.921 317.475 261.001 317.959 261.001 318.487ZM259.657 318.487C259.657 318.127 259.613 317.799 259.525 317.503C259.445 317.207 259.325 316.951 259.165 316.735C259.013 316.519 258.829 316.355 258.613 316.243C258.405 316.123 258.177 316.063 257.929 316.063C257.665 316.063 257.425 316.123 257.209 316.243C257.001 316.355 256.817 316.519 256.657 316.735C256.505 316.951 256.385 317.207 256.297 317.503C256.217 317.799 256.177 318.127 256.177 318.487C256.177 318.847 256.217 319.175 256.297 319.471C256.385 319.767 256.505 320.023 256.657 320.239C256.817 320.447 257.001 320.611 257.209 320.731C257.425 320.843 257.665 320.899 257.929 320.899C258.177 320.899 258.405 320.843 258.613 320.731C258.829 320.611 259.013 320.447 259.165 320.239C259.325 320.023 259.445 319.767 259.525 319.471C259.613 319.175 259.657 318.847 259.657 318.487ZM262.024 318.103C262.024 317.695 262.104 317.311 262.264 316.951C262.424 316.591 262.64 316.279 262.912 316.015C263.192 315.743 263.52 315.531 263.896 315.379C264.272 315.227 264.676 315.151 265.108 315.151C265.572 315.151 265.996 315.239 266.38 315.415C266.764 315.583 267.092 315.831 267.364 316.159C267.636 316.479 267.844 316.875 267.988 317.347C268.14 317.811 268.216 318.339 268.216 318.931C268.216 319.747 268.136 320.463 267.976 321.079C267.824 321.687 267.608 322.195 267.328 322.603C267.048 323.019 266.704 323.331 266.296 323.539C265.896 323.747 265.452 323.851 264.964 323.851C264.42 323.851 263.92 323.727 263.464 323.479C263.016 323.231 262.652 322.879 262.372 322.423L263.152 321.607C263.336 321.943 263.588 322.207 263.908 322.399C264.236 322.599 264.596 322.699 264.988 322.699C265.588 322.699 266.064 322.447 266.416 321.943C266.776 321.431 266.964 320.715 266.98 319.795C266.812 320.155 266.548 320.439 266.188 320.647C265.836 320.855 265.432 320.959 264.976 320.959C264.56 320.959 264.172 320.887 263.812 320.743C263.452 320.591 263.14 320.387 262.876 320.131C262.612 319.875 262.404 319.575 262.252 319.231C262.1 318.879 262.024 318.503 262.024 318.103ZM265.096 316.279C264.848 316.279 264.612 316.327 264.388 316.423C264.172 316.519 263.98 316.651 263.812 316.819C263.652 316.987 263.524 317.183 263.428 317.407C263.332 317.623 263.284 317.855 263.284 318.103C263.284 318.351 263.332 318.583 263.428 318.799C263.524 319.015 263.652 319.207 263.812 319.375C263.98 319.535 264.172 319.663 264.388 319.759C264.612 319.855 264.848 319.903 265.096 319.903C265.344 319.903 265.576 319.855 265.792 319.759C266.016 319.663 266.208 319.535 266.368 319.375C266.536 319.207 266.668 319.015 266.764 318.799C266.86 318.583 266.908 318.351 266.908 318.103C266.908 317.855 266.86 317.623 266.764 317.407C266.668 317.183 266.536 316.987 266.368 316.819C266.208 316.651 266.016 316.519 265.792 316.423C265.576 316.327 265.344 316.279 265.096 316.279Z" fill="white" fill-opacity="0.7"/>
<path d="M449.552 320.815V322.003H444.968V320.815H446.672V316.627C446.6 316.723 446.488 316.823 446.336 316.927C446.184 317.031 446.016 317.127 445.832 317.215C445.648 317.303 445.456 317.379 445.256 317.443C445.056 317.499 444.88 317.527 444.728 317.527V316.291C444.888 316.291 445.072 316.243 445.28 316.147C445.496 316.051 445.7 315.939 445.892 315.811C446.092 315.683 446.264 315.555 446.408 315.427C446.56 315.299 446.648 315.207 446.672 315.151H448.028V320.815H449.552ZM450.244 318.103C450.244 317.695 450.324 317.311 450.484 316.951C450.644 316.591 450.86 316.279 451.132 316.015C451.412 315.743 451.74 315.531 452.116 315.379C452.492 315.227 452.896 315.151 453.328 315.151C453.792 315.151 454.216 315.239 454.6 315.415C454.984 315.583 455.312 315.831 455.584 316.159C455.856 316.479 456.064 316.875 456.208 317.347C456.36 317.811 456.436 318.339 456.436 318.931C456.436 319.747 456.356 320.463 456.196 321.079C456.044 321.687 455.828 322.195 455.548 322.603C455.268 323.019 454.924 323.331 454.516 323.539C454.116 323.747 453.672 323.851 453.184 323.851C452.64 323.851 452.14 323.727 451.684 323.479C451.236 323.231 450.872 322.879 450.592 322.423L451.372 321.607C451.556 321.943 451.808 322.207 452.128 322.399C452.456 322.599 452.816 322.699 453.208 322.699C453.808 322.699 454.284 322.447 454.636 321.943C454.996 321.431 455.184 320.715 455.2 319.795C455.032 320.155 454.768 320.439 454.408 320.647C454.056 320.855 453.652 320.959 453.196 320.959C452.78 320.959 452.392 320.887 452.032 320.743C451.672 320.591 451.36 320.387 451.096 320.131C450.832 319.875 450.624 319.575 450.472 319.231C450.32 318.879 450.244 318.503 450.244 318.103ZM453.316 316.279C453.068 316.279 452.832 316.327 452.608 316.423C452.392 316.519 452.2 316.651 452.032 316.819C451.872 316.987 451.744 317.183 451.648 317.407C451.552 317.623 451.504 317.855 451.504 318.103C451.504 318.351 451.552 318.583 451.648 318.799C451.744 319.015 451.872 319.207 452.032 319.375C452.2 319.535 452.392 319.663 452.608 319.759C452.832 319.855 453.068 319.903 453.316 319.903C453.564 319.903 453.796 319.855 454.012 319.759C454.236 319.663 454.428 319.535 454.588 319.375C454.756 319.207 454.888 319.015 454.984 318.799C455.08 318.583 455.128 318.351 455.128 318.103C455.128 317.855 455.08 317.623 454.984 317.407C454.888 317.183 454.756 316.987 454.588 316.819C454.428 316.651 454.236 316.519 454.012 316.423C453.796 316.327 453.564 316.279 453.316 316.279ZM464.534 313.483L458.69 322.003H457.226L463.07 313.483H464.534ZM471.135 318.487C471.135 319.015 471.055 319.503 470.895 319.951C470.743 320.391 470.527 320.775 470.247 321.103C469.975 321.423 469.651 321.675 469.275 321.859C468.907 322.035 468.503 322.123 468.063 322.123C467.623 322.123 467.215 322.035 466.839 321.859C466.463 321.675 466.139 321.423 465.867 321.103C465.595 320.775 465.379 320.391 465.219 319.951C465.067 319.503 464.991 319.015 464.991 318.487C464.991 317.959 465.067 317.475 465.219 317.035C465.379 316.587 465.595 316.203 465.867 315.883C466.139 315.555 466.463 315.299 466.839 315.115C467.215 314.931 467.623 314.839 468.063 314.839C468.503 314.839 468.907 314.931 469.275 315.115C469.651 315.299 469.975 315.555 470.247 315.883C470.527 316.203 470.743 316.587 470.895 317.035C471.055 317.475 471.135 317.959 471.135 318.487ZM469.791 318.487C469.791 318.127 469.747 317.799 469.659 317.503C469.579 317.207 469.459 316.951 469.299 316.735C469.147 316.519 468.963 316.355 468.747 316.243C468.539 316.123 468.311 316.063 468.063 316.063C467.799 316.063 467.559 316.123 467.343 316.243C467.135 316.355 466.951 316.519 466.791 316.735C466.639 316.951 466.519 317.207 466.431 317.503C466.351 317.799 466.311 318.127 466.311 318.487C466.311 318.847 466.351 319.175 466.431 319.471C466.519 319.767 466.639 320.023 466.791 320.239C466.951 320.447 467.135 320.611 467.343 320.731C467.559 320.843 467.799 320.899 468.063 320.899C468.311 320.899 468.539 320.843 468.747 320.731C468.963 320.611 469.147 320.447 469.299 320.239C469.459 320.023 469.579 319.767 469.659 319.471C469.747 319.175 469.791 318.847 469.791 318.487ZM477.114 320.815V322.003H472.53V320.815H474.234V316.627C474.162 316.723 474.05 316.823 473.898 316.927C473.746 317.031 473.578 317.127 473.394 317.215C473.21 317.303 473.018 317.379 472.818 317.443C472.618 317.499 472.442 317.527 472.29 317.527V316.291C472.45 316.291 472.634 316.243 472.842 316.147C473.058 316.051 473.262 315.939 473.454 315.811C473.654 315.683 473.826 315.555 473.97 315.427C474.122 315.299 474.21 315.207 474.234 315.151H475.59V320.815H477.114ZM485.03 313.483L479.186 322.003H477.722L483.566 313.483H485.03ZM490.532 320.815V322.003H485.948V320.815H487.652V316.627C487.58 316.723 487.468 316.823 487.316 316.927C487.164 317.031 486.996 317.127 486.812 317.215C486.628 317.303 486.436 317.379 486.236 317.443C486.036 317.499 485.86 317.527 485.708 317.527V316.291C485.868 316.291 486.052 316.243 486.26 316.147C486.476 316.051 486.68 315.939 486.872 315.811C487.072 315.683 487.244 315.555 487.388 315.427C487.54 315.299 487.628 315.207 487.652 315.151H489.008V320.815H490.532ZM496.18 320.815V322.003H491.596V320.815H493.3V316.627C493.228 316.723 493.116 316.823 492.964 316.927C492.812 317.031 492.644 317.127 492.46 317.215C492.276 317.303 492.084 317.379 491.884 317.443C491.684 317.499 491.508 317.527 491.356 317.527V316.291C491.516 316.291 491.7 316.243 491.908 316.147C492.124 316.051 492.328 315.939 492.52 315.811C492.72 315.683 492.892 315.555 493.036 315.427C493.188 315.299 493.276 315.207 493.3 315.151H494.656V320.815H496.18Z" fill="white" fill-opacity="0.7"/>
<path d="M675.388 322.003C675.388 321.667 675.416 321.355 675.472 321.067C675.528 320.779 675.628 320.511 675.772 320.263C675.916 320.007 676.112 319.767 676.36 319.543C676.608 319.311 676.928 319.087 677.32 318.871C677.6 318.719 677.864 318.579 678.112 318.451C678.36 318.323 678.576 318.199 678.76 318.079C678.952 317.951 679.104 317.819 679.216 317.683C679.328 317.539 679.384 317.375 679.384 317.191C679.384 316.935 679.272 316.707 679.048 316.507C678.832 316.299 678.516 316.195 678.1 316.195C677.884 316.195 677.684 316.227 677.5 316.291C677.324 316.347 677.16 316.423 677.008 316.519C676.864 316.607 676.736 316.707 676.624 316.819C676.512 316.931 676.412 317.039 676.324 317.143L675.484 316.171C675.564 316.083 675.688 315.975 675.856 315.847C676.032 315.711 676.24 315.583 676.48 315.463C676.728 315.343 677.008 315.243 677.32 315.163C677.632 315.075 677.972 315.031 678.34 315.031C678.724 315.031 679.068 315.083 679.372 315.187C679.684 315.283 679.944 315.419 680.152 315.595C680.368 315.771 680.532 315.983 680.644 316.231C680.756 316.471 680.812 316.731 680.812 317.011C680.812 317.307 680.752 317.571 680.632 317.803C680.512 318.035 680.364 318.239 680.188 318.415C680.012 318.591 679.82 318.743 679.612 318.871C679.404 318.991 679.212 319.095 679.036 319.183C678.868 319.263 678.676 319.359 678.46 319.471C678.252 319.575 678.048 319.699 677.848 319.843C677.648 319.979 677.468 320.127 677.308 320.287C677.148 320.447 677.036 320.623 676.972 320.815H680.944V322.003H675.388ZM688.25 318.487C688.25 319.015 688.17 319.503 688.01 319.951C687.858 320.391 687.642 320.775 687.362 321.103C687.09 321.423 686.766 321.675 686.39 321.859C686.022 322.035 685.618 322.123 685.178 322.123C684.738 322.123 684.33 322.035 683.954 321.859C683.578 321.675 683.254 321.423 682.982 321.103C682.71 320.775 682.494 320.391 682.334 319.951C682.182 319.503 682.106 319.015 682.106 318.487C682.106 317.959 682.182 317.475 682.334 317.035C682.494 316.587 682.71 316.203 682.982 315.883C683.254 315.555 683.578 315.299 683.954 315.115C684.33 314.931 684.738 314.839 685.178 314.839C685.618 314.839 686.022 314.931 686.39 315.115C686.766 315.299 687.09 315.555 687.362 315.883C687.642 316.203 687.858 316.587 688.01 317.035C688.17 317.475 688.25 317.959 688.25 318.487ZM686.906 318.487C686.906 318.127 686.862 317.799 686.774 317.503C686.694 317.207 686.574 316.951 686.414 316.735C686.262 316.519 686.078 316.355 685.862 316.243C685.654 316.123 685.426 316.063 685.178 316.063C684.914 316.063 684.674 316.123 684.458 316.243C684.25 316.355 684.066 316.519 683.906 316.735C683.754 316.951 683.634 317.207 683.546 317.503C683.466 317.799 683.426 318.127 683.426 318.487C683.426 318.847 683.466 319.175 683.546 319.471C683.634 319.767 683.754 320.023 683.906 320.239C684.066 320.447 684.25 320.611 684.458 320.731C684.674 320.843 684.914 320.899 685.178 320.899C685.426 320.899 685.654 320.843 685.862 320.731C686.078 320.611 686.262 320.447 686.414 320.239C686.574 320.023 686.694 319.767 686.774 319.471C686.862 319.175 686.906 318.847 686.906 318.487ZM696.497 313.483L690.653 322.003H689.189L695.033 313.483H696.497ZM703.098 318.487C703.098 319.015 703.018 319.503 702.858 319.951C702.706 320.391 702.49 320.775 702.21 321.103C701.938 321.423 701.614 321.675 701.238 321.859C700.87 322.035 700.466 322.123 700.026 322.123C699.586 322.123 699.178 322.035 698.802 321.859C698.426 321.675 698.102 321.423 697.83 321.103C697.558 320.775 697.342 320.391 697.182 319.951C697.03 319.503 696.954 319.015 696.954 318.487C696.954 317.959 697.03 317.475 697.182 317.035C697.342 316.587 697.558 316.203 697.83 315.883C698.102 315.555 698.426 315.299 698.802 315.115C699.178 314.931 699.586 314.839 700.026 314.839C700.466 314.839 700.87 314.931 701.238 315.115C701.614 315.299 701.938 315.555 702.21 315.883C702.49 316.203 702.706 316.587 702.858 317.035C703.018 317.475 703.098 317.959 703.098 318.487ZM701.754 318.487C701.754 318.127 701.71 317.799 701.622 317.503C701.542 317.207 701.422 316.951 701.262 316.735C701.11 316.519 700.926 316.355 700.71 316.243C700.502 316.123 700.274 316.063 700.026 316.063C699.762 316.063 699.522 316.123 699.306 316.243C699.098 316.355 698.914 316.519 698.754 316.735C698.602 316.951 698.482 317.207 698.394 317.503C698.314 317.799 698.274 318.127 698.274 318.487C698.274 318.847 698.314 319.175 698.394 319.471C698.482 319.767 698.602 320.023 698.754 320.239C698.914 320.447 699.098 320.611 699.306 320.731C699.522 320.843 699.762 320.899 700.026 320.899C700.274 320.899 700.502 320.843 700.71 320.731C700.926 320.611 701.11 320.447 701.262 320.239C701.422 320.023 701.542 319.767 701.622 319.471C701.71 319.175 701.754 318.847 701.754 318.487ZM709.077 320.815V322.003H704.493V320.815H706.197V316.627C706.125 316.723 706.013 316.823 705.861 316.927C705.709 317.031 705.541 317.127 705.357 317.215C705.173 317.303 704.981 317.379 704.781 317.443C704.581 317.499 704.405 317.527 704.253 317.527V316.291C704.413 316.291 704.597 316.243 704.805 316.147C705.021 316.051 705.225 315.939 705.417 315.811C705.617 315.683 705.789 315.555 705.933 315.427C706.085 315.299 706.173 315.207 706.197 315.151H707.553V320.815H709.077ZM716.993 313.483L711.149 322.003H709.685L715.529 313.483H716.993ZM723.594 318.487C723.594 319.015 723.514 319.503 723.354 319.951C723.202 320.391 722.986 320.775 722.706 321.103C722.434 321.423 722.11 321.675 721.734 321.859C721.366 322.035 720.962 322.123 720.522 322.123C720.082 322.123 719.674 322.035 719.298 321.859C718.922 321.675 718.598 321.423 718.326 321.103C718.054 320.775 717.838 320.391 717.678 319.951C717.526 319.503 717.45 319.015 717.45 318.487C717.45 317.959 717.526 317.475 717.678 317.035C717.838 316.587 718.054 316.203 718.326 315.883C718.598 315.555 718.922 315.299 719.298 315.115C719.674 314.931 720.082 314.839 720.522 314.839C720.962 314.839 721.366 314.931 721.734 315.115C722.11 315.299 722.434 315.555 722.706 315.883C722.986 316.203 723.202 316.587 723.354 317.035C723.514 317.475 723.594 317.959 723.594 318.487ZM722.25 318.487C722.25 318.127 722.206 317.799 722.118 317.503C722.038 317.207 721.918 316.951 721.758 316.735C721.606 316.519 721.422 316.355 721.206 316.243C720.998 316.123 720.77 316.063 720.522 316.063C720.258 316.063 720.018 316.123 719.802 316.243C719.594 316.355 719.41 316.519 719.25 316.735C719.098 316.951 718.978 317.207 718.89 317.503C718.81 317.799 718.77 318.127 718.77 318.487C718.77 318.847 718.81 319.175 718.89 319.471C718.978 319.767 719.098 320.023 719.25 320.239C719.41 320.447 719.594 320.611 719.802 320.731C720.018 320.843 720.258 320.899 720.522 320.899C720.77 320.899 720.998 320.843 721.206 320.731C721.422 320.611 721.606 320.447 721.758 320.239C721.918 320.023 722.038 319.767 722.118 319.471C722.206 319.175 722.25 318.847 722.25 318.487ZM729.573 320.815V322.003H724.989V320.815H726.693V316.627C726.621 316.723 726.509 316.823 726.357 316.927C726.205 317.031 726.037 317.127 725.853 317.215C725.669 317.303 725.477 317.379 725.277 317.443C725.077 317.499 724.901 317.527 724.749 317.527V316.291C724.909 316.291 725.093 316.243 725.301 316.147C725.517 316.051 725.721 315.939 725.913 315.811C726.113 315.683 726.285 315.555 726.429 315.427C726.581 315.299 726.669 315.207 726.693 315.151H728.049V320.815H729.573Z" fill="white" fill-opacity="0.7"/>
<path d="M906.537 322.003C906.537 321.667 906.565 321.355 906.621 321.067C906.677 320.779 906.777 320.511 906.921 320.263C907.065 320.007 907.261 319.767 907.509 319.543C907.757 319.311 908.077 319.087 908.469 318.871C908.749 318.719 909.013 318.579 909.261 318.451C909.509 318.323 909.725 318.199 909.909 318.079C910.101 317.951 910.253 317.819 910.365 317.683C910.477 317.539 910.533 317.375 910.533 317.191C910.533 316.935 910.421 316.707 910.197 316.507C909.981 316.299 909.665 316.195 909.249 316.195C909.033 316.195 908.833 316.227 908.649 316.291C908.473 316.347 908.309 316.423 908.157 316.519C908.013 316.607 907.885 316.707 907.773 316.819C907.661 316.931 907.561 317.039 907.473 317.143L906.633 316.171C906.713 316.083 906.837 315.975 907.005 315.847C907.181 315.711 907.389 315.583 907.629 315.463C907.877 315.343 908.157 315.243 908.469 315.163C908.781 315.075 909.121 315.031 909.489 315.031C909.873 315.031 910.217 315.083 910.521 315.187C910.833 315.283 911.093 315.419 911.301 315.595C911.517 315.771 911.681 315.983 911.793 316.231C911.905 316.471 911.961 316.731 911.961 317.011C911.961 317.307 911.901 317.571 911.781 317.803C911.661 318.035 911.513 318.239 911.337 318.415C911.161 318.591 910.969 318.743 910.761 318.871C910.553 318.991 910.361 319.095 910.185 319.183C910.017 319.263 909.825 319.359 909.609 319.471C909.401 319.575 909.197 319.699 908.997 319.843C908.797 319.979 908.617 320.127 908.457 320.287C908.297 320.447 908.185 320.623 908.121 320.815H912.093V322.003H906.537ZM919.399 318.487C919.399 319.015 919.319 319.503 919.159 319.951C919.007 320.391 918.791 320.775 918.511 321.103C918.239 321.423 917.915 321.675 917.539 321.859C917.171 322.035 916.767 322.123 916.327 322.123C915.887 322.123 915.479 322.035 915.103 321.859C914.727 321.675 914.403 321.423 914.131 321.103C913.859 320.775 913.643 320.391 913.483 319.951C913.331 319.503 913.255 319.015 913.255 318.487C913.255 317.959 913.331 317.475 913.483 317.035C913.643 316.587 913.859 316.203 914.131 315.883C914.403 315.555 914.727 315.299 915.103 315.115C915.479 314.931 915.887 314.839 916.327 314.839C916.767 314.839 917.171 314.931 917.539 315.115C917.915 315.299 918.239 315.555 918.511 315.883C918.791 316.203 919.007 316.587 919.159 317.035C919.319 317.475 919.399 317.959 919.399 318.487ZM918.055 318.487C918.055 318.127 918.011 317.799 917.923 317.503C917.843 317.207 917.723 316.951 917.563 316.735C917.411 316.519 917.227 316.355 917.011 316.243C916.803 316.123 916.575 316.063 916.327 316.063C916.063 316.063 915.823 316.123 915.607 316.243C915.399 316.355 915.215 316.519 915.055 316.735C914.903 316.951 914.783 317.207 914.695 317.503C914.615 317.799 914.575 318.127 914.575 318.487C914.575 318.847 914.615 319.175 914.695 319.471C914.783 319.767 914.903 320.023 915.055 320.239C915.215 320.447 915.399 320.611 915.607 320.731C915.823 320.843 916.063 320.899 916.327 320.899C916.575 320.899 916.803 320.843 917.011 320.731C917.227 320.611 917.411 320.447 917.563 320.239C917.723 320.023 917.843 319.767 917.923 319.471C918.011 319.175 918.055 318.847 918.055 318.487ZM927.646 313.483L921.802 322.003H920.338L926.182 313.483H927.646ZM934.246 318.487C934.246 319.015 934.166 319.503 934.006 319.951C933.854 320.391 933.638 320.775 933.358 321.103C933.086 321.423 932.762 321.675 932.386 321.859C932.018 322.035 931.614 322.123 931.174 322.123C930.734 322.123 930.326 322.035 929.95 321.859C929.574 321.675 929.25 321.423 928.978 321.103C928.706 320.775 928.49 320.391 928.33 319.951C928.178 319.503 928.102 319.015 928.102 318.487C928.102 317.959 928.178 317.475 928.33 317.035C928.49 316.587 928.706 316.203 928.978 315.883C929.25 315.555 929.574 315.299 929.95 315.115C930.326 314.931 930.734 314.839 931.174 314.839C931.614 314.839 932.018 314.931 932.386 315.115C932.762 315.299 933.086 315.555 933.358 315.883C933.638 316.203 933.854 316.587 934.006 317.035C934.166 317.475 934.246 317.959 934.246 318.487ZM932.902 318.487C932.902 318.127 932.858 317.799 932.77 317.503C932.69 317.207 932.57 316.951 932.41 316.735C932.258 316.519 932.074 316.355 931.858 316.243C931.65 316.123 931.422 316.063 931.174 316.063C930.91 316.063 930.67 316.123 930.454 316.243C930.246 316.355 930.062 316.519 929.902 316.735C929.75 316.951 929.63 317.207 929.542 317.503C929.462 317.799 929.422 318.127 929.422 318.487C929.422 318.847 929.462 319.175 929.542 319.471C929.63 319.767 929.75 320.023 929.902 320.239C930.062 320.447 930.246 320.611 930.454 320.731C930.67 320.843 930.91 320.899 931.174 320.899C931.422 320.899 931.65 320.843 931.858 320.731C932.074 320.611 932.258 320.447 932.41 320.239C932.57 320.023 932.69 319.767 932.77 319.471C932.858 319.175 932.902 318.847 932.902 318.487ZM940.225 320.815V322.003H935.641V320.815H937.345V316.627C937.273 316.723 937.161 316.823 937.009 316.927C936.857 317.031 936.689 317.127 936.505 317.215C936.321 317.303 936.129 317.379 935.929 317.443C935.729 317.499 935.553 317.527 935.401 317.527V316.291C935.561 316.291 935.745 316.243 935.953 316.147C936.169 316.051 936.373 315.939 936.565 315.811C936.765 315.683 936.937 315.555 937.081 315.427C937.233 315.299 937.321 315.207 937.345 315.151H938.701V320.815H940.225ZM948.142 313.483L942.298 322.003H940.834L946.678 313.483H948.142ZM954.742 318.487C954.742 319.015 954.662 319.503 954.502 319.951C954.35 320.391 954.134 320.775 953.854 321.103C953.582 321.423 953.258 321.675 952.882 321.859C952.514 322.035 952.11 322.123 951.67 322.123C951.23 322.123 950.822 322.035 950.446 321.859C950.07 321.675 949.746 321.423 949.474 321.103C949.202 320.775 948.986 320.391 948.826 319.951C948.674 319.503 948.598 319.015 948.598 318.487C948.598 317.959 948.674 317.475 948.826 317.035C948.986 316.587 949.202 316.203 949.474 315.883C949.746 315.555 950.07 315.299 950.446 315.115C950.822 314.931 951.23 314.839 951.67 314.839C952.11 314.839 952.514 314.931 952.882 315.115C953.258 315.299 953.582 315.555 953.854 315.883C954.134 316.203 954.35 316.587 954.502 317.035C954.662 317.475 954.742 317.959 954.742 318.487ZM953.398 318.487C953.398 318.127 953.354 317.799 953.266 317.503C953.186 317.207 953.066 316.951 952.906 316.735C952.754 316.519 952.57 316.355 952.354 316.243C952.146 316.123 951.918 316.063 951.67 316.063C951.406 316.063 951.166 316.123 950.95 316.243C950.742 316.355 950.558 316.519 950.398 316.735C950.246 316.951 950.126 317.207 950.038 317.503C949.958 317.799 949.918 318.127 949.918 318.487C949.918 318.847 949.958 319.175 950.038 319.471C950.126 319.767 950.246 320.023 950.398 320.239C950.558 320.447 950.742 320.611 950.95 320.731C951.166 320.843 951.406 320.899 951.67 320.899C951.918 320.899 952.146 320.843 952.354 320.731C952.57 320.611 952.754 320.447 952.906 320.239C953.066 320.023 953.186 319.767 953.266 319.471C953.354 319.175 953.398 318.847 953.398 318.487ZM959.785 319.171C960.033 319.219 960.261 319.307 960.469 319.435C960.677 319.555 960.853 319.707 960.997 319.891C961.141 320.075 961.253 320.287 961.333 320.527C961.413 320.767 961.453 321.027 961.453 321.307C961.453 321.683 961.381 322.019 961.237 322.315C961.101 322.619 960.901 322.879 960.637 323.095C960.381 323.311 960.069 323.475 959.701 323.587C959.333 323.707 958.921 323.767 958.465 323.767C957.857 323.767 957.321 323.659 956.857 323.443C956.393 323.235 956.021 322.931 955.741 322.531L956.545 321.619C956.737 321.915 956.985 322.147 957.289 322.315C957.593 322.483 957.977 322.567 958.441 322.567C958.969 322.567 959.373 322.455 959.653 322.231C959.941 322.007 960.085 321.671 960.085 321.223C960.085 320.759 959.925 320.395 959.605 320.131C959.285 319.867 958.813 319.735 958.189 319.735H957.865V318.703H958.225C958.761 318.703 959.173 318.579 959.461 318.331C959.749 318.075 959.893 317.755 959.893 317.371C959.893 316.987 959.765 316.707 959.509 316.531C959.253 316.347 958.921 316.255 958.513 316.255C958.105 316.255 957.745 316.343 957.433 316.519C957.121 316.695 956.873 316.947 956.689 317.275L955.861 316.375C955.973 316.183 956.125 316.011 956.317 315.859C956.509 315.699 956.725 315.563 956.965 315.451C957.213 315.331 957.477 315.243 957.757 315.187C958.045 315.123 958.341 315.091 958.645 315.091C959.037 315.091 959.393 315.143 959.713 315.247C960.041 315.351 960.321 315.495 960.553 315.679C960.793 315.863 960.977 316.087 961.105 316.351C961.233 316.615 961.297 316.907 961.297 317.227C961.297 317.467 961.261 317.695 961.189 317.911C961.117 318.127 961.013 318.323 960.877 318.499C960.749 318.675 960.593 318.823 960.409 318.943C960.225 319.055 960.017 319.131 959.785 319.171Z" fill="white" fill-opacity="0.7"/>
<path d="M1136.52 322.003C1136.52 321.667 1136.55 321.355 1136.61 321.067C1136.66 320.779 1136.76 320.511 1136.91 320.263C1137.05 320.007 1137.25 319.767 1137.5 319.543C1137.74 319.311 1138.06 319.087 1138.46 318.871C1138.74 318.719 1139 318.579 1139.25 318.451C1139.5 318.323 1139.71 318.199 1139.9 318.079C1140.09 317.951 1140.24 317.819 1140.35 317.683C1140.46 317.539 1140.52 317.375 1140.52 317.191C1140.52 316.935 1140.41 316.707 1140.18 316.507C1139.97 316.299 1139.65 316.195 1139.24 316.195C1139.02 316.195 1138.82 316.227 1138.64 316.291C1138.46 316.347 1138.3 316.423 1138.14 316.519C1138 316.607 1137.87 316.707 1137.76 316.819C1137.65 316.931 1137.55 317.039 1137.46 317.143L1136.62 316.171C1136.7 316.083 1136.82 315.975 1136.99 315.847C1137.17 315.711 1137.38 315.583 1137.62 315.463C1137.86 315.343 1138.14 315.243 1138.46 315.163C1138.77 315.075 1139.11 315.031 1139.48 315.031C1139.86 315.031 1140.2 315.083 1140.51 315.187C1140.82 315.283 1141.08 315.419 1141.29 315.595C1141.5 315.771 1141.67 315.983 1141.78 316.231C1141.89 316.471 1141.95 316.731 1141.95 317.011C1141.95 317.307 1141.89 317.571 1141.77 317.803C1141.65 318.035 1141.5 318.239 1141.32 318.415C1141.15 318.591 1140.96 318.743 1140.75 318.871C1140.54 318.991 1140.35 319.095 1140.17 319.183C1140 319.263 1139.81 319.359 1139.6 319.471C1139.39 319.575 1139.18 319.699 1138.98 319.843C1138.78 319.979 1138.6 320.127 1138.44 320.287C1138.28 320.447 1138.17 320.623 1138.11 320.815H1142.08V322.003H1136.52ZM1149.39 318.487C1149.39 319.015 1149.31 319.503 1149.15 319.951C1148.99 320.391 1148.78 320.775 1148.5 321.103C1148.23 321.423 1147.9 321.675 1147.53 321.859C1147.16 322.035 1146.75 322.123 1146.31 322.123C1145.87 322.123 1145.47 322.035 1145.09 321.859C1144.71 321.675 1144.39 321.423 1144.12 321.103C1143.85 320.775 1143.63 320.391 1143.47 319.951C1143.32 319.503 1143.24 319.015 1143.24 318.487C1143.24 317.959 1143.32 317.475 1143.47 317.035C1143.63 316.587 1143.85 316.203 1144.12 315.883C1144.39 315.555 1144.71 315.299 1145.09 315.115C1145.47 314.931 1145.87 314.839 1146.31 314.839C1146.75 314.839 1147.16 314.931 1147.53 315.115C1147.9 315.299 1148.23 315.555 1148.5 315.883C1148.78 316.203 1148.99 316.587 1149.15 317.035C1149.31 317.475 1149.39 317.959 1149.39 318.487ZM1148.04 318.487C1148.04 318.127 1148 317.799 1147.91 317.503C1147.83 317.207 1147.71 316.951 1147.55 316.735C1147.4 316.519 1147.21 316.355 1147 316.243C1146.79 316.123 1146.56 316.063 1146.31 316.063C1146.05 316.063 1145.81 316.123 1145.59 316.243C1145.39 316.355 1145.2 316.519 1145.04 316.735C1144.89 316.951 1144.77 317.207 1144.68 317.503C1144.6 317.799 1144.56 318.127 1144.56 318.487C1144.56 318.847 1144.6 319.175 1144.68 319.471C1144.77 319.767 1144.89 320.023 1145.04 320.239C1145.2 320.447 1145.39 320.611 1145.59 320.731C1145.81 320.843 1146.05 320.899 1146.31 320.899C1146.56 320.899 1146.79 320.843 1147 320.731C1147.21 320.611 1147.4 320.447 1147.55 320.239C1147.71 320.023 1147.83 319.767 1147.91 319.471C1148 319.175 1148.04 318.847 1148.04 318.487ZM1157.63 313.483L1151.79 322.003H1150.33L1156.17 313.483H1157.63ZM1164.23 318.487C1164.23 319.015 1164.15 319.503 1163.99 319.951C1163.84 320.391 1163.63 320.775 1163.35 321.103C1163.07 321.423 1162.75 321.675 1162.37 321.859C1162.01 322.035 1161.6 322.123 1161.16 322.123C1160.72 322.123 1160.31 322.035 1159.94 321.859C1159.56 321.675 1159.24 321.423 1158.97 321.103C1158.69 320.775 1158.48 320.391 1158.32 319.951C1158.17 319.503 1158.09 319.015 1158.09 318.487C1158.09 317.959 1158.17 317.475 1158.32 317.035C1158.48 316.587 1158.69 316.203 1158.97 315.883C1159.24 315.555 1159.56 315.299 1159.94 315.115C1160.31 314.931 1160.72 314.839 1161.16 314.839C1161.6 314.839 1162.01 314.931 1162.37 315.115C1162.75 315.299 1163.07 315.555 1163.35 315.883C1163.63 316.203 1163.84 316.587 1163.99 317.035C1164.15 317.475 1164.23 317.959 1164.23 318.487ZM1162.89 318.487C1162.89 318.127 1162.85 317.799 1162.76 317.503C1162.68 317.207 1162.56 316.951 1162.4 316.735C1162.25 316.519 1162.06 316.355 1161.85 316.243C1161.64 316.123 1161.41 316.063 1161.16 316.063C1160.9 316.063 1160.66 316.123 1160.44 316.243C1160.23 316.355 1160.05 316.519 1159.89 316.735C1159.74 316.951 1159.62 317.207 1159.53 317.503C1159.45 317.799 1159.41 318.127 1159.41 318.487C1159.41 318.847 1159.45 319.175 1159.53 319.471C1159.62 319.767 1159.74 320.023 1159.89 320.239C1160.05 320.447 1160.23 320.611 1160.44 320.731C1160.66 320.843 1160.9 320.899 1161.16 320.899C1161.41 320.899 1161.64 320.843 1161.85 320.731C1162.06 320.611 1162.25 320.447 1162.4 320.239C1162.56 320.023 1162.68 319.767 1162.76 319.471C1162.85 319.175 1162.89 318.847 1162.89 318.487ZM1170.21 320.815V322.003H1165.63V320.815H1167.33V316.627C1167.26 316.723 1167.15 316.823 1167 316.927C1166.85 317.031 1166.68 317.127 1166.49 317.215C1166.31 317.303 1166.12 317.379 1165.92 317.443C1165.72 317.499 1165.54 317.527 1165.39 317.527V316.291C1165.55 316.291 1165.73 316.243 1165.94 316.147C1166.16 316.051 1166.36 315.939 1166.55 315.811C1166.75 315.683 1166.93 315.555 1167.07 315.427C1167.22 315.299 1167.31 315.207 1167.33 315.151H1168.69V320.815H1170.21ZM1178.13 313.483L1172.29 322.003H1170.82L1176.67 313.483H1178.13ZM1184.73 318.487C1184.73 319.015 1184.65 319.503 1184.49 319.951C1184.34 320.391 1184.12 320.775 1183.84 321.103C1183.57 321.423 1183.25 321.675 1182.87 321.859C1182.5 322.035 1182.1 322.123 1181.66 322.123C1181.22 322.123 1180.81 322.035 1180.43 321.859C1180.06 321.675 1179.73 321.423 1179.46 321.103C1179.19 320.775 1178.97 320.391 1178.81 319.951C1178.66 319.503 1178.59 319.015 1178.59 318.487C1178.59 317.959 1178.66 317.475 1178.81 317.035C1178.97 316.587 1179.19 316.203 1179.46 315.883C1179.73 315.555 1180.06 315.299 1180.43 315.115C1180.81 314.931 1181.22 314.839 1181.66 314.839C1182.1 314.839 1182.5 314.931 1182.87 315.115C1183.25 315.299 1183.57 315.555 1183.84 315.883C1184.12 316.203 1184.34 316.587 1184.49 317.035C1184.65 317.475 1184.73 317.959 1184.73 318.487ZM1183.39 318.487C1183.39 318.127 1183.34 317.799 1183.25 317.503C1183.17 317.207 1183.05 316.951 1182.89 316.735C1182.74 316.519 1182.56 316.355 1182.34 316.243C1182.13 316.123 1181.91 316.063 1181.66 316.063C1181.39 316.063 1181.15 316.123 1180.94 316.243C1180.73 316.355 1180.55 316.519 1180.39 316.735C1180.23 316.951 1180.11 317.207 1180.03 317.503C1179.95 317.799 1179.91 318.127 1179.91 318.487C1179.91 318.847 1179.95 319.175 1180.03 319.471C1180.11 319.767 1180.23 320.023 1180.39 320.239C1180.55 320.447 1180.73 320.611 1180.94 320.731C1181.15 320.843 1181.39 320.899 1181.66 320.899C1181.91 320.899 1182.13 320.843 1182.34 320.731C1182.56 320.611 1182.74 320.447 1182.89 320.239C1183.05 320.023 1183.17 319.767 1183.25 319.471C1183.34 319.175 1183.39 318.847 1183.39 318.487ZM1188.77 318.199C1189.17 318.199 1189.53 318.267 1189.87 318.403C1190.21 318.539 1190.51 318.727 1190.76 318.967C1191.01 319.207 1191.21 319.495 1191.35 319.831C1191.49 320.167 1191.56 320.535 1191.56 320.935C1191.56 321.359 1191.48 321.747 1191.32 322.099C1191.17 322.451 1190.95 322.751 1190.67 322.999C1190.4 323.255 1190.08 323.451 1189.7 323.587C1189.33 323.723 1188.92 323.791 1188.49 323.791C1187.87 323.791 1187.32 323.651 1186.83 323.371C1186.35 323.099 1185.97 322.727 1185.72 322.255L1186.51 321.499C1186.73 321.835 1187.02 322.107 1187.37 322.315C1187.73 322.523 1188.1 322.627 1188.5 322.627C1189 322.627 1189.41 322.475 1189.73 322.171C1190.05 321.867 1190.21 321.463 1190.21 320.959C1190.21 320.719 1190.16 320.503 1190.07 320.311C1189.99 320.111 1189.88 319.943 1189.74 319.807C1189.59 319.663 1189.42 319.551 1189.22 319.471C1189.03 319.391 1188.82 319.351 1188.59 319.351C1188.28 319.351 1188 319.419 1187.73 319.555C1187.47 319.683 1187.25 319.875 1187.09 320.131H1185.92C1185.93 320.099 1185.95 320.003 1185.97 319.843C1186 319.683 1186.04 319.483 1186.09 319.243C1186.14 319.003 1186.19 318.735 1186.25 318.439C1186.3 318.143 1186.36 317.843 1186.43 317.539C1186.57 316.827 1186.73 316.031 1186.89 315.151H1191.06V316.363H1187.85L1187.42 318.691C1187.56 318.539 1187.74 318.419 1187.96 318.331C1188.19 318.243 1188.46 318.199 1188.77 318.199Z" fill="white" fill-opacity="0.7"/>
<path d="M80.6388 301.484C80.6388 302.012 80.5588 302.5 80.3988 302.948C80.2468 303.388 80.0308 303.772 79.7508 304.1C79.4788 304.42 79.1548 304.672 78.7788 304.856C78.4108 305.032 78.0068 305.12 77.5668 305.12C77.1268 305.12 76.7188 305.032 76.3428 304.856C75.9668 304.672 75.6428 304.42 75.3708 304.1C75.0988 303.772 74.8828 303.388 74.7228 302.948C74.5708 302.5 74.4948 302.012 74.4948 301.484C74.4948 300.956 74.5708 300.472 74.7228 300.032C74.8828 299.584 75.0988 299.2 75.3708 298.88C75.6428 298.552 75.9668 298.296 76.3428 298.112C76.7188 297.928 77.1268 297.836 77.5668 297.836C78.0068 297.836 78.4108 297.928 78.7788 298.112C79.1548 298.296 79.4788 298.552 79.7508 298.88C80.0308 299.2 80.2468 299.584 80.3988 300.032C80.5588 300.472 80.6388 300.956 80.6388 301.484ZM79.2948 301.484C79.2948 301.124 79.2508 300.796 79.1628 300.5C79.0828 300.204 78.9628 299.948 78.8028 299.732C78.6508 299.516 78.4668 299.352 78.2508 299.24C78.0428 299.12 77.8148 299.06 77.5668 299.06C77.3028 299.06 77.0628 299.12 76.8468 299.24C76.6388 299.352 76.4548 299.516 76.2948 299.732C76.1428 299.948 76.0228 300.204 75.9348 300.5C75.8548 300.796 75.8148 301.124 75.8148 301.484C75.8148 301.844 75.8548 302.172 75.9348 302.468C76.0228 302.764 76.1428 303.02 76.2948 303.236C76.4548 303.444 76.6388 303.608 76.8468 303.728C77.0628 303.84 77.3028 303.896 77.5668 303.896C77.8148 303.896 78.0428 303.84 78.2508 303.728C78.4668 303.608 78.6508 303.444 78.8028 303.236C78.9628 303.02 79.0828 302.764 79.1628 302.468C79.2508 302.172 79.2948 301.844 79.2948 301.484Z" fill="white" fill-opacity="0.7"/>
<path d="M72.48 272C72.48 271.664 72.508 271.352 72.564 271.064C72.62 270.776 72.72 270.508 72.864 270.26C73.008 270.004 73.204 269.764 73.452 269.54C73.7 269.308 74.02 269.084 74.412 268.868C74.692 268.716 74.956 268.576 75.204 268.448C75.452 268.32 75.668 268.196 75.852 268.076C76.044 267.948 76.196 267.816 76.308 267.68C76.42 267.536 76.476 267.372 76.476 267.188C76.476 266.932 76.364 266.704 76.14 266.504C75.924 266.296 75.608 266.192 75.192 266.192C74.976 266.192 74.776 266.224 74.592 266.288C74.416 266.344 74.252 266.42 74.1 266.516C73.956 266.604 73.828 266.704 73.716 266.816C73.604 266.928 73.504 267.036 73.416 267.14L72.576 266.168C72.656 266.08 72.78 265.972 72.948 265.844C73.124 265.708 73.332 265.58 73.572 265.46C73.82 265.34 74.1 265.24 74.412 265.16C74.724 265.072 75.064 265.028 75.432 265.028C75.816 265.028 76.16 265.08 76.464 265.184C76.776 265.28 77.036 265.416 77.244 265.592C77.46 265.768 77.624 265.98 77.736 266.228C77.848 266.468 77.904 266.728 77.904 267.008C77.904 267.304 77.844 267.568 77.724 267.8C77.604 268.032 77.456 268.236 77.28 268.412C77.104 268.588 76.912 268.74 76.704 268.868C76.496 268.988 76.304 269.092 76.128 269.18C75.96 269.26 75.768 269.356 75.552 269.468C75.344 269.572 75.14 269.696 74.94 269.84C74.74 269.976 74.56 270.124 74.4 270.284C74.24 270.444 74.128 270.62 74.064 270.812H78.036V272H72.48ZM83.7459 272L81.7419 269.108L80.6979 270.092V272H79.3779V263.24H80.6979V268.796L83.5779 265.736H85.0179L82.5819 268.364L85.1499 272H83.7459Z" fill="white" fill-opacity="0.7"/>
<path d="M77.8308 242.524V240.616H74.1468V239.44L78.2508 234.148H79.1508V239.416H80.2068V240.616H79.1508V242.524H77.8308ZM75.4908 239.416H77.9748V236.164L75.4908 239.416ZM85.8163 241L83.8123 238.108L82.7683 239.092V241H81.4482V232.24H82.7683V237.796L85.6483 234.736H87.0883L84.6523 237.364L87.2203 241H85.8163Z" fill="white" fill-opacity="0.7"/>
<path d="M80.6508 207.168C80.6508 207.576 80.5708 207.96 80.4108 208.32C80.2588 208.68 80.0428 208.996 79.7628 209.268C79.4908 209.532 79.1668 209.74 78.7908 209.892C78.4148 210.044 78.0108 210.12 77.5788 210.12C77.1068 210.12 76.6788 210.036 76.2948 209.868C75.9108 209.692 75.5828 209.444 75.3108 209.124C75.0388 208.796 74.8268 208.4 74.6748 207.936C74.5308 207.464 74.4588 206.932 74.4588 206.34C74.4588 205.524 74.5348 204.812 74.6868 204.204C74.8468 203.588 75.0668 203.076 75.3468 202.668C75.6268 202.252 75.9668 201.94 76.3668 201.732C76.7668 201.524 77.2148 201.42 77.7108 201.42C78.2548 201.42 78.7508 201.544 79.1988 201.792C79.6548 202.04 80.0228 202.392 80.3028 202.848L79.5228 203.664C79.3388 203.328 79.0828 203.064 78.7548 202.872C78.4348 202.672 78.0788 202.572 77.6868 202.572C77.0868 202.572 76.6068 202.828 76.2468 203.34C75.8948 203.844 75.7108 204.556 75.6948 205.476C75.8708 205.116 76.1348 204.832 76.4868 204.624C76.8388 204.416 77.2428 204.312 77.6988 204.312C78.1148 204.312 78.5028 204.388 78.8628 204.54C79.2228 204.684 79.5348 204.884 79.7988 205.14C80.0628 205.396 80.2708 205.7 80.4228 206.052C80.5748 206.396 80.6508 206.768 80.6508 207.168ZM77.5788 208.992C77.8268 208.992 78.0588 208.944 78.2748 208.848C78.4988 208.752 78.6908 208.62 78.8508 208.452C79.0188 208.284 79.1508 208.092 79.2468 207.876C79.3428 207.652 79.3908 207.416 79.3908 207.168C79.3908 206.92 79.3428 206.688 79.2468 206.472C79.1508 206.256 79.0188 206.068 78.8508 205.908C78.6908 205.74 78.4988 205.608 78.2748 205.512C78.0588 205.416 77.8268 205.368 77.5788 205.368C77.3308 205.368 77.0948 205.416 76.8708 205.512C76.6548 205.608 76.4628 205.74 76.2948 205.908C76.1348 206.068 76.0068 206.256 75.9108 206.472C75.8148 206.688 75.7668 206.92 75.7668 207.168C75.7668 207.416 75.8148 207.652 75.9108 207.876C76.0068 208.092 76.1348 208.284 76.2948 208.452C76.4628 208.62 76.6548 208.752 76.8708 208.848C77.0948 208.944 77.3308 208.992 77.5788 208.992ZM86.3319 210L84.3279 207.108L83.2839 208.092V210H81.9639V201.24H83.2839V206.796L86.1639 203.736H87.6039L85.1679 206.364L87.7359 210H86.3319Z" fill="white" fill-opacity="0.7"/>
<path d="M80.5308 173.54C80.5308 173.924 80.4468 174.276 80.2788 174.596C80.1188 174.908 79.8988 175.176 79.6188 175.4C79.3388 175.624 79.0148 175.796 78.6468 175.916C78.2788 176.036 77.8868 176.096 77.4708 176.096C77.0468 176.096 76.6468 176.032 76.2708 175.904C75.9028 175.768 75.5828 175.584 75.3108 175.352C75.0388 175.12 74.8228 174.844 74.6628 174.524C74.5108 174.204 74.4348 173.856 74.4348 173.48C74.4348 173.232 74.4788 173 74.5668 172.784C74.6548 172.568 74.7668 172.376 74.9028 172.208C75.0468 172.032 75.2068 171.88 75.3828 171.752C75.5588 171.624 75.7348 171.52 75.9108 171.44C75.5828 171.296 75.3028 171.076 75.0708 170.78C74.8388 170.484 74.7228 170.148 74.7228 169.772C74.7228 169.404 74.8068 169.08 74.9748 168.8C75.1428 168.512 75.3588 168.272 75.6228 168.08C75.8868 167.88 76.1828 167.732 76.5108 167.636C76.8388 167.532 77.1628 167.48 77.4828 167.48C77.8028 167.48 78.1268 167.532 78.4548 167.636C78.7908 167.732 79.0908 167.876 79.3548 168.068C79.6268 168.26 79.8468 168.5 80.0148 168.788C80.1828 169.068 80.2668 169.392 80.2668 169.76C80.2668 170.136 80.1468 170.476 79.9068 170.78C79.6748 171.076 79.3908 171.296 79.0548 171.44C79.2468 171.528 79.4308 171.64 79.6068 171.776C79.7908 171.904 79.9508 172.06 80.0868 172.244C80.2228 172.42 80.3308 172.616 80.4108 172.832C80.4908 173.048 80.5308 173.284 80.5308 173.54ZM79.1988 173.456C79.1988 173.224 79.1468 173.02 79.0428 172.844C78.9468 172.66 78.8148 172.504 78.6468 172.376C78.4868 172.248 78.3028 172.152 78.0948 172.088C77.8948 172.024 77.6908 171.992 77.4828 171.992C77.2668 171.992 77.0548 172.028 76.8468 172.1C76.6468 172.164 76.4668 172.26 76.3068 172.388C76.1548 172.516 76.0308 172.672 75.9348 172.856C75.8388 173.032 75.7908 173.232 75.7908 173.456C75.7908 173.68 75.8388 173.884 75.9348 174.068C76.0388 174.244 76.1708 174.396 76.3308 174.524C76.4908 174.644 76.6708 174.74 76.8708 174.812C77.0788 174.876 77.2868 174.908 77.4948 174.908C77.7108 174.908 77.9188 174.872 78.1188 174.8C78.3268 174.728 78.5108 174.628 78.6708 174.5C78.8308 174.372 78.9588 174.22 79.0548 174.044C79.1508 173.868 79.1988 173.672 79.1988 173.456ZM76.0548 169.82C76.0548 170.012 76.0988 170.18 76.1868 170.324C76.2748 170.468 76.3868 170.588 76.5228 170.684C76.6588 170.78 76.8108 170.856 76.9788 170.912C77.1468 170.96 77.3148 170.984 77.4828 170.984C77.6508 170.984 77.8188 170.96 77.9868 170.912C78.1628 170.856 78.3188 170.78 78.4548 170.684C78.5908 170.58 78.7028 170.456 78.7908 170.312C78.8788 170.16 78.9228 169.988 78.9228 169.796C78.9228 169.62 78.8828 169.464 78.8028 169.328C78.7228 169.184 78.6148 169.064 78.4788 168.968C78.3508 168.864 78.1988 168.788 78.0228 168.74C77.8548 168.684 77.6748 168.656 77.4828 168.656C77.2908 168.656 77.1068 168.684 76.9308 168.74C76.7628 168.796 76.6108 168.876 76.4748 168.98C76.3468 169.076 76.2428 169.196 76.1628 169.34C76.0908 169.484 76.0548 169.644 76.0548 169.82ZM86.2498 176L84.2458 173.108L83.2018 174.092V176H81.8818V167.24H83.2018V172.796L86.0818 169.736H87.5218L85.0858 172.364L87.6538 176H86.2498Z" fill="white" fill-opacity="0.7"/>
<path d="M79.2468 142.812V144H74.6628V142.812H76.3668V138.624C76.2948 138.72 76.1828 138.82 76.0308 138.924C75.8788 139.028 75.7108 139.124 75.5268 139.212C75.3428 139.3 75.1508 139.376 74.9508 139.44C74.7508 139.496 74.5748 139.524 74.4228 139.524V138.288C74.5828 138.288 74.7668 138.24 74.9748 138.144C75.1908 138.048 75.3948 137.936 75.5868 137.808C75.7868 137.68 75.9588 137.552 76.1028 137.424C76.2548 137.296 76.3428 137.204 76.3668 137.148H77.7228V142.812H79.2468ZM86.2873 140.484C86.2873 141.012 86.2073 141.5 86.0473 141.948C85.8953 142.388 85.6793 142.772 85.3993 143.1C85.1273 143.42 84.8033 143.672 84.4273 143.856C84.0593 144.032 83.6553 144.12 83.2153 144.12C82.7753 144.12 82.3673 144.032 81.9913 143.856C81.6153 143.672 81.2913 143.42 81.0193 143.1C80.7473 142.772 80.5313 142.388 80.3713 141.948C80.2193 141.5 80.1433 141.012 80.1433 140.484C80.1433 139.956 80.2193 139.472 80.3713 139.032C80.5313 138.584 80.7473 138.2 81.0193 137.88C81.2913 137.552 81.6153 137.296 81.9913 137.112C82.3673 136.928 82.7753 136.836 83.2153 136.836C83.6553 136.836 84.0593 136.928 84.4273 137.112C84.8033 137.296 85.1273 137.552 85.3993 137.88C85.6793 138.2 85.8953 138.584 86.0473 139.032C86.2073 139.472 86.2873 139.956 86.2873 140.484ZM84.9433 140.484C84.9433 140.124 84.8993 139.796 84.8113 139.5C84.7313 139.204 84.6113 138.948 84.4513 138.732C84.2993 138.516 84.1153 138.352 83.8993 138.24C83.6913 138.12 83.4633 138.06 83.2153 138.06C82.9513 138.06 82.7113 138.12 82.4953 138.24C82.2873 138.352 82.1033 138.516 81.9433 138.732C81.7913 138.948 81.6713 139.204 81.5833 139.5C81.5033 139.796 81.4633 140.124 81.4633 140.484C81.4633 140.844 81.5033 141.172 81.5833 141.468C81.6713 141.764 81.7913 142.02 81.9433 142.236C82.1033 142.444 82.2873 142.608 82.4953 142.728C82.7113 142.84 82.9513 142.896 83.2153 142.896C83.4633 142.896 83.6913 142.84 83.8993 142.728C84.1153 142.608 84.2993 142.444 84.4513 142.236C84.6113 142.02 84.7313 141.764 84.8113 141.468C84.8993 141.172 84.9433 140.844 84.9433 140.484ZM92.0623 144L90.0583 141.108L89.0143 142.092V144H87.6943V135.24H89.0143V140.796L91.8943 137.736H93.3343L90.8983 140.364L93.4663 144H92.0623Z" fill="white" fill-opacity="0.7"/>
<path d="M79.2468 108.812V110H74.6628V108.812H76.3668V104.624C76.2948 104.72 76.1828 104.82 76.0308 104.924C75.8788 105.028 75.7108 105.124 75.5268 105.212C75.3428 105.3 75.1508 105.376 74.9508 105.44C74.7508 105.496 74.5748 105.524 74.4228 105.524V104.288C74.5828 104.288 74.7668 104.24 74.9748 104.144C75.1908 104.048 75.3948 103.936 75.5868 103.808C75.7868 103.68 75.9588 103.552 76.1028 103.424C76.2548 103.296 76.3428 103.204 76.3668 103.148H77.7228V108.812H79.2468ZM80.0113 110C80.0113 109.664 80.0393 109.352 80.0953 109.064C80.1513 108.776 80.2513 108.508 80.3953 108.26C80.5393 108.004 80.7353 107.764 80.9833 107.54C81.2313 107.308 81.5513 107.084 81.9433 106.868C82.2233 106.716 82.4873 106.576 82.7353 106.448C82.9833 106.32 83.1993 106.196 83.3833 106.076C83.5753 105.948 83.7273 105.816 83.8393 105.68C83.9513 105.536 84.0073 105.372 84.0073 105.188C84.0073 104.932 83.8953 104.704 83.6713 104.504C83.4553 104.296 83.1393 104.192 82.7233 104.192C82.5073 104.192 82.3073 104.224 82.1233 104.288C81.9473 104.344 81.7833 104.42 81.6313 104.516C81.4873 104.604 81.3593 104.704 81.2473 104.816C81.1353 104.928 81.0353 105.036 80.9473 105.14L80.1073 104.168C80.1873 104.08 80.3113 103.972 80.4793 103.844C80.6553 103.708 80.8633 103.58 81.1033 103.46C81.3513 103.34 81.6313 103.24 81.9433 103.16C82.2553 103.072 82.5953 103.028 82.9633 103.028C83.3473 103.028 83.6913 103.08 83.9953 103.184C84.3073 103.28 84.5673 103.416 84.7753 103.592C84.9913 103.768 85.1553 103.98 85.2673 104.228C85.3793 104.468 85.4353 104.728 85.4353 105.008C85.4353 105.304 85.3753 105.568 85.2553 105.8C85.1353 106.032 84.9873 106.236 84.8113 106.412C84.6353 106.588 84.4433 106.74 84.2353 106.868C84.0273 106.988 83.8353 107.092 83.6593 107.18C83.4913 107.26 83.2993 107.356 83.0833 107.468C82.8753 107.572 82.6713 107.696 82.4713 107.84C82.2713 107.976 82.0913 108.124 81.9313 108.284C81.7713 108.444 81.6593 108.62 81.5953 108.812H85.5673V110H80.0113ZM91.2772 110L89.2732 107.108L88.2292 108.092V110H86.9092V101.24H88.2292V106.796L91.1092 103.736H92.5492L90.1132 106.364L92.6812 110H91.2772Z" fill="white" fill-opacity="0.7"/>
<path d="M77.364 80.812V82H72.78V80.812H74.484V76.624C74.412 76.72 74.3 76.82 74.148 76.924C73.996 77.028 73.828 77.124 73.644 77.212C73.46 77.3 73.268 77.376 73.068 77.44C72.868 77.496 72.692 77.524 72.54 77.524V76.288C72.7 76.288 72.884 76.24 73.092 76.144C73.308 76.048 73.512 75.936 73.704 75.808C73.904 75.68 74.076 75.552 74.22 75.424C74.372 75.296 74.46 75.204 74.484 75.148H75.84V80.812H77.364ZM81.5964 83.524V81.616H77.9124V80.44L82.0164 75.148H82.9164V80.416H83.9724V81.616H82.9164V83.524H81.5964ZM79.2564 80.416H81.7404V77.164L79.2564 80.416ZM89.5819 82L87.5779 79.108L86.5339 80.092V82H85.2139V73.24H86.5339V78.796L89.4139 75.736H90.8539L88.4179 78.364L90.9859 82H89.5819Z" fill="white" fill-opacity="0.7"/>
<line x1="128" y1="173.5" x2="1240" y2="173.5" stroke="#4A4A4A"/>
<line x1="128" y1="77.5" x2="1240" y2="77.5" stroke="#4A4A4A"/>
<line x1="128" y1="205.5" x2="1240" y2="205.5" stroke="#4A4A4A"/>
<line x1="128" y1="109.5" x2="1240" y2="109.5" stroke="#4A4A4A"/>
<line x1="128" y1="269.5" x2="1240" y2="269.5" stroke="#4A4A4A"/>
<line x1="128" y1="237.5" x2="1240" y2="237.5" stroke="#4A4A4A"/>
<line x1="128" y1="141.5" x2="1240" y2="141.5" stroke="#4A4A4A"/>
<line x1="128" y1="301.5" x2="1240" y2="301.5" stroke="#4A4A4A"/>
<line x1="240.5" y1="301.005" x2="240.5" y2="77.0435" stroke="#4A4A4A"/>
<line x1="1163.5" y1="301.005" x2="1163.5" y2="77.0435" stroke="#4A4A4A"/>
<line x1="470.5" y1="301.005" x2="470.5" y2="77.0435" stroke="#4A4A4A"/>
<line x1="702.5" y1="301.005" x2="702.5" y2="77.0435" stroke="#4A4A4A"/>
<line x1="933.5" y1="301.005" x2="933.5" y2="77.0435" stroke="#4A4A4A"/>
<path d="M161 189.023L178.156 184.048L189.185 189.023H200.214L207.567 185.706L211.243 182.805L217.37 181.146L221.046 179.488C221.046 178.797 221.292 177.333 222.272 177.001C223.497 176.586 227.174 174.099 228.399 174.099C229.379 174.099 234.526 172.441 236.977 171.612L243.104 169.539L248.006 173.685L252.908 176.586L256.584 176.172L257.81 178.245C258.218 178.659 259.28 179.571 260.26 179.903C261.486 180.317 259.035 181.146 261.486 181.975C263.937 182.805 267.613 185.292 268.838 185.292C269.819 185.292 270.064 187.503 270.064 188.608C269.655 188.608 268.838 188.774 268.838 189.437C268.838 190.266 270.064 191.095 271.289 192.339C272.515 193.583 273.74 193.583 274.966 195.655C276.191 197.728 273.74 198.143 276.191 198.972C278.152 199.635 281.91 200.63 283.544 201.045C284.769 200.63 287.465 199.718 288.445 199.386C289.426 199.055 289.671 197.314 289.671 196.485L290.896 193.997L298.249 191.925L299.474 189.023C300.291 188.47 301.925 187.282 301.925 186.95C301.925 186.618 303.559 185.154 304.376 184.463C306.827 183.219 311.729 180.649 311.729 180.317C311.729 179.986 323.983 176.034 330.11 174.099L332.561 170.368H336.237L338.688 171.612L350.943 179.488V181.146L354.619 186.95C355.028 187.226 356.335 187.945 358.295 188.608C360.256 189.271 361.563 191.095 361.972 191.925C362.789 192.063 364.668 192.671 365.648 193.997C366.873 195.655 368.099 195.655 370.55 196.485C372.51 197.148 371.367 198.419 370.55 198.972L384.03 202.703C383.621 201.735 383.539 199.718 386.48 199.386C390.157 198.972 395.058 199.801 396.284 198.143C397.509 196.485 390.157 193.997 396.284 193.997C401.186 193.997 404.862 192.892 406.087 192.339V189.437L410.989 188.608L418.342 185.706V184.463L423.244 181.146L429.371 178.245L434.272 177.001L437.949 185.292C437.949 185.568 438.439 186.204 440.4 186.535C442.36 186.867 448.569 189.437 451.429 190.681C455.35 187.696 457.964 185.292 458.781 184.463L463.683 188.608L477.163 191.925L482.065 193.997L486.966 196.485L494.319 198.143L504.122 192.339L507.799 188.608L517.602 189.023C519.645 189.852 523.729 191.593 523.729 191.925C523.729 192.256 530.265 191.234 533.533 190.681C536.801 188.332 537.699 185.126 539.66 184.463C541.621 183.799 546.604 180.317 545.787 179.488L550.689 173.685L554.365 177.001V182.805L564.169 191.925L566.62 194.412C568.662 193.583 573.237 191.676 575.198 190.681C577.158 189.686 583.367 186.121 586.227 184.463L592.354 180.317L596.03 176.172C596.439 175.619 597.746 174.431 599.706 174.099C601.667 173.767 609.51 169.263 613.186 167.052C615.229 165.808 620.049 163.238 622.99 162.906C625.931 162.575 643.822 159.175 652.4 157.517L664.655 155.03L670.782 157.517V160.834L678.134 162.906L680.585 166.223L683.036 167.466L687.938 171.612H692.84H700.192L708.77 167.466L714.898 166.223L722.25 161.663L728.377 166.223L732.054 170.368L741.857 174.928L754.112 179.488H762.69C761.464 179.488 759.749 179.239 762.69 178.245C765.631 177.25 768.817 175.066 770.042 174.099C771.676 173.685 775.434 172.607 777.395 171.612C779.846 170.368 778.62 173.27 782.297 173.685C785.238 174.016 789.241 175.757 790.875 176.586L827.638 182.805L858.274 190.681L870.528 198.143L895.037 193.997C897.896 193.306 903.86 191.427 904.84 189.437C905.821 187.447 910.967 185.015 913.418 184.048L919.546 179.903L928.124 176.172L940.378 185.292L950.181 181.146L968.563 177.001L972.239 173.685L979.592 171.612C980.409 172.994 982.288 176.006 983.268 177.001C984.494 178.245 994.297 184.048 996.748 184.048C999.199 184.048 1004.1 186.535 1005.33 186.535C1006.31 186.535 1009.82 189.299 1011.45 190.681L1021.26 192.339C1021.26 192.063 1022.48 192.007 1027.38 193.997C1032.29 195.987 1057.2 202.012 1069.05 204.776L1086.2 209.75C1084.16 210.026 1081.79 210.33 1088.66 209.336C1095.52 208.341 1107.04 206.986 1111.94 206.434L1114.39 203.532L1118.07 201.459C1118.47 200.492 1120.76 198.143 1126.64 196.485C1132.53 194.826 1143.8 191.925 1148.7 190.681L1157.28 186.535L1162.18 184.463C1162.18 184.325 1163.16 184.38 1167.08 185.706C1171.01 187.033 1178.52 190.405 1181.79 191.925L1191.59 194.412L1194.04 195.241" stroke="#0F58B3" stroke-width="2"/>
<path d="M161 208.02L178.156 203.045L189.185 208.02H200.214L207.567 204.703L211.243 201.801L217.37 200.143L221.046 198.485C221.046 197.794 221.292 196.329 222.272 195.998C223.497 195.583 227.174 193.096 228.399 193.096C229.379 193.096 234.526 191.438 236.977 190.609L243.104 188.536L248.006 192.681L252.908 195.583L256.584 195.169L257.81 197.241C258.218 197.656 259.28 198.568 260.26 198.9C261.486 199.314 259.035 200.143 261.486 200.972C263.937 201.801 267.613 204.289 268.838 204.289C269.819 204.289 270.064 206.5 270.064 207.605C269.655 207.605 268.838 207.771 268.838 208.434C268.838 209.263 270.064 210.092 271.289 211.336C272.515 212.58 273.74 212.58 274.966 214.652C276.191 216.725 273.74 217.14 276.191 217.969C278.152 218.632 281.91 219.627 283.544 220.041C284.769 219.627 287.465 218.715 288.445 218.383C289.426 218.052 289.671 216.31 289.671 215.481L290.896 212.994L298.249 210.921L299.474 208.02C300.291 207.467 301.925 206.278 301.925 205.947C301.925 205.615 303.559 204.15 304.376 203.46C306.827 202.216 311.729 199.646 311.729 199.314C311.729 198.982 323.983 195.03 330.11 193.096L332.561 189.365H336.237L338.688 190.609L350.943 198.485V200.143L354.619 205.947C355.028 206.223 356.335 206.942 358.295 207.605C360.256 208.268 361.563 210.092 361.972 210.921C362.789 211.06 364.668 211.668 365.648 212.994C366.873 214.652 368.099 214.652 370.55 215.481C372.51 216.145 371.367 217.416 370.55 217.969L384.03 221.7C383.621 220.732 383.539 218.715 386.48 218.383C390.157 217.969 395.058 218.798 396.284 217.14C397.509 215.481 390.157 212.994 396.284 212.994C401.186 212.994 404.862 211.889 406.087 211.336V208.434L410.989 207.605L418.342 204.703V203.46L423.244 200.143L429.371 197.241L434.272 195.998L437.949 204.289C437.949 204.565 438.439 205.201 440.4 205.532C442.36 205.864 448.569 208.434 451.429 209.678C455.35 206.693 457.964 204.289 458.781 203.46L463.683 207.605L477.163 210.921L482.065 212.994L486.966 215.481L494.319 217.14L504.122 211.336L507.799 207.605L517.602 208.02C519.645 208.849 523.729 210.59 523.729 210.921C523.729 211.253 530.265 210.23 533.533 209.678C536.801 207.329 537.699 204.123 539.66 203.46C541.621 202.796 546.604 199.314 545.787 198.485L550.689 192.681L554.365 195.998V201.801L564.169 210.921L566.62 213.409C568.662 212.58 573.237 210.673 575.198 209.678C577.158 208.683 583.367 205.118 586.227 203.46L592.354 199.314L596.03 195.169C596.439 194.616 597.746 193.428 599.706 193.096C601.667 192.764 609.51 188.26 613.186 186.049C615.229 184.805 620.049 182.235 622.99 181.903C625.931 181.571 643.822 178.172 652.4 176.514L664.655 174.027L670.782 176.514V179.83L678.134 181.903L680.585 185.219L683.036 186.463L687.938 190.609H692.84H700.192L708.77 186.463L714.898 185.219L722.25 180.659L728.377 185.219L732.054 189.365L741.857 193.925L754.112 198.485H762.69C761.464 198.485 759.749 198.236 762.69 197.241C765.631 196.246 768.817 194.063 770.042 193.096C771.676 192.681 775.434 191.604 777.395 190.609C779.846 189.365 778.62 192.267 782.297 192.681C785.238 193.013 789.241 194.754 790.875 195.583L827.638 201.801L858.274 209.678L870.528 217.14L895.037 212.994C897.896 212.303 903.86 210.424 904.84 208.434C905.821 206.444 910.967 204.012 913.418 203.045L919.546 198.9L928.124 195.169L940.378 204.289L950.181 200.143L968.563 195.998L972.239 192.681L979.592 190.609C980.409 191.99 982.288 195.003 983.268 195.998C984.494 197.241 994.297 203.045 996.748 203.045C999.199 203.045 1004.1 205.532 1005.33 205.532C1006.31 205.532 1009.82 208.296 1011.45 209.678L1021.26 211.336C1021.26 211.06 1022.48 211.004 1027.38 212.994C1032.29 214.984 1057.2 221.009 1069.05 223.772L1086.2 228.747C1084.16 229.023 1081.79 229.327 1088.66 228.332C1095.52 227.337 1107.04 225.983 1111.94 225.431L1114.39 222.529L1118.07 220.456C1118.47 219.489 1120.76 217.14 1126.64 215.481C1132.53 213.823 1143.8 210.921 1148.7 209.678L1157.28 205.532L1162.18 203.46C1162.18 203.321 1163.16 203.377 1167.08 204.703C1171.01 206.03 1178.52 209.401 1181.79 210.921L1191.59 213.409L1194.04 214.238" stroke="#FFC600" stroke-width="2"/>
<path d="M161 225.017L178.156 220.042L189.185 225.017H200.214L207.567 221.7L211.243 218.798L217.37 217.14L221.046 215.482C221.046 214.791 221.292 213.326 222.272 212.995C223.497 212.58 227.174 210.093 228.399 210.093C229.379 210.093 234.526 208.435 236.977 207.606L243.104 205.533L248.006 209.678L252.908 212.58L256.584 212.166L257.81 214.238C258.218 214.653 259.28 215.565 260.26 215.897C261.486 216.311 259.035 217.14 261.486 217.969C263.937 218.798 267.613 221.286 268.838 221.286C269.819 221.286 270.064 223.497 270.064 224.602C269.655 224.602 268.838 224.768 268.838 225.431C268.838 226.26 270.064 227.089 271.289 228.333C272.515 229.577 273.74 229.577 274.966 231.649C276.191 233.722 273.74 234.137 276.191 234.966C278.152 235.629 281.91 236.624 283.544 237.038C284.769 236.624 287.465 235.712 288.445 235.38C289.426 235.049 289.671 233.308 289.671 232.478L290.896 229.991L298.249 227.918L299.474 225.017C300.291 224.464 301.925 223.276 301.925 222.944C301.925 222.612 303.559 221.148 304.376 220.457C306.827 219.213 311.729 216.643 311.729 216.311C311.729 215.98 323.983 212.028 330.11 210.093L332.561 206.362H336.238L338.688 207.606L350.943 215.482V217.14L354.619 222.944C355.028 223.22 356.335 223.939 358.295 224.602C360.256 225.265 361.563 227.089 361.972 227.918C362.789 228.057 364.668 228.665 365.648 229.991C366.873 231.649 368.099 231.649 370.55 232.478C372.51 233.142 371.367 234.413 370.55 234.966L384.03 238.697C383.621 237.729 383.539 235.712 386.48 235.38C390.157 234.966 395.058 235.795 396.284 234.137C397.509 232.478 390.157 229.991 396.284 229.991C401.186 229.991 404.862 228.886 406.087 228.333V225.431L410.989 224.602L418.342 221.7V220.457L423.244 217.14L429.371 214.238L434.272 212.995L437.949 221.286C437.949 221.562 438.439 222.198 440.4 222.529C442.36 222.861 448.569 225.431 451.429 226.675C455.35 223.69 457.964 221.286 458.781 220.457L463.683 224.602L477.163 227.918L482.065 229.991L486.966 232.478L494.319 234.137L504.122 228.333L507.799 224.602L517.602 225.017C519.645 225.846 523.729 227.587 523.729 227.918C523.729 228.25 530.265 227.228 533.533 226.675C536.801 224.326 537.699 221.12 539.66 220.457C541.621 219.793 546.604 216.311 545.787 215.482L550.689 209.678L554.365 212.995V218.798L564.169 227.918L566.62 230.406C568.662 229.577 573.237 227.67 575.198 226.675C577.158 225.68 583.367 222.115 586.227 220.457L592.354 216.311L596.03 212.166C596.439 211.613 597.746 210.425 599.707 210.093C601.667 209.761 609.51 205.257 613.186 203.046C615.229 201.802 620.049 199.232 622.99 198.9C625.931 198.569 643.822 195.169 652.4 193.511L664.655 191.024L670.782 193.511V196.827L678.134 198.9L680.585 202.217L683.036 203.46L687.938 207.606H692.84H700.192L708.77 203.46L714.898 202.217L722.25 197.657L728.377 202.217L732.054 206.362L741.857 210.922L754.112 215.482H762.69C761.464 215.482 759.749 215.233 762.69 214.238C765.631 213.244 768.817 211.06 770.042 210.093C771.676 209.678 775.434 208.601 777.395 207.606C779.846 206.362 778.62 209.264 782.297 209.678C785.238 210.01 789.241 211.751 790.875 212.58L827.638 218.798L858.274 226.675L870.528 234.137L895.037 229.991C897.896 229.3 903.86 227.421 904.84 225.431C905.821 223.441 910.968 221.009 913.418 220.042L919.546 215.897L928.124 212.166L940.378 221.286L950.182 217.14L968.563 212.995L972.239 209.678L979.592 207.606C980.409 208.987 982.288 212 983.268 212.995C984.494 214.238 994.297 220.042 996.748 220.042C999.199 220.042 1004.1 222.529 1005.33 222.529C1006.31 222.529 1009.82 225.293 1011.45 226.675L1021.26 228.333C1021.26 228.057 1022.48 228.001 1027.38 229.991C1032.29 231.981 1057.2 238.006 1069.05 240.769L1086.21 245.744C1084.16 246.02 1081.79 246.324 1088.66 245.329C1095.52 244.335 1107.04 242.98 1111.94 242.428L1114.39 239.526L1118.07 237.453C1118.47 236.486 1120.76 234.137 1126.64 232.478C1132.53 230.82 1143.8 227.918 1148.7 226.675L1157.28 222.529L1162.18 220.457C1162.18 220.318 1163.16 220.374 1167.08 221.7C1171.01 223.027 1178.52 226.398 1181.79 227.918L1191.59 230.406L1194.04 231.235" stroke="#7E7E7E" stroke-width="2"/>
<path d="M161 172.407L178.156 167.523L189.185 172.407H200.214L207.567 169.151L211.243 166.302L217.37 164.674L221.046 163.046C221.046 162.368 221.292 160.93 222.272 160.604C223.497 160.197 227.174 157.755 228.399 157.755C229.379 157.755 234.526 156.127 236.977 155.313L243.104 153.278L248.006 157.348L252.908 160.197L256.584 159.79L257.81 161.825C258.218 162.232 259.28 163.128 260.26 163.453C261.486 163.86 259.035 164.674 261.486 165.488C263.937 166.302 267.613 168.744 268.838 168.744C269.819 168.744 270.064 170.915 270.064 172C269.655 172 268.838 172.163 268.838 172.814C268.838 173.629 270.064 174.443 271.289 175.664C272.515 176.885 273.74 176.885 274.966 178.92C276.191 180.955 273.74 181.362 276.191 182.176C278.152 182.827 281.91 183.804 283.544 184.211C284.769 183.804 287.465 182.908 288.445 182.583C289.426 182.257 289.671 180.548 289.671 179.734L290.896 177.292L298.249 175.257L299.474 172.407C300.291 171.865 301.925 170.698 301.925 170.372C301.925 170.047 303.559 168.609 304.376 167.93C306.827 166.709 311.729 164.186 311.729 163.86C311.729 163.535 323.983 159.655 330.11 157.755L332.561 154.092H336.237L338.688 155.313L350.943 163.046V164.674L354.619 170.372C355.028 170.644 356.335 171.349 358.295 172C360.256 172.652 361.563 174.443 361.972 175.257C362.789 175.392 364.668 175.989 365.648 177.292C366.873 178.92 368.099 178.92 370.55 179.734C372.51 180.385 371.367 181.633 370.55 182.176L384.03 185.839C383.621 184.889 383.539 182.908 386.48 182.583C390.157 182.176 395.058 182.99 396.284 181.362C397.509 179.734 390.157 177.292 396.284 177.292C401.186 177.292 404.862 176.206 406.087 175.664V172.814L410.989 172L418.342 169.151V167.93L423.244 164.674L429.371 161.825L434.272 160.604L437.949 168.744C437.949 169.016 438.439 169.64 440.4 169.965C442.36 170.291 448.569 172.814 451.429 174.036C455.35 171.105 457.964 168.744 458.781 167.93L463.683 172L477.163 175.257L482.065 177.292L486.966 179.734L494.319 181.362L504.122 175.664L507.799 172L517.602 172.407C519.645 173.222 523.729 174.931 523.729 175.257C523.729 175.582 530.265 174.578 533.533 174.036C536.801 171.729 537.699 168.582 539.66 167.93C541.621 167.279 546.604 163.86 545.787 163.046L550.689 157.348L554.365 160.604V166.302L564.169 175.257L566.62 177.699C568.662 176.885 573.237 175.012 575.198 174.036C577.158 173.059 583.367 169.558 586.227 167.93L592.354 163.86L596.03 159.79C596.439 159.248 597.746 158.081 599.706 157.755C601.667 157.43 609.51 153.007 613.186 150.836C615.229 149.615 620.049 147.092 622.99 146.766C625.931 146.44 643.822 143.103 652.4 141.475L664.655 139.033L670.782 141.475V144.731L678.134 146.766L680.585 150.022L683.036 151.243L687.938 155.313H692.84H700.192L708.77 151.243L714.898 150.022L722.25 145.545L728.377 150.022L732.054 154.092L741.857 158.569L754.112 163.046H762.69C761.464 163.046 759.749 162.802 762.69 161.825C765.631 160.848 768.817 158.705 770.042 157.755C771.676 157.348 775.434 156.29 777.395 155.313C779.846 154.092 778.62 156.941 782.297 157.348C785.238 157.674 789.241 159.383 790.875 160.197L827.638 166.302L858.274 174.036L870.528 181.362L895.037 177.292C897.896 176.613 903.86 174.768 904.84 172.814C905.821 170.861 910.967 168.473 913.418 167.523L919.546 163.453L928.124 159.79L940.378 168.744L950.181 164.674L968.563 160.604L972.239 157.348L979.592 155.313C980.409 156.67 982.288 159.627 983.268 160.604C984.494 161.825 994.297 167.523 996.748 167.523C999.199 167.523 1004.1 169.965 1005.33 169.965C1006.31 169.965 1009.82 172.679 1011.45 174.036L1021.26 175.664C1021.26 175.392 1022.48 175.338 1027.38 177.292C1032.29 179.245 1057.2 185.16 1069.05 187.874L1086.2 192.758C1084.16 193.029 1081.79 193.328 1088.66 192.351C1095.52 191.374 1107.04 190.045 1111.94 189.502L1114.39 186.653L1118.07 184.618C1118.47 183.668 1120.76 181.362 1126.64 179.734C1132.53 178.106 1143.8 175.257 1148.7 174.036L1157.28 169.965L1162.18 167.93C1162.18 167.795 1163.16 167.849 1167.08 169.151C1171.01 170.454 1178.52 173.764 1181.79 175.257L1191.59 177.699L1194.04 178.513" stroke="#B81717" stroke-width="2"/>
<defs>
<linearGradient id="paint0_linear_14628_941" x1="144.829" y1="37.5698" x2="1131.48" y2="571.494" gradientUnits="userSpaceOnUse">
<stop stop-color="#090808"/>
<stop offset="1" stop-color="#12181C"/>
</linearGradient>
</defs>
</svg>
