<svg width="415" height="217" viewBox="0 0 415 217" fill="none" xmlns="http://www.w3.org/2000/svg">
<path d="M246.552 209.196C246.952 209.196 247.32 209.264 247.656 209.4C248 209.536 248.296 209.724 248.544 209.964C248.8 210.204 248.996 210.492 249.132 210.828C249.276 211.164 249.348 211.532 249.348 211.932C249.348 212.356 249.268 212.744 249.108 213.096C248.956 213.448 248.74 213.748 248.46 213.996C248.188 214.252 247.864 214.448 247.488 214.584C247.112 214.72 246.708 214.788 246.276 214.788C245.66 214.788 245.108 214.648 244.62 214.368C244.132 214.096 243.76 213.724 243.504 213.252L244.296 212.496C244.52 212.832 244.808 213.104 245.16 213.312C245.512 213.52 245.888 213.624 246.288 213.624C246.784 213.624 247.192 213.472 247.512 213.168C247.832 212.864 247.992 212.46 247.992 211.956C247.992 211.716 247.948 211.5 247.86 211.308C247.78 211.108 247.668 210.94 247.524 210.804C247.38 210.66 247.208 210.548 247.008 210.468C246.816 210.388 246.604 210.348 246.372 210.348C246.068 210.348 245.784 210.416 245.52 210.552C245.256 210.68 245.04 210.872 244.872 211.128H243.708C243.716 211.096 243.732 211 243.756 210.84C243.788 210.68 243.828 210.48 243.876 210.24C243.924 210 243.976 209.732 244.032 209.436C244.088 209.14 244.148 208.84 244.212 208.536C244.356 207.824 244.512 207.028 244.68 206.148H248.844V207.36H245.64L245.208 209.688C245.344 209.536 245.524 209.416 245.748 209.328C245.98 209.24 246.248 209.196 246.552 209.196ZM256.497 209.484C256.497 210.012 256.417 210.5 256.257 210.948C256.105 211.388 255.889 211.772 255.609 212.1C255.337 212.42 255.013 212.672 254.637 212.856C254.269 213.032 253.865 213.12 253.425 213.12C252.985 213.12 252.577 213.032 252.201 212.856C251.825 212.672 251.501 212.42 251.229 212.1C250.957 211.772 250.741 211.388 250.581 210.948C250.429 210.5 250.353 210.012 250.353 209.484C250.353 208.956 250.429 208.472 250.581 208.032C250.741 207.584 250.957 207.2 251.229 206.88C251.501 206.552 251.825 206.296 252.201 206.112C252.577 205.928 252.985 205.836 253.425 205.836C253.865 205.836 254.269 205.928 254.637 206.112C255.013 206.296 255.337 206.552 255.609 206.88C255.889 207.2 256.105 207.584 256.257 208.032C256.417 208.472 256.497 208.956 256.497 209.484ZM255.153 209.484C255.153 209.124 255.109 208.796 255.021 208.5C254.941 208.204 254.821 207.948 254.661 207.732C254.509 207.516 254.325 207.352 254.109 207.24C253.901 207.12 253.673 207.06 253.425 207.06C253.161 207.06 252.921 207.12 252.705 207.24C252.497 207.352 252.313 207.516 252.153 207.732C252.001 207.948 251.881 208.204 251.793 208.5C251.713 208.796 251.673 209.124 251.673 209.484C251.673 209.844 251.713 210.172 251.793 210.468C251.881 210.764 252.001 211.02 252.153 211.236C252.313 211.444 252.497 211.608 252.705 211.728C252.921 211.84 253.161 211.896 253.425 211.896C253.673 211.896 253.901 211.84 254.109 211.728C254.325 211.608 254.509 211.444 254.661 211.236C254.821 211.02 254.941 210.764 255.021 210.468C255.109 210.172 255.153 209.844 255.153 209.484ZM263.868 209.484C263.868 210.012 263.788 210.5 263.628 210.948C263.476 211.388 263.26 211.772 262.98 212.1C262.708 212.42 262.384 212.672 262.008 212.856C261.64 213.032 261.236 213.12 260.796 213.12C260.356 213.12 259.948 213.032 259.572 212.856C259.196 212.672 258.872 212.42 258.6 212.1C258.328 211.772 258.112 211.388 257.952 210.948C257.8 210.5 257.724 210.012 257.724 209.484C257.724 208.956 257.8 208.472 257.952 208.032C258.112 207.584 258.328 207.2 258.6 206.88C258.872 206.552 259.196 206.296 259.572 206.112C259.948 205.928 260.356 205.836 260.796 205.836C261.236 205.836 261.64 205.928 262.008 206.112C262.384 206.296 262.708 206.552 262.98 206.88C263.26 207.2 263.476 207.584 263.628 208.032C263.788 208.472 263.868 208.956 263.868 209.484ZM262.524 209.484C262.524 209.124 262.48 208.796 262.392 208.5C262.312 208.204 262.192 207.948 262.032 207.732C261.88 207.516 261.696 207.352 261.48 207.24C261.272 207.12 261.044 207.06 260.796 207.06C260.532 207.06 260.292 207.12 260.076 207.24C259.868 207.352 259.684 207.516 259.524 207.732C259.372 207.948 259.252 208.204 259.164 208.5C259.084 208.796 259.044 209.124 259.044 209.484C259.044 209.844 259.084 210.172 259.164 210.468C259.252 210.764 259.372 211.02 259.524 211.236C259.684 211.444 259.868 211.608 260.076 211.728C260.292 211.84 260.532 211.896 260.796 211.896C261.044 211.896 261.272 211.84 261.48 211.728C261.696 211.608 261.88 211.444 262.032 211.236C262.192 211.02 262.312 210.764 262.392 210.468C262.48 210.172 262.524 209.844 262.524 209.484Z" fill="white" fill-opacity="0.7"/>
<path d="M95.3941 210.401V209.213H98.9821V210.401H95.3941ZM103.133 209.285C103.533 209.285 103.901 209.353 104.237 209.489C104.581 209.625 104.877 209.813 105.125 210.053C105.381 210.293 105.577 210.581 105.713 210.917C105.857 211.253 105.929 211.621 105.929 212.021C105.929 212.445 105.849 212.833 105.689 213.185C105.537 213.537 105.321 213.837 105.041 214.085C104.769 214.341 104.445 214.537 104.069 214.673C103.693 214.809 103.289 214.877 102.857 214.877C102.241 214.877 101.689 214.737 101.201 214.457C100.713 214.185 100.341 213.813 100.085 213.341L100.877 212.585C101.101 212.921 101.389 213.193 101.741 213.401C102.093 213.609 102.469 213.713 102.869 213.713C103.365 213.713 103.773 213.561 104.093 213.257C104.413 212.953 104.573 212.549 104.573 212.045C104.573 211.805 104.529 211.589 104.441 211.397C104.361 211.197 104.249 211.029 104.105 210.893C103.961 210.749 103.789 210.637 103.589 210.557C103.397 210.477 103.185 210.437 102.953 210.437C102.649 210.437 102.365 210.505 102.101 210.641C101.837 210.769 101.621 210.961 101.453 211.217H100.289C100.297 211.185 100.313 211.089 100.337 210.929C100.369 210.769 100.409 210.569 100.457 210.329C100.505 210.089 100.557 209.821 100.613 209.525C100.669 209.229 100.729 208.929 100.793 208.625C100.937 207.913 101.093 207.117 101.261 206.237H105.425V207.449H102.221L101.789 209.777C101.925 209.625 102.105 209.505 102.329 209.417C102.561 209.329 102.829 209.285 103.133 209.285ZM113.078 209.573C113.078 210.101 112.998 210.589 112.838 211.037C112.686 211.477 112.47 211.861 112.19 212.189C111.918 212.509 111.594 212.761 111.218 212.945C110.85 213.121 110.446 213.209 110.006 213.209C109.566 213.209 109.158 213.121 108.782 212.945C108.406 212.761 108.082 212.509 107.81 212.189C107.538 211.861 107.322 211.477 107.162 211.037C107.01 210.589 106.934 210.101 106.934 209.573C106.934 209.045 107.01 208.561 107.162 208.121C107.322 207.673 107.538 207.289 107.81 206.969C108.082 206.641 108.406 206.385 108.782 206.201C109.158 206.017 109.566 205.925 110.006 205.925C110.446 205.925 110.85 206.017 111.218 206.201C111.594 206.385 111.918 206.641 112.19 206.969C112.47 207.289 112.686 207.673 112.838 208.121C112.998 208.561 113.078 209.045 113.078 209.573ZM111.734 209.573C111.734 209.213 111.69 208.885 111.602 208.589C111.522 208.293 111.402 208.037 111.242 207.821C111.09 207.605 110.906 207.441 110.69 207.329C110.482 207.209 110.254 207.149 110.006 207.149C109.742 207.149 109.502 207.209 109.286 207.329C109.078 207.441 108.894 207.605 108.734 207.821C108.582 208.037 108.462 208.293 108.374 208.589C108.294 208.885 108.254 209.213 108.254 209.573C108.254 209.933 108.294 210.261 108.374 210.557C108.462 210.853 108.582 211.109 108.734 211.325C108.894 211.533 109.078 211.697 109.286 211.817C109.502 211.929 109.742 211.985 110.006 211.985C110.254 211.985 110.482 211.929 110.69 211.817C110.906 211.697 111.09 211.533 111.242 211.325C111.402 211.109 111.522 210.853 111.602 210.557C111.69 210.261 111.734 209.933 111.734 209.573ZM120.449 209.573C120.449 210.101 120.369 210.589 120.209 211.037C120.057 211.477 119.841 211.861 119.561 212.189C119.289 212.509 118.965 212.761 118.589 212.945C118.221 213.121 117.817 213.209 117.377 213.209C116.937 213.209 116.529 213.121 116.153 212.945C115.777 212.761 115.453 212.509 115.181 212.189C114.909 211.861 114.693 211.477 114.533 211.037C114.381 210.589 114.305 210.101 114.305 209.573C114.305 209.045 114.381 208.561 114.533 208.121C114.693 207.673 114.909 207.289 115.181 206.969C115.453 206.641 115.777 206.385 116.153 206.201C116.529 206.017 116.937 205.925 117.377 205.925C117.817 205.925 118.221 206.017 118.589 206.201C118.965 206.385 119.289 206.641 119.561 206.969C119.841 207.289 120.057 207.673 120.209 208.121C120.369 208.561 120.449 209.045 120.449 209.573ZM119.105 209.573C119.105 209.213 119.061 208.885 118.973 208.589C118.893 208.293 118.773 208.037 118.613 207.821C118.461 207.605 118.277 207.441 118.061 207.329C117.853 207.209 117.625 207.149 117.377 207.149C117.113 207.149 116.873 207.209 116.657 207.329C116.449 207.441 116.265 207.605 116.105 207.821C115.953 208.037 115.833 208.293 115.745 208.589C115.665 208.885 115.625 209.213 115.625 209.573C115.625 209.933 115.665 210.261 115.745 210.557C115.833 210.853 115.953 211.109 116.105 211.325C116.265 211.533 116.449 211.697 116.657 211.817C116.873 211.929 117.113 211.985 117.377 211.985C117.625 211.985 117.853 211.929 118.061 211.817C118.277 211.697 118.461 211.533 118.613 211.325C118.773 211.109 118.893 210.853 118.973 210.557C119.061 210.261 119.105 209.933 119.105 209.573Z" fill="white" fill-opacity="0.7"/>
<path d="M319.243 211.812V213H314.659V211.812H316.363V207.624C316.291 207.72 316.179 207.82 316.027 207.924C315.875 208.028 315.707 208.124 315.523 208.212C315.339 208.3 315.147 208.376 314.947 208.44C314.747 208.496 314.571 208.524 314.419 208.524V207.288C314.579 207.288 314.763 207.24 314.971 207.144C315.187 207.048 315.391 206.936 315.583 206.808C315.783 206.68 315.955 206.552 316.099 206.424C316.251 206.296 316.339 206.204 316.363 206.148H317.719V211.812H319.243ZM326.283 209.484C326.283 210.012 326.203 210.5 326.043 210.948C325.891 211.388 325.675 211.772 325.395 212.1C325.123 212.42 324.799 212.672 324.423 212.856C324.055 213.032 323.651 213.12 323.211 213.12C322.771 213.12 322.363 213.032 321.987 212.856C321.611 212.672 321.287 212.42 321.015 212.1C320.743 211.772 320.527 211.388 320.367 210.948C320.215 210.5 320.139 210.012 320.139 209.484C320.139 208.956 320.215 208.472 320.367 208.032C320.527 207.584 320.743 207.2 321.015 206.88C321.287 206.552 321.611 206.296 321.987 206.112C322.363 205.928 322.771 205.836 323.211 205.836C323.651 205.836 324.055 205.928 324.423 206.112C324.799 206.296 325.123 206.552 325.395 206.88C325.675 207.2 325.891 207.584 326.043 208.032C326.203 208.472 326.283 208.956 326.283 209.484ZM324.939 209.484C324.939 209.124 324.895 208.796 324.807 208.5C324.727 208.204 324.607 207.948 324.447 207.732C324.295 207.516 324.111 207.352 323.895 207.24C323.687 207.12 323.459 207.06 323.211 207.06C322.947 207.06 322.707 207.12 322.491 207.24C322.283 207.352 322.099 207.516 321.939 207.732C321.787 207.948 321.667 208.204 321.579 208.5C321.499 208.796 321.459 209.124 321.459 209.484C321.459 209.844 321.499 210.172 321.579 210.468C321.667 210.764 321.787 211.02 321.939 211.236C322.099 211.444 322.283 211.608 322.491 211.728C322.707 211.84 322.947 211.896 323.211 211.896C323.459 211.896 323.687 211.84 323.895 211.728C324.111 211.608 324.295 211.444 324.447 211.236C324.607 211.02 324.727 210.764 324.807 210.468C324.895 210.172 324.939 209.844 324.939 209.484ZM333.654 209.484C333.654 210.012 333.574 210.5 333.414 210.948C333.262 211.388 333.046 211.772 332.766 212.1C332.494 212.42 332.17 212.672 331.794 212.856C331.426 213.032 331.022 213.12 330.582 213.12C330.142 213.12 329.734 213.032 329.358 212.856C328.982 212.672 328.658 212.42 328.386 212.1C328.114 211.772 327.898 211.388 327.738 210.948C327.586 210.5 327.51 210.012 327.51 209.484C327.51 208.956 327.586 208.472 327.738 208.032C327.898 207.584 328.114 207.2 328.386 206.88C328.658 206.552 328.982 206.296 329.358 206.112C329.734 205.928 330.142 205.836 330.582 205.836C331.022 205.836 331.426 205.928 331.794 206.112C332.17 206.296 332.494 206.552 332.766 206.88C333.046 207.2 333.262 207.584 333.414 208.032C333.574 208.472 333.654 208.956 333.654 209.484ZM332.31 209.484C332.31 209.124 332.266 208.796 332.178 208.5C332.098 208.204 331.978 207.948 331.818 207.732C331.666 207.516 331.482 207.352 331.266 207.24C331.058 207.12 330.83 207.06 330.582 207.06C330.318 207.06 330.078 207.12 329.862 207.24C329.654 207.352 329.47 207.516 329.31 207.732C329.158 207.948 329.038 208.204 328.95 208.5C328.87 208.796 328.83 209.124 328.83 209.484C328.83 209.844 328.87 210.172 328.95 210.468C329.038 210.764 329.158 211.02 329.31 211.236C329.47 211.444 329.654 211.608 329.862 211.728C330.078 211.84 330.318 211.896 330.582 211.896C330.83 211.896 331.058 211.84 331.266 211.728C331.482 211.608 331.666 211.444 331.818 211.236C331.978 211.02 332.098 210.764 332.178 210.468C332.266 210.172 332.31 209.844 332.31 209.484ZM341.026 209.484C341.026 210.012 340.946 210.5 340.786 210.948C340.634 211.388 340.418 211.772 340.138 212.1C339.866 212.42 339.542 212.672 339.166 212.856C338.798 213.032 338.394 213.12 337.954 213.12C337.514 213.12 337.106 213.032 336.73 212.856C336.354 212.672 336.03 212.42 335.758 212.1C335.486 211.772 335.27 211.388 335.11 210.948C334.958 210.5 334.882 210.012 334.882 209.484C334.882 208.956 334.958 208.472 335.11 208.032C335.27 207.584 335.486 207.2 335.758 206.88C336.03 206.552 336.354 206.296 336.73 206.112C337.106 205.928 337.514 205.836 337.954 205.836C338.394 205.836 338.798 205.928 339.166 206.112C339.542 206.296 339.866 206.552 340.138 206.88C340.418 207.2 340.634 207.584 340.786 208.032C340.946 208.472 341.026 208.956 341.026 209.484ZM339.682 209.484C339.682 209.124 339.638 208.796 339.55 208.5C339.47 208.204 339.35 207.948 339.19 207.732C339.038 207.516 338.854 207.352 338.638 207.24C338.43 207.12 338.202 207.06 337.954 207.06C337.69 207.06 337.45 207.12 337.234 207.24C337.026 207.352 336.842 207.516 336.682 207.732C336.53 207.948 336.41 208.204 336.322 208.5C336.242 208.796 336.202 209.124 336.202 209.484C336.202 209.844 336.242 210.172 336.322 210.468C336.41 210.764 336.53 211.02 336.682 211.236C336.842 211.444 337.026 211.608 337.234 211.728C337.45 211.84 337.69 211.896 337.954 211.896C338.202 211.896 338.43 211.84 338.638 211.728C338.854 211.608 339.038 211.444 339.19 211.236C339.35 211.02 339.47 210.764 339.55 210.468C339.638 210.172 339.682 209.844 339.682 209.484Z" fill="white" fill-opacity="0.7"/>
<path d="M184.123 209.484C184.123 210.012 184.043 210.5 183.883 210.948C183.731 211.388 183.515 211.772 183.235 212.1C182.963 212.42 182.639 212.672 182.263 212.856C181.895 213.032 181.491 213.12 181.051 213.12C180.611 213.12 180.203 213.032 179.827 212.856C179.451 212.672 179.127 212.42 178.855 212.1C178.583 211.772 178.367 211.388 178.207 210.948C178.055 210.5 177.979 210.012 177.979 209.484C177.979 208.956 178.055 208.472 178.207 208.032C178.367 207.584 178.583 207.2 178.855 206.88C179.127 206.552 179.451 206.296 179.827 206.112C180.203 205.928 180.611 205.836 181.051 205.836C181.491 205.836 181.895 205.928 182.263 206.112C182.639 206.296 182.963 206.552 183.235 206.88C183.515 207.2 183.731 207.584 183.883 208.032C184.043 208.472 184.123 208.956 184.123 209.484ZM182.779 209.484C182.779 209.124 182.735 208.796 182.647 208.5C182.567 208.204 182.447 207.948 182.287 207.732C182.135 207.516 181.951 207.352 181.735 207.24C181.527 207.12 181.299 207.06 181.051 207.06C180.787 207.06 180.547 207.12 180.331 207.24C180.123 207.352 179.939 207.516 179.779 207.732C179.627 207.948 179.507 208.204 179.419 208.5C179.339 208.796 179.299 209.124 179.299 209.484C179.299 209.844 179.339 210.172 179.419 210.468C179.507 210.764 179.627 211.02 179.779 211.236C179.939 211.444 180.123 211.608 180.331 211.728C180.547 211.84 180.787 211.896 181.051 211.896C181.299 211.896 181.527 211.84 181.735 211.728C181.951 211.608 182.135 211.444 182.287 211.236C182.447 211.02 182.567 210.764 182.647 210.468C182.735 210.172 182.779 209.844 182.779 209.484Z" fill="white" fill-opacity="0.7"/>
<path d="M5.364 139.812V141H0.78V139.812H2.484V135.624C2.412 135.72 2.3 135.82 2.148 135.924C1.996 136.028 1.828 136.124 1.644 136.212C1.46 136.3 1.268 136.376 1.068 136.44C0.868 136.496 0.692 136.524 0.54 136.524V135.288C0.7 135.288 0.884 135.24 1.092 135.144C1.308 135.048 1.512 134.936 1.704 134.808C1.904 134.68 2.076 134.552 2.22 134.424C2.372 134.296 2.46 134.204 2.484 134.148H3.84V139.812H5.364ZM12.4044 137.484C12.4044 138.012 12.3244 138.5 12.1644 138.948C12.0124 139.388 11.7964 139.772 11.5164 140.1C11.2444 140.42 10.9204 140.672 10.5444 140.856C10.1764 141.032 9.77244 141.12 9.33244 141.12C8.89244 141.12 8.48444 141.032 8.10844 140.856C7.73244 140.672 7.40844 140.42 7.13644 140.1C6.86444 139.772 6.64844 139.388 6.48844 138.948C6.33644 138.5 6.26044 138.012 6.26044 137.484C6.26044 136.956 6.33644 136.472 6.48844 136.032C6.64844 135.584 6.86444 135.2 7.13644 134.88C7.40844 134.552 7.73244 134.296 8.10844 134.112C8.48444 133.928 8.89244 133.836 9.33244 133.836C9.77244 133.836 10.1764 133.928 10.5444 134.112C10.9204 134.296 11.2444 134.552 11.5164 134.88C11.7964 135.2 12.0124 135.584 12.1644 136.032C12.3244 136.472 12.4044 136.956 12.4044 137.484ZM11.0604 137.484C11.0604 137.124 11.0164 136.796 10.9284 136.5C10.8484 136.204 10.7284 135.948 10.5684 135.732C10.4164 135.516 10.2324 135.352 10.0164 135.24C9.80844 135.12 9.58044 135.06 9.33244 135.06C9.06844 135.06 8.82844 135.12 8.61244 135.24C8.40444 135.352 8.22044 135.516 8.06044 135.732C7.90844 135.948 7.78844 136.204 7.70044 136.5C7.62044 136.796 7.58044 137.124 7.58044 137.484C7.58044 137.844 7.62044 138.172 7.70044 138.468C7.78844 138.764 7.90844 139.02 8.06044 139.236C8.22044 139.444 8.40444 139.608 8.61244 139.728C8.82844 139.84 9.06844 139.896 9.33244 139.896C9.58044 139.896 9.80844 139.84 10.0164 139.728C10.2324 139.608 10.4164 139.444 10.5684 139.236C10.7284 139.02 10.8484 138.764 10.9284 138.468C11.0164 138.172 11.0604 137.844 11.0604 137.484Z" fill="white" fill-opacity="0.7"/>
<path d="M0.48 98C0.48 97.664 0.508 97.352 0.564 97.064C0.62 96.776 0.72 96.508 0.864 96.26C1.008 96.004 1.204 95.764 1.452 95.54C1.7 95.308 2.02 95.084 2.412 94.868C2.692 94.716 2.956 94.576 3.204 94.448C3.452 94.32 3.668 94.196 3.852 94.076C4.044 93.948 4.196 93.816 4.308 93.68C4.42 93.536 4.476 93.372 4.476 93.188C4.476 92.932 4.364 92.704 4.14 92.504C3.924 92.296 3.608 92.192 3.192 92.192C2.976 92.192 2.776 92.224 2.592 92.288C2.416 92.344 2.252 92.42 2.1 92.516C1.956 92.604 1.828 92.704 1.716 92.816C1.604 92.928 1.504 93.036 1.416 93.14L0.576 92.168C0.656 92.08 0.78 91.972 0.948 91.844C1.124 91.708 1.332 91.58 1.572 91.46C1.82 91.34 2.1 91.24 2.412 91.16C2.724 91.072 3.064 91.028 3.432 91.028C3.816 91.028 4.16 91.08 4.464 91.184C4.776 91.28 5.036 91.416 5.244 91.592C5.46 91.768 5.624 91.98 5.736 92.228C5.848 92.468 5.904 92.728 5.904 93.008C5.904 93.304 5.844 93.568 5.724 93.8C5.604 94.032 5.456 94.236 5.28 94.412C5.104 94.588 4.912 94.74 4.704 94.868C4.496 94.988 4.304 95.092 4.128 95.18C3.96 95.26 3.768 95.356 3.552 95.468C3.344 95.572 3.14 95.696 2.94 95.84C2.74 95.976 2.56 96.124 2.4 96.284C2.24 96.444 2.128 96.62 2.064 96.812H6.036V98H0.48ZM13.3419 94.484C13.3419 95.012 13.2619 95.5 13.1019 95.948C12.9499 96.388 12.7339 96.772 12.4539 97.1C12.1819 97.42 11.8579 97.672 11.4819 97.856C11.1139 98.032 10.7099 98.12 10.2699 98.12C9.82994 98.12 9.42194 98.032 9.04594 97.856C8.66994 97.672 8.34594 97.42 8.07394 97.1C7.80194 96.772 7.58594 96.388 7.42594 95.948C7.27394 95.5 7.19794 95.012 7.19794 94.484C7.19794 93.956 7.27394 93.472 7.42594 93.032C7.58594 92.584 7.80194 92.2 8.07394 91.88C8.34594 91.552 8.66994 91.296 9.04594 91.112C9.42194 90.928 9.82994 90.836 10.2699 90.836C10.7099 90.836 11.1139 90.928 11.4819 91.112C11.8579 91.296 12.1819 91.552 12.4539 91.88C12.7339 92.2 12.9499 92.584 13.1019 93.032C13.2619 93.472 13.3419 93.956 13.3419 94.484ZM11.9979 94.484C11.9979 94.124 11.9539 93.796 11.8659 93.5C11.7859 93.204 11.6659 92.948 11.5059 92.732C11.3539 92.516 11.1699 92.352 10.9539 92.24C10.7459 92.12 10.5179 92.06 10.2699 92.06C10.0059 92.06 9.76594 92.12 9.54994 92.24C9.34194 92.352 9.15794 92.516 8.99794 92.732C8.84594 92.948 8.72594 93.204 8.63794 93.5C8.55794 93.796 8.51794 94.124 8.51794 94.484C8.51794 94.844 8.55794 95.172 8.63794 95.468C8.72594 95.764 8.84594 96.02 8.99794 96.236C9.15794 96.444 9.34194 96.608 9.54994 96.728C9.76594 96.84 10.0059 96.896 10.2699 96.896C10.5179 96.896 10.7459 96.84 10.9539 96.728C11.1699 96.608 11.3539 96.444 11.5059 96.236C11.6659 96.02 11.7859 95.764 11.8659 95.468C11.9539 95.172 11.9979 94.844 11.9979 94.484Z" fill="white" fill-opacity="0.7"/>
<path d="M4.428 52.168C4.676 52.216 4.904 52.304 5.112 52.432C5.32 52.552 5.496 52.704 5.64 52.888C5.784 53.072 5.896 53.284 5.976 53.524C6.056 53.764 6.096 54.024 6.096 54.304C6.096 54.68 6.024 55.016 5.88 55.312C5.744 55.616 5.544 55.876 5.28 56.092C5.024 56.308 4.712 56.472 4.344 56.584C3.976 56.704 3.564 56.764 3.108 56.764C2.5 56.764 1.964 56.656 1.5 56.44C1.036 56.232 0.664 55.928 0.384 55.528L1.188 54.616C1.38 54.912 1.628 55.144 1.932 55.312C2.236 55.48 2.62 55.564 3.084 55.564C3.612 55.564 4.016 55.452 4.296 55.228C4.584 55.004 4.728 54.668 4.728 54.22C4.728 53.756 4.568 53.392 4.248 53.128C3.928 52.864 3.456 52.732 2.832 52.732H2.508V51.7H2.868C3.404 51.7 3.816 51.576 4.104 51.328C4.392 51.072 4.536 50.752 4.536 50.368C4.536 49.984 4.408 49.704 4.152 49.528C3.896 49.344 3.564 49.252 3.156 49.252C2.748 49.252 2.388 49.34 2.076 49.516C1.764 49.692 1.516 49.944 1.332 50.272L0.504 49.372C0.616 49.18 0.768 49.008 0.96 48.856C1.152 48.696 1.368 48.56 1.608 48.448C1.856 48.328 2.12 48.24 2.4 48.184C2.688 48.12 2.984 48.088 3.288 48.088C3.68 48.088 4.036 48.14 4.356 48.244C4.684 48.348 4.964 48.492 5.196 48.676C5.436 48.86 5.62 49.084 5.748 49.348C5.876 49.612 5.94 49.904 5.94 50.224C5.94 50.464 5.904 50.692 5.832 50.908C5.76 51.124 5.656 51.32 5.52 51.496C5.392 51.672 5.236 51.82 5.052 51.94C4.868 52.052 4.66 52.128 4.428 52.168ZM13.3419 51.484C13.3419 52.012 13.2619 52.5 13.1019 52.948C12.9499 53.388 12.7339 53.772 12.4539 54.1C12.1819 54.42 11.8579 54.672 11.4819 54.856C11.1139 55.032 10.7099 55.12 10.2699 55.12C9.82994 55.12 9.42194 55.032 9.04594 54.856C8.66994 54.672 8.34594 54.42 8.07394 54.1C7.80194 53.772 7.58594 53.388 7.42594 52.948C7.27394 52.5 7.19794 52.012 7.19794 51.484C7.19794 50.956 7.27394 50.472 7.42594 50.032C7.58594 49.584 7.80194 49.2 8.07394 48.88C8.34594 48.552 8.66994 48.296 9.04594 48.112C9.42194 47.928 9.82994 47.836 10.2699 47.836C10.7099 47.836 11.1139 47.928 11.4819 48.112C11.8579 48.296 12.1819 48.552 12.4539 48.88C12.7339 49.2 12.9499 49.584 13.1019 50.032C13.2619 50.472 13.3419 50.956 13.3419 51.484ZM11.9979 51.484C11.9979 51.124 11.9539 50.796 11.8659 50.5C11.7859 50.204 11.6659 49.948 11.5059 49.732C11.3539 49.516 11.1699 49.352 10.9539 49.24C10.7459 49.12 10.5179 49.06 10.2699 49.06C10.0059 49.06 9.76594 49.12 9.54994 49.24C9.34194 49.352 9.15794 49.516 8.99794 49.732C8.84594 49.948 8.72594 50.204 8.63794 50.5C8.55794 50.796 8.51794 51.124 8.51794 51.484C8.51794 51.844 8.55794 52.172 8.63794 52.468C8.72594 52.764 8.84594 53.02 8.99794 53.236C9.15794 53.444 9.34194 53.608 9.54994 53.728C9.76594 53.84 10.0059 53.896 10.2699 53.896C10.5179 53.896 10.7459 53.84 10.9539 53.728C11.1699 53.608 11.3539 53.444 11.5059 53.236C11.6659 53.02 11.7859 52.764 11.8659 52.468C11.9539 52.172 11.9979 51.844 11.9979 51.484Z" fill="white" fill-opacity="0.7"/>
<path d="M6.756 180.484C6.756 181.012 6.676 181.5 6.516 181.948C6.364 182.388 6.148 182.772 5.868 183.1C5.596 183.42 5.272 183.672 4.896 183.856C4.528 184.032 4.124 184.12 3.684 184.12C3.244 184.12 2.836 184.032 2.46 183.856C2.084 183.672 1.76 183.42 1.488 183.1C1.216 182.772 1 182.388 0.84 181.948C0.688 181.5 0.612 181.012 0.612 180.484C0.612 179.956 0.688 179.472 0.84 179.032C1 178.584 1.216 178.2 1.488 177.88C1.76 177.552 2.084 177.296 2.46 177.112C2.836 176.928 3.244 176.836 3.684 176.836C4.124 176.836 4.528 176.928 4.896 177.112C5.272 177.296 5.596 177.552 5.868 177.88C6.148 178.2 6.364 178.584 6.516 179.032C6.676 179.472 6.756 179.956 6.756 180.484ZM5.412 180.484C5.412 180.124 5.368 179.796 5.28 179.5C5.2 179.204 5.08 178.948 4.92 178.732C4.768 178.516 4.584 178.352 4.368 178.24C4.16 178.12 3.932 178.06 3.684 178.06C3.42 178.06 3.18 178.12 2.964 178.24C2.756 178.352 2.572 178.516 2.412 178.732C2.26 178.948 2.14 179.204 2.052 179.5C1.972 179.796 1.932 180.124 1.932 180.484C1.932 180.844 1.972 181.172 2.052 181.468C2.14 181.764 2.26 182.02 2.412 182.236C2.572 182.444 2.756 182.608 2.964 182.728C3.18 182.84 3.42 182.896 3.684 182.896C3.932 182.896 4.16 182.84 4.368 182.728C4.584 182.608 4.768 182.444 4.92 182.236C5.08 182.02 5.2 181.764 5.28 181.468C5.368 181.172 5.412 180.844 5.412 180.484Z" fill="white" fill-opacity="0.7"/>
<path d="M3.948 13.524V11.616H0.264V10.44L4.368 5.148H5.268V10.416H6.324V11.616H5.268V13.524H3.948ZM1.608 10.416H4.092V7.164L1.608 10.416ZM13.5294 8.484C13.5294 9.012 13.4494 9.5 13.2894 9.948C13.1374 10.388 12.9214 10.772 12.6414 11.1C12.3694 11.42 12.0454 11.672 11.6694 11.856C11.3014 12.032 10.8974 12.12 10.4574 12.12C10.0174 12.12 9.60944 12.032 9.23344 11.856C8.85744 11.672 8.53344 11.42 8.26144 11.1C7.98944 10.772 7.77344 10.388 7.61344 9.948C7.46144 9.5 7.38544 9.012 7.38544 8.484C7.38544 7.956 7.46144 7.472 7.61344 7.032C7.77344 6.584 7.98944 6.2 8.26144 5.88C8.53344 5.552 8.85744 5.296 9.23344 5.112C9.60944 4.928 10.0174 4.836 10.4574 4.836C10.8974 4.836 11.3014 4.928 11.6694 5.112C12.0454 5.296 12.3694 5.552 12.6414 5.88C12.9214 6.2 13.1374 6.584 13.2894 7.032C13.4494 7.472 13.5294 7.956 13.5294 8.484ZM12.1854 8.484C12.1854 8.124 12.1414 7.796 12.0534 7.5C11.9734 7.204 11.8534 6.948 11.6934 6.732C11.5414 6.516 11.3574 6.352 11.1414 6.24C10.9334 6.12 10.7054 6.06 10.4574 6.06C10.1934 6.06 9.95344 6.12 9.73744 6.24C9.52944 6.352 9.34544 6.516 9.18544 6.732C9.03344 6.948 8.91344 7.204 8.82544 7.5C8.74544 7.796 8.70544 8.124 8.70544 8.484C8.70544 8.844 8.74544 9.172 8.82544 9.468C8.91344 9.764 9.03344 10.02 9.18544 10.236C9.34544 10.444 9.52944 10.608 9.73744 10.728C9.95344 10.84 10.1934 10.896 10.4574 10.896C10.7054 10.896 10.9334 10.84 11.1414 10.728C11.3574 10.608 11.5414 10.444 11.6934 10.236C11.8534 10.02 11.9734 9.764 12.0534 9.468C12.1414 9.172 12.1854 8.844 12.1854 8.484Z" fill="white" fill-opacity="0.7"/>
<line x1="33.8789" y1="51.5" x2="414.519" y2="51.5" stroke="#4A4A4A"/>
<line x1="33.8789" y1="187.5" x2="414.519" y2="187.5" stroke="#4A4A4A"/>
<line x1="33.8789" y1="8.5" x2="414.519" y2="8.5" stroke="#4A4A4A"/>
<line x1="33.8789" y1="137.5" x2="414.519" y2="137.5" stroke="#4A4A4A"/>
<line x1="33.8789" y1="94.5" x2="414.519" y2="94.5" stroke="#4A4A4A"/>
<line x1="181.849" y1="180" x2="181.849" y2="9" stroke="#4A4A4A"/>
<line x1="109.108" y1="180" x2="109.108" y2="9" stroke="#4A4A4A"/>
<line x1="327.329" y1="180" x2="327.329" y2="9" stroke="#4A4A4A"/>
<line x1="254.589" y1="180" x2="254.589" y2="9" stroke="#4A4A4A"/>
<rect x="232.171" y="80" width="8.96774" height="107" fill="#FFC600"/>
<rect x="149.466" y="145" width="8.96774" height="42" fill="#FFC600"/>
<rect x="286.975" y="145" width="8.96774" height="42" fill="#FFC600"/>
<rect x="177.367" y="89" width="8.96774" height="98" fill="#FFC600"/>
<rect x="314.875" y="111" width="8.96774" height="76" fill="#FFC600"/>
<rect x="94.6621" y="157" width="8.96774" height="30" fill="#FFC600"/>
<rect x="218.221" y="64" width="8.96774" height="123" fill="#FFC600"/>
<rect x="163.417" y="127" width="8.96774" height="60" fill="#FFC600"/>
<rect x="300.925" y="127" width="8.96774" height="60" fill="#FFC600"/>
<rect x="80.7119" y="170" width="8.96774" height="17" fill="#FFC600"/>
<rect x="246.121" y="102" width="8.96774" height="85" fill="#FFC600"/>
<rect x="190.32" y="145" width="9.96416" height="42" fill="#FFC600"/>
<rect x="328.826" y="145" width="8.96774" height="42" fill="#FFC600"/>
<rect x="107.616" y="145" width="9.96416" height="42" fill="#FFC600"/>
<rect x="260.071" y="133" width="8.96774" height="54" fill="#FFC600"/>
<rect x="204.271" y="160" width="8.96774" height="27" fill="#FFC600"/>
<rect x="342.776" y="160" width="8.96774" height="27" fill="#FFC600"/>
<rect x="121.566" y="160" width="8.96774" height="27" fill="#FFC600"/>
<rect x="274.021" y="148" width="8.96774" height="39" fill="#FFC600"/>
</svg>
