<svg width="416" height="217" viewBox="0 0 416 217" fill="none" xmlns="http://www.w3.org/2000/svg">
<path d="M105.63 184.07C105.63 184.51 105.563 184.917 105.43 185.29C105.303 185.657 105.123 185.977 104.89 186.25C104.663 186.517 104.393 186.727 104.08 186.88C103.773 187.027 103.437 187.1 103.07 187.1C102.703 187.1 102.363 187.027 102.05 186.88C101.737 186.727 101.467 186.517 101.24 186.25C101.013 185.977 100.833 185.657 100.7 185.29C100.573 184.917 100.51 184.51 100.51 184.07C100.51 183.63 100.573 183.227 100.7 182.86C100.833 182.487 101.013 182.167 101.24 181.9C101.467 181.627 101.737 181.413 102.05 181.26C102.363 181.107 102.703 181.03 103.07 181.03C103.437 181.03 103.773 181.107 104.08 181.26C104.393 181.413 104.663 181.627 104.89 181.9C105.123 182.167 105.303 182.487 105.43 182.86C105.563 183.227 105.63 183.63 105.63 184.07ZM104.51 184.07C104.51 183.77 104.473 183.497 104.4 183.25C104.333 183.003 104.233 182.79 104.1 182.61C103.973 182.43 103.82 182.293 103.64 182.2C103.467 182.1 103.277 182.05 103.07 182.05C102.85 182.05 102.65 182.1 102.47 182.2C102.297 182.293 102.143 182.43 102.01 182.61C101.883 182.79 101.783 183.003 101.71 183.25C101.643 183.497 101.61 183.77 101.61 184.07C101.61 184.37 101.643 184.643 101.71 184.89C101.783 185.137 101.883 185.35 102.01 185.53C102.143 185.703 102.297 185.84 102.47 185.94C102.65 186.033 102.85 186.08 103.07 186.08C103.277 186.08 103.467 186.033 103.64 185.94C103.82 185.84 103.973 185.703 104.1 185.53C104.233 185.35 104.333 185.137 104.4 184.89C104.473 184.643 104.51 184.37 104.51 184.07ZM106.753 187V185.72H107.663V187H106.753ZM113.901 184.07C113.901 184.51 113.835 184.917 113.701 185.29C113.575 185.657 113.395 185.977 113.161 186.25C112.935 186.517 112.665 186.727 112.351 186.88C112.045 187.027 111.708 187.1 111.341 187.1C110.975 187.1 110.635 187.027 110.321 186.88C110.008 186.727 109.738 186.517 109.511 186.25C109.285 185.977 109.105 185.657 108.971 185.29C108.845 184.917 108.781 184.51 108.781 184.07C108.781 183.63 108.845 183.227 108.971 182.86C109.105 182.487 109.285 182.167 109.511 181.9C109.738 181.627 110.008 181.413 110.321 181.26C110.635 181.107 110.975 181.03 111.341 181.03C111.708 181.03 112.045 181.107 112.351 181.26C112.665 181.413 112.935 181.627 113.161 181.9C113.395 182.167 113.575 182.487 113.701 182.86C113.835 183.227 113.901 183.63 113.901 184.07ZM112.781 184.07C112.781 183.77 112.745 183.497 112.671 183.25C112.605 183.003 112.505 182.79 112.371 182.61C112.245 182.43 112.091 182.293 111.911 182.2C111.738 182.1 111.548 182.05 111.341 182.05C111.121 182.05 110.921 182.1 110.741 182.2C110.568 182.293 110.415 182.43 110.281 182.61C110.155 182.79 110.055 183.003 109.981 183.25C109.915 183.497 109.881 183.77 109.881 184.07C109.881 184.37 109.915 184.643 109.981 184.89C110.055 185.137 110.155 185.35 110.281 185.53C110.415 185.703 110.568 185.84 110.741 185.94C110.921 186.033 111.121 186.08 111.341 186.08C111.548 186.08 111.738 186.033 111.911 185.94C112.091 185.84 112.245 185.703 112.371 185.53C112.505 185.35 112.605 185.137 112.671 184.89C112.745 184.643 112.781 184.37 112.781 184.07ZM118.884 186.01V187H115.064V186.01H116.484V182.52C116.424 182.6 116.331 182.683 116.204 182.77C116.077 182.857 115.937 182.937 115.784 183.01C115.631 183.083 115.471 183.147 115.304 183.2C115.137 183.247 114.991 183.27 114.864 183.27V182.24C114.997 182.24 115.151 182.2 115.324 182.12C115.504 182.04 115.674 181.947 115.834 181.84C116.001 181.733 116.144 181.627 116.264 181.52C116.391 181.413 116.464 181.337 116.484 181.29H117.614V186.01H118.884ZM124.751 184.07C124.751 184.51 124.684 184.917 124.551 185.29C124.424 185.657 124.244 185.977 124.011 186.25C123.784 186.517 123.514 186.727 123.201 186.88C122.894 187.027 122.558 187.1 122.191 187.1C121.824 187.1 121.484 187.027 121.171 186.88C120.858 186.727 120.588 186.517 120.361 186.25C120.134 185.977 119.954 185.657 119.821 185.29C119.694 184.917 119.631 184.51 119.631 184.07C119.631 183.63 119.694 183.227 119.821 182.86C119.954 182.487 120.134 182.167 120.361 181.9C120.588 181.627 120.858 181.413 121.171 181.26C121.484 181.107 121.824 181.03 122.191 181.03C122.558 181.03 122.894 181.107 123.201 181.26C123.514 181.413 123.784 181.627 124.011 181.9C124.244 182.167 124.424 182.487 124.551 182.86C124.684 183.227 124.751 183.63 124.751 184.07ZM123.631 184.07C123.631 183.77 123.594 183.497 123.521 183.25C123.454 183.003 123.354 182.79 123.221 182.61C123.094 182.43 122.941 182.293 122.761 182.2C122.588 182.1 122.398 182.05 122.191 182.05C121.971 182.05 121.771 182.1 121.591 182.2C121.418 182.293 121.264 182.43 121.131 182.61C121.004 182.79 120.904 183.003 120.831 183.25C120.764 183.497 120.731 183.77 120.731 184.07C120.731 184.37 120.764 184.643 120.831 184.89C120.904 185.137 121.004 185.35 121.131 185.53C121.264 185.703 121.418 185.84 121.591 185.94C121.771 186.033 121.971 186.08 122.191 186.08C122.398 186.08 122.588 186.033 122.761 185.94C122.941 185.84 123.094 185.703 123.221 185.53C123.354 185.35 123.454 185.137 123.521 184.89C123.594 184.643 123.631 184.37 123.631 184.07Z" fill="white" fill-opacity="0.7"/>
<path d="M165.875 183.714C165.875 184.154 165.808 184.561 165.675 184.934C165.548 185.301 165.368 185.621 165.135 185.894C164.908 186.161 164.638 186.371 164.325 186.524C164.018 186.671 163.682 186.744 163.315 186.744C162.948 186.744 162.608 186.671 162.295 186.524C161.982 186.371 161.712 186.161 161.485 185.894C161.258 185.621 161.078 185.301 160.945 184.934C160.818 184.561 160.755 184.154 160.755 183.714C160.755 183.274 160.818 182.871 160.945 182.504C161.078 182.131 161.258 181.811 161.485 181.544C161.712 181.271 161.982 181.057 162.295 180.904C162.608 180.751 162.948 180.674 163.315 180.674C163.682 180.674 164.018 180.751 164.325 180.904C164.638 181.057 164.908 181.271 165.135 181.544C165.368 181.811 165.548 182.131 165.675 182.504C165.808 182.871 165.875 183.274 165.875 183.714ZM164.755 183.714C164.755 183.414 164.718 183.141 164.645 182.894C164.578 182.647 164.478 182.434 164.345 182.254C164.218 182.074 164.065 181.937 163.885 181.844C163.712 181.744 163.522 181.694 163.315 181.694C163.095 181.694 162.895 181.744 162.715 181.844C162.542 181.937 162.388 182.074 162.255 182.254C162.128 182.434 162.028 182.647 161.955 182.894C161.888 183.141 161.855 183.414 161.855 183.714C161.855 184.014 161.888 184.287 161.955 184.534C162.028 184.781 162.128 184.994 162.255 185.174C162.388 185.347 162.542 185.484 162.715 185.584C162.895 185.677 163.095 185.724 163.315 185.724C163.522 185.724 163.712 185.677 163.885 185.584C164.065 185.484 164.218 185.347 164.345 185.174C164.478 184.994 164.578 184.781 164.645 184.534C164.718 184.287 164.755 184.014 164.755 183.714ZM166.998 186.644V185.364H167.908V186.644H166.998ZM174.147 183.714C174.147 184.154 174.08 184.561 173.947 184.934C173.82 185.301 173.64 185.621 173.407 185.894C173.18 186.161 172.91 186.371 172.597 186.524C172.29 186.671 171.953 186.744 171.587 186.744C171.22 186.744 170.88 186.671 170.567 186.524C170.253 186.371 169.983 186.161 169.757 185.894C169.53 185.621 169.35 185.301 169.217 184.934C169.09 184.561 169.027 184.154 169.027 183.714C169.027 183.274 169.09 182.871 169.217 182.504C169.35 182.131 169.53 181.811 169.757 181.544C169.983 181.271 170.253 181.057 170.567 180.904C170.88 180.751 171.22 180.674 171.587 180.674C171.953 180.674 172.29 180.751 172.597 180.904C172.91 181.057 173.18 181.271 173.407 181.544C173.64 181.811 173.82 182.131 173.947 182.504C174.08 182.871 174.147 183.274 174.147 183.714ZM173.027 183.714C173.027 183.414 172.99 183.141 172.917 182.894C172.85 182.647 172.75 182.434 172.617 182.254C172.49 182.074 172.337 181.937 172.157 181.844C171.983 181.744 171.793 181.694 171.587 181.694C171.367 181.694 171.167 181.744 170.987 181.844C170.813 181.937 170.66 182.074 170.527 182.254C170.4 182.434 170.3 182.647 170.227 182.894C170.16 183.141 170.127 183.414 170.127 183.714C170.127 184.014 170.16 184.287 170.227 184.534C170.3 184.781 170.4 184.994 170.527 185.174C170.66 185.347 170.813 185.484 170.987 185.584C171.167 185.677 171.367 185.724 171.587 185.724C171.793 185.724 171.983 185.677 172.157 185.584C172.337 185.484 172.49 185.347 172.617 185.174C172.75 184.994 172.85 184.781 172.917 184.534C172.99 184.287 173.027 184.014 173.027 183.714ZM179.129 185.654V186.644H175.309V185.654H176.729V182.164C176.669 182.244 176.576 182.327 176.449 182.414C176.323 182.501 176.183 182.581 176.029 182.654C175.876 182.727 175.716 182.791 175.549 182.844C175.383 182.891 175.236 182.914 175.109 182.914V181.884C175.243 181.884 175.396 181.844 175.569 181.764C175.749 181.684 175.919 181.591 176.079 181.484C176.246 181.377 176.389 181.271 176.509 181.164C176.636 181.057 176.709 180.981 176.729 180.934H177.859V185.654H179.129ZM182.216 183.474C182.55 183.474 182.856 183.531 183.136 183.644C183.423 183.757 183.67 183.914 183.876 184.114C184.09 184.314 184.253 184.554 184.366 184.834C184.486 185.114 184.546 185.421 184.546 185.754C184.546 186.107 184.48 186.431 184.346 186.724C184.22 187.017 184.04 187.267 183.806 187.474C183.58 187.687 183.31 187.851 182.996 187.964C182.683 188.077 182.346 188.134 181.986 188.134C181.473 188.134 181.013 188.017 180.606 187.784C180.2 187.557 179.89 187.247 179.676 186.854L180.336 186.224C180.523 186.504 180.763 186.731 181.056 186.904C181.35 187.077 181.663 187.164 181.996 187.164C182.41 187.164 182.75 187.037 183.016 186.784C183.283 186.531 183.416 186.194 183.416 185.774C183.416 185.574 183.38 185.394 183.306 185.234C183.24 185.067 183.146 184.927 183.026 184.814C182.906 184.694 182.763 184.601 182.596 184.534C182.436 184.467 182.26 184.434 182.066 184.434C181.813 184.434 181.576 184.491 181.356 184.604C181.136 184.711 180.956 184.871 180.816 185.084H179.846C179.853 185.057 179.866 184.977 179.886 184.844C179.913 184.711 179.946 184.544 179.986 184.344C180.026 184.144 180.07 183.921 180.116 183.674C180.163 183.427 180.213 183.177 180.266 182.924C180.386 182.331 180.516 181.667 180.656 180.934H184.126V181.944H181.456L181.096 183.884C181.21 183.757 181.36 183.657 181.546 183.584C181.74 183.511 181.963 183.474 182.216 183.474Z" fill="white" fill-opacity="0.7"/>
<path d="M223.595 183.714C223.595 184.154 223.528 184.561 223.395 184.934C223.268 185.301 223.088 185.621 222.855 185.894C222.628 186.161 222.358 186.371 222.045 186.524C221.738 186.671 221.402 186.744 221.035 186.744C220.668 186.744 220.328 186.671 220.015 186.524C219.702 186.371 219.432 186.161 219.205 185.894C218.978 185.621 218.798 185.301 218.665 184.934C218.538 184.561 218.475 184.154 218.475 183.714C218.475 183.274 218.538 182.871 218.665 182.504C218.798 182.131 218.978 181.811 219.205 181.544C219.432 181.271 219.702 181.057 220.015 180.904C220.328 180.751 220.668 180.674 221.035 180.674C221.402 180.674 221.738 180.751 222.045 180.904C222.358 181.057 222.628 181.271 222.855 181.544C223.088 181.811 223.268 182.131 223.395 182.504C223.528 182.871 223.595 183.274 223.595 183.714ZM222.475 183.714C222.475 183.414 222.438 183.141 222.365 182.894C222.298 182.647 222.198 182.434 222.065 182.254C221.938 182.074 221.785 181.937 221.605 181.844C221.432 181.744 221.242 181.694 221.035 181.694C220.815 181.694 220.615 181.744 220.435 181.844C220.262 181.937 220.108 182.074 219.975 182.254C219.848 182.434 219.748 182.647 219.675 182.894C219.608 183.141 219.575 183.414 219.575 183.714C219.575 184.014 219.608 184.287 219.675 184.534C219.748 184.781 219.848 184.994 219.975 185.174C220.108 185.347 220.262 185.484 220.435 185.584C220.615 185.677 220.815 185.724 221.035 185.724C221.242 185.724 221.432 185.677 221.605 185.584C221.785 185.484 221.938 185.347 222.065 185.174C222.198 184.994 222.298 184.781 222.365 184.534C222.438 184.287 222.475 184.014 222.475 183.714ZM224.717 186.644V185.364H225.627V186.644H224.717ZM231.866 183.714C231.866 184.154 231.8 184.561 231.666 184.934C231.54 185.301 231.36 185.621 231.126 185.894C230.9 186.161 230.63 186.371 230.316 186.524C230.01 186.671 229.673 186.744 229.306 186.744C228.94 186.744 228.6 186.671 228.286 186.524C227.973 186.371 227.703 186.161 227.476 185.894C227.25 185.621 227.07 185.301 226.936 184.934C226.81 184.561 226.746 184.154 226.746 183.714C226.746 183.274 226.81 182.871 226.936 182.504C227.07 182.131 227.25 181.811 227.476 181.544C227.703 181.271 227.973 181.057 228.286 180.904C228.6 180.751 228.94 180.674 229.306 180.674C229.673 180.674 230.01 180.751 230.316 180.904C230.63 181.057 230.9 181.271 231.126 181.544C231.36 181.811 231.54 182.131 231.666 182.504C231.8 182.871 231.866 183.274 231.866 183.714ZM230.746 183.714C230.746 183.414 230.71 183.141 230.636 182.894C230.57 182.647 230.47 182.434 230.336 182.254C230.21 182.074 230.056 181.937 229.876 181.844C229.703 181.744 229.513 181.694 229.306 181.694C229.086 181.694 228.886 181.744 228.706 181.844C228.533 181.937 228.38 182.074 228.246 182.254C228.12 182.434 228.02 182.647 227.946 182.894C227.88 183.141 227.846 183.414 227.846 183.714C227.846 184.014 227.88 184.287 227.946 184.534C228.02 184.781 228.12 184.994 228.246 185.174C228.38 185.347 228.533 185.484 228.706 185.584C228.886 185.677 229.086 185.724 229.306 185.724C229.513 185.724 229.703 185.677 229.876 185.584C230.056 185.484 230.21 185.347 230.336 185.174C230.47 184.994 230.57 184.781 230.636 184.534C230.71 184.287 230.746 184.014 230.746 183.714ZM232.779 186.644C232.779 186.364 232.802 186.104 232.849 185.864C232.896 185.624 232.979 185.401 233.099 185.194C233.219 184.981 233.382 184.781 233.589 184.594C233.796 184.401 234.062 184.214 234.389 184.034C234.622 183.907 234.842 183.791 235.049 183.684C235.256 183.577 235.436 183.474 235.589 183.374C235.749 183.267 235.876 183.157 235.969 183.044C236.062 182.924 236.109 182.787 236.109 182.634C236.109 182.421 236.016 182.231 235.829 182.064C235.649 181.891 235.386 181.804 235.039 181.804C234.859 181.804 234.692 181.831 234.539 181.884C234.392 181.931 234.256 181.994 234.129 182.074C234.009 182.147 233.902 182.231 233.809 182.324C233.716 182.417 233.632 182.507 233.559 182.594L232.859 181.784C232.926 181.711 233.029 181.621 233.169 181.514C233.316 181.401 233.489 181.294 233.689 181.194C233.896 181.094 234.129 181.011 234.389 180.944C234.649 180.871 234.932 180.834 235.239 180.834C235.559 180.834 235.846 180.877 236.099 180.964C236.359 181.044 236.576 181.157 236.749 181.304C236.929 181.451 237.066 181.627 237.159 181.834C237.252 182.034 237.299 182.251 237.299 182.484C237.299 182.731 237.249 182.951 237.149 183.144C237.049 183.337 236.926 183.507 236.779 183.654C236.632 183.801 236.472 183.927 236.299 184.034C236.126 184.134 235.966 184.221 235.819 184.294C235.679 184.361 235.519 184.441 235.339 184.534C235.166 184.621 234.996 184.724 234.829 184.844C234.662 184.957 234.512 185.081 234.379 185.214C234.246 185.347 234.152 185.494 234.099 185.654H237.409V186.644H232.779ZM243.497 183.714C243.497 184.154 243.431 184.561 243.297 184.934C243.171 185.301 242.991 185.621 242.757 185.894C242.531 186.161 242.261 186.371 241.947 186.524C241.641 186.671 241.304 186.744 240.937 186.744C240.571 186.744 240.231 186.671 239.917 186.524C239.604 186.371 239.334 186.161 239.107 185.894C238.881 185.621 238.701 185.301 238.567 184.934C238.441 184.561 238.377 184.154 238.377 183.714C238.377 183.274 238.441 182.871 238.567 182.504C238.701 182.131 238.881 181.811 239.107 181.544C239.334 181.271 239.604 181.057 239.917 180.904C240.231 180.751 240.571 180.674 240.937 180.674C241.304 180.674 241.641 180.751 241.947 180.904C242.261 181.057 242.531 181.271 242.757 181.544C242.991 181.811 243.171 182.131 243.297 182.504C243.431 182.871 243.497 183.274 243.497 183.714ZM242.377 183.714C242.377 183.414 242.341 183.141 242.267 182.894C242.201 182.647 242.101 182.434 241.967 182.254C241.841 182.074 241.687 181.937 241.507 181.844C241.334 181.744 241.144 181.694 240.937 181.694C240.717 181.694 240.517 181.744 240.337 181.844C240.164 181.937 240.011 182.074 239.877 182.254C239.751 182.434 239.651 182.647 239.577 182.894C239.511 183.141 239.477 183.414 239.477 183.714C239.477 184.014 239.511 184.287 239.577 184.534C239.651 184.781 239.751 184.994 239.877 185.174C240.011 185.347 240.164 185.484 240.337 185.584C240.517 185.677 240.717 185.724 240.937 185.724C241.144 185.724 241.334 185.677 241.507 185.584C241.687 185.484 241.841 185.347 241.967 185.174C242.101 184.994 242.201 184.781 242.267 184.534C242.341 184.287 242.377 184.014 242.377 183.714Z" fill="white" fill-opacity="0.7"/>
<path d="M279.726 183.714C279.726 184.154 279.659 184.561 279.526 184.934C279.399 185.301 279.219 185.621 278.986 185.894C278.759 186.161 278.489 186.371 278.176 186.524C277.869 186.671 277.532 186.744 277.166 186.744C276.799 186.744 276.459 186.671 276.146 186.524C275.832 186.371 275.562 186.161 275.336 185.894C275.109 185.621 274.929 185.301 274.796 184.934C274.669 184.561 274.606 184.154 274.606 183.714C274.606 183.274 274.669 182.871 274.796 182.504C274.929 182.131 275.109 181.811 275.336 181.544C275.562 181.271 275.832 181.057 276.146 180.904C276.459 180.751 276.799 180.674 277.166 180.674C277.532 180.674 277.869 180.751 278.176 180.904C278.489 181.057 278.759 181.271 278.986 181.544C279.219 181.811 279.399 182.131 279.526 182.504C279.659 182.871 279.726 183.274 279.726 183.714ZM278.606 183.714C278.606 183.414 278.569 183.141 278.496 182.894C278.429 182.647 278.329 182.434 278.196 182.254C278.069 182.074 277.916 181.937 277.736 181.844C277.562 181.744 277.372 181.694 277.166 181.694C276.946 181.694 276.746 181.744 276.566 181.844C276.392 181.937 276.239 182.074 276.106 182.254C275.979 182.434 275.879 182.647 275.806 182.894C275.739 183.141 275.706 183.414 275.706 183.714C275.706 184.014 275.739 184.287 275.806 184.534C275.879 184.781 275.979 184.994 276.106 185.174C276.239 185.347 276.392 185.484 276.566 185.584C276.746 185.677 276.946 185.724 277.166 185.724C277.372 185.724 277.562 185.677 277.736 185.584C277.916 185.484 278.069 185.347 278.196 185.174C278.329 184.994 278.429 184.781 278.496 184.534C278.569 184.287 278.606 184.014 278.606 183.714ZM280.848 186.644V185.364H281.758V186.644H280.848ZM287.997 183.714C287.997 184.154 287.931 184.561 287.797 184.934C287.671 185.301 287.491 185.621 287.257 185.894C287.031 186.161 286.761 186.371 286.447 186.524C286.141 186.671 285.804 186.744 285.437 186.744C285.071 186.744 284.731 186.671 284.417 186.524C284.104 186.371 283.834 186.161 283.607 185.894C283.381 185.621 283.201 185.301 283.067 184.934C282.941 184.561 282.877 184.154 282.877 183.714C282.877 183.274 282.941 182.871 283.067 182.504C283.201 182.131 283.381 181.811 283.607 181.544C283.834 181.271 284.104 181.057 284.417 180.904C284.731 180.751 285.071 180.674 285.437 180.674C285.804 180.674 286.141 180.751 286.447 180.904C286.761 181.057 287.031 181.271 287.257 181.544C287.491 181.811 287.671 182.131 287.797 182.504C287.931 182.871 287.997 183.274 287.997 183.714ZM286.877 183.714C286.877 183.414 286.841 183.141 286.767 182.894C286.701 182.647 286.601 182.434 286.467 182.254C286.341 182.074 286.187 181.937 286.007 181.844C285.834 181.744 285.644 181.694 285.437 181.694C285.217 181.694 285.017 181.744 284.837 181.844C284.664 181.937 284.511 182.074 284.377 182.254C284.251 182.434 284.151 182.647 284.077 182.894C284.011 183.141 283.977 183.414 283.977 183.714C283.977 184.014 284.011 184.287 284.077 184.534C284.151 184.781 284.251 184.994 284.377 185.174C284.511 185.347 284.664 185.484 284.837 185.584C285.017 185.677 285.217 185.724 285.437 185.724C285.644 185.724 285.834 185.677 286.007 185.584C286.187 185.484 286.341 185.347 286.467 185.174C286.601 184.994 286.701 184.781 286.767 184.534C286.841 184.287 286.877 184.014 286.877 183.714ZM288.91 186.644C288.91 186.364 288.933 186.104 288.98 185.864C289.026 185.624 289.11 185.401 289.23 185.194C289.35 184.981 289.513 184.781 289.72 184.594C289.926 184.401 290.193 184.214 290.52 184.034C290.753 183.907 290.973 183.791 291.18 183.684C291.386 183.577 291.566 183.474 291.72 183.374C291.88 183.267 292.006 183.157 292.1 183.044C292.193 182.924 292.24 182.787 292.24 182.634C292.24 182.421 292.146 182.231 291.96 182.064C291.78 181.891 291.516 181.804 291.17 181.804C290.99 181.804 290.823 181.831 290.67 181.884C290.523 181.931 290.386 181.994 290.26 182.074C290.14 182.147 290.033 182.231 289.94 182.324C289.846 182.417 289.763 182.507 289.69 182.594L288.99 181.784C289.056 181.711 289.16 181.621 289.3 181.514C289.446 181.401 289.62 181.294 289.82 181.194C290.026 181.094 290.26 181.011 290.52 180.944C290.78 180.871 291.063 180.834 291.37 180.834C291.69 180.834 291.976 180.877 292.23 180.964C292.49 181.044 292.706 181.157 292.88 181.304C293.06 181.451 293.196 181.627 293.29 181.834C293.383 182.034 293.43 182.251 293.43 182.484C293.43 182.731 293.38 182.951 293.28 183.144C293.18 183.337 293.056 183.507 292.91 183.654C292.763 183.801 292.603 183.927 292.43 184.034C292.256 184.134 292.096 184.221 291.95 184.294C291.81 184.361 291.65 184.441 291.47 184.534C291.296 184.621 291.126 184.724 290.96 184.844C290.793 184.957 290.643 185.081 290.51 185.214C290.376 185.347 290.283 185.494 290.23 185.654H293.54V186.644H288.91ZM296.848 183.474C297.181 183.474 297.488 183.531 297.768 183.644C298.055 183.757 298.301 183.914 298.508 184.114C298.721 184.314 298.885 184.554 298.998 184.834C299.118 185.114 299.178 185.421 299.178 185.754C299.178 186.107 299.111 186.431 298.978 186.724C298.851 187.017 298.671 187.267 298.438 187.474C298.211 187.687 297.941 187.851 297.628 187.964C297.315 188.077 296.978 188.134 296.618 188.134C296.105 188.134 295.645 188.017 295.238 187.784C294.831 187.557 294.521 187.247 294.308 186.854L294.968 186.224C295.155 186.504 295.395 186.731 295.688 186.904C295.981 187.077 296.295 187.164 296.628 187.164C297.041 187.164 297.381 187.037 297.648 186.784C297.915 186.531 298.048 186.194 298.048 185.774C298.048 185.574 298.011 185.394 297.938 185.234C297.871 185.067 297.778 184.927 297.658 184.814C297.538 184.694 297.395 184.601 297.228 184.534C297.068 184.467 296.891 184.434 296.698 184.434C296.445 184.434 296.208 184.491 295.988 184.604C295.768 184.711 295.588 184.871 295.448 185.084H294.478C294.485 185.057 294.498 184.977 294.518 184.844C294.545 184.711 294.578 184.544 294.618 184.344C294.658 184.144 294.701 183.921 294.748 183.674C294.795 183.427 294.845 183.177 294.898 182.924C295.018 182.331 295.148 181.667 295.288 180.934H298.758V181.944H296.088L295.728 183.884C295.841 183.757 295.991 183.657 296.178 183.584C296.371 183.511 296.595 183.474 296.848 183.474Z" fill="white" fill-opacity="0.7"/>
<path d="M338.159 183.714C338.159 184.154 338.093 184.561 337.959 184.934C337.833 185.301 337.653 185.621 337.419 185.894C337.193 186.161 336.923 186.371 336.609 186.524C336.303 186.671 335.966 186.744 335.599 186.744C335.233 186.744 334.893 186.671 334.579 186.524C334.266 186.371 333.996 186.161 333.769 185.894C333.543 185.621 333.363 185.301 333.229 184.934C333.103 184.561 333.039 184.154 333.039 183.714C333.039 183.274 333.103 182.871 333.229 182.504C333.363 182.131 333.543 181.811 333.769 181.544C333.996 181.271 334.266 181.057 334.579 180.904C334.893 180.751 335.233 180.674 335.599 180.674C335.966 180.674 336.303 180.751 336.609 180.904C336.923 181.057 337.193 181.271 337.419 181.544C337.653 181.811 337.833 182.131 337.959 182.504C338.093 182.871 338.159 183.274 338.159 183.714ZM337.039 183.714C337.039 183.414 337.003 183.141 336.929 182.894C336.863 182.647 336.763 182.434 336.629 182.254C336.503 182.074 336.349 181.937 336.169 181.844C335.996 181.744 335.806 181.694 335.599 181.694C335.379 181.694 335.179 181.744 334.999 181.844C334.826 181.937 334.673 182.074 334.539 182.254C334.413 182.434 334.313 182.647 334.239 182.894C334.173 183.141 334.139 183.414 334.139 183.714C334.139 184.014 334.173 184.287 334.239 184.534C334.313 184.781 334.413 184.994 334.539 185.174C334.673 185.347 334.826 185.484 334.999 185.584C335.179 185.677 335.379 185.724 335.599 185.724C335.806 185.724 335.996 185.677 336.169 185.584C336.349 185.484 336.503 185.347 336.629 185.174C336.763 184.994 336.863 184.781 336.929 184.534C337.003 184.287 337.039 184.014 337.039 183.714ZM339.282 186.644V185.364H340.192V186.644H339.282ZM346.431 183.714C346.431 184.154 346.364 184.561 346.231 184.934C346.104 185.301 345.924 185.621 345.691 185.894C345.464 186.161 345.194 186.371 344.881 186.524C344.574 186.671 344.237 186.744 343.871 186.744C343.504 186.744 343.164 186.671 342.851 186.524C342.537 186.371 342.267 186.161 342.041 185.894C341.814 185.621 341.634 185.301 341.501 184.934C341.374 184.561 341.311 184.154 341.311 183.714C341.311 183.274 341.374 182.871 341.501 182.504C341.634 182.131 341.814 181.811 342.041 181.544C342.267 181.271 342.537 181.057 342.851 180.904C343.164 180.751 343.504 180.674 343.871 180.674C344.237 180.674 344.574 180.751 344.881 180.904C345.194 181.057 345.464 181.271 345.691 181.544C345.924 181.811 346.104 182.131 346.231 182.504C346.364 182.871 346.431 183.274 346.431 183.714ZM345.311 183.714C345.311 183.414 345.274 183.141 345.201 182.894C345.134 182.647 345.034 182.434 344.901 182.254C344.774 182.074 344.621 181.937 344.441 181.844C344.267 181.744 344.077 181.694 343.871 181.694C343.651 181.694 343.451 181.744 343.271 181.844C343.097 181.937 342.944 182.074 342.811 182.254C342.684 182.434 342.584 182.647 342.511 182.894C342.444 183.141 342.411 183.414 342.411 183.714C342.411 184.014 342.444 184.287 342.511 184.534C342.584 184.781 342.684 184.994 342.811 185.174C342.944 185.347 343.097 185.484 343.271 185.584C343.451 185.677 343.651 185.724 343.871 185.724C344.077 185.724 344.267 185.677 344.441 185.584C344.621 185.484 344.774 185.347 344.901 185.174C345.034 184.994 345.134 184.781 345.201 184.534C345.274 184.287 345.311 184.014 345.311 183.714ZM350.633 184.284C350.84 184.324 351.03 184.397 351.203 184.504C351.377 184.604 351.523 184.731 351.643 184.884C351.763 185.037 351.857 185.214 351.923 185.414C351.99 185.614 352.023 185.831 352.023 186.064C352.023 186.377 351.963 186.657 351.843 186.904C351.73 187.157 351.563 187.374 351.343 187.554C351.13 187.734 350.87 187.871 350.563 187.964C350.257 188.064 349.913 188.114 349.533 188.114C349.027 188.114 348.58 188.024 348.193 187.844C347.807 187.671 347.497 187.417 347.263 187.084L347.933 186.324C348.093 186.571 348.3 186.764 348.553 186.904C348.807 187.044 349.127 187.114 349.513 187.114C349.953 187.114 350.29 187.021 350.523 186.834C350.763 186.647 350.883 186.367 350.883 185.994C350.883 185.607 350.75 185.304 350.483 185.084C350.217 184.864 349.823 184.754 349.303 184.754H349.033V183.894H349.333C349.78 183.894 350.123 183.791 350.363 183.584C350.603 183.371 350.723 183.104 350.723 182.784C350.723 182.464 350.617 182.231 350.403 182.084C350.19 181.931 349.913 181.854 349.573 181.854C349.233 181.854 348.933 181.927 348.673 182.074C348.413 182.221 348.207 182.431 348.053 182.704L347.363 181.954C347.457 181.794 347.583 181.651 347.743 181.524C347.903 181.391 348.083 181.277 348.283 181.184C348.49 181.084 348.71 181.011 348.943 180.964C349.183 180.911 349.43 180.884 349.683 180.884C350.01 180.884 350.307 180.927 350.573 181.014C350.847 181.101 351.08 181.221 351.273 181.374C351.473 181.527 351.627 181.714 351.733 181.934C351.84 182.154 351.893 182.397 351.893 182.664C351.893 182.864 351.863 183.054 351.803 183.234C351.743 183.414 351.657 183.577 351.543 183.724C351.437 183.871 351.307 183.994 351.153 184.094C351 184.187 350.827 184.251 350.633 184.284ZM358.062 183.714C358.062 184.154 357.995 184.561 357.862 184.934C357.735 185.301 357.555 185.621 357.322 185.894C357.095 186.161 356.825 186.371 356.512 186.524C356.205 186.671 355.868 186.744 355.502 186.744C355.135 186.744 354.795 186.671 354.482 186.524C354.168 186.371 353.898 186.161 353.672 185.894C353.445 185.621 353.265 185.301 353.132 184.934C353.005 184.561 352.942 184.154 352.942 183.714C352.942 183.274 353.005 182.871 353.132 182.504C353.265 182.131 353.445 181.811 353.672 181.544C353.898 181.271 354.168 181.057 354.482 180.904C354.795 180.751 355.135 180.674 355.502 180.674C355.868 180.674 356.205 180.751 356.512 180.904C356.825 181.057 357.095 181.271 357.322 181.544C357.555 181.811 357.735 182.131 357.862 182.504C357.995 182.871 358.062 183.274 358.062 183.714ZM356.942 183.714C356.942 183.414 356.905 183.141 356.832 182.894C356.765 182.647 356.665 182.434 356.532 182.254C356.405 182.074 356.252 181.937 356.072 181.844C355.898 181.744 355.708 181.694 355.502 181.694C355.282 181.694 355.082 181.744 354.902 181.844C354.728 181.937 354.575 182.074 354.442 182.254C354.315 182.434 354.215 182.647 354.142 182.894C354.075 183.141 354.042 183.414 354.042 183.714C354.042 184.014 354.075 184.287 354.142 184.534C354.215 184.781 354.315 184.994 354.442 185.174C354.575 185.347 354.728 185.484 354.902 185.584C355.082 185.677 355.282 185.724 355.502 185.724C355.708 185.724 355.898 185.677 356.072 185.584C356.252 185.484 356.405 185.347 356.532 185.174C356.665 184.994 356.765 184.781 356.832 184.534C356.905 184.287 356.942 184.014 356.942 183.714Z" fill="white" fill-opacity="0.7"/>
<path d="M5.42236 163.197C5.42236 163.621 5.35819 164.012 5.22986 164.372C5.10794 164.724 4.93469 165.032 4.7101 165.296C4.49193 165.552 4.23205 165.754 3.93047 165.902C3.6353 166.043 3.31125 166.114 2.95833 166.114C2.60541 166.114 2.27815 166.043 1.97657 165.902C1.67498 165.754 1.4151 165.552 1.19693 165.296C0.978763 165.032 0.805511 164.724 0.677176 164.372C0.555258 164.012 0.494299 163.621 0.494299 163.197C0.494299 162.774 0.555258 162.386 0.677176 162.033C0.805511 161.673 0.978763 161.365 1.19693 161.109C1.4151 160.846 1.67498 160.64 1.97657 160.493C2.27815 160.345 2.60541 160.271 2.95833 160.271C3.31125 160.271 3.6353 160.345 3.93047 160.493C4.23205 160.64 4.49193 160.846 4.7101 161.109C4.93469 161.365 5.10794 161.673 5.22986 162.033C5.35819 162.386 5.42236 162.774 5.42236 163.197ZM4.34435 163.197C4.34435 162.909 4.30905 162.645 4.23847 162.408C4.1743 162.171 4.07805 161.965 3.94972 161.792C3.8278 161.619 3.68021 161.487 3.50696 161.397C3.34013 161.301 3.15725 161.253 2.95833 161.253C2.74658 161.253 2.55407 161.301 2.38082 161.397C2.21399 161.487 2.0664 161.619 1.93807 161.792C1.81615 161.965 1.7199 162.171 1.64931 162.408C1.58515 162.645 1.55306 162.909 1.55306 163.197C1.55306 163.486 1.58515 163.749 1.64931 163.987C1.7199 164.224 1.81615 164.429 1.93807 164.603C2.0664 164.769 2.21399 164.901 2.38082 164.997C2.55407 165.087 2.74658 165.132 2.95833 165.132C3.15725 165.132 3.34013 165.087 3.50696 164.997C3.68021 164.901 3.8278 164.769 3.94972 164.603C4.07805 164.429 4.1743 164.224 4.23847 163.987C4.30905 163.749 4.34435 163.486 4.34435 163.197Z" fill="white" fill-opacity="0.7"/>
<path d="M0.385005 130.978C0.385005 130.708 0.407463 130.458 0.45238 130.227C0.497298 129.996 0.577507 129.781 0.693008 129.582C0.80851 129.377 0.96572 129.184 1.16464 129.004C1.36356 128.818 1.62023 128.639 1.93465 128.465C2.15923 128.343 2.37099 128.231 2.56991 128.129C2.76883 128.026 2.94208 127.926 3.08966 127.83C3.24366 127.727 3.36558 127.622 3.45542 127.512C3.54525 127.397 3.59017 127.265 3.59017 127.118C3.59017 126.913 3.50033 126.73 3.32067 126.569C3.14741 126.402 2.89395 126.319 2.56028 126.319C2.38703 126.319 2.22661 126.345 2.07903 126.396C1.93786 126.441 1.80631 126.502 1.6844 126.579C1.56889 126.649 1.46623 126.73 1.37639 126.819C1.28656 126.909 1.20635 126.996 1.13576 127.079L0.462006 126.3C0.526173 126.229 0.625633 126.143 0.760384 126.04C0.901553 125.931 1.06839 125.828 1.26089 125.732C1.45981 125.636 1.6844 125.555 1.93465 125.491C2.1849 125.421 2.45761 125.385 2.75278 125.385C3.06079 125.385 3.33671 125.427 3.58054 125.51C3.8308 125.587 4.03934 125.697 4.20618 125.838C4.37943 125.979 4.51097 126.149 4.60081 126.348C4.69064 126.54 4.73556 126.749 4.73556 126.973C4.73556 127.211 4.68743 127.423 4.59118 127.609C4.49493 127.795 4.37622 127.958 4.23505 128.1C4.09388 128.241 3.93988 128.363 3.77305 128.465C3.60621 128.562 3.45221 128.645 3.31104 128.716C3.17629 128.78 3.02229 128.857 2.84903 128.947C2.6822 129.03 2.51857 129.13 2.35815 129.245C2.19774 129.354 2.05336 129.473 1.92502 129.601C1.79669 129.729 1.70685 129.871 1.65552 130.025H4.84143V130.978H0.385005ZM10.7015 128.157C10.7015 128.581 10.6373 128.972 10.509 129.332C10.3871 129.685 10.2138 129.993 9.98922 130.256C9.77105 130.512 9.51117 130.714 9.20958 130.862C8.91441 131.003 8.59037 131.074 8.23745 131.074C7.88452 131.074 7.55727 131.003 7.25568 130.862C6.9541 130.714 6.69422 130.512 6.47605 130.256C6.25788 129.993 6.08463 129.685 5.95629 129.332C5.83437 128.972 5.77342 128.581 5.77342 128.157C5.77342 127.734 5.83437 127.346 5.95629 126.993C6.08463 126.633 6.25788 126.325 6.47605 126.069C6.69422 125.806 6.9541 125.6 7.25568 125.453C7.55727 125.305 7.88452 125.231 8.23745 125.231C8.59037 125.231 8.91441 125.305 9.20958 125.453C9.51117 125.6 9.77105 125.806 9.98922 126.069C10.2138 126.325 10.3871 126.633 10.509 126.993C10.6373 127.346 10.7015 127.734 10.7015 128.157ZM9.62346 128.157C9.62346 127.869 9.58817 127.606 9.51759 127.368C9.45342 127.131 9.35717 126.925 9.22883 126.752C9.10691 126.579 8.95933 126.447 8.78608 126.357C8.61924 126.261 8.43636 126.213 8.23745 126.213C8.02569 126.213 7.83319 126.261 7.65994 126.357C7.4931 126.447 7.34552 126.579 7.21718 126.752C7.09526 126.925 6.99901 127.131 6.92843 127.368C6.86426 127.606 6.83218 127.869 6.83218 128.157C6.83218 128.446 6.86426 128.709 6.92843 128.947C6.99901 129.184 7.09526 129.389 7.21718 129.563C7.34552 129.729 7.4931 129.861 7.65994 129.957C7.83319 130.047 8.02569 130.092 8.23745 130.092C8.43636 130.092 8.61924 130.047 8.78608 129.957C8.95933 129.861 9.10691 129.729 9.22883 129.563C9.35717 129.389 9.45342 129.184 9.51759 128.947C9.58817 128.709 9.62346 128.446 9.62346 128.157Z" fill="white" fill-opacity="0.7"/>
<path d="M3.16666 102.519V100.989H0.211753V100.046L3.50354 95.8011H4.22543V100.026H5.07244V100.989H4.22543V102.519H3.16666ZM1.28977 100.026H3.28216V97.4181L1.28977 100.026ZM10.8519 98.4768C10.8519 98.9003 10.7877 99.2918 10.6594 99.6511C10.5374 100.004 10.3642 100.312 10.1396 100.575C9.92144 100.832 9.66156 101.034 9.35997 101.181C9.0648 101.323 8.74076 101.393 8.38784 101.393C8.03492 101.393 7.70766 101.323 7.40608 101.181C7.10449 101.034 6.84461 100.832 6.62644 100.575C6.40827 100.312 6.23502 100.004 6.10669 99.6511C5.98477 99.2918 5.92381 98.9003 5.92381 98.4768C5.92381 98.0533 5.98477 97.6651 6.10669 97.3122C6.23502 96.9529 6.40827 96.6449 6.62644 96.3882C6.84461 96.1251 7.10449 95.9198 7.40608 95.7722C7.70766 95.6246 8.03492 95.5508 8.38784 95.5508C8.74076 95.5508 9.0648 95.6246 9.35997 95.7722C9.66156 95.9198 9.92144 96.1251 10.1396 96.3882C10.3642 96.6449 10.5374 96.9529 10.6594 97.3122C10.7877 97.6651 10.8519 98.0533 10.8519 98.4768ZM9.77385 98.4768C9.77385 98.1881 9.73856 97.925 9.66798 97.6876C9.60381 97.4502 9.50756 97.2448 9.37923 97.0716C9.25731 96.8983 9.10972 96.7668 8.93647 96.6769C8.76963 96.5807 8.58676 96.5326 8.38784 96.5326C8.17609 96.5326 7.98358 96.5807 7.81033 96.6769C7.6435 96.7668 7.49591 96.8983 7.36758 97.0716C7.24566 97.2448 7.14941 97.4502 7.07882 97.6876C7.01465 97.925 6.98257 98.1881 6.98257 98.4768C6.98257 98.7656 7.01465 99.0287 7.07882 99.2661C7.14941 99.5035 7.24566 99.7089 7.36758 99.8821C7.49591 100.049 7.6435 100.18 7.81033 100.277C7.98358 100.367 8.17609 100.411 8.38784 100.411C8.58676 100.411 8.76963 100.367 8.93647 100.277C9.10972 100.18 9.25731 100.049 9.37923 99.8821C9.50756 99.7089 9.60381 99.5035 9.66798 99.2661C9.73856 99.0287 9.77385 98.7656 9.77385 98.4768Z" fill="white" fill-opacity="0.7"/>
<path d="M5.43198 70.3388C5.43198 70.6661 5.36782 70.9741 5.23948 71.2628C5.11756 71.5516 4.94431 71.8051 4.71973 72.0232C4.50156 72.235 4.24168 72.4018 3.94009 72.5237C3.6385 72.6456 3.31446 72.7066 2.96795 72.7066C2.58937 72.7066 2.24607 72.6392 1.93807 72.5045C1.63006 72.3633 1.36698 72.1644 1.14881 71.9077C0.930638 71.6446 0.760594 71.327 0.638676 70.9548C0.523174 70.5762 0.465424 70.1495 0.465424 69.6747C0.465424 69.0202 0.526383 68.4491 0.648301 67.9614C0.776636 67.4673 0.953096 67.0567 1.17768 66.7294C1.40227 66.3957 1.67498 66.1455 1.99582 65.9786C2.31665 65.8118 2.67599 65.7284 3.07383 65.7284C3.51017 65.7284 3.90801 65.8279 4.26734 66.0268C4.6331 66.2257 4.92827 66.508 5.15286 66.8738L4.52722 67.5283C4.37964 67.2588 4.1743 67.047 3.91122 66.893C3.65455 66.7326 3.369 66.6524 3.05458 66.6524C2.57332 66.6524 2.18832 66.8577 1.89957 67.2684C1.61723 67.6727 1.46964 68.2438 1.45681 68.9817C1.59798 68.6929 1.80973 68.4651 2.09207 68.2983C2.37441 68.1315 2.69845 68.048 3.06421 68.048C3.39788 68.048 3.70909 68.109 3.99784 68.2309C4.28659 68.3464 4.53685 68.5068 4.7486 68.7122C4.96035 68.9175 5.12719 69.1614 5.24911 69.4437C5.37102 69.7196 5.43198 70.018 5.43198 70.3388ZM2.96795 71.8018C3.16687 71.8018 3.35296 71.7633 3.52621 71.6863C3.70588 71.6093 3.85988 71.5035 3.98822 71.3687C4.12297 71.234 4.22884 71.08 4.30585 70.9067C4.38285 70.727 4.42135 70.5377 4.42135 70.3388C4.42135 70.1399 4.38285 69.9538 4.30585 69.7806C4.22884 69.6073 4.12297 69.4565 3.98822 69.3282C3.85988 69.1934 3.70588 69.0876 3.52621 69.0106C3.35296 68.9336 3.16687 68.8951 2.96795 68.8951C2.76903 68.8951 2.57974 68.9336 2.40007 69.0106C2.22682 69.0876 2.07282 69.1934 1.93807 69.3282C1.80973 69.4565 1.70706 69.6073 1.63006 69.7806C1.55306 69.9538 1.51456 70.1399 1.51456 70.3388C1.51456 70.5377 1.55306 70.727 1.63006 70.9067C1.70706 71.08 1.80973 71.234 1.93807 71.3687C2.07282 71.5035 2.22682 71.6093 2.40007 71.6863C2.57974 71.7633 2.76903 71.8018 2.96795 71.8018ZM11.2689 69.7902C11.2689 70.2137 11.2047 70.6051 11.0764 70.9645C10.9544 71.3174 10.7812 71.6254 10.5566 71.8885C10.3384 72.1451 10.0786 72.3473 9.77697 72.4949C9.4818 72.636 9.15776 72.7066 8.80483 72.7066C8.45191 72.7066 8.12466 72.636 7.82307 72.4949C7.52149 72.3473 7.26161 72.1451 7.04344 71.8885C6.82527 71.6254 6.65202 71.3174 6.52368 70.9645C6.40176 70.6051 6.34081 70.2137 6.34081 69.7902C6.34081 69.3667 6.40176 68.9785 6.52368 68.6256C6.65202 68.2662 6.82527 67.9582 7.04344 67.7015C7.26161 67.4385 7.52149 67.2331 7.82307 67.0855C8.12466 66.9379 8.45191 66.8642 8.80483 66.8642C9.15776 66.8642 9.4818 66.9379 9.77697 67.0855C10.0786 67.2331 10.3384 67.4385 10.5566 67.7015C10.7812 67.9582 10.9544 68.2662 11.0764 68.6256C11.2047 68.9785 11.2689 69.3667 11.2689 69.7902ZM10.1909 69.7902C10.1909 69.5014 10.1556 69.2384 10.085 69.0009C10.0208 68.7635 9.92456 68.5582 9.79622 68.3849C9.6743 68.2117 9.52672 68.0801 9.35347 67.9903C9.18663 67.894 9.00375 67.8459 8.80483 67.8459C8.59308 67.8459 8.40058 67.894 8.22733 67.9903C8.06049 68.0801 7.91291 68.2117 7.78457 68.3849C7.66265 68.5582 7.5664 68.7635 7.49582 69.0009C7.43165 69.2384 7.39957 69.5014 7.39957 69.7902C7.39957 70.0789 7.43165 70.342 7.49582 70.5795C7.5664 70.8169 7.66265 71.0222 7.78457 71.1955C7.91291 71.3623 8.06049 71.4938 8.22733 71.5901C8.40058 71.6799 8.59308 71.7248 8.80483 71.7248C9.00375 71.7248 9.18663 71.6799 9.35347 71.5901C9.52672 71.4938 9.6743 71.3623 9.79622 71.1955C9.92456 71.0222 10.0208 70.8169 10.085 70.5795C10.1556 70.342 10.1909 70.0789 10.1909 69.7902Z" fill="white" fill-opacity="0.7"/>
<path d="M144.02 208.39C143.94 208.297 143.833 208.207 143.7 208.12C143.567 208.033 143.417 207.957 143.25 207.89C143.083 207.817 142.9 207.76 142.7 207.72C142.507 207.673 142.303 207.65 142.09 207.65C141.537 207.65 141.13 207.753 140.87 207.96C140.617 208.167 140.49 208.45 140.49 208.81C140.49 209.003 140.527 209.163 140.6 209.29C140.673 209.417 140.787 209.527 140.94 209.62C141.1 209.707 141.297 209.783 141.53 209.85C141.763 209.917 142.04 209.987 142.36 210.06C142.727 210.14 143.057 210.233 143.35 210.34C143.65 210.44 143.903 210.567 144.11 210.72C144.323 210.873 144.483 211.06 144.59 211.28C144.703 211.5 144.76 211.77 144.76 212.09C144.76 212.43 144.693 212.727 144.56 212.98C144.427 213.227 144.243 213.433 144.01 213.6C143.783 213.76 143.513 213.88 143.2 213.96C142.887 214.033 142.547 214.07 142.18 214.07C141.633 214.07 141.113 213.987 140.62 213.82C140.133 213.647 139.69 213.397 139.29 213.07L139.72 212.31C139.827 212.423 139.963 212.537 140.13 212.65C140.303 212.763 140.497 212.867 140.71 212.96C140.93 213.047 141.163 213.12 141.41 213.18C141.663 213.233 141.927 213.26 142.2 213.26C142.707 213.26 143.1 213.17 143.38 212.99C143.66 212.81 143.8 212.54 143.8 212.18C143.8 211.98 143.753 211.813 143.66 211.68C143.573 211.54 143.443 211.42 143.27 211.32C143.097 211.22 142.88 211.133 142.62 211.06C142.367 210.98 142.077 210.9 141.75 210.82C141.39 210.733 141.073 210.64 140.8 210.54C140.527 210.44 140.297 210.32 140.11 210.18C139.93 210.04 139.793 209.87 139.7 209.67C139.607 209.47 139.56 209.23 139.56 208.95C139.56 208.61 139.623 208.31 139.75 208.05C139.877 207.79 140.053 207.57 140.28 207.39C140.507 207.21 140.777 207.077 141.09 206.99C141.403 206.897 141.743 206.85 142.11 206.85C142.59 206.85 143.023 206.923 143.41 207.07C143.797 207.217 144.14 207.413 144.44 207.66L144.02 208.39ZM148.406 213.74C148.353 213.767 148.283 213.8 148.196 213.84C148.109 213.873 148.009 213.91 147.896 213.95C147.789 213.983 147.669 214.01 147.536 214.03C147.409 214.057 147.276 214.07 147.136 214.07C146.816 214.07 146.539 213.983 146.306 213.81C146.073 213.63 145.956 213.353 145.956 212.98V209.47H145.246V208.78H145.956V207.04H146.836V208.78H148.006V209.47H146.836V212.71C146.849 212.903 146.913 213.043 147.026 213.13C147.139 213.217 147.273 213.26 147.426 213.26C147.599 213.26 147.756 213.233 147.896 213.18C148.043 213.12 148.143 213.073 148.196 213.04L148.406 213.74ZM150.562 214.1C150.315 214.1 150.085 214.06 149.872 213.98C149.658 213.893 149.472 213.777 149.312 213.63C149.158 213.483 149.035 213.313 148.942 213.12C148.855 212.92 148.812 212.703 148.812 212.47C148.812 212.23 148.865 212.013 148.972 211.82C149.078 211.62 149.228 211.45 149.422 211.31C149.622 211.17 149.855 211.06 150.122 210.98C150.395 210.9 150.692 210.86 151.012 210.86C151.265 210.86 151.522 210.883 151.782 210.93C152.042 210.977 152.272 211.04 152.472 211.12V210.7C152.472 210.273 152.352 209.94 152.112 209.7C151.872 209.453 151.532 209.33 151.092 209.33C150.565 209.33 150.012 209.533 149.432 209.94L149.142 209.37C149.815 208.917 150.492 208.69 151.172 208.69C151.858 208.69 152.392 208.873 152.772 209.24C153.158 209.607 153.352 210.123 153.352 210.79V212.92C153.352 213.127 153.445 213.233 153.632 213.24V214C153.538 214.013 153.462 214.023 153.402 214.03C153.342 214.037 153.278 214.04 153.212 214.04C153.038 214.04 152.898 213.99 152.792 213.89C152.692 213.783 152.632 213.657 152.612 213.51L152.592 213.14C152.358 213.453 152.062 213.693 151.702 213.86C151.348 214.02 150.968 214.1 150.562 214.1ZM150.792 213.44C151.105 213.44 151.395 213.383 151.662 213.27C151.935 213.15 152.142 212.993 152.282 212.8C152.408 212.673 152.472 212.543 152.472 212.41V211.64C152.045 211.473 151.602 211.39 151.142 211.39C150.702 211.39 150.342 211.483 150.062 211.67C149.788 211.857 149.652 212.1 149.652 212.4C149.652 212.547 149.678 212.683 149.732 212.81C149.792 212.937 149.872 213.047 149.972 213.14C150.078 213.233 150.202 213.307 150.342 213.36C150.482 213.413 150.632 213.44 150.792 213.44ZM157.42 213.74C157.366 213.767 157.296 213.8 157.21 213.84C157.123 213.873 157.023 213.91 156.91 213.95C156.803 213.983 156.683 214.01 156.55 214.03C156.423 214.057 156.29 214.07 156.15 214.07C155.83 214.07 155.553 213.983 155.32 213.81C155.086 213.63 154.97 213.353 154.97 212.98V209.47H154.26V208.78H154.97V207.04H155.85V208.78H157.02V209.47H155.85V212.71C155.863 212.903 155.926 213.043 156.04 213.13C156.153 213.217 156.286 213.26 156.44 213.26C156.613 213.26 156.77 213.233 156.91 213.18C157.056 213.12 157.156 213.073 157.21 213.04L157.42 213.74ZM158.235 214V208.78H159.115V214H158.235ZM158.235 207.8V206.7H159.115V207.8H158.235ZM162.37 214.1C161.95 214.1 161.537 214.037 161.13 213.91C160.723 213.777 160.373 213.587 160.08 213.34L160.46 212.75C160.767 212.983 161.073 213.16 161.38 213.28C161.687 213.393 162.01 213.45 162.35 213.45C162.73 213.45 163.03 213.377 163.25 213.23C163.477 213.077 163.59 212.863 163.59 212.59C163.59 212.463 163.56 212.357 163.5 212.27C163.44 212.177 163.35 212.097 163.23 212.03C163.11 211.963 162.957 211.903 162.77 211.85C162.583 211.797 162.367 211.74 162.12 211.68C161.807 211.6 161.537 211.523 161.31 211.45C161.083 211.377 160.897 211.29 160.75 211.19C160.603 211.09 160.497 210.97 160.43 210.83C160.363 210.69 160.33 210.517 160.33 210.31C160.33 210.05 160.38 209.82 160.48 209.62C160.587 209.413 160.73 209.243 160.91 209.11C161.09 208.97 161.3 208.867 161.54 208.8C161.787 208.727 162.05 208.69 162.33 208.69C162.723 208.69 163.09 208.753 163.43 208.88C163.77 209.007 164.057 209.173 164.29 209.38L163.89 209.91C163.67 209.717 163.423 209.573 163.15 209.48C162.877 209.38 162.597 209.33 162.31 209.33C161.99 209.33 161.717 209.4 161.49 209.54C161.27 209.673 161.16 209.89 161.16 210.19C161.16 210.31 161.18 210.41 161.22 210.49C161.267 210.57 161.34 210.64 161.44 210.7C161.54 210.76 161.667 210.813 161.82 210.86C161.98 210.907 162.17 210.957 162.39 211.01C162.737 211.09 163.037 211.173 163.29 211.26C163.55 211.34 163.763 211.437 163.93 211.55C164.103 211.663 164.23 211.797 164.31 211.95C164.397 212.103 164.44 212.29 164.44 212.51C164.44 212.997 164.253 213.383 163.88 213.67C163.507 213.957 163.003 214.1 162.37 214.1ZM168.181 213.74C168.128 213.767 168.058 213.8 167.971 213.84C167.885 213.873 167.785 213.91 167.671 213.95C167.565 213.983 167.445 214.01 167.311 214.03C167.185 214.057 167.051 214.07 166.911 214.07C166.591 214.07 166.315 213.983 166.081 213.81C165.848 213.63 165.731 213.353 165.731 212.98V209.47H165.021V208.78H165.731V207.04H166.611V208.78H167.781V209.47H166.611V212.71C166.625 212.903 166.688 213.043 166.801 213.13C166.915 213.217 167.048 213.26 167.201 213.26C167.375 213.26 167.531 213.233 167.671 213.18C167.818 213.12 167.918 213.073 167.971 213.04L168.181 213.74ZM168.997 214V208.78H169.877V214H168.997ZM168.997 207.8V206.7H169.877V207.8H168.997ZM170.952 211.38C170.952 211.013 171.015 210.667 171.142 210.34C171.268 210.013 171.448 209.73 171.682 209.49C171.915 209.243 172.192 209.05 172.512 208.91C172.838 208.763 173.202 208.69 173.602 208.69C174.122 208.69 174.568 208.807 174.942 209.04C175.322 209.267 175.608 209.573 175.802 209.96L174.942 210.23C174.808 209.983 174.622 209.793 174.382 209.66C174.142 209.52 173.875 209.45 173.582 209.45C173.342 209.45 173.115 209.5 172.902 209.6C172.688 209.693 172.505 209.827 172.352 210C172.198 210.173 172.075 210.377 171.982 210.61C171.895 210.843 171.852 211.1 171.852 211.38C171.852 211.653 171.898 211.91 171.992 212.15C172.085 212.39 172.208 212.6 172.362 212.78C172.522 212.953 172.705 213.09 172.912 213.19C173.125 213.29 173.352 213.34 173.592 213.34C173.745 213.34 173.895 213.32 174.042 213.28C174.195 213.233 174.332 213.173 174.452 213.1C174.578 213.027 174.688 212.943 174.782 212.85C174.875 212.75 174.942 212.643 174.982 212.53L175.842 212.79C175.762 212.983 175.648 213.16 175.502 213.32C175.362 213.48 175.195 213.617 175.002 213.73C174.808 213.843 174.592 213.933 174.352 214C174.118 214.067 173.872 214.1 173.612 214.1C173.218 214.1 172.858 214.027 172.532 213.88C172.205 213.733 171.925 213.537 171.692 213.29C171.458 213.043 171.275 212.757 171.142 212.43C171.015 212.097 170.952 211.747 170.952 211.38ZM178.179 214.1C177.932 214.1 177.702 214.06 177.489 213.98C177.276 213.893 177.089 213.777 176.929 213.63C176.776 213.483 176.652 213.313 176.559 213.12C176.472 212.92 176.429 212.703 176.429 212.47C176.429 212.23 176.482 212.013 176.589 211.82C176.696 211.62 176.846 211.45 177.039 211.31C177.239 211.17 177.472 211.06 177.739 210.98C178.012 210.9 178.309 210.86 178.629 210.86C178.882 210.86 179.139 210.883 179.399 210.93C179.659 210.977 179.889 211.04 180.089 211.12V210.7C180.089 210.273 179.969 209.94 179.729 209.7C179.489 209.453 179.149 209.33 178.709 209.33C178.182 209.33 177.629 209.533 177.049 209.94L176.759 209.37C177.432 208.917 178.109 208.69 178.789 208.69C179.476 208.69 180.009 208.873 180.389 209.24C180.776 209.607 180.969 210.123 180.969 210.79V212.92C180.969 213.127 181.062 213.233 181.249 213.24V214C181.156 214.013 181.079 214.023 181.019 214.03C180.959 214.037 180.896 214.04 180.829 214.04C180.656 214.04 180.516 213.99 180.409 213.89C180.309 213.783 180.249 213.657 180.229 213.51L180.209 213.14C179.976 213.453 179.679 213.693 179.319 213.86C178.966 214.02 178.586 214.1 178.179 214.1ZM178.409 213.44C178.722 213.44 179.012 213.383 179.279 213.27C179.552 213.15 179.759 212.993 179.899 212.8C180.026 212.673 180.089 212.543 180.089 212.41V211.64C179.662 211.473 179.219 211.39 178.759 211.39C178.319 211.39 177.959 211.483 177.679 211.67C177.406 211.857 177.269 212.1 177.269 212.4C177.269 212.547 177.296 212.683 177.349 212.81C177.409 212.937 177.489 213.047 177.589 213.14C177.696 213.233 177.819 213.307 177.959 213.36C178.099 213.413 178.249 213.44 178.409 213.44ZM182.396 206.7H183.276V212.65C183.276 212.843 183.326 212.997 183.426 213.11C183.533 213.217 183.679 213.27 183.866 213.27C183.939 213.27 184.026 213.26 184.126 213.24C184.226 213.213 184.319 213.183 184.406 213.15L184.546 213.86C184.399 213.92 184.226 213.97 184.026 214.01C183.826 214.05 183.649 214.07 183.496 214.07C183.156 214.07 182.886 213.973 182.686 213.78C182.493 213.587 182.396 213.317 182.396 212.97V206.7ZM190.577 206.9L185.777 214H184.797L189.587 206.9H190.577ZM196.525 213.2V214H191.705V206.9H196.435V207.7H192.605V210H195.935V210.75H192.605V213.2H196.525ZM197.153 211.38C197.153 211.013 197.216 210.667 197.343 210.34C197.47 210.013 197.65 209.73 197.883 209.49C198.116 209.243 198.393 209.05 198.713 208.91C199.04 208.763 199.403 208.69 199.803 208.69C200.323 208.69 200.77 208.807 201.143 209.04C201.523 209.267 201.81 209.573 202.003 209.96L201.143 210.23C201.01 209.983 200.823 209.793 200.583 209.66C200.343 209.52 200.076 209.45 199.783 209.45C199.543 209.45 199.316 209.5 199.103 209.6C198.89 209.693 198.706 209.827 198.553 210C198.4 210.173 198.276 210.377 198.183 210.61C198.096 210.843 198.053 211.1 198.053 211.38C198.053 211.653 198.1 211.91 198.193 212.15C198.286 212.39 198.41 212.6 198.563 212.78C198.723 212.953 198.906 213.09 199.113 213.19C199.326 213.29 199.553 213.34 199.793 213.34C199.946 213.34 200.096 213.32 200.243 213.28C200.396 213.233 200.533 213.173 200.653 213.1C200.78 213.027 200.89 212.943 200.983 212.85C201.076 212.75 201.143 212.643 201.183 212.53L202.043 212.79C201.963 212.983 201.85 213.16 201.703 213.32C201.563 213.48 201.396 213.617 201.203 213.73C201.01 213.843 200.793 213.933 200.553 214C200.32 214.067 200.073 214.1 199.813 214.1C199.42 214.1 199.06 214.027 198.733 213.88C198.406 213.733 198.126 213.537 197.893 213.29C197.66 213.043 197.476 212.757 197.343 212.43C197.216 212.097 197.153 211.747 197.153 211.38ZM205.271 214.1C204.878 214.1 204.518 214.027 204.191 213.88C203.871 213.733 203.595 213.537 203.361 213.29C203.135 213.043 202.958 212.757 202.831 212.43C202.705 212.103 202.641 211.76 202.641 211.4C202.641 211.033 202.705 210.687 202.831 210.36C202.965 210.033 203.145 209.747 203.371 209.5C203.605 209.253 203.881 209.057 204.201 208.91C204.528 208.763 204.885 208.69 205.271 208.69C205.658 208.69 206.015 208.763 206.341 208.91C206.668 209.057 206.945 209.253 207.171 209.5C207.405 209.747 207.585 210.033 207.711 210.36C207.845 210.687 207.911 211.033 207.911 211.4C207.911 211.76 207.848 212.103 207.721 212.43C207.595 212.757 207.415 213.043 207.181 213.29C206.948 213.537 206.668 213.733 206.341 213.88C206.021 214.027 205.665 214.1 205.271 214.1ZM203.541 211.41C203.541 211.683 203.585 211.937 203.671 212.17C203.765 212.403 203.888 212.607 204.041 212.78C204.201 212.953 204.385 213.09 204.591 213.19C204.805 213.29 205.031 213.34 205.271 213.34C205.511 213.34 205.735 213.29 205.941 213.19C206.155 213.09 206.341 212.953 206.501 212.78C206.661 212.6 206.785 212.393 206.871 212.16C206.965 211.92 207.011 211.663 207.011 211.39C207.011 211.123 206.965 210.873 206.871 210.64C206.785 210.4 206.661 210.193 206.501 210.02C206.341 209.84 206.155 209.7 205.941 209.6C205.735 209.5 205.511 209.45 205.271 209.45C205.031 209.45 204.805 209.503 204.591 209.61C204.385 209.71 204.201 209.85 204.041 210.03C203.888 210.203 203.765 210.41 203.671 210.65C203.585 210.883 203.541 211.137 203.541 211.41ZM213.508 214H212.628V211.08C212.628 210.52 212.541 210.113 212.368 209.86C212.201 209.607 211.944 209.48 211.598 209.48C211.418 209.48 211.238 209.517 211.058 209.59C210.878 209.657 210.708 209.75 210.548 209.87C210.388 209.99 210.248 210.133 210.128 210.3C210.008 210.467 209.918 210.65 209.858 210.85V214H208.978V208.78H209.778V209.9C209.984 209.533 210.281 209.24 210.668 209.02C211.061 208.8 211.488 208.69 211.948 208.69C212.248 208.69 212.498 208.747 212.698 208.86C212.898 208.967 213.058 209.12 213.178 209.32C213.298 209.513 213.381 209.743 213.428 210.01C213.481 210.277 213.508 210.567 213.508 210.88V214ZM217.156 214.1C216.763 214.1 216.403 214.027 216.076 213.88C215.756 213.733 215.479 213.537 215.246 213.29C215.019 213.043 214.843 212.757 214.716 212.43C214.589 212.103 214.526 211.76 214.526 211.4C214.526 211.033 214.589 210.687 214.716 210.36C214.849 210.033 215.029 209.747 215.256 209.5C215.489 209.253 215.766 209.057 216.086 208.91C216.413 208.763 216.769 208.69 217.156 208.69C217.543 208.69 217.899 208.763 218.226 208.91C218.553 209.057 218.829 209.253 219.056 209.5C219.289 209.747 219.469 210.033 219.596 210.36C219.729 210.687 219.796 211.033 219.796 211.4C219.796 211.76 219.733 212.103 219.606 212.43C219.479 212.757 219.299 213.043 219.066 213.29C218.833 213.537 218.553 213.733 218.226 213.88C217.906 214.027 217.549 214.1 217.156 214.1ZM215.426 211.41C215.426 211.683 215.469 211.937 215.556 212.17C215.649 212.403 215.773 212.607 215.926 212.78C216.086 212.953 216.269 213.09 216.476 213.19C216.689 213.29 216.916 213.34 217.156 213.34C217.396 213.34 217.619 213.29 217.826 213.19C218.039 213.09 218.226 212.953 218.386 212.78C218.546 212.6 218.669 212.393 218.756 212.16C218.849 211.92 218.896 211.663 218.896 211.39C218.896 211.123 218.849 210.873 218.756 210.64C218.669 210.4 218.546 210.193 218.386 210.02C218.226 209.84 218.039 209.7 217.826 209.6C217.619 209.5 217.396 209.45 217.156 209.45C216.916 209.45 216.689 209.503 216.476 209.61C216.269 209.71 216.086 209.85 215.926 210.03C215.773 210.203 215.649 210.41 215.556 210.65C215.469 210.883 215.426 211.137 215.426 211.41ZM228.732 214H227.852V211.08C227.852 210.533 227.762 210.13 227.582 209.87C227.409 209.61 227.149 209.48 226.802 209.48C226.442 209.48 226.119 209.61 225.832 209.87C225.552 210.123 225.352 210.453 225.232 210.86V214H224.352V211.08C224.352 210.52 224.266 210.113 224.092 209.86C223.919 209.607 223.659 209.48 223.312 209.48C222.959 209.48 222.639 209.607 222.352 209.86C222.066 210.107 221.862 210.437 221.742 210.85V214H220.862V208.78H221.662V209.9C221.876 209.513 222.152 209.217 222.492 209.01C222.832 208.797 223.216 208.69 223.642 208.69C224.082 208.69 224.429 208.81 224.682 209.05C224.942 209.283 225.102 209.587 225.162 209.96C225.629 209.113 226.292 208.69 227.152 208.69C227.452 208.69 227.702 208.747 227.902 208.86C228.109 208.967 228.272 209.12 228.392 209.32C228.512 209.513 228.599 209.743 228.652 210.01C228.706 210.277 228.732 210.567 228.732 210.88V214ZM232.411 214.1C232.017 214.1 231.657 214.03 231.331 213.89C231.004 213.743 230.724 213.547 230.491 213.3C230.257 213.053 230.074 212.767 229.941 212.44C229.814 212.107 229.751 211.757 229.751 211.39C229.751 211.023 229.814 210.677 229.941 210.35C230.074 210.023 230.257 209.737 230.491 209.49C230.731 209.243 231.014 209.05 231.341 208.91C231.667 208.763 232.027 208.69 232.421 208.69C232.814 208.69 233.171 208.763 233.491 208.91C233.817 209.057 234.094 209.253 234.321 209.5C234.547 209.74 234.721 210.023 234.841 210.35C234.967 210.67 235.031 211.003 235.031 211.35C235.031 211.423 235.027 211.49 235.021 211.55C235.021 211.61 235.017 211.657 235.011 211.69H230.681C230.701 211.95 230.761 212.187 230.861 212.4C230.961 212.613 231.091 212.797 231.251 212.95C231.411 213.103 231.591 213.223 231.791 213.31C231.997 213.397 232.214 213.44 232.441 213.44C232.601 213.44 232.757 213.42 232.911 213.38C233.064 213.333 233.207 213.273 233.341 213.2C233.474 213.127 233.591 213.037 233.691 212.93C233.797 212.823 233.877 212.703 233.931 212.57L234.691 212.78C234.604 212.973 234.484 213.15 234.331 213.31C234.184 213.47 234.011 213.61 233.811 213.73C233.617 213.843 233.401 213.933 233.161 214C232.921 214.067 232.671 214.1 232.411 214.1ZM234.201 211.04C234.181 210.793 234.117 210.567 234.011 210.36C233.911 210.147 233.781 209.967 233.621 209.82C233.467 209.673 233.287 209.56 233.081 209.48C232.874 209.393 232.654 209.35 232.421 209.35C232.187 209.35 231.967 209.393 231.761 209.48C231.554 209.56 231.371 209.677 231.211 209.83C231.057 209.977 230.931 210.153 230.831 210.36C230.737 210.567 230.681 210.793 230.661 211.04H234.201ZM238.66 213.74C238.607 213.767 238.537 213.8 238.45 213.84C238.363 213.873 238.263 213.91 238.15 213.95C238.043 213.983 237.923 214.01 237.79 214.03C237.663 214.057 237.53 214.07 237.39 214.07C237.07 214.07 236.793 213.983 236.56 213.81C236.327 213.63 236.21 213.353 236.21 212.98V209.47H235.5V208.78H236.21V207.04H237.09V208.78H238.26V209.47H237.09V212.71C237.103 212.903 237.167 213.043 237.28 213.13C237.393 213.217 237.527 213.26 237.68 213.26C237.853 213.26 238.01 213.233 238.15 213.18C238.297 213.12 238.397 213.073 238.45 213.04L238.66 213.74ZM242.236 209.55C241.796 209.563 241.406 209.677 241.066 209.89C240.732 210.103 240.496 210.4 240.356 210.78V214H239.476V208.78H240.296V209.99C240.476 209.63 240.712 209.34 241.006 209.12C241.299 208.893 241.612 208.767 241.946 208.74C242.012 208.74 242.069 208.74 242.116 208.74C242.162 208.74 242.202 208.743 242.236 208.75V209.55ZM243.108 214V208.78H243.988V214H243.108ZM243.108 207.8V206.7H243.988V207.8H243.108ZM245.063 211.38C245.063 211.013 245.126 210.667 245.253 210.34C245.38 210.013 245.56 209.73 245.793 209.49C246.026 209.243 246.303 209.05 246.623 208.91C246.95 208.763 247.313 208.69 247.713 208.69C248.233 208.69 248.68 208.807 249.053 209.04C249.433 209.267 249.72 209.573 249.913 209.96L249.053 210.23C248.92 209.983 248.733 209.793 248.493 209.66C248.253 209.52 247.986 209.45 247.693 209.45C247.453 209.45 247.226 209.5 247.013 209.6C246.8 209.693 246.616 209.827 246.463 210C246.31 210.173 246.186 210.377 246.093 210.61C246.006 210.843 245.963 211.1 245.963 211.38C245.963 211.653 246.01 211.91 246.103 212.15C246.196 212.39 246.32 212.6 246.473 212.78C246.633 212.953 246.816 213.09 247.023 213.19C247.236 213.29 247.463 213.34 247.703 213.34C247.856 213.34 248.006 213.32 248.153 213.28C248.306 213.233 248.443 213.173 248.563 213.1C248.69 213.027 248.8 212.943 248.893 212.85C248.986 212.75 249.053 212.643 249.093 212.53L249.953 212.79C249.873 212.983 249.76 213.16 249.613 213.32C249.473 213.48 249.306 213.617 249.113 213.73C248.92 213.843 248.703 213.933 248.463 214C248.23 214.067 247.983 214.1 247.723 214.1C247.33 214.1 246.97 214.027 246.643 213.88C246.316 213.733 246.036 213.537 245.803 213.29C245.57 213.043 245.386 212.757 245.253 212.43C245.126 212.097 245.063 211.747 245.063 211.38ZM252.29 214.1C252.044 214.1 251.814 214.06 251.6 213.98C251.387 213.893 251.2 213.777 251.04 213.63C250.887 213.483 250.764 213.313 250.67 213.12C250.584 212.92 250.54 212.703 250.54 212.47C250.54 212.23 250.594 212.013 250.7 211.82C250.807 211.62 250.957 211.45 251.15 211.31C251.35 211.17 251.584 211.06 251.85 210.98C252.124 210.9 252.42 210.86 252.74 210.86C252.994 210.86 253.25 210.883 253.51 210.93C253.77 210.977 254 211.04 254.2 211.12V210.7C254.2 210.273 254.08 209.94 253.84 209.7C253.6 209.453 253.26 209.33 252.82 209.33C252.294 209.33 251.74 209.533 251.16 209.94L250.87 209.37C251.544 208.917 252.22 208.69 252.9 208.69C253.587 208.69 254.12 208.873 254.5 209.24C254.887 209.607 255.08 210.123 255.08 210.79V212.92C255.08 213.127 255.174 213.233 255.36 213.24V214C255.267 214.013 255.19 214.023 255.13 214.03C255.07 214.037 255.007 214.04 254.94 214.04C254.767 214.04 254.627 213.99 254.52 213.89C254.42 213.783 254.36 213.657 254.34 213.51L254.32 213.14C254.087 213.453 253.79 213.693 253.43 213.86C253.077 214.02 252.697 214.1 252.29 214.1ZM252.52 213.44C252.834 213.44 253.124 213.383 253.39 213.27C253.664 213.15 253.87 212.993 254.01 212.8C254.137 212.673 254.2 212.543 254.2 212.41V211.64C253.774 211.473 253.33 211.39 252.87 211.39C252.43 211.39 252.07 211.483 251.79 211.67C251.517 211.857 251.38 212.1 251.38 212.4C251.38 212.547 251.407 212.683 251.46 212.81C251.52 212.937 251.6 213.047 251.7 213.14C251.807 213.233 251.93 213.307 252.07 213.36C252.21 213.413 252.36 213.44 252.52 213.44ZM256.507 206.7H257.387V212.65C257.387 212.843 257.437 212.997 257.537 213.11C257.644 213.217 257.791 213.27 257.977 213.27C258.051 213.27 258.137 213.26 258.237 213.24C258.337 213.213 258.431 213.183 258.517 213.15L258.657 213.86C258.511 213.92 258.337 213.97 258.137 214.01C257.937 214.05 257.761 214.07 257.607 214.07C257.267 214.07 256.997 213.973 256.797 213.78C256.604 213.587 256.507 213.317 256.507 212.97V206.7ZM267.855 214V208.51L265.495 212.72H264.985L262.615 208.51V214H261.715V206.9H262.665L265.235 211.51L267.815 206.9H268.755V214H267.855ZM272.508 214.1C272.114 214.1 271.754 214.027 271.428 213.88C271.108 213.733 270.831 213.537 270.598 213.29C270.371 213.043 270.194 212.757 270.068 212.43C269.941 212.103 269.878 211.76 269.878 211.4C269.878 211.033 269.941 210.687 270.068 210.36C270.201 210.033 270.381 209.747 270.608 209.5C270.841 209.253 271.118 209.057 271.438 208.91C271.764 208.763 272.121 208.69 272.508 208.69C272.894 208.69 273.251 208.763 273.578 208.91C273.904 209.057 274.181 209.253 274.408 209.5C274.641 209.747 274.821 210.033 274.948 210.36C275.081 210.687 275.148 211.033 275.148 211.4C275.148 211.76 275.084 212.103 274.958 212.43C274.831 212.757 274.651 213.043 274.418 213.29C274.184 213.537 273.904 213.733 273.578 213.88C273.258 214.027 272.901 214.1 272.508 214.1ZM270.778 211.41C270.778 211.683 270.821 211.937 270.908 212.17C271.001 212.403 271.124 212.607 271.278 212.78C271.438 212.953 271.621 213.09 271.828 213.19C272.041 213.29 272.268 213.34 272.508 213.34C272.748 213.34 272.971 213.29 273.178 213.19C273.391 213.09 273.578 212.953 273.738 212.78C273.898 212.6 274.021 212.393 274.108 212.16C274.201 211.92 274.248 211.663 274.248 211.39C274.248 211.123 274.201 210.873 274.108 210.64C274.021 210.4 273.898 210.193 273.738 210.02C273.578 209.84 273.391 209.7 273.178 209.6C272.971 209.5 272.748 209.45 272.508 209.45C272.268 209.45 272.041 209.503 271.828 209.61C271.621 209.71 271.438 209.85 271.278 210.03C271.124 210.203 271.001 210.41 270.908 210.65C270.821 210.883 270.778 211.137 270.778 211.41ZM278.364 214.1C278.004 214.1 277.671 214.027 277.364 213.88C277.057 213.733 276.794 213.537 276.574 213.29C276.354 213.043 276.181 212.757 276.054 212.43C275.934 212.103 275.874 211.76 275.874 211.4C275.874 211.033 275.931 210.687 276.044 210.36C276.164 210.027 276.327 209.737 276.534 209.49C276.747 209.243 276.997 209.05 277.284 208.91C277.577 208.763 277.897 208.69 278.244 208.69C278.664 208.69 279.037 208.8 279.364 209.02C279.697 209.24 279.961 209.507 280.154 209.82V206.7H281.034V212.92C281.034 213.127 281.127 213.233 281.314 213.24V214C281.221 214.013 281.144 214.023 281.084 214.03C281.031 214.037 280.977 214.04 280.924 214.04C280.751 214.04 280.597 213.983 280.464 213.87C280.337 213.75 280.274 213.613 280.274 213.46V213.02C280.067 213.36 279.791 213.627 279.444 213.82C279.104 214.007 278.744 214.1 278.364 214.1ZM278.574 213.34C278.734 213.34 278.897 213.31 279.064 213.25C279.237 213.19 279.397 213.107 279.544 213C279.697 212.893 279.827 212.77 279.934 212.63C280.047 212.483 280.121 212.33 280.154 212.17V210.67C280.094 210.503 280.004 210.347 279.884 210.2C279.764 210.047 279.627 209.917 279.474 209.81C279.327 209.697 279.167 209.61 278.994 209.55C278.827 209.483 278.661 209.45 278.494 209.45C278.234 209.45 277.997 209.507 277.784 209.62C277.577 209.727 277.397 209.873 277.244 210.06C277.097 210.24 276.984 210.45 276.904 210.69C276.824 210.923 276.784 211.163 276.784 211.41C276.784 211.67 276.831 211.92 276.924 212.16C277.017 212.393 277.144 212.597 277.304 212.77C277.464 212.943 277.651 213.083 277.864 213.19C278.084 213.29 278.321 213.34 278.574 213.34ZM284.813 214.1C284.42 214.1 284.06 214.03 283.733 213.89C283.406 213.743 283.126 213.547 282.893 213.3C282.66 213.053 282.476 212.767 282.343 212.44C282.216 212.107 282.153 211.757 282.153 211.39C282.153 211.023 282.216 210.677 282.343 210.35C282.476 210.023 282.66 209.737 282.893 209.49C283.133 209.243 283.416 209.05 283.743 208.91C284.07 208.763 284.43 208.69 284.823 208.69C285.216 208.69 285.573 208.763 285.893 208.91C286.22 209.057 286.496 209.253 286.723 209.5C286.95 209.74 287.123 210.023 287.243 210.35C287.37 210.67 287.433 211.003 287.433 211.35C287.433 211.423 287.43 211.49 287.423 211.55C287.423 211.61 287.42 211.657 287.413 211.69H283.083C283.103 211.95 283.163 212.187 283.263 212.4C283.363 212.613 283.493 212.797 283.653 212.95C283.813 213.103 283.993 213.223 284.193 213.31C284.4 213.397 284.616 213.44 284.843 213.44C285.003 213.44 285.16 213.42 285.313 213.38C285.466 213.333 285.61 213.273 285.743 213.2C285.876 213.127 285.993 213.037 286.093 212.93C286.2 212.823 286.28 212.703 286.333 212.57L287.093 212.78C287.006 212.973 286.886 213.15 286.733 213.31C286.586 213.47 286.413 213.61 286.213 213.73C286.02 213.843 285.803 213.933 285.563 214C285.323 214.067 285.073 214.1 284.813 214.1ZM286.603 211.04C286.583 210.793 286.52 210.567 286.413 210.36C286.313 210.147 286.183 209.967 286.023 209.82C285.87 209.673 285.69 209.56 285.483 209.48C285.276 209.393 285.056 209.35 284.823 209.35C284.59 209.35 284.37 209.393 284.163 209.48C283.956 209.56 283.773 209.677 283.613 209.83C283.46 209.977 283.333 210.153 283.233 210.36C283.14 210.567 283.083 210.793 283.063 211.04H286.603ZM288.431 206.7H289.311V212.65C289.311 212.843 289.361 212.997 289.461 213.11C289.568 213.217 289.715 213.27 289.901 213.27C289.975 213.27 290.061 213.26 290.161 213.24C290.261 213.213 290.355 213.183 290.441 213.15L290.581 213.86C290.435 213.92 290.261 213.97 290.061 214.01C289.861 214.05 289.685 214.07 289.531 214.07C289.191 214.07 288.921 213.973 288.721 213.78C288.528 213.587 288.431 213.317 288.431 212.97V206.7ZM291.293 206.7H292.173V212.65C292.173 212.843 292.223 212.997 292.323 213.11C292.429 213.217 292.576 213.27 292.763 213.27C292.836 213.27 292.923 213.26 293.023 213.24C293.123 213.213 293.216 213.183 293.303 213.15L293.443 213.86C293.296 213.92 293.123 213.97 292.923 214.01C292.723 214.05 292.546 214.07 292.393 214.07C292.053 214.07 291.783 213.973 291.583 213.78C291.389 213.587 291.293 213.317 291.293 212.97V206.7ZM294.134 214V208.78H295.014V214H294.134ZM294.134 207.8V206.7H295.014V207.8H294.134ZM300.969 214H300.089V211.08C300.089 210.52 300.002 210.113 299.829 209.86C299.662 209.607 299.405 209.48 299.059 209.48C298.879 209.48 298.699 209.517 298.519 209.59C298.339 209.657 298.169 209.75 298.009 209.87C297.849 209.99 297.709 210.133 297.589 210.3C297.469 210.467 297.379 210.65 297.319 210.85V214H296.439V208.78H297.239V209.9C297.445 209.533 297.742 209.24 298.129 209.02C298.522 208.8 298.949 208.69 299.409 208.69C299.709 208.69 299.959 208.747 300.159 208.86C300.359 208.967 300.519 209.12 300.639 209.32C300.759 209.513 300.842 209.743 300.889 210.01C300.942 210.277 300.969 210.567 300.969 210.88V214ZM304.417 214.06C304.064 214.06 303.737 213.987 303.437 213.84C303.144 213.693 302.89 213.497 302.677 213.25C302.464 213.003 302.297 212.72 302.177 212.4C302.064 212.08 302.007 211.747 302.007 211.4C302.007 211.033 302.064 210.687 302.177 210.36C302.297 210.027 302.464 209.737 302.677 209.49C302.89 209.243 303.144 209.05 303.437 208.91C303.737 208.763 304.067 208.69 304.427 208.69C304.867 208.69 305.247 208.797 305.567 209.01C305.887 209.223 306.157 209.493 306.377 209.82V208.78H307.157V213.94C307.157 214.313 307.087 214.64 306.947 214.92C306.807 215.207 306.617 215.447 306.377 215.64C306.137 215.833 305.854 215.98 305.527 216.08C305.207 216.18 304.864 216.23 304.497 216.23C303.904 216.23 303.42 216.127 303.047 215.92C302.68 215.72 302.374 215.44 302.127 215.08L302.637 214.63C302.844 214.937 303.11 215.167 303.437 215.32C303.764 215.473 304.117 215.55 304.497 215.55C304.737 215.55 304.964 215.517 305.177 215.45C305.397 215.383 305.587 215.283 305.747 215.15C305.907 215.017 306.034 214.85 306.127 214.65C306.227 214.45 306.277 214.213 306.277 213.94V213.02C306.177 213.18 306.057 213.327 305.917 213.46C305.784 213.587 305.637 213.697 305.477 213.79C305.317 213.877 305.147 213.943 304.967 213.99C304.787 214.037 304.604 214.06 304.417 214.06ZM304.687 213.34C304.874 213.34 305.054 213.307 305.227 213.24C305.4 213.173 305.56 213.087 305.707 212.98C305.854 212.867 305.977 212.74 306.077 212.6C306.177 212.46 306.244 212.317 306.277 212.17V210.67C306.204 210.49 306.107 210.327 305.987 210.18C305.874 210.033 305.744 209.907 305.597 209.8C305.45 209.687 305.29 209.6 305.117 209.54C304.95 209.48 304.78 209.45 304.607 209.45C304.34 209.45 304.1 209.507 303.887 209.62C303.68 209.733 303.504 209.883 303.357 210.07C303.21 210.257 303.097 210.47 303.017 210.71C302.937 210.943 302.897 211.18 302.897 211.42C302.897 211.68 302.944 211.927 303.037 212.16C303.13 212.393 303.257 212.597 303.417 212.77C303.577 212.943 303.764 213.083 303.977 213.19C304.197 213.29 304.434 213.34 304.687 213.34Z" fill="#FFC600"/>
<path d="M5.33231 39.0349C5.33231 39.3429 5.26494 39.6252 5.13019 39.8819C5.00185 40.1322 4.82539 40.3471 4.60081 40.5268C4.37622 40.7065 4.11634 40.8444 3.82117 40.9407C3.526 41.0369 3.21158 41.0851 2.87791 41.0851C2.53782 41.0851 2.21699 41.0337 1.9154 40.9311C1.62023 40.822 1.36356 40.6744 1.14539 40.4883C0.92722 40.3022 0.753967 40.0808 0.625633 39.8242C0.503714 39.5675 0.442755 39.2884 0.442755 38.9868C0.442755 38.7879 0.478047 38.6018 0.548632 38.4285C0.619216 38.2553 0.70905 38.1013 0.818135 37.9665C0.933636 37.8254 1.06197 37.7034 1.20314 37.6008C1.34431 37.4981 1.48548 37.4147 1.62664 37.3505C1.36356 37.235 1.13897 37.0586 0.952887 36.8211C0.766801 36.5837 0.673758 36.3142 0.673758 36.0126C0.673758 35.7175 0.741134 35.4576 0.875886 35.233C1.01064 35.002 1.18389 34.8095 1.39564 34.6555C1.60739 34.4951 1.84481 34.3764 2.1079 34.2994C2.37099 34.2159 2.63087 34.1742 2.88754 34.1742C3.1442 34.1742 3.40408 34.2159 3.66717 34.2994C3.93667 34.3764 4.1773 34.4919 4.38905 34.6459C4.60722 34.7999 4.78368 34.9924 4.91843 35.2234C5.05319 35.4479 5.12056 35.7078 5.12056 36.003C5.12056 36.3046 5.02431 36.5773 4.83181 36.8211C4.64572 37.0586 4.41793 37.235 4.14843 37.3505C4.30243 37.4211 4.45001 37.5109 4.59118 37.62C4.73877 37.7227 4.8671 37.8478 4.97619 37.9954C5.08527 38.1366 5.1719 38.2938 5.23606 38.467C5.30023 38.6403 5.33231 38.8296 5.33231 39.0349ZM4.26393 38.9675C4.26393 38.7814 4.22222 38.6178 4.1388 38.4767C4.0618 38.3291 3.95592 38.2039 3.82117 38.1013C3.69284 37.9986 3.54525 37.9216 3.37842 37.8703C3.218 37.8189 3.05437 37.7933 2.88754 37.7933C2.71428 37.7933 2.54424 37.8221 2.3774 37.8799C2.21699 37.9312 2.07261 38.0082 1.94427 38.1109C1.82236 38.2136 1.7229 38.3387 1.64589 38.4863C1.56889 38.6274 1.53039 38.7879 1.53039 38.9675C1.53039 39.1472 1.56889 39.3108 1.64589 39.4584C1.72931 39.5996 1.83519 39.7215 1.96352 39.8242C2.09186 39.9204 2.23624 39.9974 2.39665 40.0552C2.56349 40.1065 2.73032 40.1322 2.89716 40.1322C3.07041 40.1322 3.23725 40.1033 3.39767 40.0455C3.5645 39.9878 3.71209 39.9076 3.84042 39.8049C3.96876 39.7022 4.07142 39.5803 4.14843 39.4392C4.22543 39.298 4.26393 39.1408 4.26393 38.9675ZM1.74215 36.0511C1.74215 36.2051 1.77744 36.3399 1.84802 36.4554C1.91861 36.5709 2.00844 36.6671 2.11753 36.7441C2.22661 36.8211 2.34853 36.8821 2.48328 36.927C2.61803 36.9655 2.75278 36.9848 2.88754 36.9848C3.02229 36.9848 3.15704 36.9655 3.29179 36.927C3.43296 36.8821 3.55808 36.8211 3.66717 36.7441C3.77625 36.6607 3.86609 36.5613 3.93667 36.4458C4.00726 36.3238 4.04255 36.1859 4.04255 36.0319C4.04255 35.8907 4.01047 35.7656 3.9463 35.6565C3.88213 35.541 3.7955 35.4447 3.68642 35.3677C3.58375 35.2843 3.46183 35.2234 3.32067 35.1849C3.18591 35.1399 3.04154 35.1175 2.88754 35.1175C2.73353 35.1175 2.58595 35.1399 2.44478 35.1849C2.31003 35.2298 2.18811 35.2939 2.07903 35.3774C1.97636 35.4544 1.89294 35.5506 1.82877 35.6661C1.77102 35.7816 1.74215 35.91 1.74215 36.0511ZM11.1997 38.1879C11.1997 38.6114 11.1355 39.0028 11.0071 39.3622C10.8852 39.7151 10.712 40.0231 10.4874 40.2862C10.2692 40.5428 10.0093 40.745 9.70776 40.8926C9.41259 41.0337 9.08854 41.1043 8.73562 41.1043C8.3827 41.1043 8.05545 41.0337 7.75386 40.8926C7.45227 40.745 7.19239 40.5428 6.97422 40.2862C6.75605 40.0231 6.5828 39.7151 6.45447 39.3622C6.33255 39.0028 6.27159 38.6114 6.27159 38.1879C6.27159 37.7644 6.33255 37.3762 6.45447 37.0233C6.5828 36.6639 6.75605 36.3559 6.97422 36.0992C7.19239 35.8362 7.45227 35.6308 7.75386 35.4832C8.05545 35.3357 8.3827 35.2619 8.73562 35.2619C9.08854 35.2619 9.41259 35.3357 9.70776 35.4832C10.0093 35.6308 10.2692 35.8362 10.4874 36.0992C10.712 36.3559 10.8852 36.6639 11.0071 37.0233C11.1355 37.3762 11.1997 37.7644 11.1997 38.1879ZM10.1216 38.1879C10.1216 37.8991 10.0863 37.6361 10.0158 37.3986C9.95159 37.1612 9.85534 36.9559 9.72701 36.7826C9.60509 36.6094 9.4575 36.4778 9.28425 36.388C9.11742 36.2917 8.93454 36.2436 8.73562 36.2436C8.52387 36.2436 8.33137 36.2917 8.15811 36.388C7.99128 36.4778 7.84369 36.6094 7.71536 36.7826C7.59344 36.9559 7.49719 37.1612 7.4266 37.3986C7.36244 37.6361 7.33035 37.8991 7.33035 38.1879C7.33035 38.4767 7.36244 38.7397 7.4266 38.9772C7.49719 39.2146 7.59344 39.4199 7.71536 39.5932C7.84369 39.76 7.99128 39.8915 8.15811 39.9878C8.33137 40.0776 8.52387 40.1225 8.73562 40.1225C8.93454 40.1225 9.11742 40.0776 9.28425 39.9878C9.4575 39.8915 9.60509 39.76 9.72701 39.5932C9.85534 39.4199 9.95159 39.2146 10.0158 38.9772C10.0863 38.7397 10.1216 38.4767 10.1216 38.1879Z" fill="white" fill-opacity="0.7"/>
<path d="M4.30536 9.04711V10H0.628562V9.04711H1.99533V5.68795C1.93758 5.76495 1.84774 5.84516 1.72583 5.92858C1.60391 6.01199 1.46916 6.08899 1.32157 6.15958C1.17399 6.23016 1.01998 6.29112 0.859565 6.34246C0.699146 6.38737 0.557978 6.40983 0.43606 6.40983V5.41844C0.564395 5.41844 0.71198 5.37994 0.878815 5.30294C1.05207 5.22594 1.21569 5.13611 1.3697 5.03344C1.53011 4.93077 1.66807 4.8281 1.78358 4.72544C1.90549 4.62277 1.97608 4.54898 1.99533 4.50406H3.08297V9.04711H4.30536ZM9.95244 7.17984C9.95244 7.60335 9.88828 7.99477 9.75994 8.35411C9.63802 8.70703 9.46477 9.01503 9.24018 9.27812C9.02201 9.53479 8.76214 9.73691 8.46055 9.8845C8.16538 10.0257 7.84133 10.0963 7.48841 10.0963C7.13549 10.0963 6.80824 10.0257 6.50665 9.8845C6.20506 9.73691 5.94519 9.53479 5.72702 9.27812C5.50885 9.01503 5.3356 8.70703 5.20726 8.35411C5.08534 7.99477 5.02438 7.60335 5.02438 7.17984C5.02438 6.75634 5.08534 6.36812 5.20726 6.0152C5.3356 5.65586 5.50885 5.34786 5.72702 5.09119C5.94519 4.8281 6.20506 4.62277 6.50665 4.47518C6.80824 4.3276 7.13549 4.25381 7.48841 4.25381C7.84133 4.25381 8.16538 4.3276 8.46055 4.47518C8.76214 4.62277 9.02201 4.8281 9.24018 5.09119C9.46477 5.34786 9.63802 5.65586 9.75994 6.0152C9.88828 6.36812 9.95244 6.75634 9.95244 7.17984ZM8.87443 7.17984C8.87443 6.89109 8.83914 6.628 8.76855 6.39058C8.70439 6.15316 8.60813 5.94783 8.4798 5.77457C8.35788 5.60132 8.2103 5.46978 8.03704 5.37994C7.87021 5.28369 7.68733 5.23557 7.48841 5.23557C7.27666 5.23557 7.08416 5.28369 6.91091 5.37994C6.74407 5.46978 6.59649 5.60132 6.46815 5.77457C6.34623 5.94783 6.24998 6.15316 6.1794 6.39058C6.11523 6.628 6.08315 6.89109 6.08315 7.17984C6.08315 7.46859 6.11523 7.73168 6.1794 7.9691C6.24998 8.20652 6.34623 8.41186 6.46815 8.58511C6.59649 8.75194 6.74407 8.88349 6.91091 8.97974C7.08416 9.06957 7.27666 9.11449 7.48841 9.11449C7.68733 9.11449 7.87021 9.06957 8.03704 8.97974C8.2103 8.88349 8.35788 8.75194 8.4798 8.58511C8.60813 8.41186 8.70439 8.20652 8.76855 7.9691C8.83914 7.73168 8.87443 7.46859 8.87443 7.17984ZM15.8647 7.17984C15.8647 7.60335 15.8006 7.99477 15.6722 8.35411C15.5503 8.70703 15.3771 9.01503 15.1525 9.27812C14.9343 9.53479 14.6744 9.73691 14.3729 9.8845C14.0777 10.0257 13.7536 10.0963 13.4007 10.0963C13.0478 10.0963 12.7205 10.0257 12.419 9.8845C12.1174 9.73691 11.8575 9.53479 11.6393 9.27812C11.4211 9.01503 11.2479 8.70703 11.1196 8.35411C10.9976 7.99477 10.9367 7.60335 10.9367 7.17984C10.9367 6.75634 10.9976 6.36812 11.1196 6.0152C11.2479 5.65586 11.4211 5.34786 11.6393 5.09119C11.8575 4.8281 12.1174 4.62277 12.419 4.47518C12.7205 4.3276 13.0478 4.25381 13.4007 4.25381C13.7536 4.25381 14.0777 4.3276 14.3729 4.47518C14.6744 4.62277 14.9343 4.8281 15.1525 5.09119C15.3771 5.34786 15.5503 5.65586 15.6722 6.0152C15.8006 6.36812 15.8647 6.75634 15.8647 7.17984ZM14.7867 7.17984C14.7867 6.89109 14.7514 6.628 14.6809 6.39058C14.6167 6.15316 14.5204 5.94783 14.3921 5.77457C14.2702 5.60132 14.1226 5.46978 13.9493 5.37994C13.7825 5.28369 13.5996 5.23557 13.4007 5.23557C13.189 5.23557 12.9965 5.28369 12.8232 5.37994C12.6564 5.46978 12.5088 5.60132 12.3805 5.77457C12.2585 5.94783 12.1623 6.15316 12.0917 6.39058C12.0275 6.628 11.9954 6.89109 11.9954 7.17984C11.9954 7.46859 12.0275 7.73168 12.0917 7.9691C12.1623 8.20652 12.2585 8.41186 12.3805 8.58511C12.5088 8.75194 12.6564 8.88349 12.8232 8.97974C12.9965 9.06957 13.189 9.11449 13.4007 9.11449C13.5996 9.11449 13.7825 9.06957 13.9493 8.97974C14.1226 8.88349 14.2702 8.75194 14.3921 8.58511C14.5204 8.41186 14.6167 8.20652 14.6809 7.9691C14.7514 7.73168 14.7867 7.46859 14.7867 7.17984Z" fill="white" fill-opacity="0.7"/>
<line x1="32" y1="6.59895" x2="416" y2="6.59895" stroke="#4A4A4A" stroke-width="0.802093"/>
<line x1="32" y1="97.599" x2="416" y2="97.599" stroke="#4A4A4A" stroke-width="0.802093"/>
<line x1="32" y1="38.599" x2="416" y2="38.599" stroke="#4A4A4A" stroke-width="0.802093"/>
<line x1="32" y1="130.599" x2="416" y2="130.599" stroke="#4A4A4A" stroke-width="0.802093"/>
<line x1="32" y1="69.599" x2="416" y2="69.599" stroke="#4A4A4A" stroke-width="0.802093"/>
<line x1="32" y1="164.599" x2="416" y2="164.599" stroke="#4A4A4A" stroke-width="0.802093"/>
<line x1="116.077" y1="164.571" x2="116.077" y2="6.95659" stroke="#4A4A4A" stroke-width="0.802093"/>
<line x1="230.125" y1="164.571" x2="230.125" y2="6.95647" stroke="#4A4A4A" stroke-width="0.802093"/>
<line x1="173.201" y1="164.571" x2="173.201" y2="6.95647" stroke="#4A4A4A" stroke-width="0.802093"/>
<line x1="287.052" y1="164.571" x2="287.052" y2="6.95647" stroke="#4A4A4A" stroke-width="0.802093"/>
<line x1="343.712" y1="164.571" x2="343.712" y2="6.95659" stroke="#4A4A4A" stroke-width="0.802093"/>
<rect x="226.823" y="101.419" width="5.34844" height="63.1517" fill="#0F58B3"/>
<rect x="178.029" y="105.21" width="5.34844" height="59.361" fill="#0F58B3"/>
<rect x="259.348" y="126.914" width="5.34844" height="37.6572" fill="#0F58B3"/>
<rect x="194.291" y="14.6897" width="5.34844" height="149.882" fill="#0F58B3"/>
<rect x="275.609" y="114.011" width="5.34844" height="50.5606" fill="#0F58B3"/>
<rect x="316.266" y="133.964" width="5.34844" height="30.6065" fill="#0F58B3"/>
<rect x="145.501" y="129.961" width="5.34844" height="34.6103" fill="#0F58B3"/>
<rect x="112.976" y="157.577" width="5.34844" height="6.99435" fill="#0F58B3"/>
<rect x="218.688" y="90.5043" width="5.34844" height="74.0667" fill="#0F58B3"/>
<rect x="186.16" y="82.1442" width="5.34844" height="82.4272" fill="#0F58B3"/>
<rect x="267.479" y="116.497" width="5.34844" height="48.074" fill="#0F58B3"/>
<rect x="308.134" y="120.978" width="5.34844" height="43.5935" fill="#0F58B3"/>
<rect x="300.004" y="107.098" width="5.34844" height="57.4737" fill="#0F58B3"/>
<rect x="137.371" y="145.348" width="5.34844" height="19.2234" fill="#0F58B3"/>
<rect x="104.842" y="160.686" width="5.34844" height="3.88483" fill="#0F58B3"/>
<rect x="234.953" y="116.497" width="5.34844" height="48.074" fill="#0F58B3"/>
<rect x="202.424" y="31.0082" width="5.34844" height="133.563" fill="#0F58B3"/>
<rect x="283.743" y="98.4762" width="5.34844" height="66.0948" fill="#0F58B3"/>
<rect x="153.634" y="116.497" width="5.34844" height="48.0739" fill="#0F58B3"/>
<rect x="121.106" y="154.856" width="5.34844" height="9.71519" fill="#0F58B3"/>
<rect x="243.087" y="129.961" width="5.34844" height="34.6104" fill="#0F58B3"/>
<rect x="210.555" y="60.4309" width="5.34844" height="104.14" fill="#0F58B3"/>
<rect x="291.874" y="82.1442" width="5.34844" height="82.4273" fill="#0F58B3"/>
<rect x="332.529" y="154.856" width="5.34844" height="9.71529" fill="#0F58B3"/>
<rect x="340.66" y="160.686" width="5.34844" height="3.88504" fill="#0F58B3"/>
<rect x="324.396" y="147.464" width="5.34844" height="17.1075" fill="#0F58B3"/>
<rect x="161.765" y="114.01" width="5.34844" height="50.5607" fill="#0F58B3"/>
<rect x="169.896" y="109.299" width="5.34844" height="55.2719" fill="#0F58B3"/>
<rect x="129.239" y="150.659" width="5.34844" height="13.9129" fill="#0F58B3"/>
<rect x="251.217" y="138.29" width="5.34844" height="26.2814" fill="#0F58B3"/>
<path d="M66.3506 163.525C88.8614 158.073 137.935 143.171 154.143 127.178C174.402 107.188 178.242 75.783 190.721 65.5518C196.867 60.5132 199.492 59.624 207.343 65.5518C219.549 74.7686 223.134 109.296 237.637 127.178C247.87 139.796 255.386 142.673 267.719 127.178C276.888 109.425 277.356 108.484 283.617 103.327C287.098 100.46 294.971 94.5954 299.541 99.3187C304.11 104.042 308.074 105.356 315.606 127.178C321.359 143.848 334.638 155.044 341.391 157.467C348.144 159.891 372.701 163.525 381.296 163.525" stroke="#FFC600" stroke-width="1.60419"/>
</svg>
